M48
; DRILL file {KiCad 9.0.9-9.0.9~ubuntu24.04.1} date 2026-05-27T14:11:04-0400
; FORMAT={-:-/ absolute / metric / decimal}
; #@! TF.CreationDate,2026-05-27T14:11:04-04:00
; #@! TF.GenerationSoftware,Kicad,Pcbnew,9.0.9-9.0.9~ubuntu24.04.1
; #@! TF.FileFunction,Plated,1,4,PTH
FMAT,2
METRIC
; #@! TA.AperFunction,Plated,PTH,ViaDrill
T1C0.600
; #@! TA.AperFunction,Plated,PTH,ComponentDrill
T2C0.750
; #@! TA.AperFunction,Plated,PTH,ComponentDrill
T3C0.850
; #@! TA.AperFunction,Plated,PTH,ComponentDrill
T4C1.000
%
G90
G05
T1
X106.675Y-87.625
X107.5Y-82.75
X108.0Y-85.25
X109.2Y-93.6
X110.4Y-89.9
X110.4Y-91.2
X111.6Y-85.5
X115.8Y-83.1
X116.1Y-81.3
X116.4Y-86.6
X117.7Y-89.1
X119.1Y-79.9
X119.1Y-92.3
X120.3Y-89.5
X122.6Y-90.3
X123.5Y-80.9
X125.0Y-90.8
X125.4Y-84.6
X125.502Y-85.798
X128.1Y-89.6
X132.4Y-81.5
X133.7Y-81.6
X133.7Y-82.9
X140.7Y-76.9
X141.213Y-94.512
X142.1Y-95.3
X143.2Y-86.3
X143.9Y-82.2
X144.3Y-80.525
X144.7Y-81.5
X145.312Y-77.2
X145.862Y-76.3
X146.3Y-87.875
X146.338Y-77.2
X146.4Y-84.6
X146.4Y-87.0
X146.9Y-76.3
X147.0Y-90.9
X147.0Y-91.9
X147.0Y-92.9
X147.215Y-86.511
X147.725Y-91.4
X147.725Y-92.4
X149.7Y-84.5
X149.8Y-92.2
X150.1Y-80.1
X150.7Y-91.5
X150.7Y-92.6
X150.7Y-93.7
X152.4Y-88.1
X154.4Y-86.9
X157.4Y-88.4
X157.5Y-85.4
X161.6Y-85.3
X161.6Y-88.6
X163.7Y-85.3
X163.8Y-88.6
T2
X125.8Y-74.7
X127.8Y-74.7
T3
X102.3Y-91.6
X106.5Y-91.6
X124.287Y-97.15
X126.787Y-97.15
X129.287Y-97.15
T4
X108.37Y-72.23
X108.37Y-74.77
X110.91Y-72.23
X110.91Y-74.77
X113.45Y-72.23
X113.45Y-74.77
X115.99Y-72.23
X115.99Y-74.77
X118.53Y-72.23
X118.53Y-74.77
X121.07Y-72.23
X121.07Y-74.77
M30
