G04 #@! TF.GenerationSoftware,KiCad,Pcbnew,9.0.9-9.0.9~ubuntu24.04.1*
G04 #@! TF.CreationDate,2026-05-27T14:11:10-04:00*
G04 #@! TF.ProjectId,gripper_hat,67726970-7065-4725-9f68-61742e6b6963,rev?*
G04 #@! TF.SameCoordinates,Original*
G04 #@! TF.FileFunction,Copper,L1,Top*
G04 #@! TF.FilePolarity,Positive*
%FSLAX46Y46*%
G04 Gerber Fmt 4.6, Leading zero omitted, Abs format (unit mm)*
G04 Created by KiCad (PCBNEW 9.0.9-9.0.9~ubuntu24.04.1) date 2026-05-27 14:11:10*
%MOMM*%
%LPD*%
G01*
G04 APERTURE LIST*
G04 Aperture macros list*
%AMRoundRect*
0 Rectangle with rounded corners*
0 $1 Rounding radius*
0 $2 $3 $4 $5 $6 $7 $8 $9 X,Y pos of 4 corners*
0 Add a 4 corners polygon primitive as box body*
4,1,4,$2,$3,$4,$5,$6,$7,$8,$9,$2,$3,0*
0 Add four circle primitives for the rounded corners*
1,1,$1+$1,$2,$3*
1,1,$1+$1,$4,$5*
1,1,$1+$1,$6,$7*
1,1,$1+$1,$8,$9*
0 Add four rect primitives between the rounded corners*
20,1,$1+$1,$2,$3,$4,$5,0*
20,1,$1+$1,$4,$5,$6,$7,0*
20,1,$1+$1,$6,$7,$8,$9,0*
20,1,$1+$1,$8,$9,$2,$3,0*%
G04 Aperture macros list end*
G04 #@! TA.AperFunction,SMDPad,CuDef*
%ADD10R,2.000000X2.000000*%
G04 #@! TD*
G04 #@! TA.AperFunction,SMDPad,CuDef*
%ADD11R,1.300000X2.000000*%
G04 #@! TD*
G04 #@! TA.AperFunction,ComponentPad*
%ADD12RoundRect,0.250000X-0.675000X-0.675000X0.675000X-0.675000X0.675000X0.675000X-0.675000X0.675000X0*%
G04 #@! TD*
G04 #@! TA.AperFunction,ComponentPad*
%ADD13C,1.850000*%
G04 #@! TD*
G04 #@! TA.AperFunction,SMDPad,CuDef*
%ADD14RoundRect,0.250000X-0.650000X0.350000X-0.650000X-0.350000X0.650000X-0.350000X0.650000X0.350000X0*%
G04 #@! TD*
G04 #@! TA.AperFunction,SMDPad,CuDef*
%ADD15RoundRect,0.150000X-0.625000X0.150000X-0.625000X-0.150000X0.625000X-0.150000X0.625000X0.150000X0*%
G04 #@! TD*
G04 #@! TA.AperFunction,SMDPad,CuDef*
%ADD16RoundRect,0.250001X0.499999X0.899999X-0.499999X0.899999X-0.499999X-0.899999X0.499999X-0.899999X0*%
G04 #@! TD*
G04 #@! TA.AperFunction,SMDPad,CuDef*
%ADD17RoundRect,0.175000X0.175000X1.675000X-0.175000X1.675000X-0.175000X-1.675000X0.175000X-1.675000X0*%
G04 #@! TD*
G04 #@! TA.AperFunction,SMDPad,CuDef*
%ADD18RoundRect,0.250000X0.350000X0.650000X-0.350000X0.650000X-0.350000X-0.650000X0.350000X-0.650000X0*%
G04 #@! TD*
G04 #@! TA.AperFunction,SMDPad,CuDef*
%ADD19RoundRect,0.150000X0.150000X0.625000X-0.150000X0.625000X-0.150000X-0.625000X0.150000X-0.625000X0*%
G04 #@! TD*
G04 #@! TA.AperFunction,SMDPad,CuDef*
%ADD20RoundRect,0.200000X0.275000X-0.200000X0.275000X0.200000X-0.275000X0.200000X-0.275000X-0.200000X0*%
G04 #@! TD*
G04 #@! TA.AperFunction,SMDPad,CuDef*
%ADD21RoundRect,0.150000X-0.512500X-0.150000X0.512500X-0.150000X0.512500X0.150000X-0.512500X0.150000X0*%
G04 #@! TD*
G04 #@! TA.AperFunction,ComponentPad*
%ADD22R,1.280000X1.280000*%
G04 #@! TD*
G04 #@! TA.AperFunction,ComponentPad*
%ADD23C,1.280000*%
G04 #@! TD*
G04 #@! TA.AperFunction,SMDPad,CuDef*
%ADD24R,1.100000X0.250000*%
G04 #@! TD*
G04 #@! TA.AperFunction,ComponentPad*
%ADD25RoundRect,0.250000X0.350000X0.625000X-0.350000X0.625000X-0.350000X-0.625000X0.350000X-0.625000X0*%
G04 #@! TD*
G04 #@! TA.AperFunction,ComponentPad*
%ADD26O,1.200000X1.750000*%
G04 #@! TD*
G04 #@! TA.AperFunction,SMDPad,CuDef*
%ADD27RoundRect,0.250000X-0.650000X0.325000X-0.650000X-0.325000X0.650000X-0.325000X0.650000X0.325000X0*%
G04 #@! TD*
G04 #@! TA.AperFunction,SMDPad,CuDef*
%ADD28RoundRect,0.200000X0.200000X0.275000X-0.200000X0.275000X-0.200000X-0.275000X0.200000X-0.275000X0*%
G04 #@! TD*
G04 #@! TA.AperFunction,SMDPad,CuDef*
%ADD29RoundRect,0.250000X-0.325000X-0.650000X0.325000X-0.650000X0.325000X0.650000X-0.325000X0.650000X0*%
G04 #@! TD*
G04 #@! TA.AperFunction,SMDPad,CuDef*
%ADD30RoundRect,0.249999X3.500001X-0.850001X3.500001X0.850001X-3.500001X0.850001X-3.500001X-0.850001X0*%
G04 #@! TD*
G04 #@! TA.AperFunction,SMDPad,CuDef*
%ADD31RoundRect,0.250000X0.550000X-1.500000X0.550000X1.500000X-0.550000X1.500000X-0.550000X-1.500000X0*%
G04 #@! TD*
G04 #@! TA.AperFunction,SMDPad,CuDef*
%ADD32RoundRect,0.200000X-0.200000X-0.275000X0.200000X-0.275000X0.200000X0.275000X-0.200000X0.275000X0*%
G04 #@! TD*
G04 #@! TA.AperFunction,SMDPad,CuDef*
%ADD33RoundRect,0.150000X0.150000X-0.512500X0.150000X0.512500X-0.150000X0.512500X-0.150000X-0.512500X0*%
G04 #@! TD*
G04 #@! TA.AperFunction,SMDPad,CuDef*
%ADD34RoundRect,0.225000X0.225000X0.250000X-0.225000X0.250000X-0.225000X-0.250000X0.225000X-0.250000X0*%
G04 #@! TD*
G04 #@! TA.AperFunction,SMDPad,CuDef*
%ADD35RoundRect,0.250000X0.325000X0.650000X-0.325000X0.650000X-0.325000X-0.650000X0.325000X-0.650000X0*%
G04 #@! TD*
G04 #@! TA.AperFunction,SMDPad,CuDef*
%ADD36RoundRect,0.225000X-0.225000X-0.250000X0.225000X-0.250000X0.225000X0.250000X-0.225000X0.250000X0*%
G04 #@! TD*
G04 #@! TA.AperFunction,SMDPad,CuDef*
%ADD37RoundRect,0.225000X0.250000X-0.225000X0.250000X0.225000X-0.250000X0.225000X-0.250000X-0.225000X0*%
G04 #@! TD*
G04 #@! TA.AperFunction,SMDPad,CuDef*
%ADD38RoundRect,0.200000X-0.275000X0.200000X-0.275000X-0.200000X0.275000X-0.200000X0.275000X0.200000X0*%
G04 #@! TD*
G04 #@! TA.AperFunction,SMDPad,CuDef*
%ADD39RoundRect,0.150000X0.587500X0.150000X-0.587500X0.150000X-0.587500X-0.150000X0.587500X-0.150000X0*%
G04 #@! TD*
G04 #@! TA.AperFunction,SMDPad,CuDef*
%ADD40RoundRect,0.075000X-0.350000X-0.075000X0.350000X-0.075000X0.350000X0.075000X-0.350000X0.075000X0*%
G04 #@! TD*
G04 #@! TA.AperFunction,SMDPad,CuDef*
%ADD41RoundRect,0.075000X0.075000X-0.350000X0.075000X0.350000X-0.075000X0.350000X-0.075000X-0.350000X0*%
G04 #@! TD*
G04 #@! TA.AperFunction,SMDPad,CuDef*
%ADD42RoundRect,0.250000X-1.500000X-0.550000X1.500000X-0.550000X1.500000X0.550000X-1.500000X0.550000X0*%
G04 #@! TD*
G04 #@! TA.AperFunction,SMDPad,CuDef*
%ADD43RoundRect,0.218750X0.256250X-0.218750X0.256250X0.218750X-0.256250X0.218750X-0.256250X-0.218750X0*%
G04 #@! TD*
G04 #@! TA.AperFunction,ComponentPad*
%ADD44R,1.700000X1.700000*%
G04 #@! TD*
G04 #@! TA.AperFunction,ComponentPad*
%ADD45O,1.700000X1.700000*%
G04 #@! TD*
G04 #@! TA.AperFunction,ViaPad*
%ADD46C,0.900000*%
G04 #@! TD*
G04 #@! TA.AperFunction,Conductor*
%ADD47C,0.250000*%
G04 #@! TD*
G04 #@! TA.AperFunction,Conductor*
%ADD48C,0.500000*%
G04 #@! TD*
G04 #@! TA.AperFunction,Conductor*
%ADD49C,1.000000*%
G04 #@! TD*
G04 #@! TA.AperFunction,Conductor*
%ADD50C,0.750000*%
G04 #@! TD*
G04 #@! TA.AperFunction,Conductor*
%ADD51C,1.500000*%
G04 #@! TD*
G04 #@! TA.AperFunction,Conductor*
%ADD52C,0.400000*%
G04 #@! TD*
G04 APERTURE END LIST*
D10*
X117950000Y-94000000D03*
D11*
X119100000Y-98000000D03*
X116800000Y-98000000D03*
D12*
X102300000Y-91600000D03*
D13*
X106500000Y-91600000D03*
D14*
X101625000Y-87550000D03*
X101625000Y-81950000D03*
D15*
X105500000Y-86250000D03*
X105500000Y-85250000D03*
X105500000Y-84250000D03*
X105500000Y-83250000D03*
D16*
X146200000Y-97200000D03*
X151800000Y-97200000D03*
D17*
X148250000Y-95100000D03*
X149750000Y-95100000D03*
D18*
X109200000Y-96925000D03*
X112800000Y-96925000D03*
D19*
X110500000Y-94400000D03*
X111500000Y-94400000D03*
D20*
X152400000Y-90925000D03*
X152400000Y-89275000D03*
D21*
X145862500Y-78550000D03*
X145862500Y-79500000D03*
X145862500Y-80450000D03*
X148137500Y-80450000D03*
X148137500Y-79500000D03*
X148137500Y-78550000D03*
D22*
X124287500Y-97150000D03*
D23*
X126787500Y-97150000D03*
X129287500Y-97150000D03*
D24*
X116200000Y-90100000D03*
X116200000Y-89600000D03*
X116200000Y-89100000D03*
X116200000Y-88600000D03*
X116200000Y-88100000D03*
X111900000Y-88100000D03*
X111900000Y-88600000D03*
X111900000Y-89100000D03*
X111900000Y-89600000D03*
X111900000Y-90100000D03*
D25*
X127800000Y-74700000D03*
D26*
X125800000Y-74700000D03*
D27*
X136900000Y-92925000D03*
X136900000Y-95875000D03*
D28*
X126725000Y-92200000D03*
X125075000Y-92200000D03*
D27*
X150000000Y-72025000D03*
X150000000Y-74975000D03*
D29*
X146425000Y-82800000D03*
X149375000Y-82800000D03*
D30*
X139000000Y-80600000D03*
X139000000Y-74600000D03*
D31*
X132400000Y-89700000D03*
X132400000Y-84300000D03*
D32*
X121775000Y-92200000D03*
X123425000Y-92200000D03*
D33*
X122600000Y-89000000D03*
X123550000Y-89000000D03*
X124500000Y-89000000D03*
X124500000Y-86725000D03*
X122600000Y-86725000D03*
D27*
X134300000Y-92900000D03*
X134300000Y-95850000D03*
D34*
X150675000Y-86200000D03*
X149125000Y-86200000D03*
D27*
X139500000Y-92925000D03*
X139500000Y-95875000D03*
D20*
X126200000Y-82850000D03*
X126200000Y-81200000D03*
D35*
X145475000Y-93200000D03*
X142525000Y-93200000D03*
D36*
X119050000Y-83400000D03*
X120600000Y-83400000D03*
D28*
X119925000Y-90700000D03*
X118275000Y-90700000D03*
D34*
X114450000Y-85400000D03*
X112900000Y-85400000D03*
D36*
X107750000Y-88700000D03*
X109300000Y-88700000D03*
D37*
X151400000Y-82025000D03*
X151400000Y-80475000D03*
X154100000Y-90900000D03*
X154100000Y-89350000D03*
D27*
X147400000Y-72025000D03*
X147400000Y-74975000D03*
D38*
X128500000Y-90975000D03*
X128500000Y-92625000D03*
D32*
X152375000Y-92500000D03*
X154025000Y-92500000D03*
D39*
X120137500Y-87950000D03*
X120137500Y-86050000D03*
X118262500Y-87000000D03*
D33*
X122400000Y-83500000D03*
X123350000Y-83500000D03*
X124300000Y-83500000D03*
X124300000Y-81225000D03*
X122400000Y-81225000D03*
D37*
X151400000Y-78900000D03*
X151400000Y-77350000D03*
D38*
X153100000Y-77200000D03*
X153100000Y-78850000D03*
X131800000Y-74462500D03*
X131800000Y-76112500D03*
D27*
X144800000Y-72025000D03*
X144800000Y-74975000D03*
D40*
X110700000Y-80600000D03*
X110700000Y-81100000D03*
X110700000Y-81600000D03*
X110700000Y-82100000D03*
X110700000Y-82600000D03*
X110700000Y-83100000D03*
D41*
X111400000Y-83800000D03*
X111900000Y-83800000D03*
X112400000Y-83800000D03*
X112900000Y-83800000D03*
X113400000Y-83800000D03*
X113900000Y-83800000D03*
D40*
X114600000Y-83100000D03*
X114600000Y-82600000D03*
X114600000Y-82100000D03*
X114600000Y-81600000D03*
X114600000Y-81100000D03*
X114600000Y-80600000D03*
D41*
X113900000Y-79900000D03*
X113400000Y-79900000D03*
X112900000Y-79900000D03*
X112400000Y-79900000D03*
X111900000Y-79900000D03*
X111400000Y-79900000D03*
D42*
X157000000Y-86900000D03*
X162400000Y-86900000D03*
D43*
X131800000Y-79287500D03*
X131800000Y-77712500D03*
D36*
X116225000Y-79900000D03*
X117775000Y-79900000D03*
D20*
X153100000Y-82050000D03*
X153100000Y-80400000D03*
D21*
X147725000Y-87950000D03*
X147725000Y-88900000D03*
X147725000Y-89850000D03*
X150000000Y-89850000D03*
X150000000Y-88900000D03*
X150000000Y-87950000D03*
D20*
X126600000Y-88850000D03*
X126600000Y-87200000D03*
D30*
X141000000Y-90300000D03*
X141000000Y-84300000D03*
D44*
X108370000Y-74770000D03*
D45*
X108370000Y-72230000D03*
X110910000Y-74770000D03*
X110910000Y-72230000D03*
X113450000Y-74770000D03*
X113450000Y-72230000D03*
X115990000Y-74770000D03*
X115990000Y-72230000D03*
X118530000Y-74770000D03*
X118530000Y-72230000D03*
X121070000Y-74770000D03*
X121070000Y-72230000D03*
D46*
X128100000Y-89600000D03*
X111600000Y-85500000D03*
X133700000Y-81600000D03*
X132400000Y-81500000D03*
X145862500Y-76300000D03*
X150700000Y-92600000D03*
X109200000Y-93600000D03*
X150700000Y-93700000D03*
X146300000Y-87875000D03*
X133700000Y-82900000D03*
X163700000Y-85300000D03*
X125400000Y-84600000D03*
X147214620Y-86511228D03*
X149800000Y-92200000D03*
X116100000Y-81300000D03*
X150700000Y-91500000D03*
X146900000Y-76300000D03*
X146337500Y-77200000D03*
X142100000Y-95300000D03*
X149700000Y-84500000D03*
X146400000Y-87000000D03*
X119100000Y-79900000D03*
X161600000Y-88600000D03*
X117700000Y-89100000D03*
X141212500Y-94512500D03*
X145312500Y-77200000D03*
X106675000Y-87625000D03*
X161600000Y-85300000D03*
X163800000Y-88600000D03*
X108000000Y-85250000D03*
X110400000Y-89900000D03*
X107500000Y-82750000D03*
X110400000Y-91200000D03*
X120300000Y-89500000D03*
X123500000Y-80900000D03*
X150100000Y-80100000D03*
X140700000Y-76900000D03*
X115800000Y-83100000D03*
X116400000Y-86600000D03*
X122600000Y-90300000D03*
X125000000Y-90800000D03*
X146400000Y-84600000D03*
X147725000Y-92400000D03*
X144300000Y-80525000D03*
X147000000Y-92900000D03*
X144700000Y-81500000D03*
X147725000Y-91400000D03*
X147000000Y-90900000D03*
X157400000Y-88400000D03*
X154400000Y-86900000D03*
X143900000Y-82200000D03*
X157500000Y-85400000D03*
X147000000Y-91900000D03*
X143200000Y-86300000D03*
X152400000Y-88100000D03*
X125501992Y-85798008D03*
X119100000Y-92300000D03*
D47*
X128500000Y-90000000D02*
X128100000Y-89600000D01*
X128500000Y-90975000D02*
X128500000Y-90000000D01*
X128500000Y-92625000D02*
X127674000Y-93451000D01*
X127674000Y-93451000D02*
X120251000Y-93451000D01*
X120251000Y-93451000D02*
X119100000Y-92300000D01*
X116200000Y-88100000D02*
X114463604Y-88100000D01*
X114463604Y-88100000D02*
X113400000Y-89163604D01*
X113400000Y-89163604D02*
X113400000Y-89925000D01*
X113400000Y-89925000D02*
X110800000Y-92525000D01*
X110800000Y-92525000D02*
X107425000Y-92525000D01*
X107425000Y-92525000D02*
X106500000Y-91600000D01*
D48*
X109200000Y-93600000D02*
X109700000Y-93600000D01*
X109700000Y-93600000D02*
X110500000Y-94400000D01*
D47*
X119100000Y-98000000D02*
X114400000Y-93300000D01*
X114400000Y-93300000D02*
X114400000Y-92900000D01*
X117950000Y-94000000D02*
X117950000Y-93450000D01*
X117950000Y-93450000D02*
X119100000Y-92300000D01*
X116200000Y-88600000D02*
X114600000Y-88600000D01*
X114600000Y-88600000D02*
X114400000Y-88800000D01*
X114400000Y-88800000D02*
X114400000Y-92900000D01*
X114400000Y-92900000D02*
X113000000Y-92900000D01*
X113000000Y-92900000D02*
X111500000Y-94400000D01*
D49*
X149750000Y-95100000D02*
X149750000Y-93300000D01*
D50*
X146337500Y-76037500D02*
X146337500Y-76900000D01*
D47*
X150800000Y-92500000D02*
X150700000Y-92600000D01*
D50*
X145862500Y-78550000D02*
X145862500Y-76300000D01*
D47*
X150875000Y-74975000D02*
X150000000Y-74975000D01*
D50*
X149375000Y-84175000D02*
X149700000Y-84500000D01*
D47*
X115400000Y-80600000D02*
X116100000Y-81300000D01*
D51*
X133700000Y-82900000D02*
X133700000Y-81600000D01*
D50*
X145862500Y-76037500D02*
X145312500Y-75487500D01*
D48*
X131800000Y-79287500D02*
X131800000Y-80900000D01*
D51*
X162400000Y-87800000D02*
X161600000Y-88600000D01*
D50*
X147725000Y-87950000D02*
X146375000Y-87950000D01*
X147300000Y-75900000D02*
X149075000Y-75900000D01*
X147214620Y-86511228D02*
X147000000Y-86725848D01*
D51*
X141212500Y-94512500D02*
X141312500Y-94512500D01*
D47*
X116200000Y-89100000D02*
X117700000Y-89100000D01*
X112400000Y-83800000D02*
X112400000Y-84900000D01*
D50*
X145312500Y-78087500D02*
X145312500Y-77200000D01*
D51*
X162400000Y-86900000D02*
X162400000Y-86100000D01*
D47*
X153100000Y-77200000D02*
X150875000Y-74975000D01*
D51*
X132500000Y-81600000D02*
X132400000Y-81500000D01*
D50*
X145862500Y-76037500D02*
X146337500Y-76037500D01*
D47*
X115324000Y-89149000D02*
X115373000Y-89100000D01*
D50*
X146900000Y-76300000D02*
X147300000Y-75900000D01*
D49*
X150700000Y-94500000D02*
X150700000Y-93700000D01*
X149750000Y-93300000D02*
X149750000Y-92250000D01*
D50*
X147725000Y-87950000D02*
X147725000Y-85500000D01*
D51*
X139500000Y-95875000D02*
X139850000Y-95875000D01*
D48*
X105500000Y-86250000D02*
X105500000Y-86450000D01*
D47*
X115373000Y-90100000D02*
X115324000Y-90051000D01*
D50*
X149375000Y-83850000D02*
X149375000Y-82800000D01*
D51*
X133700000Y-81600000D02*
X133700000Y-81400000D01*
X134325000Y-95875000D02*
X134300000Y-95850000D01*
X139500000Y-95875000D02*
X134325000Y-95875000D01*
D49*
X150700000Y-93700000D02*
X150700000Y-92600000D01*
D50*
X149075000Y-75900000D02*
X150000000Y-74975000D01*
X145862500Y-78550000D02*
X145750000Y-78550000D01*
D47*
X126300000Y-87200000D02*
X126600000Y-87200000D01*
D50*
X145312500Y-75487500D02*
X144800000Y-74975000D01*
X147000000Y-86725848D02*
X147000000Y-87600000D01*
D47*
X126600000Y-85800000D02*
X126600000Y-87200000D01*
D49*
X149750000Y-92250000D02*
X149800000Y-92200000D01*
D51*
X162400000Y-86900000D02*
X162400000Y-87200000D01*
D50*
X145312500Y-77200000D02*
X145312500Y-75487500D01*
D51*
X141212500Y-94512500D02*
X142525000Y-93200000D01*
D47*
X116200000Y-90100000D02*
X115373000Y-90100000D01*
X112400000Y-84900000D02*
X111800000Y-85500000D01*
D51*
X141062500Y-94662500D02*
X141212500Y-94512500D01*
D50*
X149375000Y-82800000D02*
X149375000Y-84175000D01*
X146337500Y-76900000D02*
X146337500Y-76862500D01*
D51*
X162400000Y-86900000D02*
X162400000Y-87800000D01*
D47*
X125400000Y-84600000D02*
X126600000Y-85800000D01*
D48*
X105500000Y-86450000D02*
X106675000Y-87625000D01*
D50*
X146337500Y-76900000D02*
X146337500Y-77200000D01*
X145300000Y-78100000D02*
X145312500Y-78087500D01*
D47*
X115324000Y-90051000D02*
X115324000Y-89149000D01*
X113050000Y-85400000D02*
X112900000Y-85250000D01*
X119050000Y-83400000D02*
X119050000Y-79950000D01*
X119050000Y-79950000D02*
X119100000Y-79900000D01*
D48*
X106675000Y-87625000D02*
X107750000Y-88700000D01*
D51*
X133700000Y-83000000D02*
X133700000Y-82900000D01*
X139500000Y-95875000D02*
X136900000Y-95875000D01*
D50*
X142525000Y-93200000D02*
X142525000Y-93575000D01*
D47*
X124300000Y-83500000D02*
X125400000Y-84600000D01*
D51*
X132400000Y-84300000D02*
X133700000Y-83000000D01*
D50*
X146337500Y-76037500D02*
X147400000Y-74975000D01*
X146337500Y-78075000D02*
X145862500Y-78550000D01*
D47*
X111800000Y-85500000D02*
X111600000Y-85500000D01*
X117775000Y-79900000D02*
X119100000Y-79900000D01*
D50*
X147725000Y-87021608D02*
X147214620Y-86511228D01*
D51*
X162400000Y-86900000D02*
X162400000Y-86600000D01*
X162400000Y-87200000D02*
X163800000Y-88600000D01*
D50*
X146337500Y-77200000D02*
X146337500Y-78075000D01*
X145750000Y-78550000D02*
X145300000Y-78100000D01*
X147350000Y-87950000D02*
X147000000Y-87600000D01*
D51*
X133700000Y-81600000D02*
X132500000Y-81600000D01*
D50*
X146475000Y-75900000D02*
X147300000Y-75900000D01*
X146337500Y-76862500D02*
X146900000Y-76300000D01*
X146337500Y-76037500D02*
X146475000Y-75900000D01*
X147725000Y-87950000D02*
X147725000Y-87021608D01*
D51*
X162400000Y-86600000D02*
X163700000Y-85300000D01*
X162400000Y-86100000D02*
X161600000Y-85300000D01*
D49*
X149750000Y-95100000D02*
X150100000Y-95100000D01*
D47*
X115373000Y-89100000D02*
X116200000Y-89100000D01*
D51*
X132400000Y-84300000D02*
X132400000Y-81500000D01*
D50*
X146375000Y-87950000D02*
X146300000Y-87875000D01*
X147725000Y-87950000D02*
X147350000Y-87950000D01*
D47*
X112400000Y-84900000D02*
X112900000Y-85400000D01*
D49*
X150100000Y-95100000D02*
X150700000Y-94500000D01*
D47*
X124500000Y-89000000D02*
X126300000Y-87200000D01*
X114600000Y-80600000D02*
X115400000Y-80600000D01*
D50*
X145862500Y-76300000D02*
X145862500Y-76037500D01*
D51*
X139850000Y-95875000D02*
X141062500Y-94662500D01*
D48*
X131800000Y-80900000D02*
X132400000Y-81500000D01*
D50*
X147000000Y-87600000D02*
X146400000Y-87000000D01*
D51*
X141312500Y-94512500D02*
X142100000Y-95300000D01*
D47*
X152375000Y-92500000D02*
X150800000Y-92500000D01*
D49*
X150700000Y-92600000D02*
X150700000Y-91500000D01*
D50*
X147725000Y-85500000D02*
X149375000Y-83850000D01*
D47*
X111900000Y-89600000D02*
X110700000Y-89600000D01*
X108276000Y-84974000D02*
X108276000Y-80776000D01*
X111400000Y-78330000D02*
X110910000Y-77840000D01*
X108276000Y-80776000D02*
X108125000Y-80625000D01*
X110910000Y-77840000D02*
X110910000Y-74770000D01*
X111400000Y-79900000D02*
X111400000Y-78330000D01*
X110700000Y-89600000D02*
X110400000Y-89900000D01*
X108000000Y-85250000D02*
X108276000Y-84974000D01*
X105500000Y-83250000D02*
X108125000Y-80625000D01*
X108125000Y-80625000D02*
X110910000Y-77840000D01*
X111900000Y-90100000D02*
X111500000Y-90100000D01*
X111500000Y-90100000D02*
X110400000Y-91200000D01*
X111900000Y-79900000D02*
X111900000Y-76320000D01*
X111900000Y-76320000D02*
X113450000Y-74770000D01*
X107000000Y-84250000D02*
X105500000Y-84250000D01*
X113450000Y-74770000D02*
X113940000Y-75260000D01*
X107500000Y-83750000D02*
X107500000Y-82750000D01*
X107500000Y-83750000D02*
X107000000Y-84250000D01*
X117000000Y-82997430D02*
X117000000Y-75780000D01*
X116047430Y-83950000D02*
X117000000Y-82997430D01*
X113900000Y-83800000D02*
X114050000Y-83950000D01*
X117000000Y-75780000D02*
X115990000Y-74770000D01*
X115481724Y-74770000D02*
X115990000Y-74770000D01*
X114050000Y-83950000D02*
X116047430Y-83950000D01*
X121201000Y-93001000D02*
X119925000Y-91725000D01*
X119925000Y-91725000D02*
X119925000Y-90700000D01*
X119925000Y-89875000D02*
X120300000Y-89500000D01*
X123425000Y-89125000D02*
X123550000Y-89000000D01*
X119925000Y-90700000D02*
X119925000Y-89875000D01*
X115990000Y-72230000D02*
X115990000Y-72801387D01*
X123425000Y-92200000D02*
X122624000Y-93001000D01*
X122624000Y-93001000D02*
X121201000Y-93001000D01*
X123550000Y-92075000D02*
X123425000Y-92200000D01*
X123425000Y-92200000D02*
X123425000Y-89125000D01*
X124300000Y-81225000D02*
X123825000Y-81225000D01*
X123825000Y-81225000D02*
X123500000Y-80900000D01*
X124300000Y-81225000D02*
X125925000Y-82850000D01*
X125925000Y-82850000D02*
X126200000Y-82850000D01*
D50*
X141575000Y-72025000D02*
X139000000Y-74600000D01*
X131800000Y-74462500D02*
X131800000Y-73499000D01*
D47*
X153100000Y-80400000D02*
X151475000Y-80400000D01*
X140600000Y-76200000D02*
X139000000Y-74600000D01*
D50*
X144800000Y-72025000D02*
X141575000Y-72025000D01*
X137899000Y-73499000D02*
X131800000Y-73499000D01*
D48*
X110910000Y-72230000D02*
X108370000Y-72230000D01*
D50*
X150000000Y-72025000D02*
X147400000Y-72025000D01*
X127800000Y-74700000D02*
X123904000Y-70804000D01*
D47*
X151475000Y-80400000D02*
X151400000Y-80475000D01*
D50*
X131800000Y-73499000D02*
X129001000Y-73499000D01*
X147400000Y-72025000D02*
X144800000Y-72025000D01*
X129001000Y-73499000D02*
X127800000Y-74700000D01*
D47*
X140700000Y-76900000D02*
X140600000Y-76800000D01*
D50*
X112336000Y-70804000D02*
X110910000Y-72230000D01*
X139000000Y-74600000D02*
X137899000Y-73499000D01*
D47*
X150475000Y-80475000D02*
X150100000Y-80100000D01*
X151400000Y-80475000D02*
X150475000Y-80475000D01*
D50*
X123904000Y-70804000D02*
X112336000Y-70804000D01*
D47*
X140600000Y-76800000D02*
X140600000Y-76200000D01*
D52*
X104324000Y-84673000D02*
X104901000Y-85250000D01*
X104901000Y-85250000D02*
X105500000Y-85250000D01*
X104324000Y-78816000D02*
X104324000Y-84673000D01*
D47*
X122400000Y-80902570D02*
X123178570Y-80124000D01*
X110800000Y-85202570D02*
X110800000Y-87153496D01*
D52*
X116950000Y-86050000D02*
X120137500Y-86050000D01*
D47*
X111100000Y-89100000D02*
X110700000Y-88700000D01*
D52*
X110800000Y-87153496D02*
X111900000Y-87153496D01*
X108700000Y-87153496D02*
X109300000Y-87153496D01*
X108370000Y-74770000D02*
X104324000Y-78816000D01*
D47*
X123178570Y-80124000D02*
X125124000Y-80124000D01*
D52*
X109300000Y-87153496D02*
X110800000Y-87153496D01*
D47*
X118275000Y-90700000D02*
X118337500Y-90762500D01*
X118275000Y-91475000D02*
X119100000Y-92300000D01*
D52*
X106796504Y-85250000D02*
X108700000Y-87153496D01*
D47*
X118275000Y-90700000D02*
X118275000Y-91475000D01*
X121925000Y-86050000D02*
X120137500Y-86050000D01*
X125124000Y-80124000D02*
X126200000Y-81200000D01*
D52*
X111900000Y-87153496D02*
X115846504Y-87153496D01*
D47*
X109300000Y-88700000D02*
X109300000Y-87153496D01*
D52*
X115846504Y-87153496D02*
X116400000Y-86600000D01*
X120600000Y-83025000D02*
X122400000Y-81225000D01*
X105500000Y-85250000D02*
X106796504Y-85250000D01*
X122400000Y-80796504D02*
X122400000Y-81225000D01*
D47*
X114600000Y-83100000D02*
X115800000Y-83100000D01*
D52*
X120600000Y-83400000D02*
X120600000Y-83025000D01*
D47*
X111278570Y-84724000D02*
X110800000Y-85202570D01*
X121925000Y-86050000D02*
X122600000Y-86725000D01*
X111900000Y-83800000D02*
X111900000Y-84724000D01*
D52*
X120600000Y-83400000D02*
X120600000Y-85587500D01*
X120600000Y-85587500D02*
X120137500Y-86050000D01*
D47*
X111900000Y-89100000D02*
X111100000Y-89100000D01*
D52*
X116400000Y-86600000D02*
X116950000Y-86050000D01*
D47*
X110700000Y-88700000D02*
X109300000Y-88700000D01*
X122400000Y-81225000D02*
X122400000Y-80902570D01*
X111900000Y-84724000D02*
X111278570Y-84724000D01*
X121775000Y-89587500D02*
X121775000Y-92200000D01*
X120137500Y-87950000D02*
X121775000Y-89587500D01*
X125000000Y-90800000D02*
X125000000Y-92125000D01*
X123226000Y-87711501D02*
X123226000Y-84988499D01*
X122600000Y-88737501D02*
X122600000Y-89000000D01*
X123226000Y-87711501D02*
X122600000Y-88337501D01*
X120862499Y-87000000D02*
X122600000Y-88737501D01*
X122600000Y-90300000D02*
X122600000Y-89000000D01*
X122400000Y-84162499D02*
X123226000Y-84988499D01*
X122400000Y-83500000D02*
X122400000Y-84162499D01*
X122600000Y-88337501D02*
X122600000Y-89000000D01*
X125000000Y-92125000D02*
X125075000Y-92200000D01*
X125075000Y-92200000D02*
X125126000Y-92149000D01*
X120862499Y-87000000D02*
X118262500Y-87000000D01*
X113656822Y-79149000D02*
X113400000Y-79405822D01*
X113400000Y-79405822D02*
X113400000Y-79900000D01*
X116225000Y-79900000D02*
X115474000Y-79149000D01*
X115474000Y-79149000D02*
X113656822Y-79149000D01*
X113601000Y-84551000D02*
X114450000Y-85400000D01*
X112900000Y-84294178D02*
X113156822Y-84551000D01*
X113156822Y-84551000D02*
X113601000Y-84551000D01*
X112900000Y-83800000D02*
X112900000Y-84294178D01*
X152400000Y-90925000D02*
X154075000Y-90925000D01*
X154025000Y-90975000D02*
X154100000Y-90900000D01*
X154025000Y-92500000D02*
X154025000Y-90975000D01*
X151325000Y-89850000D02*
X152400000Y-90925000D01*
X154075000Y-90925000D02*
X154100000Y-90900000D01*
X150000000Y-89850000D02*
X151325000Y-89850000D01*
D50*
X146425000Y-81012500D02*
X145862500Y-80450000D01*
X144375000Y-80450000D02*
X144300000Y-80525000D01*
X146425000Y-82800000D02*
X146425000Y-81012500D01*
X147000000Y-92900000D02*
X147000000Y-91900000D01*
X144700000Y-81500000D02*
X144600000Y-81500000D01*
X145862500Y-80450000D02*
X145750000Y-80450000D01*
X145750000Y-80450000D02*
X144700000Y-81500000D01*
X148250000Y-95100000D02*
X147050000Y-93900000D01*
D51*
X146700000Y-93200000D02*
X147000000Y-92900000D01*
D50*
X147725000Y-92400000D02*
X147725000Y-94575000D01*
X147725000Y-89850000D02*
X147725000Y-91400000D01*
X147000000Y-91900000D02*
X147000000Y-90900000D01*
D51*
X157000000Y-86900000D02*
X154400000Y-86900000D01*
D50*
X147000000Y-93900000D02*
X147000000Y-92900000D01*
X144600000Y-81500000D02*
X143900000Y-82200000D01*
D51*
X157000000Y-86900000D02*
X157000000Y-87000000D01*
D50*
X147050000Y-93900000D02*
X147000000Y-93900000D01*
X145862500Y-80450000D02*
X144375000Y-80450000D01*
X147725000Y-89850000D02*
X147000000Y-89850000D01*
X146425000Y-82800000D02*
X146425000Y-84575000D01*
D51*
X157000000Y-85900000D02*
X157500000Y-85400000D01*
D50*
X147725000Y-94575000D02*
X148250000Y-95100000D01*
X146425000Y-84575000D02*
X146400000Y-84600000D01*
D51*
X145475000Y-93200000D02*
X146700000Y-93200000D01*
X157000000Y-86900000D02*
X157000000Y-88000000D01*
D50*
X147000000Y-90900000D02*
X147000000Y-89850000D01*
D51*
X157000000Y-86900000D02*
X157000000Y-85900000D01*
D50*
X147725000Y-91400000D02*
X147725000Y-92400000D01*
D51*
X157000000Y-88000000D02*
X157400000Y-88400000D01*
D47*
X151400000Y-78900000D02*
X151050000Y-78550000D01*
X151050000Y-78550000D02*
X148137500Y-78550000D01*
X151400000Y-77350000D02*
X147997678Y-77350000D01*
X147997678Y-77350000D02*
X147100000Y-78247678D01*
X147100000Y-78924999D02*
X146524999Y-79500000D01*
X147100000Y-78247678D02*
X147100000Y-78924999D01*
D50*
X140100000Y-79500000D02*
X139000000Y-80600000D01*
X145862500Y-79500000D02*
X140100000Y-79500000D01*
D47*
X146524999Y-79500000D02*
X145862500Y-79500000D01*
X148137500Y-80450000D02*
X149050000Y-80450000D01*
X153901000Y-79651000D02*
X153100000Y-78850000D01*
X153100000Y-82050000D02*
X153901000Y-81249000D01*
X150625000Y-82025000D02*
X151400000Y-82025000D01*
X151400000Y-82025000D02*
X153075000Y-82025000D01*
X149050000Y-80450000D02*
X150625000Y-82025000D01*
X153901000Y-81249000D02*
X153901000Y-79651000D01*
X153075000Y-82025000D02*
X153100000Y-82050000D01*
X150675000Y-87275000D02*
X150000000Y-87950000D01*
X150675000Y-86200000D02*
X150675000Y-87275000D01*
X148387499Y-88900000D02*
X147725000Y-88900000D01*
X149011500Y-86313500D02*
X149011500Y-88275999D01*
D50*
X147725000Y-88900000D02*
X142800000Y-88900000D01*
D47*
X149125000Y-86200000D02*
X149011500Y-86313500D01*
D50*
X142800000Y-88900000D02*
X141000000Y-90700000D01*
D47*
X149011500Y-88275999D02*
X148387499Y-88900000D01*
D51*
X137800000Y-84300000D02*
X141000000Y-84300000D01*
X132400000Y-89700000D02*
X137800000Y-84300000D01*
X132400000Y-91537500D02*
X126787500Y-97150000D01*
D47*
X154100000Y-89350000D02*
X152475000Y-89350000D01*
X152475000Y-89350000D02*
X152400000Y-89275000D01*
D51*
X134300000Y-92900000D02*
X136875000Y-92900000D01*
X132400000Y-89700000D02*
X132400000Y-91000000D01*
X132400000Y-89700000D02*
X132400000Y-91537500D01*
X134325000Y-92925000D02*
X134300000Y-92900000D01*
X136875000Y-92900000D02*
X136900000Y-92925000D01*
D47*
X152400000Y-89275000D02*
X152400000Y-88100000D01*
X143000000Y-86300000D02*
X141000000Y-84300000D01*
D51*
X136900000Y-92925000D02*
X139500000Y-92925000D01*
D47*
X143200000Y-86300000D02*
X143000000Y-86300000D01*
D51*
X132400000Y-91000000D02*
X134300000Y-92900000D01*
D47*
X124673319Y-85798008D02*
X125501992Y-85798008D01*
X124500000Y-85624689D02*
X124500000Y-86725000D01*
X124500000Y-85624689D02*
X124673319Y-85798008D01*
X123350000Y-83500000D02*
X123350000Y-84474689D01*
X123350000Y-84474689D02*
X124500000Y-85624689D01*
X126725000Y-88975000D02*
X126600000Y-88850000D01*
X126725000Y-92200000D02*
X126725000Y-88975000D01*
D48*
X131800000Y-76112500D02*
X131800000Y-77712500D01*
M02*
