G04 #@! TF.GenerationSoftware,KiCad,Pcbnew,9.0.6-9.0.6~ubuntu24.04.1*
G04 #@! TF.CreationDate,2026-04-10T22:19:31-04:00*
G04 #@! TF.ProjectId,anchor_hat,616e6368-6f72-45f6-9861-742e6b696361,rev?*
G04 #@! TF.SameCoordinates,Original*
G04 #@! TF.FileFunction,Legend,Top*
G04 #@! TF.FilePolarity,Positive*
%FSLAX46Y46*%
G04 Gerber Fmt 4.6, Leading zero omitted, Abs format (unit mm)*
G04 Created by KiCad (PCBNEW 9.0.6-9.0.6~ubuntu24.04.1) date 2026-04-10 22:19:31*
%MOMM*%
%LPD*%
G01*
G04 APERTURE LIST*
%ADD10C,0.150000*%
%ADD11C,0.120000*%
%ADD12C,0.250000*%
%ADD13C,0.100000*%
G04 APERTURE END LIST*
D10*
X152289160Y-84922200D02*
X152432017Y-84969819D01*
X152432017Y-84969819D02*
X152670112Y-84969819D01*
X152670112Y-84969819D02*
X152765350Y-84922200D01*
X152765350Y-84922200D02*
X152812969Y-84874580D01*
X152812969Y-84874580D02*
X152860588Y-84779342D01*
X152860588Y-84779342D02*
X152860588Y-84684104D01*
X152860588Y-84684104D02*
X152812969Y-84588866D01*
X152812969Y-84588866D02*
X152765350Y-84541247D01*
X152765350Y-84541247D02*
X152670112Y-84493628D01*
X152670112Y-84493628D02*
X152479636Y-84446009D01*
X152479636Y-84446009D02*
X152384398Y-84398390D01*
X152384398Y-84398390D02*
X152336779Y-84350771D01*
X152336779Y-84350771D02*
X152289160Y-84255533D01*
X152289160Y-84255533D02*
X152289160Y-84160295D01*
X152289160Y-84160295D02*
X152336779Y-84065057D01*
X152336779Y-84065057D02*
X152384398Y-84017438D01*
X152384398Y-84017438D02*
X152479636Y-83969819D01*
X152479636Y-83969819D02*
X152717731Y-83969819D01*
X152717731Y-83969819D02*
X152860588Y-84017438D01*
X153432017Y-84969819D02*
X153336779Y-84922200D01*
X153336779Y-84922200D02*
X153289160Y-84826961D01*
X153289160Y-84826961D02*
X153289160Y-83969819D01*
X153812970Y-84969819D02*
X153812970Y-84303152D01*
X153812970Y-83969819D02*
X153765351Y-84017438D01*
X153765351Y-84017438D02*
X153812970Y-84065057D01*
X153812970Y-84065057D02*
X153860589Y-84017438D01*
X153860589Y-84017438D02*
X153812970Y-83969819D01*
X153812970Y-83969819D02*
X153812970Y-84065057D01*
X154289160Y-84303152D02*
X154289160Y-85303152D01*
X154289160Y-84350771D02*
X154384398Y-84303152D01*
X154384398Y-84303152D02*
X154574874Y-84303152D01*
X154574874Y-84303152D02*
X154670112Y-84350771D01*
X154670112Y-84350771D02*
X154717731Y-84398390D01*
X154717731Y-84398390D02*
X154765350Y-84493628D01*
X154765350Y-84493628D02*
X154765350Y-84779342D01*
X154765350Y-84779342D02*
X154717731Y-84874580D01*
X154717731Y-84874580D02*
X154670112Y-84922200D01*
X154670112Y-84922200D02*
X154574874Y-84969819D01*
X154574874Y-84969819D02*
X154384398Y-84969819D01*
X154384398Y-84969819D02*
X154289160Y-84922200D01*
X156527255Y-84969819D02*
X156193922Y-84493628D01*
X155955827Y-84969819D02*
X155955827Y-83969819D01*
X155955827Y-83969819D02*
X156336779Y-83969819D01*
X156336779Y-83969819D02*
X156432017Y-84017438D01*
X156432017Y-84017438D02*
X156479636Y-84065057D01*
X156479636Y-84065057D02*
X156527255Y-84160295D01*
X156527255Y-84160295D02*
X156527255Y-84303152D01*
X156527255Y-84303152D02*
X156479636Y-84398390D01*
X156479636Y-84398390D02*
X156432017Y-84446009D01*
X156432017Y-84446009D02*
X156336779Y-84493628D01*
X156336779Y-84493628D02*
X155955827Y-84493628D01*
X156955827Y-84969819D02*
X156955827Y-84303152D01*
X156955827Y-83969819D02*
X156908208Y-84017438D01*
X156908208Y-84017438D02*
X156955827Y-84065057D01*
X156955827Y-84065057D02*
X157003446Y-84017438D01*
X157003446Y-84017438D02*
X156955827Y-83969819D01*
X156955827Y-83969819D02*
X156955827Y-84065057D01*
X157432017Y-84303152D02*
X157432017Y-84969819D01*
X157432017Y-84398390D02*
X157479636Y-84350771D01*
X157479636Y-84350771D02*
X157574874Y-84303152D01*
X157574874Y-84303152D02*
X157717731Y-84303152D01*
X157717731Y-84303152D02*
X157812969Y-84350771D01*
X157812969Y-84350771D02*
X157860588Y-84446009D01*
X157860588Y-84446009D02*
X157860588Y-84969819D01*
X158765350Y-84303152D02*
X158765350Y-85112676D01*
X158765350Y-85112676D02*
X158717731Y-85207914D01*
X158717731Y-85207914D02*
X158670112Y-85255533D01*
X158670112Y-85255533D02*
X158574874Y-85303152D01*
X158574874Y-85303152D02*
X158432017Y-85303152D01*
X158432017Y-85303152D02*
X158336779Y-85255533D01*
X158765350Y-84922200D02*
X158670112Y-84969819D01*
X158670112Y-84969819D02*
X158479636Y-84969819D01*
X158479636Y-84969819D02*
X158384398Y-84922200D01*
X158384398Y-84922200D02*
X158336779Y-84874580D01*
X158336779Y-84874580D02*
X158289160Y-84779342D01*
X158289160Y-84779342D02*
X158289160Y-84493628D01*
X158289160Y-84493628D02*
X158336779Y-84398390D01*
X158336779Y-84398390D02*
X158384398Y-84350771D01*
X158384398Y-84350771D02*
X158479636Y-84303152D01*
X158479636Y-84303152D02*
X158670112Y-84303152D01*
X158670112Y-84303152D02*
X158765350Y-84350771D01*
X148489160Y-76465057D02*
X148536779Y-76417438D01*
X148536779Y-76417438D02*
X148632017Y-76369819D01*
X148632017Y-76369819D02*
X148870112Y-76369819D01*
X148870112Y-76369819D02*
X148965350Y-76417438D01*
X148965350Y-76417438D02*
X149012969Y-76465057D01*
X149012969Y-76465057D02*
X149060588Y-76560295D01*
X149060588Y-76560295D02*
X149060588Y-76655533D01*
X149060588Y-76655533D02*
X149012969Y-76798390D01*
X149012969Y-76798390D02*
X148441541Y-77369819D01*
X148441541Y-77369819D02*
X149060588Y-77369819D01*
X149917731Y-76703152D02*
X149917731Y-77369819D01*
X149679636Y-76322200D02*
X149441541Y-77036485D01*
X149441541Y-77036485D02*
X150060588Y-77036485D01*
X150298684Y-76369819D02*
X150632017Y-77369819D01*
X150632017Y-77369819D02*
X150965350Y-76369819D01*
X157870112Y-92646009D02*
X157536779Y-92646009D01*
X157536779Y-93169819D02*
X157536779Y-92169819D01*
X157536779Y-92169819D02*
X158012969Y-92169819D01*
X158822493Y-93169819D02*
X158822493Y-92646009D01*
X158822493Y-92646009D02*
X158774874Y-92550771D01*
X158774874Y-92550771D02*
X158679636Y-92503152D01*
X158679636Y-92503152D02*
X158489160Y-92503152D01*
X158489160Y-92503152D02*
X158393922Y-92550771D01*
X158822493Y-93122200D02*
X158727255Y-93169819D01*
X158727255Y-93169819D02*
X158489160Y-93169819D01*
X158489160Y-93169819D02*
X158393922Y-93122200D01*
X158393922Y-93122200D02*
X158346303Y-93026961D01*
X158346303Y-93026961D02*
X158346303Y-92931723D01*
X158346303Y-92931723D02*
X158393922Y-92836485D01*
X158393922Y-92836485D02*
X158489160Y-92788866D01*
X158489160Y-92788866D02*
X158727255Y-92788866D01*
X158727255Y-92788866D02*
X158822493Y-92741247D01*
X159298684Y-92503152D02*
X159298684Y-93169819D01*
X159298684Y-92598390D02*
X159346303Y-92550771D01*
X159346303Y-92550771D02*
X159441541Y-92503152D01*
X159441541Y-92503152D02*
X159584398Y-92503152D01*
X159584398Y-92503152D02*
X159679636Y-92550771D01*
X159679636Y-92550771D02*
X159727255Y-92646009D01*
X159727255Y-92646009D02*
X159727255Y-93169819D01*
X161441541Y-92169819D02*
X160965351Y-92169819D01*
X160965351Y-92169819D02*
X160917732Y-92646009D01*
X160917732Y-92646009D02*
X160965351Y-92598390D01*
X160965351Y-92598390D02*
X161060589Y-92550771D01*
X161060589Y-92550771D02*
X161298684Y-92550771D01*
X161298684Y-92550771D02*
X161393922Y-92598390D01*
X161393922Y-92598390D02*
X161441541Y-92646009D01*
X161441541Y-92646009D02*
X161489160Y-92741247D01*
X161489160Y-92741247D02*
X161489160Y-92979342D01*
X161489160Y-92979342D02*
X161441541Y-93074580D01*
X161441541Y-93074580D02*
X161393922Y-93122200D01*
X161393922Y-93122200D02*
X161298684Y-93169819D01*
X161298684Y-93169819D02*
X161060589Y-93169819D01*
X161060589Y-93169819D02*
X160965351Y-93122200D01*
X160965351Y-93122200D02*
X160917732Y-93074580D01*
X161822494Y-92503152D02*
X162060589Y-93169819D01*
X162060589Y-93169819D02*
X162298684Y-92503152D01*
X158960588Y-76482438D02*
X158865350Y-76434819D01*
X158865350Y-76434819D02*
X158722493Y-76434819D01*
X158722493Y-76434819D02*
X158579636Y-76482438D01*
X158579636Y-76482438D02*
X158484398Y-76577676D01*
X158484398Y-76577676D02*
X158436779Y-76672914D01*
X158436779Y-76672914D02*
X158389160Y-76863390D01*
X158389160Y-76863390D02*
X158389160Y-77006247D01*
X158389160Y-77006247D02*
X158436779Y-77196723D01*
X158436779Y-77196723D02*
X158484398Y-77291961D01*
X158484398Y-77291961D02*
X158579636Y-77387200D01*
X158579636Y-77387200D02*
X158722493Y-77434819D01*
X158722493Y-77434819D02*
X158817731Y-77434819D01*
X158817731Y-77434819D02*
X158960588Y-77387200D01*
X158960588Y-77387200D02*
X159008207Y-77339580D01*
X159008207Y-77339580D02*
X159008207Y-77006247D01*
X159008207Y-77006247D02*
X158817731Y-77006247D01*
X159436779Y-77434819D02*
X159436779Y-76434819D01*
X159436779Y-76434819D02*
X160008207Y-77434819D01*
X160008207Y-77434819D02*
X160008207Y-76434819D01*
X160484398Y-77434819D02*
X160484398Y-76434819D01*
X160484398Y-76434819D02*
X160722493Y-76434819D01*
X160722493Y-76434819D02*
X160865350Y-76482438D01*
X160865350Y-76482438D02*
X160960588Y-76577676D01*
X160960588Y-76577676D02*
X161008207Y-76672914D01*
X161008207Y-76672914D02*
X161055826Y-76863390D01*
X161055826Y-76863390D02*
X161055826Y-77006247D01*
X161055826Y-77006247D02*
X161008207Y-77196723D01*
X161008207Y-77196723D02*
X160960588Y-77291961D01*
X160960588Y-77291961D02*
X160865350Y-77387200D01*
X160865350Y-77387200D02*
X160722493Y-77434819D01*
X160722493Y-77434819D02*
X160484398Y-77434819D01*
X119354819Y-82661904D02*
X120164342Y-82661904D01*
X120164342Y-82661904D02*
X120259580Y-82614285D01*
X120259580Y-82614285D02*
X120307200Y-82566666D01*
X120307200Y-82566666D02*
X120354819Y-82471428D01*
X120354819Y-82471428D02*
X120354819Y-82280952D01*
X120354819Y-82280952D02*
X120307200Y-82185714D01*
X120307200Y-82185714D02*
X120259580Y-82138095D01*
X120259580Y-82138095D02*
X120164342Y-82090476D01*
X120164342Y-82090476D02*
X119354819Y-82090476D01*
X119688152Y-81185714D02*
X120354819Y-81185714D01*
X119307200Y-81423809D02*
X120021485Y-81661904D01*
X120021485Y-81661904D02*
X120021485Y-81042857D01*
X138933333Y-85159580D02*
X138885714Y-85207200D01*
X138885714Y-85207200D02*
X138742857Y-85254819D01*
X138742857Y-85254819D02*
X138647619Y-85254819D01*
X138647619Y-85254819D02*
X138504762Y-85207200D01*
X138504762Y-85207200D02*
X138409524Y-85111961D01*
X138409524Y-85111961D02*
X138361905Y-85016723D01*
X138361905Y-85016723D02*
X138314286Y-84826247D01*
X138314286Y-84826247D02*
X138314286Y-84683390D01*
X138314286Y-84683390D02*
X138361905Y-84492914D01*
X138361905Y-84492914D02*
X138409524Y-84397676D01*
X138409524Y-84397676D02*
X138504762Y-84302438D01*
X138504762Y-84302438D02*
X138647619Y-84254819D01*
X138647619Y-84254819D02*
X138742857Y-84254819D01*
X138742857Y-84254819D02*
X138885714Y-84302438D01*
X138885714Y-84302438D02*
X138933333Y-84350057D01*
X139504762Y-84683390D02*
X139409524Y-84635771D01*
X139409524Y-84635771D02*
X139361905Y-84588152D01*
X139361905Y-84588152D02*
X139314286Y-84492914D01*
X139314286Y-84492914D02*
X139314286Y-84445295D01*
X139314286Y-84445295D02*
X139361905Y-84350057D01*
X139361905Y-84350057D02*
X139409524Y-84302438D01*
X139409524Y-84302438D02*
X139504762Y-84254819D01*
X139504762Y-84254819D02*
X139695238Y-84254819D01*
X139695238Y-84254819D02*
X139790476Y-84302438D01*
X139790476Y-84302438D02*
X139838095Y-84350057D01*
X139838095Y-84350057D02*
X139885714Y-84445295D01*
X139885714Y-84445295D02*
X139885714Y-84492914D01*
X139885714Y-84492914D02*
X139838095Y-84588152D01*
X139838095Y-84588152D02*
X139790476Y-84635771D01*
X139790476Y-84635771D02*
X139695238Y-84683390D01*
X139695238Y-84683390D02*
X139504762Y-84683390D01*
X139504762Y-84683390D02*
X139409524Y-84731009D01*
X139409524Y-84731009D02*
X139361905Y-84778628D01*
X139361905Y-84778628D02*
X139314286Y-84873866D01*
X139314286Y-84873866D02*
X139314286Y-85064342D01*
X139314286Y-85064342D02*
X139361905Y-85159580D01*
X139361905Y-85159580D02*
X139409524Y-85207200D01*
X139409524Y-85207200D02*
X139504762Y-85254819D01*
X139504762Y-85254819D02*
X139695238Y-85254819D01*
X139695238Y-85254819D02*
X139790476Y-85207200D01*
X139790476Y-85207200D02*
X139838095Y-85159580D01*
X139838095Y-85159580D02*
X139885714Y-85064342D01*
X139885714Y-85064342D02*
X139885714Y-84873866D01*
X139885714Y-84873866D02*
X139838095Y-84778628D01*
X139838095Y-84778628D02*
X139790476Y-84731009D01*
X139790476Y-84731009D02*
X139695238Y-84683390D01*
X155754819Y-88991666D02*
X155278628Y-89324999D01*
X155754819Y-89563094D02*
X154754819Y-89563094D01*
X154754819Y-89563094D02*
X154754819Y-89182142D01*
X154754819Y-89182142D02*
X154802438Y-89086904D01*
X154802438Y-89086904D02*
X154850057Y-89039285D01*
X154850057Y-89039285D02*
X154945295Y-88991666D01*
X154945295Y-88991666D02*
X155088152Y-88991666D01*
X155088152Y-88991666D02*
X155183390Y-89039285D01*
X155183390Y-89039285D02*
X155231009Y-89086904D01*
X155231009Y-89086904D02*
X155278628Y-89182142D01*
X155278628Y-89182142D02*
X155278628Y-89563094D01*
X154754819Y-88658332D02*
X154754819Y-88039285D01*
X154754819Y-88039285D02*
X155135771Y-88372618D01*
X155135771Y-88372618D02*
X155135771Y-88229761D01*
X155135771Y-88229761D02*
X155183390Y-88134523D01*
X155183390Y-88134523D02*
X155231009Y-88086904D01*
X155231009Y-88086904D02*
X155326247Y-88039285D01*
X155326247Y-88039285D02*
X155564342Y-88039285D01*
X155564342Y-88039285D02*
X155659580Y-88086904D01*
X155659580Y-88086904D02*
X155707200Y-88134523D01*
X155707200Y-88134523D02*
X155754819Y-88229761D01*
X155754819Y-88229761D02*
X155754819Y-88515475D01*
X155754819Y-88515475D02*
X155707200Y-88610713D01*
X155707200Y-88610713D02*
X155659580Y-88658332D01*
X136633333Y-86859580D02*
X136585714Y-86907200D01*
X136585714Y-86907200D02*
X136442857Y-86954819D01*
X136442857Y-86954819D02*
X136347619Y-86954819D01*
X136347619Y-86954819D02*
X136204762Y-86907200D01*
X136204762Y-86907200D02*
X136109524Y-86811961D01*
X136109524Y-86811961D02*
X136061905Y-86716723D01*
X136061905Y-86716723D02*
X136014286Y-86526247D01*
X136014286Y-86526247D02*
X136014286Y-86383390D01*
X136014286Y-86383390D02*
X136061905Y-86192914D01*
X136061905Y-86192914D02*
X136109524Y-86097676D01*
X136109524Y-86097676D02*
X136204762Y-86002438D01*
X136204762Y-86002438D02*
X136347619Y-85954819D01*
X136347619Y-85954819D02*
X136442857Y-85954819D01*
X136442857Y-85954819D02*
X136585714Y-86002438D01*
X136585714Y-86002438D02*
X136633333Y-86050057D01*
X137490476Y-85954819D02*
X137300000Y-85954819D01*
X137300000Y-85954819D02*
X137204762Y-86002438D01*
X137204762Y-86002438D02*
X137157143Y-86050057D01*
X137157143Y-86050057D02*
X137061905Y-86192914D01*
X137061905Y-86192914D02*
X137014286Y-86383390D01*
X137014286Y-86383390D02*
X137014286Y-86764342D01*
X137014286Y-86764342D02*
X137061905Y-86859580D01*
X137061905Y-86859580D02*
X137109524Y-86907200D01*
X137109524Y-86907200D02*
X137204762Y-86954819D01*
X137204762Y-86954819D02*
X137395238Y-86954819D01*
X137395238Y-86954819D02*
X137490476Y-86907200D01*
X137490476Y-86907200D02*
X137538095Y-86859580D01*
X137538095Y-86859580D02*
X137585714Y-86764342D01*
X137585714Y-86764342D02*
X137585714Y-86526247D01*
X137585714Y-86526247D02*
X137538095Y-86431009D01*
X137538095Y-86431009D02*
X137490476Y-86383390D01*
X137490476Y-86383390D02*
X137395238Y-86335771D01*
X137395238Y-86335771D02*
X137204762Y-86335771D01*
X137204762Y-86335771D02*
X137109524Y-86383390D01*
X137109524Y-86383390D02*
X137061905Y-86431009D01*
X137061905Y-86431009D02*
X137014286Y-86526247D01*
X113817090Y-93994939D02*
X113817090Y-94709224D01*
X113817090Y-94709224D02*
X113769471Y-94852081D01*
X113769471Y-94852081D02*
X113674233Y-94947320D01*
X113674233Y-94947320D02*
X113531376Y-94994939D01*
X113531376Y-94994939D02*
X113436138Y-94994939D01*
X114198043Y-93994939D02*
X114817090Y-93994939D01*
X114817090Y-93994939D02*
X114483757Y-94375891D01*
X114483757Y-94375891D02*
X114626614Y-94375891D01*
X114626614Y-94375891D02*
X114721852Y-94423510D01*
X114721852Y-94423510D02*
X114769471Y-94471129D01*
X114769471Y-94471129D02*
X114817090Y-94566367D01*
X114817090Y-94566367D02*
X114817090Y-94804462D01*
X114817090Y-94804462D02*
X114769471Y-94899700D01*
X114769471Y-94899700D02*
X114721852Y-94947320D01*
X114721852Y-94947320D02*
X114626614Y-94994939D01*
X114626614Y-94994939D02*
X114340900Y-94994939D01*
X114340900Y-94994939D02*
X114245662Y-94947320D01*
X114245662Y-94947320D02*
X114198043Y-94899700D01*
X134038095Y-76454819D02*
X134038095Y-77264342D01*
X134038095Y-77264342D02*
X134085714Y-77359580D01*
X134085714Y-77359580D02*
X134133333Y-77407200D01*
X134133333Y-77407200D02*
X134228571Y-77454819D01*
X134228571Y-77454819D02*
X134419047Y-77454819D01*
X134419047Y-77454819D02*
X134514285Y-77407200D01*
X134514285Y-77407200D02*
X134561904Y-77359580D01*
X134561904Y-77359580D02*
X134609523Y-77264342D01*
X134609523Y-77264342D02*
X134609523Y-76454819D01*
X135038095Y-76550057D02*
X135085714Y-76502438D01*
X135085714Y-76502438D02*
X135180952Y-76454819D01*
X135180952Y-76454819D02*
X135419047Y-76454819D01*
X135419047Y-76454819D02*
X135514285Y-76502438D01*
X135514285Y-76502438D02*
X135561904Y-76550057D01*
X135561904Y-76550057D02*
X135609523Y-76645295D01*
X135609523Y-76645295D02*
X135609523Y-76740533D01*
X135609523Y-76740533D02*
X135561904Y-76883390D01*
X135561904Y-76883390D02*
X134990476Y-77454819D01*
X134990476Y-77454819D02*
X135609523Y-77454819D01*
X121033333Y-86759580D02*
X120985714Y-86807200D01*
X120985714Y-86807200D02*
X120842857Y-86854819D01*
X120842857Y-86854819D02*
X120747619Y-86854819D01*
X120747619Y-86854819D02*
X120604762Y-86807200D01*
X120604762Y-86807200D02*
X120509524Y-86711961D01*
X120509524Y-86711961D02*
X120461905Y-86616723D01*
X120461905Y-86616723D02*
X120414286Y-86426247D01*
X120414286Y-86426247D02*
X120414286Y-86283390D01*
X120414286Y-86283390D02*
X120461905Y-86092914D01*
X120461905Y-86092914D02*
X120509524Y-85997676D01*
X120509524Y-85997676D02*
X120604762Y-85902438D01*
X120604762Y-85902438D02*
X120747619Y-85854819D01*
X120747619Y-85854819D02*
X120842857Y-85854819D01*
X120842857Y-85854819D02*
X120985714Y-85902438D01*
X120985714Y-85902438D02*
X121033333Y-85950057D01*
X121985714Y-86854819D02*
X121414286Y-86854819D01*
X121700000Y-86854819D02*
X121700000Y-85854819D01*
X121700000Y-85854819D02*
X121604762Y-85997676D01*
X121604762Y-85997676D02*
X121509524Y-86092914D01*
X121509524Y-86092914D02*
X121414286Y-86140533D01*
X127954819Y-78966666D02*
X127478628Y-79299999D01*
X127954819Y-79538094D02*
X126954819Y-79538094D01*
X126954819Y-79538094D02*
X126954819Y-79157142D01*
X126954819Y-79157142D02*
X127002438Y-79061904D01*
X127002438Y-79061904D02*
X127050057Y-79014285D01*
X127050057Y-79014285D02*
X127145295Y-78966666D01*
X127145295Y-78966666D02*
X127288152Y-78966666D01*
X127288152Y-78966666D02*
X127383390Y-79014285D01*
X127383390Y-79014285D02*
X127431009Y-79061904D01*
X127431009Y-79061904D02*
X127478628Y-79157142D01*
X127478628Y-79157142D02*
X127478628Y-79538094D01*
X127954819Y-78014285D02*
X127954819Y-78585713D01*
X127954819Y-78299999D02*
X126954819Y-78299999D01*
X126954819Y-78299999D02*
X127097676Y-78395237D01*
X127097676Y-78395237D02*
X127192914Y-78490475D01*
X127192914Y-78490475D02*
X127240533Y-78585713D01*
X156666666Y-81854819D02*
X156666666Y-82569104D01*
X156666666Y-82569104D02*
X156619047Y-82711961D01*
X156619047Y-82711961D02*
X156523809Y-82807200D01*
X156523809Y-82807200D02*
X156380952Y-82854819D01*
X156380952Y-82854819D02*
X156285714Y-82854819D01*
X157619047Y-81854819D02*
X157142857Y-81854819D01*
X157142857Y-81854819D02*
X157095238Y-82331009D01*
X157095238Y-82331009D02*
X157142857Y-82283390D01*
X157142857Y-82283390D02*
X157238095Y-82235771D01*
X157238095Y-82235771D02*
X157476190Y-82235771D01*
X157476190Y-82235771D02*
X157571428Y-82283390D01*
X157571428Y-82283390D02*
X157619047Y-82331009D01*
X157619047Y-82331009D02*
X157666666Y-82426247D01*
X157666666Y-82426247D02*
X157666666Y-82664342D01*
X157666666Y-82664342D02*
X157619047Y-82759580D01*
X157619047Y-82759580D02*
X157571428Y-82807200D01*
X157571428Y-82807200D02*
X157476190Y-82854819D01*
X157476190Y-82854819D02*
X157238095Y-82854819D01*
X157238095Y-82854819D02*
X157142857Y-82807200D01*
X157142857Y-82807200D02*
X157095238Y-82759580D01*
X143123809Y-77378628D02*
X143123809Y-77854819D01*
X142790476Y-76854819D02*
X143123809Y-77378628D01*
X143123809Y-77378628D02*
X143457142Y-76854819D01*
X144314285Y-77854819D02*
X143742857Y-77854819D01*
X144028571Y-77854819D02*
X144028571Y-76854819D01*
X144028571Y-76854819D02*
X143933333Y-76997676D01*
X143933333Y-76997676D02*
X143838095Y-77092914D01*
X143838095Y-77092914D02*
X143742857Y-77140533D01*
X154566666Y-95107319D02*
X154566666Y-95821604D01*
X154566666Y-95821604D02*
X154519047Y-95964461D01*
X154519047Y-95964461D02*
X154423809Y-96059700D01*
X154423809Y-96059700D02*
X154280952Y-96107319D01*
X154280952Y-96107319D02*
X154185714Y-96107319D01*
X154995238Y-95202557D02*
X155042857Y-95154938D01*
X155042857Y-95154938D02*
X155138095Y-95107319D01*
X155138095Y-95107319D02*
X155376190Y-95107319D01*
X155376190Y-95107319D02*
X155471428Y-95154938D01*
X155471428Y-95154938D02*
X155519047Y-95202557D01*
X155519047Y-95202557D02*
X155566666Y-95297795D01*
X155566666Y-95297795D02*
X155566666Y-95393033D01*
X155566666Y-95393033D02*
X155519047Y-95535890D01*
X155519047Y-95535890D02*
X154947619Y-96107319D01*
X154947619Y-96107319D02*
X155566666Y-96107319D01*
X156166666Y-90154819D02*
X156166666Y-90869104D01*
X156166666Y-90869104D02*
X156119047Y-91011961D01*
X156119047Y-91011961D02*
X156023809Y-91107200D01*
X156023809Y-91107200D02*
X155880952Y-91154819D01*
X155880952Y-91154819D02*
X155785714Y-91154819D01*
X157071428Y-90154819D02*
X156880952Y-90154819D01*
X156880952Y-90154819D02*
X156785714Y-90202438D01*
X156785714Y-90202438D02*
X156738095Y-90250057D01*
X156738095Y-90250057D02*
X156642857Y-90392914D01*
X156642857Y-90392914D02*
X156595238Y-90583390D01*
X156595238Y-90583390D02*
X156595238Y-90964342D01*
X156595238Y-90964342D02*
X156642857Y-91059580D01*
X156642857Y-91059580D02*
X156690476Y-91107200D01*
X156690476Y-91107200D02*
X156785714Y-91154819D01*
X156785714Y-91154819D02*
X156976190Y-91154819D01*
X156976190Y-91154819D02*
X157071428Y-91107200D01*
X157071428Y-91107200D02*
X157119047Y-91059580D01*
X157119047Y-91059580D02*
X157166666Y-90964342D01*
X157166666Y-90964342D02*
X157166666Y-90726247D01*
X157166666Y-90726247D02*
X157119047Y-90631009D01*
X157119047Y-90631009D02*
X157071428Y-90583390D01*
X157071428Y-90583390D02*
X156976190Y-90535771D01*
X156976190Y-90535771D02*
X156785714Y-90535771D01*
X156785714Y-90535771D02*
X156690476Y-90583390D01*
X156690476Y-90583390D02*
X156642857Y-90631009D01*
X156642857Y-90631009D02*
X156595238Y-90726247D01*
X126147080Y-83979166D02*
X126194700Y-84026785D01*
X126194700Y-84026785D02*
X126242319Y-84169642D01*
X126242319Y-84169642D02*
X126242319Y-84264880D01*
X126242319Y-84264880D02*
X126194700Y-84407737D01*
X126194700Y-84407737D02*
X126099461Y-84502975D01*
X126099461Y-84502975D02*
X126004223Y-84550594D01*
X126004223Y-84550594D02*
X125813747Y-84598213D01*
X125813747Y-84598213D02*
X125670890Y-84598213D01*
X125670890Y-84598213D02*
X125480414Y-84550594D01*
X125480414Y-84550594D02*
X125385176Y-84502975D01*
X125385176Y-84502975D02*
X125289938Y-84407737D01*
X125289938Y-84407737D02*
X125242319Y-84264880D01*
X125242319Y-84264880D02*
X125242319Y-84169642D01*
X125242319Y-84169642D02*
X125289938Y-84026785D01*
X125289938Y-84026785D02*
X125337557Y-83979166D01*
X125242319Y-83645832D02*
X125242319Y-83026785D01*
X125242319Y-83026785D02*
X125623271Y-83360118D01*
X125623271Y-83360118D02*
X125623271Y-83217261D01*
X125623271Y-83217261D02*
X125670890Y-83122023D01*
X125670890Y-83122023D02*
X125718509Y-83074404D01*
X125718509Y-83074404D02*
X125813747Y-83026785D01*
X125813747Y-83026785D02*
X126051842Y-83026785D01*
X126051842Y-83026785D02*
X126147080Y-83074404D01*
X126147080Y-83074404D02*
X126194700Y-83122023D01*
X126194700Y-83122023D02*
X126242319Y-83217261D01*
X126242319Y-83217261D02*
X126242319Y-83502975D01*
X126242319Y-83502975D02*
X126194700Y-83598213D01*
X126194700Y-83598213D02*
X126147080Y-83645832D01*
X129334819Y-84579166D02*
X128858628Y-84912499D01*
X129334819Y-85150594D02*
X128334819Y-85150594D01*
X128334819Y-85150594D02*
X128334819Y-84769642D01*
X128334819Y-84769642D02*
X128382438Y-84674404D01*
X128382438Y-84674404D02*
X128430057Y-84626785D01*
X128430057Y-84626785D02*
X128525295Y-84579166D01*
X128525295Y-84579166D02*
X128668152Y-84579166D01*
X128668152Y-84579166D02*
X128763390Y-84626785D01*
X128763390Y-84626785D02*
X128811009Y-84674404D01*
X128811009Y-84674404D02*
X128858628Y-84769642D01*
X128858628Y-84769642D02*
X128858628Y-85150594D01*
X128430057Y-84198213D02*
X128382438Y-84150594D01*
X128382438Y-84150594D02*
X128334819Y-84055356D01*
X128334819Y-84055356D02*
X128334819Y-83817261D01*
X128334819Y-83817261D02*
X128382438Y-83722023D01*
X128382438Y-83722023D02*
X128430057Y-83674404D01*
X128430057Y-83674404D02*
X128525295Y-83626785D01*
X128525295Y-83626785D02*
X128620533Y-83626785D01*
X128620533Y-83626785D02*
X128763390Y-83674404D01*
X128763390Y-83674404D02*
X129334819Y-84245832D01*
X129334819Y-84245832D02*
X129334819Y-83626785D01*
X101933333Y-78459580D02*
X101885714Y-78507200D01*
X101885714Y-78507200D02*
X101742857Y-78554819D01*
X101742857Y-78554819D02*
X101647619Y-78554819D01*
X101647619Y-78554819D02*
X101504762Y-78507200D01*
X101504762Y-78507200D02*
X101409524Y-78411961D01*
X101409524Y-78411961D02*
X101361905Y-78316723D01*
X101361905Y-78316723D02*
X101314286Y-78126247D01*
X101314286Y-78126247D02*
X101314286Y-77983390D01*
X101314286Y-77983390D02*
X101361905Y-77792914D01*
X101361905Y-77792914D02*
X101409524Y-77697676D01*
X101409524Y-77697676D02*
X101504762Y-77602438D01*
X101504762Y-77602438D02*
X101647619Y-77554819D01*
X101647619Y-77554819D02*
X101742857Y-77554819D01*
X101742857Y-77554819D02*
X101885714Y-77602438D01*
X101885714Y-77602438D02*
X101933333Y-77650057D01*
X102790476Y-77888152D02*
X102790476Y-78554819D01*
X102552381Y-77507200D02*
X102314286Y-78221485D01*
X102314286Y-78221485D02*
X102933333Y-78221485D01*
X129554819Y-77666666D02*
X129078628Y-77999999D01*
X129554819Y-78238094D02*
X128554819Y-78238094D01*
X128554819Y-78238094D02*
X128554819Y-77857142D01*
X128554819Y-77857142D02*
X128602438Y-77761904D01*
X128602438Y-77761904D02*
X128650057Y-77714285D01*
X128650057Y-77714285D02*
X128745295Y-77666666D01*
X128745295Y-77666666D02*
X128888152Y-77666666D01*
X128888152Y-77666666D02*
X128983390Y-77714285D01*
X128983390Y-77714285D02*
X129031009Y-77761904D01*
X129031009Y-77761904D02*
X129078628Y-77857142D01*
X129078628Y-77857142D02*
X129078628Y-78238094D01*
X128554819Y-76761904D02*
X128554819Y-77238094D01*
X128554819Y-77238094D02*
X129031009Y-77285713D01*
X129031009Y-77285713D02*
X128983390Y-77238094D01*
X128983390Y-77238094D02*
X128935771Y-77142856D01*
X128935771Y-77142856D02*
X128935771Y-76904761D01*
X128935771Y-76904761D02*
X128983390Y-76809523D01*
X128983390Y-76809523D02*
X129031009Y-76761904D01*
X129031009Y-76761904D02*
X129126247Y-76714285D01*
X129126247Y-76714285D02*
X129364342Y-76714285D01*
X129364342Y-76714285D02*
X129459580Y-76761904D01*
X129459580Y-76761904D02*
X129507200Y-76809523D01*
X129507200Y-76809523D02*
X129554819Y-76904761D01*
X129554819Y-76904761D02*
X129554819Y-77142856D01*
X129554819Y-77142856D02*
X129507200Y-77238094D01*
X129507200Y-77238094D02*
X129459580Y-77285713D01*
X130554819Y-91961904D02*
X131364342Y-91961904D01*
X131364342Y-91961904D02*
X131459580Y-91914285D01*
X131459580Y-91914285D02*
X131507200Y-91866666D01*
X131507200Y-91866666D02*
X131554819Y-91771428D01*
X131554819Y-91771428D02*
X131554819Y-91580952D01*
X131554819Y-91580952D02*
X131507200Y-91485714D01*
X131507200Y-91485714D02*
X131459580Y-91438095D01*
X131459580Y-91438095D02*
X131364342Y-91390476D01*
X131364342Y-91390476D02*
X130554819Y-91390476D01*
X130554819Y-91009523D02*
X130554819Y-90390476D01*
X130554819Y-90390476D02*
X130935771Y-90723809D01*
X130935771Y-90723809D02*
X130935771Y-90580952D01*
X130935771Y-90580952D02*
X130983390Y-90485714D01*
X130983390Y-90485714D02*
X131031009Y-90438095D01*
X131031009Y-90438095D02*
X131126247Y-90390476D01*
X131126247Y-90390476D02*
X131364342Y-90390476D01*
X131364342Y-90390476D02*
X131459580Y-90438095D01*
X131459580Y-90438095D02*
X131507200Y-90485714D01*
X131507200Y-90485714D02*
X131554819Y-90580952D01*
X131554819Y-90580952D02*
X131554819Y-90866666D01*
X131554819Y-90866666D02*
X131507200Y-90961904D01*
X131507200Y-90961904D02*
X131459580Y-91009523D01*
X110716666Y-92042319D02*
X110716666Y-92756604D01*
X110716666Y-92756604D02*
X110669047Y-92899461D01*
X110669047Y-92899461D02*
X110573809Y-92994700D01*
X110573809Y-92994700D02*
X110430952Y-93042319D01*
X110430952Y-93042319D02*
X110335714Y-93042319D01*
X111621428Y-92375652D02*
X111621428Y-93042319D01*
X111383333Y-91994700D02*
X111145238Y-92708985D01*
X111145238Y-92708985D02*
X111764285Y-92708985D01*
X110654819Y-82366666D02*
X110654819Y-82842856D01*
X110654819Y-82842856D02*
X109654819Y-82842856D01*
X109750057Y-82080951D02*
X109702438Y-82033332D01*
X109702438Y-82033332D02*
X109654819Y-81938094D01*
X109654819Y-81938094D02*
X109654819Y-81699999D01*
X109654819Y-81699999D02*
X109702438Y-81604761D01*
X109702438Y-81604761D02*
X109750057Y-81557142D01*
X109750057Y-81557142D02*
X109845295Y-81509523D01*
X109845295Y-81509523D02*
X109940533Y-81509523D01*
X109940533Y-81509523D02*
X110083390Y-81557142D01*
X110083390Y-81557142D02*
X110654819Y-82128570D01*
X110654819Y-82128570D02*
X110654819Y-81509523D01*
X123520833Y-77272080D02*
X123473214Y-77319700D01*
X123473214Y-77319700D02*
X123330357Y-77367319D01*
X123330357Y-77367319D02*
X123235119Y-77367319D01*
X123235119Y-77367319D02*
X123092262Y-77319700D01*
X123092262Y-77319700D02*
X122997024Y-77224461D01*
X122997024Y-77224461D02*
X122949405Y-77129223D01*
X122949405Y-77129223D02*
X122901786Y-76938747D01*
X122901786Y-76938747D02*
X122901786Y-76795890D01*
X122901786Y-76795890D02*
X122949405Y-76605414D01*
X122949405Y-76605414D02*
X122997024Y-76510176D01*
X122997024Y-76510176D02*
X123092262Y-76414938D01*
X123092262Y-76414938D02*
X123235119Y-76367319D01*
X123235119Y-76367319D02*
X123330357Y-76367319D01*
X123330357Y-76367319D02*
X123473214Y-76414938D01*
X123473214Y-76414938D02*
X123520833Y-76462557D01*
X123901786Y-76462557D02*
X123949405Y-76414938D01*
X123949405Y-76414938D02*
X124044643Y-76367319D01*
X124044643Y-76367319D02*
X124282738Y-76367319D01*
X124282738Y-76367319D02*
X124377976Y-76414938D01*
X124377976Y-76414938D02*
X124425595Y-76462557D01*
X124425595Y-76462557D02*
X124473214Y-76557795D01*
X124473214Y-76557795D02*
X124473214Y-76653033D01*
X124473214Y-76653033D02*
X124425595Y-76795890D01*
X124425595Y-76795890D02*
X123854167Y-77367319D01*
X123854167Y-77367319D02*
X124473214Y-77367319D01*
X148933333Y-85159580D02*
X148885714Y-85207200D01*
X148885714Y-85207200D02*
X148742857Y-85254819D01*
X148742857Y-85254819D02*
X148647619Y-85254819D01*
X148647619Y-85254819D02*
X148504762Y-85207200D01*
X148504762Y-85207200D02*
X148409524Y-85111961D01*
X148409524Y-85111961D02*
X148361905Y-85016723D01*
X148361905Y-85016723D02*
X148314286Y-84826247D01*
X148314286Y-84826247D02*
X148314286Y-84683390D01*
X148314286Y-84683390D02*
X148361905Y-84492914D01*
X148361905Y-84492914D02*
X148409524Y-84397676D01*
X148409524Y-84397676D02*
X148504762Y-84302438D01*
X148504762Y-84302438D02*
X148647619Y-84254819D01*
X148647619Y-84254819D02*
X148742857Y-84254819D01*
X148742857Y-84254819D02*
X148885714Y-84302438D01*
X148885714Y-84302438D02*
X148933333Y-84350057D01*
X149266667Y-84254819D02*
X149933333Y-84254819D01*
X149933333Y-84254819D02*
X149504762Y-85254819D01*
X102033333Y-81059580D02*
X101985714Y-81107200D01*
X101985714Y-81107200D02*
X101842857Y-81154819D01*
X101842857Y-81154819D02*
X101747619Y-81154819D01*
X101747619Y-81154819D02*
X101604762Y-81107200D01*
X101604762Y-81107200D02*
X101509524Y-81011961D01*
X101509524Y-81011961D02*
X101461905Y-80916723D01*
X101461905Y-80916723D02*
X101414286Y-80726247D01*
X101414286Y-80726247D02*
X101414286Y-80583390D01*
X101414286Y-80583390D02*
X101461905Y-80392914D01*
X101461905Y-80392914D02*
X101509524Y-80297676D01*
X101509524Y-80297676D02*
X101604762Y-80202438D01*
X101604762Y-80202438D02*
X101747619Y-80154819D01*
X101747619Y-80154819D02*
X101842857Y-80154819D01*
X101842857Y-80154819D02*
X101985714Y-80202438D01*
X101985714Y-80202438D02*
X102033333Y-80250057D01*
X102938095Y-80154819D02*
X102461905Y-80154819D01*
X102461905Y-80154819D02*
X102414286Y-80631009D01*
X102414286Y-80631009D02*
X102461905Y-80583390D01*
X102461905Y-80583390D02*
X102557143Y-80535771D01*
X102557143Y-80535771D02*
X102795238Y-80535771D01*
X102795238Y-80535771D02*
X102890476Y-80583390D01*
X102890476Y-80583390D02*
X102938095Y-80631009D01*
X102938095Y-80631009D02*
X102985714Y-80726247D01*
X102985714Y-80726247D02*
X102985714Y-80964342D01*
X102985714Y-80964342D02*
X102938095Y-81059580D01*
X102938095Y-81059580D02*
X102890476Y-81107200D01*
X102890476Y-81107200D02*
X102795238Y-81154819D01*
X102795238Y-81154819D02*
X102557143Y-81154819D01*
X102557143Y-81154819D02*
X102461905Y-81107200D01*
X102461905Y-81107200D02*
X102414286Y-81059580D01*
D11*
X121640000Y-79602500D02*
X123460000Y-79602500D01*
X121640000Y-79652500D02*
X121640000Y-79602500D01*
X121640000Y-82722500D02*
X121640000Y-82672500D01*
X123460000Y-79602500D02*
X123460000Y-79652500D01*
X123460000Y-82672500D02*
X123460000Y-82722500D01*
X123460000Y-82722500D02*
X121640000Y-82722500D01*
X121100000Y-79652500D02*
X120860000Y-79322500D01*
X121340000Y-79322500D01*
X121100000Y-79652500D01*
G36*
X121100000Y-79652500D02*
G01*
X120860000Y-79322500D01*
X121340000Y-79322500D01*
X121100000Y-79652500D01*
G37*
X141740580Y-84295000D02*
X141459420Y-84295000D01*
X141740580Y-85315000D02*
X141459420Y-85315000D01*
X153077500Y-89062258D02*
X153077500Y-88587742D01*
X154122500Y-89062258D02*
X154122500Y-88587742D01*
X133984420Y-85890000D02*
X134265580Y-85890000D01*
X133984420Y-86910000D02*
X134265580Y-86910000D01*
D12*
X114450424Y-97060120D02*
X114450424Y-97400120D01*
X114450424Y-97400120D02*
X114650424Y-97600120D01*
X114450424Y-98510120D02*
X114450424Y-98780120D01*
X114450424Y-98780120D02*
X115380424Y-98780120D01*
X114650424Y-97600120D02*
X114650424Y-98140120D01*
X114650424Y-98140120D02*
X114650424Y-98310120D01*
X114650424Y-98310120D02*
X114450424Y-98510120D01*
X115380424Y-97060120D02*
X114450424Y-97060120D01*
X115380424Y-99670120D02*
X115380424Y-90870120D01*
X125190424Y-90870120D02*
X115390424Y-90870120D01*
X125190424Y-90870120D02*
X125940424Y-90870120D01*
X129370424Y-97100120D02*
X130300424Y-97100120D01*
X129380424Y-90870120D02*
X127960424Y-90870120D01*
X129380424Y-90870120D02*
X129380424Y-99670120D01*
X129380424Y-99670120D02*
X115380424Y-99670120D01*
X130100424Y-97650120D02*
X130100424Y-98190120D01*
X130100424Y-98190120D02*
X130100424Y-98350120D01*
X130100424Y-98350120D02*
X130300424Y-98550120D01*
X130300424Y-97100120D02*
X130300424Y-97450120D01*
X130300424Y-97450120D02*
X130100424Y-97650120D01*
X130300424Y-98550120D02*
X130300424Y-98820120D01*
X130300424Y-98820120D02*
X129370424Y-98820120D01*
D11*
X130140000Y-83915000D02*
X130140000Y-79295000D01*
X136910000Y-79295000D02*
X136910000Y-83915000D01*
X130835000Y-85795000D02*
X130355000Y-85795000D01*
X130595000Y-85465000D01*
X130835000Y-85795000D01*
G36*
X130835000Y-85795000D02*
G01*
X130355000Y-85795000D01*
X130595000Y-85465000D01*
X130835000Y-85795000D01*
G37*
X121676248Y-83602500D02*
X123098752Y-83602500D01*
X121676248Y-85422500D02*
X123098752Y-85422500D01*
X126927500Y-80975242D02*
X126927500Y-81449758D01*
X127972500Y-80975242D02*
X127972500Y-81449758D01*
X151390000Y-77340000D02*
X157610000Y-77340000D01*
X151390000Y-77790000D02*
X151390000Y-77340000D01*
X151390000Y-80610000D02*
X151390000Y-81260000D01*
X151390000Y-81260000D02*
X153140000Y-81260000D01*
X153140000Y-81260000D02*
X153140000Y-83150000D01*
X157610000Y-77340000D02*
X157610000Y-77790000D01*
X157610000Y-80610000D02*
X157610000Y-81260000D01*
X157610000Y-81260000D02*
X155860000Y-81260000D01*
D13*
X140450000Y-78350001D02*
X146750000Y-78350000D01*
D12*
X142960000Y-79960000D02*
X142960000Y-80600000D01*
X142960000Y-80600000D02*
X142580000Y-80600000D01*
X142960000Y-80600000D02*
X142960000Y-81230000D01*
X143350000Y-79960000D02*
X143350000Y-81230000D01*
X143350000Y-81230000D02*
X143850000Y-81230000D01*
X143850000Y-79960000D02*
X143350000Y-79960000D01*
X143850000Y-81230000D02*
X143850000Y-79960000D01*
X144230000Y-79960000D02*
X144230000Y-80600000D01*
X144230000Y-80600000D02*
X144230000Y-81230000D01*
X144230000Y-80600000D02*
X144620000Y-80600000D01*
D13*
X146750000Y-82850000D02*
X140462471Y-82849411D01*
X140462471Y-82849411D02*
G75*
G02*
X140450000Y-78350000I-112471J2249411D01*
G01*
X146750000Y-78350000D02*
G75*
G02*
X146750000Y-82850000I0J-2250000D01*
G01*
D12*
X138630000Y-97052500D02*
X138630000Y-97392500D01*
X138630000Y-97392500D02*
X138830000Y-97592500D01*
X138630000Y-98502500D02*
X138630000Y-98772500D01*
X138630000Y-98772500D02*
X139560000Y-98772500D01*
X138830000Y-97592500D02*
X138830000Y-98132500D01*
X138830000Y-98132500D02*
X138830000Y-98302500D01*
X138830000Y-98302500D02*
X138630000Y-98502500D01*
X139560000Y-97052500D02*
X138630000Y-97052500D01*
X139560000Y-99662500D02*
X139560000Y-90862500D01*
X149370000Y-90862500D02*
X139570000Y-90862500D01*
X149370000Y-90862500D02*
X150120000Y-90862500D01*
X153550000Y-97092500D02*
X154480000Y-97092500D01*
X153560000Y-90862500D02*
X152140000Y-90862500D01*
X153560000Y-90862500D02*
X153560000Y-99662500D01*
X153560000Y-99662500D02*
X139560000Y-99662500D01*
X154280000Y-97642500D02*
X154280000Y-98182500D01*
X154280000Y-98182500D02*
X154280000Y-98342500D01*
X154280000Y-98342500D02*
X154480000Y-98542500D01*
X154480000Y-97092500D02*
X154480000Y-97442500D01*
X154480000Y-97442500D02*
X154280000Y-97642500D01*
X154480000Y-98542500D02*
X154480000Y-98812500D01*
X154480000Y-98812500D02*
X153550000Y-98812500D01*
D11*
X157540000Y-86490000D02*
X157540000Y-87740000D01*
X157840000Y-86790000D02*
X157840000Y-91510000D01*
X157840000Y-88100000D02*
X158450000Y-88100000D01*
X157840000Y-89400000D02*
X158450000Y-89400000D01*
X157840000Y-91510000D02*
X163960000Y-91510000D01*
X158450000Y-87400000D02*
X158450000Y-90900000D01*
X158450000Y-90900000D02*
X163350000Y-90900000D01*
X158790000Y-86490000D02*
X157540000Y-86490000D01*
X159300000Y-86590000D02*
X159300000Y-86790000D01*
X159600000Y-86590000D02*
X159300000Y-86590000D01*
X159600000Y-86690000D02*
X159300000Y-86690000D01*
X159600000Y-86790000D02*
X159600000Y-86590000D01*
X160400000Y-86790000D02*
X160400000Y-87400000D01*
X160400000Y-87400000D02*
X158450000Y-87400000D01*
X160800000Y-90400000D02*
X161000000Y-90400000D01*
X160800000Y-90900000D02*
X160800000Y-90400000D01*
X160900000Y-90900000D02*
X160900000Y-90400000D01*
X161000000Y-90400000D02*
X161000000Y-90900000D01*
X161400000Y-87400000D02*
X161400000Y-86790000D01*
X163350000Y-87400000D02*
X161400000Y-87400000D01*
X163350000Y-90900000D02*
X163350000Y-87400000D01*
X163960000Y-86790000D02*
X157840000Y-86790000D01*
X163960000Y-88100000D02*
X163350000Y-88100000D01*
X163960000Y-89400000D02*
X163350000Y-89400000D01*
X163960000Y-91510000D02*
X163960000Y-86790000D01*
X125240000Y-81096920D02*
X125240000Y-81378080D01*
X126260000Y-81096920D02*
X126260000Y-81378080D01*
X126927500Y-84175242D02*
X126927500Y-84649758D01*
X127972500Y-84175242D02*
X127972500Y-84649758D01*
X107411252Y-77190000D02*
X105988748Y-77190000D01*
X107411252Y-79010000D02*
X105988748Y-79010000D01*
X128577500Y-80337258D02*
X128577500Y-79862742D01*
X129622500Y-80337258D02*
X129622500Y-79862742D01*
X132035000Y-89215000D02*
X132130000Y-89215000D01*
X132035000Y-93335000D02*
X132035000Y-89215000D01*
X132130000Y-93335000D02*
X132035000Y-93335000D01*
X137060000Y-89215000D02*
X137155000Y-89215000D01*
X137155000Y-89215000D02*
X137155000Y-93335000D01*
X137155000Y-93335000D02*
X137060000Y-93335000D01*
X137395000Y-88915000D02*
X137065000Y-88675000D01*
X137395000Y-88435000D01*
X137395000Y-88915000D01*
G36*
X137395000Y-88915000D02*
G01*
X137065000Y-88675000D01*
X137395000Y-88435000D01*
X137395000Y-88915000D01*
G37*
D13*
X103050000Y-83587500D02*
X102050000Y-83587500D01*
X107300000Y-83587500D02*
X108300000Y-83587500D01*
X107800000Y-83087500D02*
X107800000Y-84087500D01*
X109800000Y-88587500D02*
G75*
G02*
X100800000Y-88587500I-4500000J0D01*
G01*
X100800000Y-88587500D02*
G75*
G02*
X109800000Y-88587500I4500000J0D01*
G01*
D12*
X111000000Y-77100000D02*
X111010000Y-77100000D01*
X111000000Y-85100000D02*
X111000000Y-77100000D01*
X118970000Y-77100000D02*
X119000000Y-77100000D01*
X119000000Y-77100000D02*
X119000000Y-85100000D01*
X119000000Y-85100000D02*
X119000000Y-85100000D01*
D11*
X137777500Y-93337258D02*
X137777500Y-92862742D01*
X138822500Y-93337258D02*
X138822500Y-92862742D01*
X123828080Y-77902500D02*
X123546920Y-77902500D01*
X123828080Y-78922500D02*
X123546920Y-78922500D01*
X146329420Y-84295000D02*
X146610580Y-84295000D01*
X146329420Y-85315000D02*
X146610580Y-85315000D01*
X107411252Y-79790000D02*
X105988748Y-79790000D01*
X107411252Y-81610000D02*
X105988748Y-81610000D01*
M02*
