G04 #@! TF.GenerationSoftware,KiCad,Pcbnew,9.0.6-9.0.6~ubuntu24.04.1*
G04 #@! TF.CreationDate,2026-03-10T07:54:51-04:00*
G04 #@! TF.ProjectId,anchor_hat,616e6368-6f72-45f6-9861-742e6b696361,rev?*
G04 #@! TF.SameCoordinates,Original*
G04 #@! TF.FileFunction,Copper,L4,Bot*
G04 #@! TF.FilePolarity,Positive*
%FSLAX46Y46*%
G04 Gerber Fmt 4.6, Leading zero omitted, Abs format (unit mm)*
G04 Created by KiCad (PCBNEW 9.0.6-9.0.6~ubuntu24.04.1) date 2026-03-10 07:54:51*
%MOMM*%
%LPD*%
G01*
G04 APERTURE LIST*
G04 Aperture macros list*
%AMRoundRect*
0 Rectangle with rounded corners*
0 $1 Rounding radius*
0 $2 $3 $4 $5 $6 $7 $8 $9 X,Y pos of 4 corners*
0 Add a 4 corners polygon primitive as box body*
4,1,4,$2,$3,$4,$5,$6,$7,$8,$9,$2,$3,0*
0 Add four circle primitives for the rounded corners*
1,1,$1+$1,$2,$3*
1,1,$1+$1,$4,$5*
1,1,$1+$1,$6,$7*
1,1,$1+$1,$8,$9*
0 Add four rect primitives between the rounded corners*
20,1,$1+$1,$2,$3,$4,$5,0*
20,1,$1+$1,$4,$5,$6,$7,0*
20,1,$1+$1,$6,$7,$8,$9,0*
20,1,$1+$1,$8,$9,$2,$3,0*%
G04 Aperture macros list end*
G04 #@! TA.AperFunction,ComponentPad*
%ADD10C,2.800000*%
G04 #@! TD*
G04 #@! TA.AperFunction,ComponentPad*
%ADD11C,1.520000*%
G04 #@! TD*
G04 #@! TA.AperFunction,ComponentPad*
%ADD12R,1.500000X1.500000*%
G04 #@! TD*
G04 #@! TA.AperFunction,ComponentPad*
%ADD13C,1.500000*%
G04 #@! TD*
G04 #@! TA.AperFunction,ComponentPad*
%ADD14RoundRect,0.250000X-0.350000X-0.625000X0.350000X-0.625000X0.350000X0.625000X-0.350000X0.625000X0*%
G04 #@! TD*
G04 #@! TA.AperFunction,ComponentPad*
%ADD15O,1.200000X1.750000*%
G04 #@! TD*
G04 #@! TA.AperFunction,ComponentPad*
%ADD16R,2.000000X4.000000*%
G04 #@! TD*
G04 #@! TA.AperFunction,ComponentPad*
%ADD17O,2.000000X4.000000*%
G04 #@! TD*
G04 #@! TA.AperFunction,ComponentPad*
%ADD18R,1.700000X1.700000*%
G04 #@! TD*
G04 #@! TA.AperFunction,ComponentPad*
%ADD19O,1.700000X1.700000*%
G04 #@! TD*
G04 #@! TA.AperFunction,ViaPad*
%ADD20C,0.900000*%
G04 #@! TD*
G04 #@! TA.AperFunction,Conductor*
%ADD21C,0.750000*%
G04 #@! TD*
G04 #@! TA.AperFunction,Conductor*
%ADD22C,0.500000*%
G04 #@! TD*
G04 #@! TA.AperFunction,Conductor*
%ADD23C,0.300000*%
G04 #@! TD*
G04 APERTURE END LIST*
D10*
X118080424Y-88020120D03*
X123160424Y-88020120D03*
D11*
X127020424Y-89260120D03*
X127020424Y-91260120D03*
D12*
X141160000Y-80600000D03*
D13*
X146040000Y-80600000D03*
D10*
X142260000Y-88012500D03*
X147340000Y-88012500D03*
D11*
X151200000Y-89252500D03*
X151200000Y-91252500D03*
D14*
X159900000Y-88600000D03*
D15*
X161900000Y-88600000D03*
D16*
X107800000Y-88587500D03*
D17*
X102550000Y-88587500D03*
D18*
X108370000Y-74770000D03*
D19*
X108370000Y-72230000D03*
X110910000Y-74770000D03*
X110910000Y-72230000D03*
X113450000Y-74770000D03*
X113450000Y-72230000D03*
X115990000Y-74770000D03*
X115990000Y-72230000D03*
X118530000Y-74770000D03*
X118530000Y-72230000D03*
X121070000Y-74770000D03*
X121070000Y-72230000D03*
X123610000Y-74770000D03*
X123610000Y-72230000D03*
X126150000Y-74770000D03*
X126150000Y-72230000D03*
X128690000Y-74770000D03*
X128690000Y-72230000D03*
X131230000Y-74770000D03*
X131230000Y-72230000D03*
X133770000Y-74770000D03*
X133770000Y-72230000D03*
X136310000Y-74770000D03*
X136310000Y-72230000D03*
X138850000Y-74770000D03*
X138850000Y-72230000D03*
X141390000Y-74770000D03*
X141390000Y-72230000D03*
X143930000Y-74770000D03*
X143930000Y-72230000D03*
X146470000Y-74770000D03*
X146470000Y-72230000D03*
X149010000Y-74770000D03*
X149010000Y-72230000D03*
X151550000Y-74770000D03*
X151550000Y-72230000D03*
X154090000Y-74770000D03*
X154090000Y-72230000D03*
X156630000Y-74770000D03*
X156630000Y-72230000D03*
D20*
X128587500Y-86312500D03*
X121400000Y-78600000D03*
X120100000Y-79000000D03*
X103700000Y-78100000D03*
X144100000Y-84800000D03*
X103800000Y-79400000D03*
X155300000Y-84200000D03*
X103900000Y-80700000D03*
X119987500Y-80212500D03*
X125887500Y-79112500D03*
X116600000Y-80400000D03*
X132100000Y-86300000D03*
X153700000Y-78600000D03*
D21*
X110910000Y-72230000D02*
X108370000Y-72230000D01*
D22*
X132110000Y-78190000D02*
X128690000Y-74770000D01*
X132110000Y-86290000D02*
X132110000Y-78190000D01*
X132100000Y-86300000D02*
X132110000Y-86290000D01*
D23*
X127780424Y-90020120D02*
X150432380Y-90020120D01*
X127020424Y-89260120D02*
X127780424Y-90020120D01*
X150432380Y-90020120D02*
X151200000Y-89252500D01*
X127150000Y-91500000D02*
X127070000Y-91420000D01*
M02*
