G04 #@! TF.GenerationSoftware,KiCad,Pcbnew,9.0.6-9.0.6~ubuntu24.04.1*
G04 #@! TF.CreationDate,2026-04-10T22:19:31-04:00*
G04 #@! TF.ProjectId,anchor_hat,616e6368-6f72-45f6-9861-742e6b696361,rev?*
G04 #@! TF.SameCoordinates,Original*
G04 #@! TF.FileFunction,Copper,L1,Top*
G04 #@! TF.FilePolarity,Positive*
%FSLAX46Y46*%
G04 Gerber Fmt 4.6, Leading zero omitted, Abs format (unit mm)*
G04 Created by KiCad (PCBNEW 9.0.6-9.0.6~ubuntu24.04.1) date 2026-04-10 22:19:31*
%MOMM*%
%LPD*%
G01*
G04 APERTURE LIST*
G04 Aperture macros list*
%AMRoundRect*
0 Rectangle with rounded corners*
0 $1 Rounding radius*
0 $2 $3 $4 $5 $6 $7 $8 $9 X,Y pos of 4 corners*
0 Add a 4 corners polygon primitive as box body*
4,1,4,$2,$3,$4,$5,$6,$7,$8,$9,$2,$3,0*
0 Add four circle primitives for the rounded corners*
1,1,$1+$1,$2,$3*
1,1,$1+$1,$4,$5*
1,1,$1+$1,$6,$7*
1,1,$1+$1,$8,$9*
0 Add four rect primitives between the rounded corners*
20,1,$1+$1,$2,$3,$4,$5,0*
20,1,$1+$1,$4,$5,$6,$7,0*
20,1,$1+$1,$6,$7,$8,$9,0*
20,1,$1+$1,$8,$9,$2,$3,0*%
G04 Aperture macros list end*
G04 #@! TA.AperFunction,SMDPad,CuDef*
%ADD10RoundRect,0.150000X-0.512500X-0.150000X0.512500X-0.150000X0.512500X0.150000X-0.512500X0.150000X0*%
G04 #@! TD*
G04 #@! TA.AperFunction,SMDPad,CuDef*
%ADD11RoundRect,0.225000X0.225000X0.250000X-0.225000X0.250000X-0.225000X-0.250000X0.225000X-0.250000X0*%
G04 #@! TD*
G04 #@! TA.AperFunction,SMDPad,CuDef*
%ADD12RoundRect,0.200000X0.275000X-0.200000X0.275000X0.200000X-0.275000X0.200000X-0.275000X-0.200000X0*%
G04 #@! TD*
G04 #@! TA.AperFunction,SMDPad,CuDef*
%ADD13RoundRect,0.225000X-0.225000X-0.250000X0.225000X-0.250000X0.225000X0.250000X-0.225000X0.250000X0*%
G04 #@! TD*
G04 #@! TA.AperFunction,ComponentPad*
%ADD14C,2.800000*%
G04 #@! TD*
G04 #@! TA.AperFunction,ComponentPad*
%ADD15C,1.520000*%
G04 #@! TD*
G04 #@! TA.AperFunction,SMDPad,CuDef*
%ADD16RoundRect,0.100000X0.100000X-0.637500X0.100000X0.637500X-0.100000X0.637500X-0.100000X-0.637500X0*%
G04 #@! TD*
G04 #@! TA.AperFunction,SMDPad,CuDef*
%ADD17RoundRect,0.250000X-0.325000X-0.650000X0.325000X-0.650000X0.325000X0.650000X-0.325000X0.650000X0*%
G04 #@! TD*
G04 #@! TA.AperFunction,SMDPad,CuDef*
%ADD18RoundRect,0.200000X-0.275000X0.200000X-0.275000X-0.200000X0.275000X-0.200000X0.275000X0.200000X0*%
G04 #@! TD*
G04 #@! TA.AperFunction,SMDPad,CuDef*
%ADD19RoundRect,0.175000X-0.175000X-1.675000X0.175000X-1.675000X0.175000X1.675000X-0.175000X1.675000X0*%
G04 #@! TD*
G04 #@! TA.AperFunction,SMDPad,CuDef*
%ADD20RoundRect,0.250001X-0.499999X-0.899999X0.499999X-0.899999X0.499999X0.899999X-0.499999X0.899999X0*%
G04 #@! TD*
G04 #@! TA.AperFunction,ComponentPad*
%ADD21R,1.500000X1.500000*%
G04 #@! TD*
G04 #@! TA.AperFunction,ComponentPad*
%ADD22C,1.500000*%
G04 #@! TD*
G04 #@! TA.AperFunction,ComponentPad*
%ADD23RoundRect,0.250000X-0.350000X-0.625000X0.350000X-0.625000X0.350000X0.625000X-0.350000X0.625000X0*%
G04 #@! TD*
G04 #@! TA.AperFunction,ComponentPad*
%ADD24O,1.200000X1.750000*%
G04 #@! TD*
G04 #@! TA.AperFunction,SMDPad,CuDef*
%ADD25RoundRect,0.225000X-0.250000X0.225000X-0.250000X-0.225000X0.250000X-0.225000X0.250000X0.225000X0*%
G04 #@! TD*
G04 #@! TA.AperFunction,SMDPad,CuDef*
%ADD26RoundRect,0.250000X0.325000X0.650000X-0.325000X0.650000X-0.325000X-0.650000X0.325000X-0.650000X0*%
G04 #@! TD*
G04 #@! TA.AperFunction,SMDPad,CuDef*
%ADD27RoundRect,0.150000X-0.150000X0.825000X-0.150000X-0.825000X0.150000X-0.825000X0.150000X0.825000X0*%
G04 #@! TD*
G04 #@! TA.AperFunction,ComponentPad*
%ADD28R,2.000000X4.000000*%
G04 #@! TD*
G04 #@! TA.AperFunction,ComponentPad*
%ADD29O,2.000000X4.000000*%
G04 #@! TD*
G04 #@! TA.AperFunction,SMDPad,CuDef*
%ADD30R,7.500000X3.000000*%
G04 #@! TD*
G04 #@! TA.AperFunction,ComponentPad*
%ADD31R,1.700000X1.700000*%
G04 #@! TD*
G04 #@! TA.AperFunction,ComponentPad*
%ADD32O,1.700000X1.700000*%
G04 #@! TD*
G04 #@! TA.AperFunction,ViaPad*
%ADD33C,0.900000*%
G04 #@! TD*
G04 #@! TA.AperFunction,Conductor*
%ADD34C,0.500000*%
G04 #@! TD*
G04 #@! TA.AperFunction,Conductor*
%ADD35C,0.300000*%
G04 #@! TD*
G04 #@! TA.AperFunction,Conductor*
%ADD36C,0.750000*%
G04 #@! TD*
G04 #@! TA.AperFunction,Conductor*
%ADD37C,1.000000*%
G04 #@! TD*
G04 APERTURE END LIST*
D10*
X121412500Y-80212500D03*
X121412500Y-81162500D03*
X121412500Y-82112500D03*
X123687500Y-82112500D03*
X123687500Y-81162500D03*
X123687500Y-80212500D03*
D11*
X142375000Y-84805000D03*
X140825000Y-84805000D03*
D12*
X153600000Y-89650000D03*
X153600000Y-88000000D03*
D13*
X133350000Y-86400000D03*
X134900000Y-86400000D03*
D14*
X118080424Y-88020120D03*
X123160424Y-88020120D03*
D15*
X127020424Y-89260120D03*
X127020424Y-91260120D03*
D16*
X130600000Y-84467500D03*
X131250000Y-84467500D03*
X131900000Y-84467500D03*
X132550000Y-84467500D03*
X133200000Y-84467500D03*
X133850000Y-84467500D03*
X134500000Y-84467500D03*
X135150000Y-84467500D03*
X135800000Y-84467500D03*
X136450000Y-84467500D03*
X136450000Y-78742500D03*
X135800000Y-78742500D03*
X135150000Y-78742500D03*
X134500000Y-78742500D03*
X133850000Y-78742500D03*
X133200000Y-78742500D03*
X132550000Y-78742500D03*
X131900000Y-78742500D03*
X131250000Y-78742500D03*
X130600000Y-78742500D03*
D17*
X120912500Y-84512500D03*
X123862500Y-84512500D03*
D18*
X127450000Y-80387500D03*
X127450000Y-82037500D03*
D19*
X153750000Y-81300000D03*
X155250000Y-81300000D03*
D20*
X151700000Y-79200000D03*
X157300000Y-79200000D03*
D21*
X141160000Y-80600000D03*
D22*
X146040000Y-80600000D03*
D14*
X142260000Y-88012500D03*
X147340000Y-88012500D03*
D15*
X151200000Y-89252500D03*
X151200000Y-91252500D03*
D23*
X159900000Y-88600000D03*
D24*
X161900000Y-88600000D03*
D25*
X125750000Y-80462500D03*
X125750000Y-82012500D03*
D18*
X127450000Y-83587500D03*
X127450000Y-85237500D03*
D26*
X108175000Y-78100000D03*
X105225000Y-78100000D03*
D12*
X129100000Y-80925000D03*
X129100000Y-79275000D03*
D27*
X136500000Y-88800000D03*
X135230000Y-88800000D03*
X133960000Y-88800000D03*
X132690000Y-88800000D03*
X132690000Y-93750000D03*
X133960000Y-93750000D03*
X135230000Y-93750000D03*
X136500000Y-93750000D03*
D28*
X107800000Y-88587500D03*
D29*
X102550000Y-88587500D03*
D30*
X115010000Y-84400000D03*
X114990000Y-77800000D03*
D12*
X138300000Y-93925000D03*
X138300000Y-92275000D03*
D11*
X124462500Y-78412500D03*
X122912500Y-78412500D03*
D13*
X145695000Y-84805000D03*
X147245000Y-84805000D03*
D26*
X108175000Y-80700000D03*
X105225000Y-80700000D03*
D31*
X108370000Y-74770000D03*
D32*
X108370000Y-72230000D03*
X110910000Y-74770000D03*
X110910000Y-72230000D03*
X113450000Y-74770000D03*
X113450000Y-72230000D03*
X115990000Y-74770000D03*
X115990000Y-72230000D03*
X118530000Y-74770000D03*
X118530000Y-72230000D03*
X121070000Y-74770000D03*
X121070000Y-72230000D03*
X123610000Y-74770000D03*
X123610000Y-72230000D03*
X126150000Y-74770000D03*
X126150000Y-72230000D03*
X128690000Y-74770000D03*
X128690000Y-72230000D03*
X131230000Y-74770000D03*
X131230000Y-72230000D03*
X133770000Y-74770000D03*
X133770000Y-72230000D03*
X136310000Y-74770000D03*
X136310000Y-72230000D03*
X138850000Y-74770000D03*
X138850000Y-72230000D03*
X141390000Y-74770000D03*
X141390000Y-72230000D03*
X143930000Y-74770000D03*
X143930000Y-72230000D03*
X146470000Y-74770000D03*
X146470000Y-72230000D03*
X149010000Y-74770000D03*
X149010000Y-72230000D03*
X151550000Y-74770000D03*
X151550000Y-72230000D03*
X154090000Y-74770000D03*
X154090000Y-72230000D03*
X156630000Y-74770000D03*
X156630000Y-72230000D03*
D33*
X128587500Y-86312500D03*
X121400000Y-78600000D03*
X120100000Y-79000000D03*
X103700000Y-78100000D03*
X144100000Y-84800000D03*
X103800000Y-79400000D03*
X155300000Y-84200000D03*
X103900000Y-80700000D03*
X119987500Y-80212500D03*
X125887500Y-79112500D03*
X116600000Y-80400000D03*
X132100000Y-86300000D03*
X152300000Y-82200000D03*
X153700000Y-84200000D03*
X153700000Y-78600000D03*
D34*
X137403100Y-87374000D02*
X136096900Y-87374000D01*
D35*
X127450000Y-85237500D02*
X127512500Y-85237500D01*
X127512500Y-85237500D02*
X128587500Y-86312500D01*
D36*
X121400000Y-78600000D02*
X121400000Y-79325000D01*
X121412500Y-79337500D02*
X121412500Y-80212500D01*
X123210000Y-88180000D02*
X123210000Y-88110000D01*
D35*
X142495000Y-84805000D02*
X142495000Y-84705000D01*
D37*
X155250000Y-76150000D02*
X156630000Y-74770000D01*
D35*
X135330000Y-86830000D02*
X134900000Y-86400000D01*
D34*
X138300000Y-88270900D02*
X137403100Y-87374000D01*
D37*
X155250000Y-81300000D02*
X155250000Y-76150000D01*
D36*
X121400000Y-79325000D02*
X121412500Y-79337500D01*
D34*
X144752500Y-90600000D02*
X147340000Y-88012500D01*
D37*
X155250000Y-84150000D02*
X155300000Y-84200000D01*
D35*
X135330000Y-88400000D02*
X135330000Y-86830000D01*
D36*
X103800000Y-79400000D02*
X103800000Y-78200000D01*
D34*
X136096900Y-87374000D02*
X135230000Y-88240900D01*
D36*
X105225000Y-80700000D02*
X103900000Y-80700000D01*
D34*
X135230000Y-88240900D02*
X135230000Y-88800000D01*
X138300000Y-90600000D02*
X144752500Y-90600000D01*
D37*
X155250000Y-81300000D02*
X155250000Y-84150000D01*
D36*
X105225000Y-80700000D02*
X105225000Y-78100000D01*
X103800000Y-78200000D02*
X103700000Y-78100000D01*
D34*
X138300000Y-92275000D02*
X138300000Y-90600000D01*
D36*
X103900000Y-79500000D02*
X103800000Y-79400000D01*
D35*
X142380000Y-84800000D02*
X142375000Y-84805000D01*
D36*
X121412500Y-80212500D02*
X119987500Y-80212500D01*
D35*
X144105000Y-84805000D02*
X144100000Y-84800000D01*
D36*
X123160424Y-88020120D02*
X123160424Y-85214576D01*
D35*
X142495000Y-84705000D02*
X142345000Y-84555000D01*
X144100000Y-84800000D02*
X142380000Y-84800000D01*
X145695000Y-84805000D02*
X144105000Y-84805000D01*
D36*
X103900000Y-80700000D02*
X103900000Y-79500000D01*
X105225000Y-78100000D02*
X103700000Y-78100000D01*
X123862500Y-87318044D02*
X123160424Y-88020120D01*
D34*
X138300000Y-90600000D02*
X138300000Y-88270900D01*
D36*
X123160424Y-85214576D02*
X123862500Y-84512500D01*
X123862500Y-84512500D02*
X123812500Y-84512500D01*
X121412500Y-80212500D02*
X121312500Y-80212500D01*
X121312500Y-80212500D02*
X120100000Y-79000000D01*
D35*
X133200000Y-76740000D02*
X133200000Y-78742500D01*
X131230000Y-74770000D02*
X133200000Y-76740000D01*
X130732529Y-73569000D02*
X130029000Y-74272529D01*
X132550000Y-78005001D02*
X132550000Y-78742500D01*
X130029000Y-74272529D02*
X130029000Y-75484001D01*
X130732529Y-73569000D02*
X132569000Y-73569000D01*
X132569000Y-73569000D02*
X133770000Y-74770000D01*
X130029000Y-75484001D02*
X132550000Y-78005001D01*
X135150000Y-78742500D02*
X135150000Y-77628471D01*
X137511000Y-74272529D02*
X136669471Y-73431000D01*
X137511000Y-75267471D02*
X137511000Y-74272529D01*
X136669471Y-73431000D02*
X134971000Y-73431000D01*
X134971000Y-73431000D02*
X133770000Y-72230000D01*
X135150000Y-77628471D02*
X137511000Y-75267471D01*
X134500000Y-78742500D02*
X134500000Y-76580000D01*
X134500000Y-76580000D02*
X136310000Y-74770000D01*
X136987040Y-74770000D02*
X136310000Y-74770000D01*
X132251001Y-79831000D02*
X136739582Y-79831000D01*
X131900000Y-79479999D02*
X132251001Y-79831000D01*
X131900000Y-78742500D02*
X131900000Y-79479999D01*
X136739582Y-79831000D02*
X140051000Y-76519582D01*
X139347471Y-73569000D02*
X137649000Y-73569000D01*
X140051000Y-76519582D02*
X140051000Y-74272529D01*
X137649000Y-73569000D02*
X136310000Y-72230000D01*
X140051000Y-74272529D02*
X139347471Y-73569000D01*
D36*
X114990000Y-78790000D02*
X116600000Y-80400000D01*
X114690000Y-78100000D02*
X114990000Y-77800000D01*
D35*
X125750000Y-79250000D02*
X125887500Y-79112500D01*
D36*
X108370000Y-72230000D02*
X106944000Y-73656000D01*
X106944000Y-73656000D02*
X106944000Y-76869000D01*
D35*
X127450000Y-80387500D02*
X125825000Y-80387500D01*
D36*
X108175000Y-80700000D02*
X108175000Y-78100000D01*
X108175000Y-78100000D02*
X114690000Y-78100000D01*
D35*
X125750000Y-80462500D02*
X125750000Y-79250000D01*
D36*
X106944000Y-76869000D02*
X108175000Y-78100000D01*
X114990000Y-78000000D02*
X114990000Y-78790000D01*
X114990000Y-77800000D02*
X114990000Y-78790000D01*
X114890000Y-78100000D02*
X114990000Y-78000000D01*
D35*
X124462500Y-79437500D02*
X123687500Y-80212500D01*
X124462500Y-78412500D02*
X124462500Y-79437500D01*
X122912500Y-78412500D02*
X122426000Y-78899000D01*
D36*
X117431624Y-84400000D02*
X115010000Y-84400000D01*
X120669124Y-81162500D02*
X117431624Y-84400000D01*
D35*
X121937220Y-81162500D02*
X121412500Y-81162500D01*
X122426000Y-78899000D02*
X122426000Y-80673720D01*
X122426000Y-80673720D02*
X121937220Y-81162500D01*
D36*
X115010000Y-84600000D02*
X117231624Y-84600000D01*
X120669124Y-81162500D02*
X121412500Y-81162500D01*
D35*
X125750000Y-82012500D02*
X123787500Y-82012500D01*
X127425000Y-82012500D02*
X127450000Y-82037500D01*
X125750000Y-82012500D02*
X127425000Y-82012500D01*
X123787500Y-82012500D02*
X123687500Y-82112500D01*
X127450000Y-82037500D02*
X127450000Y-83587500D01*
D34*
X130128750Y-78271250D02*
X130600000Y-78742500D01*
X133350000Y-86400000D02*
X132200000Y-86400000D01*
D35*
X129125000Y-79275000D02*
X130128750Y-78271250D01*
D34*
X128690000Y-76832500D02*
X130128750Y-78271250D01*
X134060000Y-87110000D02*
X133350000Y-86400000D01*
X132200000Y-86400000D02*
X132100000Y-86300000D01*
D35*
X129100000Y-79275000D02*
X129125000Y-79275000D01*
D34*
X134060000Y-88400000D02*
X134060000Y-87110000D01*
X128690000Y-76832500D02*
X128690000Y-74770000D01*
D35*
X147245000Y-84805000D02*
X147245000Y-81805000D01*
X145993000Y-86057000D02*
X147245000Y-84805000D01*
X135952898Y-86057000D02*
X145993000Y-86057000D01*
X135150000Y-85254102D02*
X135952898Y-86057000D01*
X147245000Y-81805000D02*
X146040000Y-80600000D01*
X135150000Y-84467500D02*
X135150000Y-85254102D01*
X140825000Y-84805000D02*
X140074000Y-85556000D01*
X140825000Y-80935000D02*
X141160000Y-80600000D01*
X140825000Y-84805000D02*
X140825000Y-80935000D01*
X135800000Y-85195582D02*
X136160418Y-85556000D01*
X140074000Y-85556000D02*
X136160418Y-85556000D01*
X135800000Y-84467500D02*
X135800000Y-85195582D01*
X136675000Y-93925000D02*
X136500000Y-93750000D01*
X138300000Y-93925000D02*
X136675000Y-93925000D01*
X131250000Y-79479999D02*
X131250000Y-78742500D01*
X129804999Y-80925000D02*
X131250000Y-79479999D01*
X129100000Y-80925000D02*
X129804999Y-80925000D01*
X131250000Y-87360000D02*
X131250000Y-84467500D01*
X132690000Y-88800000D02*
X131250000Y-87360000D01*
X136600000Y-88400000D02*
X136600000Y-88817678D01*
X130600000Y-88397678D02*
X132328322Y-90126000D01*
X135591678Y-90126000D02*
X136500000Y-89217678D01*
X136500000Y-89217678D02*
X136500000Y-88800000D01*
X132328322Y-90126000D02*
X135591678Y-90126000D01*
X130600000Y-84467500D02*
X130600000Y-88397678D01*
D36*
X121412500Y-82112500D02*
X121412500Y-84012500D01*
D37*
X153750000Y-84150000D02*
X153700000Y-84200000D01*
X153750000Y-81300000D02*
X153750000Y-78650000D01*
D36*
X121412500Y-84012500D02*
X120912500Y-84512500D01*
D37*
X153200000Y-81300000D02*
X152300000Y-82200000D01*
D36*
X120912500Y-84512500D02*
X120912500Y-85188044D01*
X120912500Y-85188044D02*
X118080424Y-88020120D01*
D37*
X153750000Y-81300000D02*
X153200000Y-81300000D01*
X153750000Y-78650000D02*
X153700000Y-78600000D01*
X153750000Y-81300000D02*
X153750000Y-84150000D01*
D35*
X130460120Y-89260120D02*
X127020424Y-89260120D01*
X152452500Y-88000000D02*
X151200000Y-89252500D01*
X153600000Y-88000000D02*
X152452500Y-88000000D01*
X133960000Y-92760000D02*
X130460120Y-89260120D01*
X133960000Y-93750000D02*
X133960000Y-92760000D01*
X147376500Y-95076000D02*
X151200000Y-91252500D01*
X135330000Y-93350000D02*
X135330000Y-94324999D01*
X134878999Y-95076000D02*
X130836304Y-95076000D01*
X130836304Y-95076000D02*
X127020424Y-91260120D01*
X134878999Y-95076000D02*
X147376500Y-95076000D01*
X153600000Y-89650000D02*
X152802500Y-89650000D01*
X152802500Y-89650000D02*
X151200000Y-91252500D01*
X135230000Y-94724999D02*
X134878999Y-95076000D01*
M02*
