G04 #@! TF.GenerationSoftware,KiCad,Pcbnew,9.0.6-9.0.6~ubuntu24.04.1*
G04 #@! TF.CreationDate,2026-04-10T22:19:31-04:00*
G04 #@! TF.ProjectId,anchor_hat,616e6368-6f72-45f6-9861-742e6b696361,rev?*
G04 #@! TF.SameCoordinates,Original*
G04 #@! TF.FileFunction,Soldermask,Top*
G04 #@! TF.FilePolarity,Negative*
%FSLAX46Y46*%
G04 Gerber Fmt 4.6, Leading zero omitted, Abs format (unit mm)*
G04 Created by KiCad (PCBNEW 9.0.6-9.0.6~ubuntu24.04.1) date 2026-04-10 22:19:31*
%MOMM*%
%LPD*%
G01*
G04 APERTURE LIST*
G04 Aperture macros list*
%AMRoundRect*
0 Rectangle with rounded corners*
0 $1 Rounding radius*
0 $2 $3 $4 $5 $6 $7 $8 $9 X,Y pos of 4 corners*
0 Add a 4 corners polygon primitive as box body*
4,1,4,$2,$3,$4,$5,$6,$7,$8,$9,$2,$3,0*
0 Add four circle primitives for the rounded corners*
1,1,$1+$1,$2,$3*
1,1,$1+$1,$4,$5*
1,1,$1+$1,$6,$7*
1,1,$1+$1,$8,$9*
0 Add four rect primitives between the rounded corners*
20,1,$1+$1,$2,$3,$4,$5,0*
20,1,$1+$1,$4,$5,$6,$7,0*
20,1,$1+$1,$6,$7,$8,$9,0*
20,1,$1+$1,$8,$9,$2,$3,0*%
G04 Aperture macros list end*
%ADD10C,2.700000*%
%ADD11RoundRect,0.150000X-0.512500X-0.150000X0.512500X-0.150000X0.512500X0.150000X-0.512500X0.150000X0*%
%ADD12RoundRect,0.225000X0.225000X0.250000X-0.225000X0.250000X-0.225000X-0.250000X0.225000X-0.250000X0*%
%ADD13RoundRect,0.200000X0.275000X-0.200000X0.275000X0.200000X-0.275000X0.200000X-0.275000X-0.200000X0*%
%ADD14RoundRect,0.225000X-0.225000X-0.250000X0.225000X-0.250000X0.225000X0.250000X-0.225000X0.250000X0*%
%ADD15C,2.800000*%
%ADD16C,1.520000*%
%ADD17RoundRect,0.100000X0.100000X-0.637500X0.100000X0.637500X-0.100000X0.637500X-0.100000X-0.637500X0*%
%ADD18RoundRect,0.250000X-0.325000X-0.650000X0.325000X-0.650000X0.325000X0.650000X-0.325000X0.650000X0*%
%ADD19RoundRect,0.200000X-0.275000X0.200000X-0.275000X-0.200000X0.275000X-0.200000X0.275000X0.200000X0*%
%ADD20RoundRect,0.175000X-0.175000X-1.675000X0.175000X-1.675000X0.175000X1.675000X-0.175000X1.675000X0*%
%ADD21RoundRect,0.250001X-0.499999X-0.899999X0.499999X-0.899999X0.499999X0.899999X-0.499999X0.899999X0*%
%ADD22R,1.500000X1.500000*%
%ADD23C,1.500000*%
%ADD24RoundRect,0.250000X-0.350000X-0.625000X0.350000X-0.625000X0.350000X0.625000X-0.350000X0.625000X0*%
%ADD25O,1.200000X1.750000*%
%ADD26RoundRect,0.225000X-0.250000X0.225000X-0.250000X-0.225000X0.250000X-0.225000X0.250000X0.225000X0*%
%ADD27RoundRect,0.250000X0.325000X0.650000X-0.325000X0.650000X-0.325000X-0.650000X0.325000X-0.650000X0*%
%ADD28RoundRect,0.150000X-0.150000X0.825000X-0.150000X-0.825000X0.150000X-0.825000X0.150000X0.825000X0*%
%ADD29R,2.000000X4.000000*%
%ADD30O,2.000000X4.000000*%
%ADD31R,7.500000X3.000000*%
%ADD32R,1.700000X1.700000*%
%ADD33O,1.700000X1.700000*%
G04 APERTURE END LIST*
D10*
X161500000Y-73500000D03*
D11*
X121412500Y-80212500D03*
X121412500Y-81162500D03*
X121412500Y-82112500D03*
X123687500Y-82112500D03*
X123687500Y-81162500D03*
X123687500Y-80212500D03*
D12*
X142375000Y-84805000D03*
X140825000Y-84805000D03*
D13*
X153600000Y-89650000D03*
X153600000Y-88000000D03*
D14*
X133350000Y-86400000D03*
X134900000Y-86400000D03*
D15*
X118080424Y-88020120D03*
X123160424Y-88020120D03*
D16*
X127020424Y-89260120D03*
X127020424Y-91260120D03*
D17*
X130600000Y-84467500D03*
X131250000Y-84467500D03*
X131900000Y-84467500D03*
X132550000Y-84467500D03*
X133200000Y-84467500D03*
X133850000Y-84467500D03*
X134500000Y-84467500D03*
X135150000Y-84467500D03*
X135800000Y-84467500D03*
X136450000Y-84467500D03*
X136450000Y-78742500D03*
X135800000Y-78742500D03*
X135150000Y-78742500D03*
X134500000Y-78742500D03*
X133850000Y-78742500D03*
X133200000Y-78742500D03*
X132550000Y-78742500D03*
X131900000Y-78742500D03*
X131250000Y-78742500D03*
X130600000Y-78742500D03*
D18*
X120912500Y-84512500D03*
X123862500Y-84512500D03*
D19*
X127450000Y-80387500D03*
X127450000Y-82037500D03*
D20*
X153750000Y-81300000D03*
X155250000Y-81300000D03*
D21*
X151700000Y-79200000D03*
X157300000Y-79200000D03*
D22*
X141160000Y-80600000D03*
D23*
X146040000Y-80600000D03*
D15*
X142260000Y-88012500D03*
X147340000Y-88012500D03*
D16*
X151200000Y-89252500D03*
X151200000Y-91252500D03*
D24*
X159900000Y-88600000D03*
D25*
X161900000Y-88600000D03*
D26*
X125750000Y-80462500D03*
X125750000Y-82012500D03*
D19*
X127450000Y-83587500D03*
X127450000Y-85237500D03*
D27*
X108175000Y-78100000D03*
X105225000Y-78100000D03*
D13*
X129100000Y-80925000D03*
X129100000Y-79275000D03*
D28*
X136500000Y-88800000D03*
X135230000Y-88800000D03*
X133960000Y-88800000D03*
X132690000Y-88800000D03*
X132690000Y-93750000D03*
X133960000Y-93750000D03*
X135230000Y-93750000D03*
X136500000Y-93750000D03*
D29*
X107800000Y-88587500D03*
D30*
X102550000Y-88587500D03*
D10*
X103500000Y-96500000D03*
D31*
X115010000Y-84400000D03*
X114990000Y-77800000D03*
D10*
X103500000Y-73500000D03*
D13*
X138300000Y-93925000D03*
X138300000Y-92275000D03*
D12*
X124462500Y-78412500D03*
X122912500Y-78412500D03*
D10*
X161500000Y-96500000D03*
D14*
X145695000Y-84805000D03*
X147245000Y-84805000D03*
D27*
X108175000Y-80700000D03*
X105225000Y-80700000D03*
D32*
X108370000Y-74770000D03*
D33*
X108370000Y-72230000D03*
X110910000Y-74770000D03*
X110910000Y-72230000D03*
X113450000Y-74770000D03*
X113450000Y-72230000D03*
X115990000Y-74770000D03*
X115990000Y-72230000D03*
X118530000Y-74770000D03*
X118530000Y-72230000D03*
X121070000Y-74770000D03*
X121070000Y-72230000D03*
X123610000Y-74770000D03*
X123610000Y-72230000D03*
X126150000Y-74770000D03*
X126150000Y-72230000D03*
X128690000Y-74770000D03*
X128690000Y-72230000D03*
X131230000Y-74770000D03*
X131230000Y-72230000D03*
X133770000Y-74770000D03*
X133770000Y-72230000D03*
X136310000Y-74770000D03*
X136310000Y-72230000D03*
X138850000Y-74770000D03*
X138850000Y-72230000D03*
X141390000Y-74770000D03*
X141390000Y-72230000D03*
X143930000Y-74770000D03*
X143930000Y-72230000D03*
X146470000Y-74770000D03*
X146470000Y-72230000D03*
X149010000Y-74770000D03*
X149010000Y-72230000D03*
X151550000Y-74770000D03*
X151550000Y-72230000D03*
X154090000Y-74770000D03*
X154090000Y-72230000D03*
X156630000Y-74770000D03*
X156630000Y-72230000D03*
M02*
