M48
; DRILL file {KiCad 9.0.6-9.0.6~ubuntu24.04.1} date 2026-03-10T07:54:45-0400
; FORMAT={-:-/ absolute / metric / decimal}
; #@! TF.CreationDate,2026-03-10T07:54:45-04:00
; #@! TF.GenerationSoftware,Kicad,Pcbnew,9.0.6-9.0.6~ubuntu24.04.1
; #@! TF.FileFunction,Plated,1,4,PTH
FMAT,2
METRIC
; #@! TA.AperFunction,Plated,PTH,ViaDrill
T1C0.600
; #@! TA.AperFunction,Plated,PTH,ComponentDrill
T2C0.750
; #@! TA.AperFunction,Plated,PTH,ComponentDrill
T3C0.900
; #@! TA.AperFunction,Plated,PTH,ComponentDrill
T4C0.914
; #@! TA.AperFunction,Plated,PTH,ComponentDrill
T5C1.000
; #@! TA.AperFunction,Plated,PTH,ComponentDrill
T6C1.900
%
G90
G05
T1
X103.7Y-78.1
X103.8Y-79.4
X103.9Y-80.7
X116.6Y-80.4
X119.987Y-80.212
X120.1Y-79.0
X121.4Y-78.6
X125.887Y-79.112
X128.588Y-86.312
X132.1Y-86.3
X144.1Y-84.8
X153.7Y-78.6
X155.3Y-84.2
T2
X159.9Y-88.6
X161.9Y-88.6
T3
X141.16Y-80.6
X146.04Y-80.6
T4
X127.02Y-89.26
X127.02Y-91.26
X151.2Y-89.252
X151.2Y-91.252
T5
X108.37Y-72.23
X108.37Y-74.77
X110.91Y-72.23
X110.91Y-74.77
X113.45Y-72.23
X113.45Y-74.77
X115.99Y-72.23
X115.99Y-74.77
X118.53Y-72.23
X118.53Y-74.77
X121.07Y-72.23
X121.07Y-74.77
X123.61Y-72.23
X123.61Y-74.77
X126.15Y-72.23
X126.15Y-74.77
X128.69Y-72.23
X128.69Y-74.77
X131.23Y-72.23
X131.23Y-74.77
X133.77Y-72.23
X133.77Y-74.77
X136.31Y-72.23
X136.31Y-74.77
X138.85Y-72.23
X138.85Y-74.77
X141.39Y-72.23
X141.39Y-74.77
X143.93Y-72.23
X143.93Y-74.77
X146.47Y-72.23
X146.47Y-74.77
X149.01Y-72.23
X149.01Y-74.77
X151.55Y-72.23
X151.55Y-74.77
X154.09Y-72.23
X154.09Y-74.77
X156.63Y-72.23
X156.63Y-74.77
T6
X118.08Y-88.02
X123.16Y-88.02
X142.26Y-88.013
X147.34Y-88.013
T5
G00X102.55Y-87.787
M15
G01X102.55Y-89.388
M16
G05
G00X107.8Y-87.787
M15
G01X107.8Y-89.388
M16
G05
M30
