G04 #@! TF.GenerationSoftware,KiCad,Pcbnew,9.0.6-9.0.6~ubuntu24.04.1*
G04 #@! TF.CreationDate,2025-11-30T20:30:41-05:00*
G04 #@! TF.ProjectId,gripper_hat,67726970-7065-4725-9f68-61742e6b6963,rev?*
G04 #@! TF.SameCoordinates,Original*
G04 #@! TF.FileFunction,Paste,Top*
G04 #@! TF.FilePolarity,Positive*
%FSLAX46Y46*%
G04 Gerber Fmt 4.6, Leading zero omitted, Abs format (unit mm)*
G04 Created by KiCad (PCBNEW 9.0.6-9.0.6~ubuntu24.04.1) date 2025-11-30 20:30:41*
%MOMM*%
%LPD*%
G01*
G04 APERTURE LIST*
G04 Aperture macros list*
%AMRoundRect*
0 Rectangle with rounded corners*
0 $1 Rounding radius*
0 $2 $3 $4 $5 $6 $7 $8 $9 X,Y pos of 4 corners*
0 Add a 4 corners polygon primitive as box body*
4,1,4,$2,$3,$4,$5,$6,$7,$8,$9,$2,$3,0*
0 Add four circle primitives for the rounded corners*
1,1,$1+$1,$2,$3*
1,1,$1+$1,$4,$5*
1,1,$1+$1,$6,$7*
1,1,$1+$1,$8,$9*
0 Add four rect primitives between the rounded corners*
20,1,$1+$1,$2,$3,$4,$5,0*
20,1,$1+$1,$4,$5,$6,$7,0*
20,1,$1+$1,$6,$7,$8,$9,0*
20,1,$1+$1,$8,$9,$2,$3,0*%
G04 Aperture macros list end*
%ADD10C,0.100000*%
%ADD11RoundRect,0.200000X-0.275000X0.200000X-0.275000X-0.200000X0.275000X-0.200000X0.275000X0.200000X0*%
%ADD12RoundRect,0.225000X0.250000X-0.225000X0.250000X0.225000X-0.250000X0.225000X-0.250000X-0.225000X0*%
%ADD13RoundRect,0.250000X-1.500000X-0.550000X1.500000X-0.550000X1.500000X0.550000X-1.500000X0.550000X0*%
%ADD14RoundRect,0.225000X-0.225000X-0.250000X0.225000X-0.250000X0.225000X0.250000X-0.225000X0.250000X0*%
%ADD15RoundRect,0.225000X0.225000X0.250000X-0.225000X0.250000X-0.225000X-0.250000X0.225000X-0.250000X0*%
%ADD16R,0.250000X1.100000*%
%ADD17RoundRect,0.225000X-0.250000X0.225000X-0.250000X-0.225000X0.250000X-0.225000X0.250000X0.225000X0*%
%ADD18RoundRect,0.200000X-0.200000X-0.275000X0.200000X-0.275000X0.200000X0.275000X-0.200000X0.275000X0*%
%ADD19RoundRect,0.200000X0.275000X-0.200000X0.275000X0.200000X-0.275000X0.200000X-0.275000X-0.200000X0*%
%ADD20R,0.254000X0.675000*%
%ADD21R,0.675000X0.254000*%
%ADD22RoundRect,0.200000X0.200000X0.275000X-0.200000X0.275000X-0.200000X-0.275000X0.200000X-0.275000X0*%
%ADD23RoundRect,0.150000X-0.150000X0.587500X-0.150000X-0.587500X0.150000X-0.587500X0.150000X0.587500X0*%
%ADD24RoundRect,0.150000X0.512500X0.150000X-0.512500X0.150000X-0.512500X-0.150000X0.512500X-0.150000X0*%
%ADD25RoundRect,0.045000X0.405000X0.105000X-0.405000X0.105000X-0.405000X-0.105000X0.405000X-0.105000X0*%
%ADD26RoundRect,0.045000X-0.105000X0.405000X-0.105000X-0.405000X0.105000X-0.405000X0.105000X0.405000X0*%
%ADD27RoundRect,0.150000X-0.625000X0.150000X-0.625000X-0.150000X0.625000X-0.150000X0.625000X0.150000X0*%
%ADD28RoundRect,0.250000X-0.650000X0.350000X-0.650000X-0.350000X0.650000X-0.350000X0.650000X0.350000X0*%
G04 APERTURE END LIST*
D10*
X135100000Y-85775000D02*
X135300000Y-85775000D01*
X135300000Y-84975000D01*
X135100000Y-84975000D01*
X135100000Y-85775000D01*
G36*
X135100000Y-85775000D02*
G01*
X135300000Y-85775000D01*
X135300000Y-84975000D01*
X135100000Y-84975000D01*
X135100000Y-85775000D01*
G37*
X135600000Y-85775000D02*
X135800000Y-85775000D01*
X135800000Y-84975000D01*
X135600000Y-84975000D01*
X135600000Y-85775000D01*
G36*
X135600000Y-85775000D02*
G01*
X135800000Y-85775000D01*
X135800000Y-84975000D01*
X135600000Y-84975000D01*
X135600000Y-85775000D01*
G37*
X136100000Y-85775000D02*
X136300000Y-85775000D01*
X136300000Y-84975000D01*
X136100000Y-84975000D01*
X136100000Y-85775000D01*
G36*
X136100000Y-85775000D02*
G01*
X136300000Y-85775000D01*
X136300000Y-84975000D01*
X136100000Y-84975000D01*
X136100000Y-85775000D01*
G37*
X137150000Y-85775000D02*
X137350000Y-85775000D01*
X137350000Y-84975000D01*
X137150000Y-84975000D01*
X137150000Y-85775000D01*
G36*
X137150000Y-85775000D02*
G01*
X137350000Y-85775000D01*
X137350000Y-84975000D01*
X137150000Y-84975000D01*
X137150000Y-85775000D01*
G37*
X137650000Y-85775000D02*
X137850000Y-85775000D01*
X137850000Y-84975000D01*
X137650000Y-84975000D01*
X137650000Y-85775000D01*
G36*
X137650000Y-85775000D02*
G01*
X137850000Y-85775000D01*
X137850000Y-84975000D01*
X137650000Y-84975000D01*
X137650000Y-85775000D01*
G37*
X138150000Y-85775000D02*
X138350000Y-85775000D01*
X138350000Y-84975000D01*
X138150000Y-84975000D01*
X138150000Y-85775000D01*
G36*
X138150000Y-85775000D02*
G01*
X138350000Y-85775000D01*
X138350000Y-84975000D01*
X138150000Y-84975000D01*
X138150000Y-85775000D01*
G37*
X139150000Y-85775000D02*
X139350000Y-85775000D01*
X139350000Y-84975000D01*
X139150000Y-84975000D01*
X139150000Y-85775000D01*
G36*
X139150000Y-85775000D02*
G01*
X139350000Y-85775000D01*
X139350000Y-84975000D01*
X139150000Y-84975000D01*
X139150000Y-85775000D01*
G37*
X139650000Y-85775000D02*
X139850000Y-85775000D01*
X139850000Y-84975000D01*
X139650000Y-84975000D01*
X139650000Y-85775000D01*
G36*
X139650000Y-85775000D02*
G01*
X139850000Y-85775000D01*
X139850000Y-84975000D01*
X139650000Y-84975000D01*
X139650000Y-85775000D01*
G37*
X134900000Y-83775000D02*
X134100000Y-83775000D01*
X134100000Y-83575000D01*
X134900000Y-83575000D01*
X134900000Y-83775000D01*
G36*
X134900000Y-83775000D02*
G01*
X134100000Y-83775000D01*
X134100000Y-83575000D01*
X134900000Y-83575000D01*
X134900000Y-83775000D01*
G37*
X134900000Y-84275000D02*
X134100000Y-84275000D01*
X134100000Y-84075000D01*
X134900000Y-84075000D01*
X134900000Y-84275000D01*
G36*
X134900000Y-84275000D02*
G01*
X134100000Y-84275000D01*
X134100000Y-84075000D01*
X134900000Y-84075000D01*
X134900000Y-84275000D01*
G37*
X134900000Y-84775000D02*
X134100000Y-84775000D01*
X134100000Y-84575000D01*
X134900000Y-84575000D01*
X134900000Y-84775000D01*
G36*
X134900000Y-84775000D02*
G01*
X134100000Y-84775000D01*
X134100000Y-84575000D01*
X134900000Y-84575000D01*
X134900000Y-84775000D01*
G37*
X136300000Y-84475000D02*
X135400000Y-84475000D01*
X135400000Y-82475000D01*
X136300000Y-82475000D01*
X136300000Y-84475000D01*
G36*
X136300000Y-84475000D02*
G01*
X135400000Y-84475000D01*
X135400000Y-82475000D01*
X136300000Y-82475000D01*
X136300000Y-84475000D01*
G37*
X138100000Y-84625000D02*
X137400000Y-84625000D01*
X137400000Y-83525000D01*
X138100000Y-83525000D01*
X138100000Y-84625000D01*
G36*
X138100000Y-84625000D02*
G01*
X137400000Y-84625000D01*
X137400000Y-83525000D01*
X138100000Y-83525000D01*
X138100000Y-84625000D01*
G37*
X139600000Y-84675000D02*
X139150000Y-84675000D01*
X139150000Y-83875000D01*
X139600000Y-83875000D01*
X139600000Y-84675000D01*
G36*
X139600000Y-84675000D02*
G01*
X139150000Y-84675000D01*
X139150000Y-83875000D01*
X139600000Y-83875000D01*
X139600000Y-84675000D01*
G37*
X148600000Y-85775000D02*
X148800000Y-85775000D01*
X148800000Y-84975000D01*
X148600000Y-84975000D01*
X148600000Y-85775000D01*
G36*
X148600000Y-85775000D02*
G01*
X148800000Y-85775000D01*
X148800000Y-84975000D01*
X148600000Y-84975000D01*
X148600000Y-85775000D01*
G37*
X149100000Y-85775000D02*
X149300000Y-85775000D01*
X149300000Y-84975000D01*
X149100000Y-84975000D01*
X149100000Y-85775000D01*
G36*
X149100000Y-85775000D02*
G01*
X149300000Y-85775000D01*
X149300000Y-84975000D01*
X149100000Y-84975000D01*
X149100000Y-85775000D01*
G37*
X149600000Y-85775000D02*
X149800000Y-85775000D01*
X149800000Y-84975000D01*
X149600000Y-84975000D01*
X149600000Y-85775000D01*
G36*
X149600000Y-85775000D02*
G01*
X149800000Y-85775000D01*
X149800000Y-84975000D01*
X149600000Y-84975000D01*
X149600000Y-85775000D01*
G37*
X150650000Y-85775000D02*
X150850000Y-85775000D01*
X150850000Y-84975000D01*
X150650000Y-84975000D01*
X150650000Y-85775000D01*
G36*
X150650000Y-85775000D02*
G01*
X150850000Y-85775000D01*
X150850000Y-84975000D01*
X150650000Y-84975000D01*
X150650000Y-85775000D01*
G37*
X151150000Y-85775000D02*
X151350000Y-85775000D01*
X151350000Y-84975000D01*
X151150000Y-84975000D01*
X151150000Y-85775000D01*
G36*
X151150000Y-85775000D02*
G01*
X151350000Y-85775000D01*
X151350000Y-84975000D01*
X151150000Y-84975000D01*
X151150000Y-85775000D01*
G37*
X151650000Y-85775000D02*
X151850000Y-85775000D01*
X151850000Y-84975000D01*
X151650000Y-84975000D01*
X151650000Y-85775000D01*
G36*
X151650000Y-85775000D02*
G01*
X151850000Y-85775000D01*
X151850000Y-84975000D01*
X151650000Y-84975000D01*
X151650000Y-85775000D01*
G37*
X152650000Y-85775000D02*
X152850000Y-85775000D01*
X152850000Y-84975000D01*
X152650000Y-84975000D01*
X152650000Y-85775000D01*
G36*
X152650000Y-85775000D02*
G01*
X152850000Y-85775000D01*
X152850000Y-84975000D01*
X152650000Y-84975000D01*
X152650000Y-85775000D01*
G37*
X153150000Y-85775000D02*
X153350000Y-85775000D01*
X153350000Y-84975000D01*
X153150000Y-84975000D01*
X153150000Y-85775000D01*
G36*
X153150000Y-85775000D02*
G01*
X153350000Y-85775000D01*
X153350000Y-84975000D01*
X153150000Y-84975000D01*
X153150000Y-85775000D01*
G37*
X148400000Y-83775000D02*
X147600000Y-83775000D01*
X147600000Y-83575000D01*
X148400000Y-83575000D01*
X148400000Y-83775000D01*
G36*
X148400000Y-83775000D02*
G01*
X147600000Y-83775000D01*
X147600000Y-83575000D01*
X148400000Y-83575000D01*
X148400000Y-83775000D01*
G37*
X148400000Y-84275000D02*
X147600000Y-84275000D01*
X147600000Y-84075000D01*
X148400000Y-84075000D01*
X148400000Y-84275000D01*
G36*
X148400000Y-84275000D02*
G01*
X147600000Y-84275000D01*
X147600000Y-84075000D01*
X148400000Y-84075000D01*
X148400000Y-84275000D01*
G37*
X148400000Y-84775000D02*
X147600000Y-84775000D01*
X147600000Y-84575000D01*
X148400000Y-84575000D01*
X148400000Y-84775000D01*
G36*
X148400000Y-84775000D02*
G01*
X147600000Y-84775000D01*
X147600000Y-84575000D01*
X148400000Y-84575000D01*
X148400000Y-84775000D01*
G37*
X149800000Y-84475000D02*
X148900000Y-84475000D01*
X148900000Y-82475000D01*
X149800000Y-82475000D01*
X149800000Y-84475000D01*
G36*
X149800000Y-84475000D02*
G01*
X148900000Y-84475000D01*
X148900000Y-82475000D01*
X149800000Y-82475000D01*
X149800000Y-84475000D01*
G37*
X151600000Y-84625000D02*
X150900000Y-84625000D01*
X150900000Y-83525000D01*
X151600000Y-83525000D01*
X151600000Y-84625000D01*
G36*
X151600000Y-84625000D02*
G01*
X150900000Y-84625000D01*
X150900000Y-83525000D01*
X151600000Y-83525000D01*
X151600000Y-84625000D01*
G37*
X153100000Y-84675000D02*
X152650000Y-84675000D01*
X152650000Y-83875000D01*
X153100000Y-83875000D01*
X153100000Y-84675000D01*
G36*
X153100000Y-84675000D02*
G01*
X152650000Y-84675000D01*
X152650000Y-83875000D01*
X153100000Y-83875000D01*
X153100000Y-84675000D01*
G37*
D11*
X154000000Y-78175000D03*
X154000000Y-79825000D03*
D12*
X152250000Y-79750000D03*
X152250000Y-78200000D03*
D13*
X137700000Y-93500000D03*
X143300000Y-93500000D03*
D14*
X108250000Y-88750000D03*
X109800000Y-88750000D03*
D15*
X146025000Y-87500000D03*
X144475000Y-87500000D03*
D16*
X123850000Y-82150000D03*
X124350000Y-82150000D03*
X124850000Y-82150000D03*
X125350000Y-82150000D03*
X125850000Y-82150000D03*
X125850000Y-77850000D03*
X125350000Y-77850000D03*
X124850000Y-77850000D03*
X124350000Y-77850000D03*
X123850000Y-77850000D03*
D17*
X127500000Y-78000000D03*
X127500000Y-79550000D03*
D18*
X155625000Y-90825000D03*
X157275000Y-90825000D03*
D19*
X142750000Y-79350000D03*
X142750000Y-77700000D03*
D18*
X160850000Y-81000000D03*
X162500000Y-81000000D03*
D14*
X148975000Y-87000000D03*
X150525000Y-87000000D03*
D18*
X116850000Y-91525000D03*
X118500000Y-91525000D03*
X143925000Y-81675000D03*
X145575000Y-81675000D03*
D20*
X113862500Y-84662500D03*
D21*
X114000000Y-83750000D03*
X114000000Y-83250000D03*
X114000000Y-82750000D03*
X114000000Y-82250000D03*
D20*
X113862500Y-81337500D03*
X113362500Y-81337500D03*
X112862500Y-81337500D03*
X112362500Y-81337500D03*
X111862500Y-81337500D03*
X111362500Y-81337500D03*
X110862500Y-81337500D03*
X110362500Y-81337500D03*
X109862500Y-81337500D03*
X109362500Y-81337500D03*
D21*
X109225000Y-82250000D03*
X109225000Y-82750000D03*
X109225000Y-83250000D03*
X109225000Y-83750000D03*
D20*
X109362500Y-84662500D03*
X109862500Y-84662500D03*
X110362500Y-84662500D03*
X110862500Y-84662500D03*
X111362500Y-84662500D03*
X111862500Y-84662500D03*
X112362500Y-84662500D03*
X112862500Y-84662500D03*
X113362500Y-84662500D03*
D22*
X147525000Y-89250000D03*
X145875000Y-89250000D03*
D12*
X145500000Y-85475000D03*
X145500000Y-83925000D03*
D19*
X153700000Y-91600000D03*
X153700000Y-89950000D03*
D15*
X157200000Y-87250000D03*
X155650000Y-87250000D03*
D23*
X122950000Y-88587500D03*
X121050000Y-88587500D03*
X122000000Y-90462500D03*
D14*
X137475000Y-88700000D03*
X139025000Y-88700000D03*
D22*
X123825000Y-86500000D03*
X122175000Y-86500000D03*
D11*
X137500000Y-77700000D03*
X137500000Y-79350000D03*
D12*
X143750000Y-85525000D03*
X143750000Y-83975000D03*
D19*
X118000000Y-80725000D03*
X118000000Y-79075000D03*
D14*
X155675000Y-92575000D03*
X157225000Y-92575000D03*
D11*
X111250000Y-77675000D03*
X111250000Y-79325000D03*
D18*
X160850000Y-91000000D03*
X162500000Y-91000000D03*
D17*
X140950000Y-77750000D03*
X140950000Y-79300000D03*
D18*
X116850000Y-89025000D03*
X118500000Y-89025000D03*
D24*
X119500000Y-85750000D03*
X119500000Y-84800000D03*
X119500000Y-83850000D03*
X117225000Y-83850000D03*
X117225000Y-85750000D03*
D25*
X140500000Y-84675000D03*
X140500000Y-84175000D03*
X140500000Y-83675000D03*
X140500000Y-83175000D03*
X140500000Y-82675000D03*
X140500000Y-82175000D03*
D26*
X139750000Y-81425000D03*
X139250000Y-81425000D03*
X138750000Y-81425000D03*
X138250000Y-81425000D03*
X137750000Y-81425000D03*
X137250000Y-81425000D03*
X135700000Y-81425000D03*
D25*
X134500000Y-82175000D03*
X134500000Y-82675000D03*
D14*
X108200000Y-86750000D03*
X109750000Y-86750000D03*
D12*
X113500000Y-79275000D03*
X113500000Y-77725000D03*
X139250000Y-79300000D03*
X139250000Y-77750000D03*
D27*
X105500000Y-83250000D03*
X105500000Y-84250000D03*
X105500000Y-85250000D03*
X105500000Y-86250000D03*
D28*
X101625000Y-81950000D03*
X101625000Y-87550000D03*
D18*
X155600000Y-89000000D03*
X157250000Y-89000000D03*
D25*
X154000000Y-84675000D03*
X154000000Y-84175000D03*
X154000000Y-83675000D03*
X154000000Y-83175000D03*
X154000000Y-82675000D03*
X154000000Y-82175000D03*
D26*
X153250000Y-81425000D03*
X152750000Y-81425000D03*
X152250000Y-81425000D03*
X151750000Y-81425000D03*
X151250000Y-81425000D03*
X150750000Y-81425000D03*
X149200000Y-81425000D03*
D25*
X148000000Y-82175000D03*
X148000000Y-82675000D03*
M02*
