M48
; DRILL file {KiCad 9.0.6-9.0.6~ubuntu24.04.1} date 2025-11-30T20:30:34-0500
; FORMAT={-:-/ absolute / metric / decimal}
; #@! TF.CreationDate,2025-11-30T20:30:34-05:00
; #@! TF.GenerationSoftware,Kicad,Pcbnew,9.0.6-9.0.6~ubuntu24.04.1
; #@! TF.FileFunction,Plated,1,2,PTH
FMAT,2
METRIC
; #@! TA.AperFunction,Plated,PTH,ViaDrill
T1C0.600
; #@! TA.AperFunction,Plated,PTH,ComponentDrill
T2C0.850
; #@! TA.AperFunction,Plated,PTH,ComponentDrill
T3C1.000
%
G90
G05
T1
X107.5Y-82.75
X108.0Y-85.25
X109.5Y-80.0
X111.25Y-83.5
X114.952Y-84.548
X116.5Y-87.5
X117.25Y-82.25
X119.431Y-89.052
X119.75Y-73.5
X121.0Y-79.5
X121.5Y-83.5
X122.0Y-77.5
X127.0Y-84.5
X128.0Y-83.0
X129.5Y-76.5
X138.6Y-87.2
X140.25Y-73.5
X141.5Y-81.5
X142.4Y-84.6
X142.9Y-80.8
X147.0Y-77.75
X147.75Y-73.5
X150.0Y-88.25
X154.776Y-85.75
X155.25Y-81.75
X155.549Y-84.29
X156.0Y-82.75
X156.25Y-96.0
X157.5Y-78.25
X157.5Y-95.5
T2
X114.0Y-96.0
X116.5Y-96.0
X119.0Y-96.0
X127.0Y-96.0
X129.5Y-96.0
X132.0Y-96.0
T3
X108.37Y-72.23
X108.37Y-74.77
X110.91Y-72.23
X110.91Y-74.77
X113.45Y-72.23
X113.45Y-74.77
X115.99Y-72.23
X115.99Y-74.77
X118.53Y-72.23
X118.53Y-74.77
X121.07Y-72.23
X121.07Y-74.77
X123.61Y-72.23
X123.61Y-74.77
X126.15Y-72.23
X126.15Y-74.77
X127.5Y-87.5
X127.5Y-90.04
X128.69Y-72.23
X128.69Y-74.77
X131.23Y-72.23
X131.23Y-74.77
X133.77Y-72.23
X133.77Y-74.77
X136.31Y-72.23
X136.31Y-74.77
X138.85Y-72.23
X138.85Y-74.77
X141.39Y-72.23
X141.39Y-74.77
X143.93Y-72.23
X143.93Y-74.77
X146.47Y-72.23
X146.47Y-74.77
X149.01Y-72.23
X149.01Y-74.77
X151.55Y-72.23
X151.55Y-74.77
X154.09Y-72.23
X154.09Y-74.77
X156.63Y-72.23
X156.63Y-74.77
X159.96Y-84.0
X159.96Y-88.0
X162.5Y-84.0
X162.5Y-88.0
M30
