G04 #@! TF.GenerationSoftware,KiCad,Pcbnew,9.0.6-9.0.6~ubuntu24.04.1*
G04 #@! TF.CreationDate,2025-11-30T20:30:41-05:00*
G04 #@! TF.ProjectId,gripper_hat,67726970-7065-4725-9f68-61742e6b6963,rev?*
G04 #@! TF.SameCoordinates,Original*
G04 #@! TF.FileFunction,Copper,L2,Bot*
G04 #@! TF.FilePolarity,Positive*
%FSLAX46Y46*%
G04 Gerber Fmt 4.6, Leading zero omitted, Abs format (unit mm)*
G04 Created by KiCad (PCBNEW 9.0.6-9.0.6~ubuntu24.04.1) date 2025-11-30 20:30:41*
%MOMM*%
%LPD*%
G01*
G04 APERTURE LIST*
G04 Aperture macros list*
%AMRoundRect*
0 Rectangle with rounded corners*
0 $1 Rounding radius*
0 $2 $3 $4 $5 $6 $7 $8 $9 X,Y pos of 4 corners*
0 Add a 4 corners polygon primitive as box body*
4,1,4,$2,$3,$4,$5,$6,$7,$8,$9,$2,$3,0*
0 Add four circle primitives for the rounded corners*
1,1,$1+$1,$2,$3*
1,1,$1+$1,$4,$5*
1,1,$1+$1,$6,$7*
1,1,$1+$1,$8,$9*
0 Add four rect primitives between the rounded corners*
20,1,$1+$1,$2,$3,$4,$5,0*
20,1,$1+$1,$4,$5,$6,$7,0*
20,1,$1+$1,$6,$7,$8,$9,0*
20,1,$1+$1,$8,$9,$2,$3,0*%
G04 Aperture macros list end*
G04 #@! TA.AperFunction,ComponentPad*
%ADD10RoundRect,0.250000X-0.600000X-0.675000X0.600000X-0.675000X0.600000X0.675000X-0.600000X0.675000X0*%
G04 #@! TD*
G04 #@! TA.AperFunction,ComponentPad*
%ADD11O,1.700000X1.850000*%
G04 #@! TD*
G04 #@! TA.AperFunction,ComponentPad*
%ADD12R,1.700000X1.700000*%
G04 #@! TD*
G04 #@! TA.AperFunction,ComponentPad*
%ADD13C,1.700000*%
G04 #@! TD*
G04 #@! TA.AperFunction,ComponentPad*
%ADD14O,1.700000X1.700000*%
G04 #@! TD*
G04 #@! TA.AperFunction,ViaPad*
%ADD15C,0.900000*%
G04 #@! TD*
G04 #@! TA.AperFunction,Conductor*
%ADD16C,0.250000*%
G04 #@! TD*
G04 #@! TA.AperFunction,Conductor*
%ADD17C,0.200000*%
G04 #@! TD*
G04 #@! TA.AperFunction,Conductor*
%ADD18C,0.500000*%
G04 #@! TD*
G04 APERTURE END LIST*
D10*
X114000000Y-96000000D03*
D11*
X116500000Y-96000000D03*
X119000000Y-96000000D03*
D12*
X162500000Y-88000000D03*
D13*
X159960000Y-88000000D03*
D10*
X127000000Y-96000000D03*
D11*
X129500000Y-96000000D03*
X132000000Y-96000000D03*
D12*
X162500000Y-84000000D03*
D13*
X159960000Y-84000000D03*
D12*
X127500000Y-87500000D03*
D13*
X127500000Y-90040000D03*
D12*
X108370000Y-74770000D03*
D14*
X108370000Y-72230000D03*
X110910000Y-74770000D03*
X110910000Y-72230000D03*
X113450000Y-74770000D03*
X113450000Y-72230000D03*
X115990000Y-74770000D03*
X115990000Y-72230000D03*
X118530000Y-74770000D03*
X118530000Y-72230000D03*
X121070000Y-74770000D03*
X121070000Y-72230000D03*
X123610000Y-74770000D03*
X123610000Y-72230000D03*
X126150000Y-74770000D03*
X126150000Y-72230000D03*
X128690000Y-74770000D03*
X128690000Y-72230000D03*
X131230000Y-74770000D03*
X131230000Y-72230000D03*
X133770000Y-74770000D03*
X133770000Y-72230000D03*
X136310000Y-74770000D03*
X136310000Y-72230000D03*
X138850000Y-74770000D03*
X138850000Y-72230000D03*
X141390000Y-74770000D03*
X141390000Y-72230000D03*
X143930000Y-74770000D03*
X143930000Y-72230000D03*
X146470000Y-74770000D03*
X146470000Y-72230000D03*
X149010000Y-74770000D03*
X149010000Y-72230000D03*
X151550000Y-74770000D03*
X151550000Y-72230000D03*
X154090000Y-74770000D03*
X154090000Y-72230000D03*
X156630000Y-74770000D03*
X156630000Y-72230000D03*
D15*
X111250000Y-83500000D03*
X141500000Y-81500000D03*
X157500000Y-95500000D03*
X129500000Y-76500000D03*
X155548746Y-84290049D03*
X114951992Y-84548008D03*
X121500000Y-83500000D03*
X147750000Y-73500000D03*
X156250000Y-96000000D03*
X140250000Y-73500000D03*
X150000000Y-88250000D03*
X155250000Y-81750000D03*
X138600000Y-87200000D03*
X109500000Y-80000000D03*
X121000000Y-79500000D03*
X108000000Y-85250000D03*
X122000000Y-77500000D03*
X107500000Y-82750000D03*
X119431163Y-89052180D03*
X157500000Y-78250000D03*
X147000000Y-77750000D03*
X119750000Y-73500000D03*
X116500000Y-87500000D03*
X117250000Y-82250000D03*
X127000000Y-84500000D03*
X128000000Y-83000000D03*
X142400000Y-84600000D03*
X142900000Y-80800000D03*
X154776000Y-85750000D03*
X156000000Y-82750000D03*
D16*
X155548746Y-84290049D02*
X155224000Y-83965303D01*
X155224000Y-83965303D02*
X155224000Y-81776000D01*
X155224000Y-81776000D02*
X155250000Y-81750000D01*
D17*
X121000000Y-79500000D02*
X113750000Y-79500000D01*
D16*
X106724000Y-78956000D02*
X110910000Y-74770000D01*
X108000000Y-85250000D02*
X106724000Y-83974000D01*
D17*
X113750000Y-79500000D02*
X108000000Y-85250000D01*
D16*
X106724000Y-83974000D02*
X106724000Y-78956000D01*
D17*
X116180000Y-77500000D02*
X113450000Y-74770000D01*
D16*
X107500000Y-82750000D02*
X107500000Y-80720000D01*
X107500000Y-80720000D02*
X113450000Y-74770000D01*
D17*
X122000000Y-77500000D02*
X116180000Y-77500000D01*
D18*
X157931000Y-76319000D02*
X156750000Y-77500000D01*
D16*
X119431163Y-89052180D02*
X127400000Y-81083343D01*
X127400000Y-71029000D02*
X127300000Y-70929000D01*
D18*
X127300000Y-70929000D02*
X157168892Y-70929000D01*
D16*
X157500000Y-78250000D02*
X156750000Y-77500000D01*
D18*
X156750000Y-77500000D02*
X156500000Y-77750000D01*
D16*
X127400000Y-81083343D02*
X127400000Y-71029000D01*
D18*
X112211000Y-70929000D02*
X127300000Y-70929000D01*
X156500000Y-77750000D02*
X147850000Y-77750000D01*
X157168892Y-70929000D02*
X157931000Y-71691108D01*
X110910000Y-72230000D02*
X112211000Y-70929000D01*
X147850000Y-77750000D02*
X147000000Y-77750000D01*
X157931000Y-71691108D02*
X157931000Y-76319000D01*
D16*
X109640000Y-73500000D02*
X108370000Y-74770000D01*
X119750000Y-73500000D02*
X109640000Y-73500000D01*
X116500000Y-87500000D02*
X117250000Y-86750000D01*
X117250000Y-86750000D02*
X117250000Y-82250000D01*
D17*
X162500000Y-88000000D02*
X161349000Y-89151000D01*
X134139768Y-84500000D02*
X127000000Y-84500000D01*
X138790768Y-89151000D02*
X134139768Y-84500000D01*
X161349000Y-89151000D02*
X138790768Y-89151000D01*
X162500000Y-88000000D02*
X162332240Y-88000000D01*
X131926000Y-79074000D02*
X157574000Y-79074000D01*
X128000000Y-83000000D02*
X131926000Y-79074000D01*
X157574000Y-79074000D02*
X162500000Y-84000000D01*
D16*
X142900000Y-80800000D02*
X142900000Y-84100000D01*
X142900000Y-84100000D02*
X142400000Y-84600000D01*
X155186225Y-85750000D02*
X154776000Y-85750000D01*
X156324746Y-83074746D02*
X156324746Y-84611479D01*
X156000000Y-82750000D02*
X156324746Y-83074746D01*
X156324746Y-84611479D02*
X155186225Y-85750000D01*
G04 #@! TA.AperFunction,Conductor*
G36*
X111770573Y-70519685D02*
G01*
X111816328Y-70572489D01*
X111826272Y-70641647D01*
X111797247Y-70705203D01*
X111791215Y-70711681D01*
X111318841Y-71184053D01*
X111257518Y-71217538D01*
X111206969Y-71217989D01*
X111013469Y-71179500D01*
X111013465Y-71179500D01*
X110806535Y-71179500D01*
X110806530Y-71179500D01*
X110603587Y-71219868D01*
X110603579Y-71219870D01*
X110412403Y-71299058D01*
X110240342Y-71414024D01*
X110094024Y-71560342D01*
X109979058Y-71732403D01*
X109899870Y-71923579D01*
X109899868Y-71923587D01*
X109859500Y-72126530D01*
X109859500Y-72333469D01*
X109899868Y-72536412D01*
X109899870Y-72536420D01*
X109979058Y-72727596D01*
X110094024Y-72899657D01*
X110157186Y-72962819D01*
X110190671Y-73024142D01*
X110185687Y-73093834D01*
X110143815Y-73149767D01*
X110078351Y-73174184D01*
X110069505Y-73174500D01*
X109597147Y-73174500D01*
X109514359Y-73196682D01*
X109440138Y-73239535D01*
X109440135Y-73239537D01*
X108996492Y-73683181D01*
X108935169Y-73716666D01*
X108908811Y-73719500D01*
X107500247Y-73719500D01*
X107441770Y-73731131D01*
X107441769Y-73731132D01*
X107375447Y-73775447D01*
X107331132Y-73841769D01*
X107331131Y-73841770D01*
X107319500Y-73900247D01*
X107319500Y-75639752D01*
X107331131Y-75698229D01*
X107331132Y-75698230D01*
X107375447Y-75764552D01*
X107441769Y-75808867D01*
X107441770Y-75808868D01*
X107500247Y-75820499D01*
X107500250Y-75820500D01*
X109099810Y-75820500D01*
X109166849Y-75840185D01*
X109212604Y-75892989D01*
X109222548Y-75962147D01*
X109193523Y-76025703D01*
X109187491Y-76032181D01*
X106463537Y-78756135D01*
X106463535Y-78756138D01*
X106420682Y-78830361D01*
X106408587Y-78875501D01*
X106408587Y-78875502D01*
X106408586Y-78875501D01*
X106398500Y-78913145D01*
X106398500Y-78913147D01*
X106398500Y-83931147D01*
X106398500Y-84016853D01*
X106400291Y-84023538D01*
X106420682Y-84099640D01*
X106442108Y-84136750D01*
X106463535Y-84173862D01*
X106914172Y-84624499D01*
X107323555Y-85033881D01*
X107357040Y-85095204D01*
X107357492Y-85145752D01*
X107349500Y-85185931D01*
X107349500Y-85314069D01*
X107349500Y-85314071D01*
X107349499Y-85314071D01*
X107374497Y-85439738D01*
X107374499Y-85439744D01*
X107423533Y-85558124D01*
X107423538Y-85558133D01*
X107494723Y-85664668D01*
X107494726Y-85664672D01*
X107585327Y-85755273D01*
X107585331Y-85755276D01*
X107691866Y-85826461D01*
X107691872Y-85826464D01*
X107691873Y-85826465D01*
X107810256Y-85875501D01*
X107810260Y-85875501D01*
X107810261Y-85875502D01*
X107935928Y-85900500D01*
X107935931Y-85900500D01*
X108064071Y-85900500D01*
X108148615Y-85883682D01*
X108189744Y-85875501D01*
X108308127Y-85826465D01*
X108414669Y-85755276D01*
X108505276Y-85664669D01*
X108576465Y-85558127D01*
X108625501Y-85439744D01*
X108646271Y-85335331D01*
X108650500Y-85314071D01*
X108650500Y-85185929D01*
X108641113Y-85138742D01*
X108636642Y-85116264D01*
X108642869Y-85046673D01*
X108670576Y-85004393D01*
X113838152Y-79836819D01*
X113899475Y-79803334D01*
X113925833Y-79800500D01*
X120352159Y-79800500D01*
X120419198Y-79820185D01*
X120455261Y-79855609D01*
X120494723Y-79914668D01*
X120494726Y-79914672D01*
X120585327Y-80005273D01*
X120585331Y-80005276D01*
X120691866Y-80076461D01*
X120691872Y-80076464D01*
X120691873Y-80076465D01*
X120810256Y-80125501D01*
X120810260Y-80125501D01*
X120810261Y-80125502D01*
X120935928Y-80150500D01*
X120935931Y-80150500D01*
X121064071Y-80150500D01*
X121148615Y-80133682D01*
X121189744Y-80125501D01*
X121308127Y-80076465D01*
X121414669Y-80005276D01*
X121505276Y-79914669D01*
X121576465Y-79808127D01*
X121625501Y-79689744D01*
X121650500Y-79564069D01*
X121650500Y-79435931D01*
X121650500Y-79435928D01*
X121625502Y-79310261D01*
X121625501Y-79310260D01*
X121625501Y-79310256D01*
X121576465Y-79191873D01*
X121576464Y-79191872D01*
X121576461Y-79191866D01*
X121505276Y-79085331D01*
X121505273Y-79085327D01*
X121414672Y-78994726D01*
X121414668Y-78994723D01*
X121308133Y-78923538D01*
X121308124Y-78923533D01*
X121189744Y-78874499D01*
X121189738Y-78874497D01*
X121064071Y-78849500D01*
X121064069Y-78849500D01*
X120935931Y-78849500D01*
X120935929Y-78849500D01*
X120810261Y-78874497D01*
X120810255Y-78874499D01*
X120691875Y-78923533D01*
X120691866Y-78923538D01*
X120585331Y-78994723D01*
X120585327Y-78994726D01*
X120494726Y-79085327D01*
X120494723Y-79085331D01*
X120455261Y-79144391D01*
X120401649Y-79189196D01*
X120352159Y-79199500D01*
X113710438Y-79199500D01*
X113672224Y-79209739D01*
X113634009Y-79219979D01*
X113634008Y-79219980D01*
X113567268Y-79258513D01*
X113565486Y-79259541D01*
X108245606Y-84579421D01*
X108184283Y-84612906D01*
X108133733Y-84613357D01*
X108064071Y-84599500D01*
X108064069Y-84599500D01*
X107935931Y-84599500D01*
X107895752Y-84607492D01*
X107826161Y-84601263D01*
X107783881Y-84573555D01*
X107435967Y-84225641D01*
X107085819Y-83875492D01*
X107052334Y-83814169D01*
X107049500Y-83787811D01*
X107049500Y-83453071D01*
X107069185Y-83386032D01*
X107121989Y-83340277D01*
X107191147Y-83330333D01*
X107220950Y-83338509D01*
X107310256Y-83375501D01*
X107310260Y-83375501D01*
X107310261Y-83375502D01*
X107435928Y-83400500D01*
X107435931Y-83400500D01*
X107564071Y-83400500D01*
X107648615Y-83383682D01*
X107689744Y-83375501D01*
X107808127Y-83326465D01*
X107914669Y-83255276D01*
X108005276Y-83164669D01*
X108076465Y-83058127D01*
X108125501Y-82939744D01*
X108143353Y-82850000D01*
X108150500Y-82814071D01*
X108150500Y-82685928D01*
X108125502Y-82560261D01*
X108125501Y-82560260D01*
X108125501Y-82560256D01*
X108076465Y-82441873D01*
X108076464Y-82441872D01*
X108076461Y-82441866D01*
X108005276Y-82335331D01*
X108005273Y-82335327D01*
X107914672Y-82244726D01*
X107880608Y-82221965D01*
X107835804Y-82168352D01*
X107825500Y-82118863D01*
X107825500Y-80906187D01*
X107845185Y-80839148D01*
X107861814Y-80818511D01*
X112912896Y-75767428D01*
X112974217Y-75733945D01*
X113043909Y-75738929D01*
X113047964Y-75740524D01*
X113143580Y-75780130D01*
X113288052Y-75808867D01*
X113346530Y-75820499D01*
X113346534Y-75820500D01*
X113346535Y-75820500D01*
X113553466Y-75820500D01*
X113553467Y-75820499D01*
X113756420Y-75780130D01*
X113876974Y-75730194D01*
X113946438Y-75722726D01*
X114008918Y-75754000D01*
X114012104Y-75757075D01*
X115939540Y-77684511D01*
X115995489Y-77740460D01*
X115995491Y-77740461D01*
X115995495Y-77740464D01*
X116064004Y-77780017D01*
X116064011Y-77780021D01*
X116140438Y-77800500D01*
X121352159Y-77800500D01*
X121419198Y-77820185D01*
X121455261Y-77855609D01*
X121494723Y-77914668D01*
X121494726Y-77914672D01*
X121585327Y-78005273D01*
X121585331Y-78005276D01*
X121691866Y-78076461D01*
X121691872Y-78076464D01*
X121691873Y-78076465D01*
X121810256Y-78125501D01*
X121810260Y-78125501D01*
X121810261Y-78125502D01*
X121935928Y-78150500D01*
X121935931Y-78150500D01*
X122064071Y-78150500D01*
X122148615Y-78133682D01*
X122189744Y-78125501D01*
X122308127Y-78076465D01*
X122414669Y-78005276D01*
X122505276Y-77914669D01*
X122576465Y-77808127D01*
X122625501Y-77689744D01*
X122633682Y-77648615D01*
X122650500Y-77564071D01*
X122650500Y-77435928D01*
X122625502Y-77310261D01*
X122625501Y-77310260D01*
X122625501Y-77310256D01*
X122576465Y-77191873D01*
X122576464Y-77191872D01*
X122576461Y-77191866D01*
X122505276Y-77085331D01*
X122505273Y-77085327D01*
X122414672Y-76994726D01*
X122414668Y-76994723D01*
X122308133Y-76923538D01*
X122308124Y-76923533D01*
X122189744Y-76874499D01*
X122189738Y-76874497D01*
X122064071Y-76849500D01*
X122064069Y-76849500D01*
X121935931Y-76849500D01*
X121935929Y-76849500D01*
X121810261Y-76874497D01*
X121810255Y-76874499D01*
X121691875Y-76923533D01*
X121691866Y-76923538D01*
X121585331Y-76994723D01*
X121585327Y-76994726D01*
X121494726Y-77085327D01*
X121494723Y-77085331D01*
X121455261Y-77144391D01*
X121401649Y-77189196D01*
X121352159Y-77199500D01*
X116355833Y-77199500D01*
X116288794Y-77179815D01*
X116268152Y-77163181D01*
X114437075Y-75332104D01*
X114403590Y-75270781D01*
X114408574Y-75201089D01*
X114410163Y-75197049D01*
X114460130Y-75076420D01*
X114500500Y-74873465D01*
X114500500Y-74666535D01*
X114460130Y-74463580D01*
X114380941Y-74272402D01*
X114265977Y-74100345D01*
X114265975Y-74100342D01*
X114202814Y-74037181D01*
X114169329Y-73975858D01*
X114174313Y-73906166D01*
X114216185Y-73850233D01*
X114281649Y-73825816D01*
X114290495Y-73825500D01*
X115149505Y-73825500D01*
X115216544Y-73845185D01*
X115262299Y-73897989D01*
X115272243Y-73967147D01*
X115243218Y-74030703D01*
X115237186Y-74037181D01*
X115174025Y-74100341D01*
X115174024Y-74100342D01*
X115059058Y-74272403D01*
X114979870Y-74463579D01*
X114979868Y-74463587D01*
X114939500Y-74666530D01*
X114939500Y-74873469D01*
X114979868Y-75076412D01*
X114979870Y-75076420D01*
X115059058Y-75267596D01*
X115174024Y-75439657D01*
X115320342Y-75585975D01*
X115320345Y-75585977D01*
X115492402Y-75700941D01*
X115683580Y-75780130D01*
X115828052Y-75808867D01*
X115886530Y-75820499D01*
X115886534Y-75820500D01*
X115886535Y-75820500D01*
X116093466Y-75820500D01*
X116093467Y-75820499D01*
X116296420Y-75780130D01*
X116487598Y-75700941D01*
X116659655Y-75585977D01*
X116805977Y-75439655D01*
X116920941Y-75267598D01*
X117000130Y-75076420D01*
X117011353Y-75020000D01*
X117023537Y-74958748D01*
X117040499Y-74873469D01*
X117040500Y-74873466D01*
X117040500Y-74666534D01*
X117040499Y-74666530D01*
X117013362Y-74530104D01*
X117000130Y-74463580D01*
X116920941Y-74272402D01*
X116805977Y-74100345D01*
X116805975Y-74100342D01*
X116742814Y-74037181D01*
X116709329Y-73975858D01*
X116714313Y-73906166D01*
X116756185Y-73850233D01*
X116821649Y-73825816D01*
X116830495Y-73825500D01*
X117551377Y-73825500D01*
X117618416Y-73845185D01*
X117664171Y-73897989D01*
X117674115Y-73967147D01*
X117651695Y-74022385D01*
X117546434Y-74167265D01*
X117464252Y-74328552D01*
X117464250Y-74328558D01*
X117408318Y-74500704D01*
X117408315Y-74500714D01*
X117405261Y-74520000D01*
X118096988Y-74520000D01*
X118064075Y-74577007D01*
X118030000Y-74704174D01*
X118030000Y-74835826D01*
X118064075Y-74962993D01*
X118096988Y-75020000D01*
X117405261Y-75020000D01*
X117408315Y-75039285D01*
X117408318Y-75039295D01*
X117464250Y-75211441D01*
X117464252Y-75211447D01*
X117546434Y-75372734D01*
X117652823Y-75519169D01*
X117780830Y-75647176D01*
X117927265Y-75753565D01*
X118088552Y-75835747D01*
X118088555Y-75835748D01*
X118260699Y-75891680D01*
X118260712Y-75891683D01*
X118280000Y-75894738D01*
X118280000Y-75203012D01*
X118337007Y-75235925D01*
X118464174Y-75270000D01*
X118595826Y-75270000D01*
X118722993Y-75235925D01*
X118780000Y-75203012D01*
X118780000Y-75894737D01*
X118799287Y-75891683D01*
X118799300Y-75891680D01*
X118971444Y-75835748D01*
X118971447Y-75835747D01*
X119132734Y-75753565D01*
X119279169Y-75647176D01*
X119407176Y-75519169D01*
X119513565Y-75372734D01*
X119595747Y-75211447D01*
X119595749Y-75211441D01*
X119651681Y-75039295D01*
X119651684Y-75039285D01*
X119654739Y-75020000D01*
X118963012Y-75020000D01*
X118995925Y-74962993D01*
X119030000Y-74835826D01*
X119030000Y-74704174D01*
X118995925Y-74577007D01*
X118963012Y-74520000D01*
X119654739Y-74520000D01*
X119651684Y-74500714D01*
X119651681Y-74500704D01*
X119595749Y-74328558D01*
X119593882Y-74324050D01*
X119595501Y-74323379D01*
X119583991Y-74262149D01*
X119610255Y-74197404D01*
X119667353Y-74157136D01*
X119707374Y-74150500D01*
X119814071Y-74150500D01*
X119898615Y-74133682D01*
X119939744Y-74125501D01*
X119977212Y-74109980D01*
X120046681Y-74102511D01*
X120109161Y-74133785D01*
X120144814Y-74193873D01*
X120142321Y-74263699D01*
X120139227Y-74271993D01*
X120059871Y-74463575D01*
X120059868Y-74463587D01*
X120019500Y-74666530D01*
X120019500Y-74873469D01*
X120059868Y-75076412D01*
X120059870Y-75076420D01*
X120139058Y-75267596D01*
X120254024Y-75439657D01*
X120400342Y-75585975D01*
X120400345Y-75585977D01*
X120572402Y-75700941D01*
X120763580Y-75780130D01*
X120908052Y-75808867D01*
X120966530Y-75820499D01*
X120966534Y-75820500D01*
X120966535Y-75820500D01*
X121173466Y-75820500D01*
X121173467Y-75820499D01*
X121376420Y-75780130D01*
X121567598Y-75700941D01*
X121739655Y-75585977D01*
X121885977Y-75439655D01*
X122000941Y-75267598D01*
X122080130Y-75076420D01*
X122120500Y-74873465D01*
X122120500Y-74666535D01*
X122120499Y-74666530D01*
X122559500Y-74666530D01*
X122559500Y-74873469D01*
X122599868Y-75076412D01*
X122599870Y-75076420D01*
X122679058Y-75267596D01*
X122794024Y-75439657D01*
X122940342Y-75585975D01*
X122940345Y-75585977D01*
X123112402Y-75700941D01*
X123303580Y-75780130D01*
X123448052Y-75808867D01*
X123506530Y-75820499D01*
X123506534Y-75820500D01*
X123506535Y-75820500D01*
X123713466Y-75820500D01*
X123713467Y-75820499D01*
X123916420Y-75780130D01*
X124107598Y-75700941D01*
X124279655Y-75585977D01*
X124425977Y-75439655D01*
X124540941Y-75267598D01*
X124620130Y-75076420D01*
X124660500Y-74873465D01*
X124660500Y-74666535D01*
X124620130Y-74463580D01*
X124540941Y-74272402D01*
X124425977Y-74100345D01*
X124425975Y-74100342D01*
X124279657Y-73954024D01*
X124188062Y-73892823D01*
X124107598Y-73839059D01*
X124086990Y-73830523D01*
X123916420Y-73759870D01*
X123916412Y-73759868D01*
X123713469Y-73719500D01*
X123713465Y-73719500D01*
X123506535Y-73719500D01*
X123506530Y-73719500D01*
X123303587Y-73759868D01*
X123303579Y-73759870D01*
X123112403Y-73839058D01*
X122940342Y-73954024D01*
X122794024Y-74100342D01*
X122679058Y-74272403D01*
X122599870Y-74463579D01*
X122599868Y-74463587D01*
X122559500Y-74666530D01*
X122120499Y-74666530D01*
X122080130Y-74463580D01*
X122000941Y-74272402D01*
X121885977Y-74100345D01*
X121885975Y-74100342D01*
X121739657Y-73954024D01*
X121648062Y-73892823D01*
X121567598Y-73839059D01*
X121546990Y-73830523D01*
X121376420Y-73759870D01*
X121376412Y-73759868D01*
X121173469Y-73719500D01*
X121173465Y-73719500D01*
X120966535Y-73719500D01*
X120966530Y-73719500D01*
X120763587Y-73759868D01*
X120763579Y-73759870D01*
X120572400Y-73839059D01*
X120572398Y-73839060D01*
X120554512Y-73851011D01*
X120487834Y-73871887D01*
X120420455Y-73853400D01*
X120373766Y-73801420D01*
X120362592Y-73732450D01*
X120371063Y-73700457D01*
X120375501Y-73689744D01*
X120400500Y-73564069D01*
X120400500Y-73435931D01*
X120400500Y-73435928D01*
X120375502Y-73310261D01*
X120375501Y-73310260D01*
X120375501Y-73310256D01*
X120371063Y-73299543D01*
X120363595Y-73230076D01*
X120394869Y-73167597D01*
X120454958Y-73131944D01*
X120524783Y-73134437D01*
X120554515Y-73148989D01*
X120572402Y-73160941D01*
X120763580Y-73240130D01*
X120966530Y-73280499D01*
X120966534Y-73280500D01*
X120966535Y-73280500D01*
X121173466Y-73280500D01*
X121173467Y-73280499D01*
X121376420Y-73240130D01*
X121567598Y-73160941D01*
X121739655Y-73045977D01*
X121885977Y-72899655D01*
X122000941Y-72727598D01*
X122080130Y-72536420D01*
X122091353Y-72480000D01*
X122103537Y-72418748D01*
X122120499Y-72333469D01*
X122120500Y-72333466D01*
X122120500Y-72126534D01*
X122120499Y-72126530D01*
X122092212Y-71984323D01*
X122080130Y-71923580D01*
X122000941Y-71732402D01*
X122000940Y-71732400D01*
X122000940Y-71732399D01*
X121894026Y-71572390D01*
X121873148Y-71505713D01*
X121891633Y-71438333D01*
X121943612Y-71391643D01*
X121997128Y-71379500D01*
X122563082Y-71379500D01*
X122630121Y-71399185D01*
X122675876Y-71451989D01*
X122685820Y-71521147D01*
X122663401Y-71576385D01*
X122626431Y-71627269D01*
X122544252Y-71788552D01*
X122544250Y-71788558D01*
X122488318Y-71960704D01*
X122488315Y-71960714D01*
X122485261Y-71980000D01*
X123176988Y-71980000D01*
X123144075Y-72037007D01*
X123110000Y-72164174D01*
X123110000Y-72295826D01*
X123144075Y-72422993D01*
X123176988Y-72480000D01*
X122485261Y-72480000D01*
X122488315Y-72499285D01*
X122488318Y-72499295D01*
X122544250Y-72671441D01*
X122544252Y-72671447D01*
X122626434Y-72832734D01*
X122732823Y-72979169D01*
X122860830Y-73107176D01*
X123007265Y-73213565D01*
X123168552Y-73295747D01*
X123168555Y-73295748D01*
X123340699Y-73351680D01*
X123340712Y-73351683D01*
X123360000Y-73354738D01*
X123360000Y-72663012D01*
X123417007Y-72695925D01*
X123544174Y-72730000D01*
X123675826Y-72730000D01*
X123802993Y-72695925D01*
X123860000Y-72663012D01*
X123860000Y-73354737D01*
X123879287Y-73351683D01*
X123879300Y-73351680D01*
X124051444Y-73295748D01*
X124051447Y-73295747D01*
X124212734Y-73213565D01*
X124359169Y-73107176D01*
X124487176Y-72979169D01*
X124593565Y-72832734D01*
X124675747Y-72671447D01*
X124675749Y-72671441D01*
X124731681Y-72499295D01*
X124731684Y-72499285D01*
X124734739Y-72480000D01*
X124043012Y-72480000D01*
X124075925Y-72422993D01*
X124110000Y-72295826D01*
X124110000Y-72164174D01*
X124075925Y-72037007D01*
X124043012Y-71980000D01*
X124734739Y-71980000D01*
X124731684Y-71960714D01*
X124731681Y-71960704D01*
X124675749Y-71788558D01*
X124675747Y-71788552D01*
X124593568Y-71627269D01*
X124556599Y-71576385D01*
X124533120Y-71510578D01*
X124548946Y-71442524D01*
X124599052Y-71393830D01*
X124656918Y-71379500D01*
X125222872Y-71379500D01*
X125289911Y-71399185D01*
X125335666Y-71451989D01*
X125345610Y-71521147D01*
X125325974Y-71572390D01*
X125219059Y-71732399D01*
X125219059Y-71732400D01*
X125139870Y-71923579D01*
X125139868Y-71923587D01*
X125099500Y-72126530D01*
X125099500Y-72333469D01*
X125139868Y-72536412D01*
X125139870Y-72536420D01*
X125219058Y-72727596D01*
X125334024Y-72899657D01*
X125480342Y-73045975D01*
X125480345Y-73045977D01*
X125652402Y-73160941D01*
X125843580Y-73240130D01*
X126046530Y-73280499D01*
X126046534Y-73280500D01*
X126046535Y-73280500D01*
X126253466Y-73280500D01*
X126253467Y-73280499D01*
X126456420Y-73240130D01*
X126647598Y-73160941D01*
X126819655Y-73045977D01*
X126832779Y-73032853D01*
X126862819Y-73002814D01*
X126924142Y-72969329D01*
X126993834Y-72974313D01*
X127049767Y-73016185D01*
X127074184Y-73081649D01*
X127074500Y-73090495D01*
X127074500Y-73909505D01*
X127054815Y-73976544D01*
X127002011Y-74022299D01*
X126932853Y-74032243D01*
X126869297Y-74003218D01*
X126862819Y-73997186D01*
X126819657Y-73954024D01*
X126728062Y-73892823D01*
X126647598Y-73839059D01*
X126626990Y-73830523D01*
X126456420Y-73759870D01*
X126456412Y-73759868D01*
X126253469Y-73719500D01*
X126253465Y-73719500D01*
X126046535Y-73719500D01*
X126046530Y-73719500D01*
X125843587Y-73759868D01*
X125843579Y-73759870D01*
X125652403Y-73839058D01*
X125480342Y-73954024D01*
X125334024Y-74100342D01*
X125219058Y-74272403D01*
X125139870Y-74463579D01*
X125139868Y-74463587D01*
X125099500Y-74666530D01*
X125099500Y-74873469D01*
X125139868Y-75076412D01*
X125139870Y-75076420D01*
X125219058Y-75267596D01*
X125334024Y-75439657D01*
X125480342Y-75585975D01*
X125480345Y-75585977D01*
X125652402Y-75700941D01*
X125843580Y-75780130D01*
X125988052Y-75808867D01*
X126046530Y-75820499D01*
X126046534Y-75820500D01*
X126046535Y-75820500D01*
X126253466Y-75820500D01*
X126253467Y-75820499D01*
X126456420Y-75780130D01*
X126647598Y-75700941D01*
X126819655Y-75585977D01*
X126831511Y-75574121D01*
X126862819Y-75542814D01*
X126924142Y-75509329D01*
X126993834Y-75514313D01*
X127049767Y-75556185D01*
X127074184Y-75621649D01*
X127074500Y-75630495D01*
X127074500Y-80897153D01*
X127054815Y-80964192D01*
X127038181Y-80984834D01*
X119647279Y-88375735D01*
X119585956Y-88409220D01*
X119535406Y-88409671D01*
X119495234Y-88401680D01*
X119495232Y-88401680D01*
X119367094Y-88401680D01*
X119367092Y-88401680D01*
X119241424Y-88426677D01*
X119241418Y-88426679D01*
X119123038Y-88475713D01*
X119123029Y-88475718D01*
X119016494Y-88546903D01*
X119016490Y-88546906D01*
X118925889Y-88637507D01*
X118925886Y-88637511D01*
X118854701Y-88744046D01*
X118854696Y-88744055D01*
X118805662Y-88862435D01*
X118805660Y-88862441D01*
X118780663Y-88988108D01*
X118780663Y-88988111D01*
X118780663Y-89116249D01*
X118780663Y-89116251D01*
X118780662Y-89116251D01*
X118805660Y-89241918D01*
X118805662Y-89241924D01*
X118854696Y-89360304D01*
X118854701Y-89360313D01*
X118925886Y-89466848D01*
X118925889Y-89466852D01*
X119016490Y-89557453D01*
X119016494Y-89557456D01*
X119123029Y-89628641D01*
X119123035Y-89628644D01*
X119123036Y-89628645D01*
X119241419Y-89677681D01*
X119241423Y-89677681D01*
X119241424Y-89677682D01*
X119367091Y-89702680D01*
X119367094Y-89702680D01*
X119495234Y-89702680D01*
X119579778Y-89685862D01*
X119620907Y-89677681D01*
X119739290Y-89628645D01*
X119845832Y-89557456D01*
X119936439Y-89466849D01*
X120007628Y-89360307D01*
X120056664Y-89241924D01*
X120081663Y-89116249D01*
X120081663Y-88988111D01*
X120071947Y-88939272D01*
X120071470Y-88930453D01*
X120077538Y-88904700D01*
X120079897Y-88878344D01*
X120085914Y-88869162D01*
X120087497Y-88862446D01*
X120095179Y-88855024D01*
X120107605Y-88836063D01*
X122313422Y-86630247D01*
X126449500Y-86630247D01*
X126449500Y-88369752D01*
X126461131Y-88428229D01*
X126461132Y-88428230D01*
X126505447Y-88494552D01*
X126571769Y-88538867D01*
X126571770Y-88538868D01*
X126630247Y-88550499D01*
X126630250Y-88550500D01*
X126630252Y-88550500D01*
X128369750Y-88550500D01*
X128369751Y-88550499D01*
X128387816Y-88546906D01*
X128428229Y-88538868D01*
X128428229Y-88538867D01*
X128428231Y-88538867D01*
X128494552Y-88494552D01*
X128538867Y-88428231D01*
X128538867Y-88428229D01*
X128538868Y-88428229D01*
X128550499Y-88369752D01*
X128550500Y-88369750D01*
X128550500Y-86630249D01*
X128550499Y-86630247D01*
X128538868Y-86571770D01*
X128538867Y-86571769D01*
X128494552Y-86505447D01*
X128428230Y-86461132D01*
X128428229Y-86461131D01*
X128369752Y-86449500D01*
X128369748Y-86449500D01*
X126630252Y-86449500D01*
X126630247Y-86449500D01*
X126571770Y-86461131D01*
X126571769Y-86461132D01*
X126505447Y-86505447D01*
X126461132Y-86571769D01*
X126461131Y-86571770D01*
X126449500Y-86630247D01*
X122313422Y-86630247D01*
X124379598Y-84564071D01*
X126349499Y-84564071D01*
X126374497Y-84689738D01*
X126374499Y-84689744D01*
X126423533Y-84808124D01*
X126423538Y-84808133D01*
X126494723Y-84914668D01*
X126494726Y-84914672D01*
X126585327Y-85005273D01*
X126585331Y-85005276D01*
X126691866Y-85076461D01*
X126691872Y-85076464D01*
X126691873Y-85076465D01*
X126810256Y-85125501D01*
X126810260Y-85125501D01*
X126810261Y-85125502D01*
X126935928Y-85150500D01*
X126935931Y-85150500D01*
X127064071Y-85150500D01*
X127148615Y-85133682D01*
X127189744Y-85125501D01*
X127308127Y-85076465D01*
X127414669Y-85005276D01*
X127505276Y-84914669D01*
X127544739Y-84855609D01*
X127598351Y-84810804D01*
X127647841Y-84800500D01*
X133963935Y-84800500D01*
X134030974Y-84820185D01*
X134051616Y-84836819D01*
X138550308Y-89335511D01*
X138606257Y-89391460D01*
X138606259Y-89391461D01*
X138606263Y-89391464D01*
X138658229Y-89421466D01*
X138674779Y-89431021D01*
X138751206Y-89451500D01*
X138751208Y-89451500D01*
X161388560Y-89451500D01*
X161388562Y-89451500D01*
X161464989Y-89431021D01*
X161533511Y-89391460D01*
X161589460Y-89335511D01*
X161838152Y-89086819D01*
X161899475Y-89053334D01*
X161925833Y-89050500D01*
X163369750Y-89050500D01*
X163369751Y-89050499D01*
X163384568Y-89047552D01*
X163428229Y-89038868D01*
X163428229Y-89038867D01*
X163428231Y-89038867D01*
X163494552Y-88994552D01*
X163538867Y-88928231D01*
X163538867Y-88928229D01*
X163538868Y-88928229D01*
X163550499Y-88869752D01*
X163550500Y-88869750D01*
X163550500Y-87130249D01*
X163550499Y-87130247D01*
X163538868Y-87071770D01*
X163538867Y-87071769D01*
X163494552Y-87005447D01*
X163428230Y-86961132D01*
X163428229Y-86961131D01*
X163369752Y-86949500D01*
X163369748Y-86949500D01*
X161630252Y-86949500D01*
X161630247Y-86949500D01*
X161571770Y-86961131D01*
X161571769Y-86961132D01*
X161505447Y-87005447D01*
X161461132Y-87071769D01*
X161461131Y-87071770D01*
X161449500Y-87130247D01*
X161449500Y-88574167D01*
X161429815Y-88641206D01*
X161413181Y-88661848D01*
X161260848Y-88814181D01*
X161233920Y-88828884D01*
X161208102Y-88845477D01*
X161201901Y-88846368D01*
X161199525Y-88847666D01*
X161173167Y-88850500D01*
X161006918Y-88850500D01*
X160939879Y-88830815D01*
X160894124Y-88778011D01*
X160884180Y-88708853D01*
X160906599Y-88653615D01*
X160943568Y-88602730D01*
X161025747Y-88441447D01*
X161025748Y-88441444D01*
X161081682Y-88269293D01*
X161110000Y-88090506D01*
X161110000Y-87909493D01*
X161081682Y-87730706D01*
X161025748Y-87558555D01*
X161025747Y-87558552D01*
X160943571Y-87397275D01*
X160943566Y-87397267D01*
X160932085Y-87381466D01*
X160442962Y-87870589D01*
X160425925Y-87807007D01*
X160360099Y-87692993D01*
X160267007Y-87599901D01*
X160152993Y-87534075D01*
X160089409Y-87517037D01*
X160578533Y-87027913D01*
X160562730Y-87016431D01*
X160401447Y-86934252D01*
X160401444Y-86934251D01*
X160229293Y-86878317D01*
X160050506Y-86850000D01*
X159869494Y-86850000D01*
X159690706Y-86878317D01*
X159518555Y-86934251D01*
X159518547Y-86934254D01*
X159357269Y-87016432D01*
X159341466Y-87027912D01*
X159341466Y-87027913D01*
X159830591Y-87517037D01*
X159767007Y-87534075D01*
X159652993Y-87599901D01*
X159559901Y-87692993D01*
X159494075Y-87807007D01*
X159477037Y-87870590D01*
X158987913Y-87381466D01*
X158987912Y-87381466D01*
X158976432Y-87397269D01*
X158894254Y-87558547D01*
X158894251Y-87558555D01*
X158838317Y-87730706D01*
X158810000Y-87909493D01*
X158810000Y-88090506D01*
X158838317Y-88269293D01*
X158894251Y-88441444D01*
X158894252Y-88441447D01*
X158976431Y-88602730D01*
X159013401Y-88653615D01*
X159036880Y-88719422D01*
X159021054Y-88787476D01*
X158970948Y-88836170D01*
X158913082Y-88850500D01*
X138966601Y-88850500D01*
X138899562Y-88830815D01*
X138878920Y-88814181D01*
X135878810Y-85814071D01*
X154125499Y-85814071D01*
X154150497Y-85939738D01*
X154150499Y-85939744D01*
X154199533Y-86058124D01*
X154199538Y-86058133D01*
X154270723Y-86164668D01*
X154270726Y-86164672D01*
X154361327Y-86255273D01*
X154361331Y-86255276D01*
X154467866Y-86326461D01*
X154467872Y-86326464D01*
X154467873Y-86326465D01*
X154586256Y-86375501D01*
X154586260Y-86375501D01*
X154586261Y-86375502D01*
X154711928Y-86400500D01*
X154711931Y-86400500D01*
X154840071Y-86400500D01*
X154924615Y-86383682D01*
X154965744Y-86375501D01*
X155084127Y-86326465D01*
X155190669Y-86255276D01*
X155281276Y-86164669D01*
X155352465Y-86058127D01*
X155353021Y-86056782D01*
X155353553Y-86056090D01*
X155355338Y-86052752D01*
X155355890Y-86053047D01*
X155382515Y-86018388D01*
X155380340Y-86016213D01*
X156082482Y-85314069D01*
X156524605Y-84871945D01*
X156524608Y-84871944D01*
X156585211Y-84811341D01*
X156620914Y-84749502D01*
X156620915Y-84749501D01*
X156623815Y-84744476D01*
X156628064Y-84737118D01*
X156650246Y-84654332D01*
X156650246Y-84568626D01*
X156650246Y-83909493D01*
X158810000Y-83909493D01*
X158810000Y-84090506D01*
X158838317Y-84269293D01*
X158894251Y-84441444D01*
X158894252Y-84441447D01*
X158976431Y-84602730D01*
X158987913Y-84618532D01*
X158987913Y-84618533D01*
X159477037Y-84129409D01*
X159494075Y-84192993D01*
X159559901Y-84307007D01*
X159652993Y-84400099D01*
X159767007Y-84465925D01*
X159830590Y-84482962D01*
X159341466Y-84972085D01*
X159341466Y-84972086D01*
X159357267Y-84983566D01*
X159357275Y-84983571D01*
X159518552Y-85065747D01*
X159518555Y-85065748D01*
X159690706Y-85121682D01*
X159869494Y-85150000D01*
X160050506Y-85150000D01*
X160229293Y-85121682D01*
X160401444Y-85065748D01*
X160401452Y-85065745D01*
X160562730Y-84983568D01*
X160578532Y-84972085D01*
X160578533Y-84972085D01*
X160089410Y-84482962D01*
X160152993Y-84465925D01*
X160267007Y-84400099D01*
X160360099Y-84307007D01*
X160425925Y-84192993D01*
X160442962Y-84129410D01*
X160932085Y-84618533D01*
X160932085Y-84618532D01*
X160943568Y-84602730D01*
X161025745Y-84441452D01*
X161025748Y-84441444D01*
X161081682Y-84269293D01*
X161110000Y-84090506D01*
X161110000Y-83909493D01*
X161081682Y-83730706D01*
X161025748Y-83558555D01*
X161025747Y-83558552D01*
X160943571Y-83397275D01*
X160943566Y-83397267D01*
X160932085Y-83381466D01*
X160442962Y-83870589D01*
X160425925Y-83807007D01*
X160360099Y-83692993D01*
X160267007Y-83599901D01*
X160152993Y-83534075D01*
X160089409Y-83517037D01*
X160578533Y-83027913D01*
X160562730Y-83016431D01*
X160401447Y-82934252D01*
X160401444Y-82934251D01*
X160229293Y-82878317D01*
X160050506Y-82850000D01*
X159869494Y-82850000D01*
X159690706Y-82878317D01*
X159518555Y-82934251D01*
X159518547Y-82934254D01*
X159357269Y-83016432D01*
X159341466Y-83027912D01*
X159341466Y-83027913D01*
X159830591Y-83517037D01*
X159767007Y-83534075D01*
X159652993Y-83599901D01*
X159559901Y-83692993D01*
X159494075Y-83807007D01*
X159477037Y-83870590D01*
X158987912Y-83381466D01*
X158976432Y-83397269D01*
X158894254Y-83558547D01*
X158894251Y-83558555D01*
X158838317Y-83730706D01*
X158810000Y-83909493D01*
X156650246Y-83909493D01*
X156650246Y-83031893D01*
X156631248Y-82960992D01*
X156630219Y-82954292D01*
X156632109Y-82940174D01*
X156631164Y-82911274D01*
X156650500Y-82814069D01*
X156650500Y-82685931D01*
X156650500Y-82685928D01*
X156625502Y-82560261D01*
X156625501Y-82560260D01*
X156625501Y-82560256D01*
X156576465Y-82441873D01*
X156576464Y-82441872D01*
X156576461Y-82441866D01*
X156505276Y-82335331D01*
X156505273Y-82335327D01*
X156414672Y-82244726D01*
X156414668Y-82244723D01*
X156308133Y-82173538D01*
X156308124Y-82173533D01*
X156189744Y-82124499D01*
X156189738Y-82124497D01*
X156064071Y-82099500D01*
X156064069Y-82099500D01*
X155935931Y-82099500D01*
X155935929Y-82099500D01*
X155810261Y-82124497D01*
X155810255Y-82124499D01*
X155691875Y-82173533D01*
X155691866Y-82173538D01*
X155585331Y-82244723D01*
X155585327Y-82244726D01*
X155494726Y-82335327D01*
X155494723Y-82335331D01*
X155423538Y-82441866D01*
X155423533Y-82441875D01*
X155374499Y-82560255D01*
X155374497Y-82560261D01*
X155349500Y-82685928D01*
X155349500Y-82685931D01*
X155349500Y-82814069D01*
X155349500Y-82814071D01*
X155349499Y-82814071D01*
X155374497Y-82939738D01*
X155374499Y-82939744D01*
X155423533Y-83058124D01*
X155423538Y-83058133D01*
X155494723Y-83164668D01*
X155494726Y-83164672D01*
X155585327Y-83255273D01*
X155585331Y-83255276D01*
X155691866Y-83326461D01*
X155691872Y-83326464D01*
X155691873Y-83326465D01*
X155810256Y-83375501D01*
X155810260Y-83375501D01*
X155810261Y-83375502D01*
X155899438Y-83393241D01*
X155961349Y-83425626D01*
X155995923Y-83486342D01*
X155999246Y-83514858D01*
X155999246Y-84425289D01*
X155979561Y-84492328D01*
X155962927Y-84512970D01*
X155286907Y-85188989D01*
X155225584Y-85222474D01*
X155155892Y-85217490D01*
X155130335Y-85204410D01*
X155084132Y-85173538D01*
X155084124Y-85173533D01*
X154965744Y-85124499D01*
X154965738Y-85124497D01*
X154840071Y-85099500D01*
X154840069Y-85099500D01*
X154711931Y-85099500D01*
X154711929Y-85099500D01*
X154586261Y-85124497D01*
X154586255Y-85124499D01*
X154467875Y-85173533D01*
X154467866Y-85173538D01*
X154361331Y-85244723D01*
X154361327Y-85244726D01*
X154270726Y-85335327D01*
X154270723Y-85335331D01*
X154199538Y-85441866D01*
X154199533Y-85441875D01*
X154150499Y-85560255D01*
X154150497Y-85560261D01*
X154125500Y-85685928D01*
X154125500Y-85685931D01*
X154125500Y-85814069D01*
X154125500Y-85814071D01*
X154125499Y-85814071D01*
X135878810Y-85814071D01*
X134728810Y-84664071D01*
X141749499Y-84664071D01*
X141774497Y-84789738D01*
X141774499Y-84789744D01*
X141823533Y-84908124D01*
X141823538Y-84908133D01*
X141894723Y-85014668D01*
X141894726Y-85014672D01*
X141985327Y-85105273D01*
X141985331Y-85105276D01*
X142091866Y-85176461D01*
X142091872Y-85176464D01*
X142091873Y-85176465D01*
X142210256Y-85225501D01*
X142210260Y-85225501D01*
X142210261Y-85225502D01*
X142335928Y-85250500D01*
X142335931Y-85250500D01*
X142464071Y-85250500D01*
X142548615Y-85233682D01*
X142589744Y-85225501D01*
X142708127Y-85176465D01*
X142814669Y-85105276D01*
X142905276Y-85014669D01*
X142976465Y-84908127D01*
X143025501Y-84789744D01*
X143050500Y-84664069D01*
X143050500Y-84535931D01*
X143050499Y-84535928D01*
X143042508Y-84495754D01*
X143043215Y-84487845D01*
X143040441Y-84480407D01*
X143046285Y-84453542D01*
X143048735Y-84426162D01*
X143053983Y-84418152D01*
X143055293Y-84412134D01*
X143076441Y-84383883D01*
X143089652Y-84370673D01*
X143089657Y-84370669D01*
X143099860Y-84360465D01*
X143099862Y-84360465D01*
X143160465Y-84299862D01*
X143198222Y-84234465D01*
X143203318Y-84225639D01*
X143225500Y-84142853D01*
X143225500Y-84057147D01*
X143225500Y-81431135D01*
X143245185Y-81364096D01*
X143280609Y-81328033D01*
X143314669Y-81305276D01*
X143405276Y-81214669D01*
X143476465Y-81108127D01*
X143525501Y-80989744D01*
X143550500Y-80864069D01*
X143550500Y-80735931D01*
X143550500Y-80735928D01*
X143525502Y-80610261D01*
X143525501Y-80610260D01*
X143525501Y-80610256D01*
X143476465Y-80491873D01*
X143476464Y-80491872D01*
X143476461Y-80491866D01*
X143405276Y-80385331D01*
X143405273Y-80385327D01*
X143314672Y-80294726D01*
X143314668Y-80294723D01*
X143208133Y-80223538D01*
X143208124Y-80223533D01*
X143089744Y-80174499D01*
X143089738Y-80174497D01*
X142964071Y-80149500D01*
X142964069Y-80149500D01*
X142835931Y-80149500D01*
X142835929Y-80149500D01*
X142710261Y-80174497D01*
X142710255Y-80174499D01*
X142591875Y-80223533D01*
X142591866Y-80223538D01*
X142485331Y-80294723D01*
X142485327Y-80294726D01*
X142394726Y-80385327D01*
X142394723Y-80385331D01*
X142323538Y-80491866D01*
X142323533Y-80491875D01*
X142274499Y-80610255D01*
X142274497Y-80610261D01*
X142249500Y-80735928D01*
X142249500Y-80735931D01*
X142249500Y-80864069D01*
X142249500Y-80864071D01*
X142249499Y-80864071D01*
X142274497Y-80989738D01*
X142274499Y-80989744D01*
X142323533Y-81108124D01*
X142323538Y-81108133D01*
X142394723Y-81214668D01*
X142394726Y-81214672D01*
X142485325Y-81305271D01*
X142485330Y-81305275D01*
X142485331Y-81305276D01*
X142519389Y-81328033D01*
X142564195Y-81381643D01*
X142574500Y-81431135D01*
X142574500Y-83825500D01*
X142554815Y-83892539D01*
X142502011Y-83938294D01*
X142450500Y-83949500D01*
X142335929Y-83949500D01*
X142210261Y-83974497D01*
X142210255Y-83974499D01*
X142091875Y-84023533D01*
X142091866Y-84023538D01*
X141985331Y-84094723D01*
X141985327Y-84094726D01*
X141894726Y-84185327D01*
X141894723Y-84185331D01*
X141823538Y-84291866D01*
X141823533Y-84291875D01*
X141774499Y-84410255D01*
X141774497Y-84410261D01*
X141749500Y-84535928D01*
X141749500Y-84535929D01*
X141749500Y-84535931D01*
X141749500Y-84664069D01*
X141749500Y-84664071D01*
X141749499Y-84664071D01*
X134728810Y-84664071D01*
X134324280Y-84259541D01*
X134324275Y-84259537D01*
X134291230Y-84240459D01*
X134291230Y-84240458D01*
X134291228Y-84240458D01*
X134265564Y-84225641D01*
X134255758Y-84219979D01*
X134255759Y-84219979D01*
X134217543Y-84209739D01*
X134179330Y-84199500D01*
X134179328Y-84199500D01*
X127647841Y-84199500D01*
X127580802Y-84179815D01*
X127544739Y-84144391D01*
X127505276Y-84085331D01*
X127505273Y-84085327D01*
X127414672Y-83994726D01*
X127414668Y-83994723D01*
X127308133Y-83923538D01*
X127308124Y-83923533D01*
X127189744Y-83874499D01*
X127189738Y-83874497D01*
X127064071Y-83849500D01*
X127064069Y-83849500D01*
X126935931Y-83849500D01*
X126935929Y-83849500D01*
X126810261Y-83874497D01*
X126810255Y-83874499D01*
X126691875Y-83923533D01*
X126691866Y-83923538D01*
X126585331Y-83994723D01*
X126585327Y-83994726D01*
X126494726Y-84085327D01*
X126494723Y-84085331D01*
X126423538Y-84191866D01*
X126423533Y-84191875D01*
X126374499Y-84310255D01*
X126374497Y-84310261D01*
X126349500Y-84435928D01*
X126349500Y-84435931D01*
X126349500Y-84564069D01*
X126349500Y-84564071D01*
X126349499Y-84564071D01*
X124379598Y-84564071D01*
X127660465Y-81283205D01*
X127703317Y-81208982D01*
X127703318Y-81208981D01*
X127725500Y-81126196D01*
X127725500Y-75590495D01*
X127745185Y-75523456D01*
X127797989Y-75477701D01*
X127867147Y-75467757D01*
X127930703Y-75496782D01*
X127937181Y-75502814D01*
X128020342Y-75585975D01*
X128020345Y-75585977D01*
X128192402Y-75700941D01*
X128383580Y-75780130D01*
X128528052Y-75808867D01*
X128586530Y-75820499D01*
X128586534Y-75820500D01*
X128586535Y-75820500D01*
X128793466Y-75820500D01*
X128793467Y-75820499D01*
X128996420Y-75780130D01*
X129187598Y-75700941D01*
X129359655Y-75585977D01*
X129505977Y-75439655D01*
X129620941Y-75267598D01*
X129700130Y-75076420D01*
X129740500Y-74873465D01*
X129740500Y-74666535D01*
X129740499Y-74666530D01*
X130179500Y-74666530D01*
X130179500Y-74873469D01*
X130219868Y-75076412D01*
X130219870Y-75076420D01*
X130299058Y-75267596D01*
X130414024Y-75439657D01*
X130560342Y-75585975D01*
X130560345Y-75585977D01*
X130732402Y-75700941D01*
X130923580Y-75780130D01*
X131068052Y-75808867D01*
X131126530Y-75820499D01*
X131126534Y-75820500D01*
X131126535Y-75820500D01*
X131333466Y-75820500D01*
X131333467Y-75820499D01*
X131536420Y-75780130D01*
X131727598Y-75700941D01*
X131899655Y-75585977D01*
X132045977Y-75439655D01*
X132160941Y-75267598D01*
X132240130Y-75076420D01*
X132280500Y-74873465D01*
X132280500Y-74666535D01*
X132280499Y-74666530D01*
X132719500Y-74666530D01*
X132719500Y-74873469D01*
X132759868Y-75076412D01*
X132759870Y-75076420D01*
X132839058Y-75267596D01*
X132954024Y-75439657D01*
X133100342Y-75585975D01*
X133100345Y-75585977D01*
X133272402Y-75700941D01*
X133463580Y-75780130D01*
X133608052Y-75808867D01*
X133666530Y-75820499D01*
X133666534Y-75820500D01*
X133666535Y-75820500D01*
X133873466Y-75820500D01*
X133873467Y-75820499D01*
X134076420Y-75780130D01*
X134267598Y-75700941D01*
X134439655Y-75585977D01*
X134585977Y-75439655D01*
X134700941Y-75267598D01*
X134780130Y-75076420D01*
X134820500Y-74873465D01*
X134820500Y-74666535D01*
X134820499Y-74666530D01*
X135259500Y-74666530D01*
X135259500Y-74873469D01*
X135299868Y-75076412D01*
X135299870Y-75076420D01*
X135379058Y-75267596D01*
X135494024Y-75439657D01*
X135640342Y-75585975D01*
X135640345Y-75585977D01*
X135812402Y-75700941D01*
X136003580Y-75780130D01*
X136148052Y-75808867D01*
X136206530Y-75820499D01*
X136206534Y-75820500D01*
X136206535Y-75820500D01*
X136413466Y-75820500D01*
X136413467Y-75820499D01*
X136616420Y-75780130D01*
X136807598Y-75700941D01*
X136979655Y-75585977D01*
X137125977Y-75439655D01*
X137240941Y-75267598D01*
X137320130Y-75076420D01*
X137331353Y-75020000D01*
X137343537Y-74958748D01*
X137360499Y-74873469D01*
X137360500Y-74873466D01*
X137360500Y-74671943D01*
X137360500Y-74666535D01*
X137331353Y-74520000D01*
X137725261Y-74520000D01*
X138416988Y-74520000D01*
X138384075Y-74577007D01*
X138350000Y-74704174D01*
X138350000Y-74835826D01*
X138384075Y-74962993D01*
X138416988Y-75020000D01*
X137725261Y-75020000D01*
X137728315Y-75039285D01*
X137728318Y-75039295D01*
X137784250Y-75211441D01*
X137784252Y-75211447D01*
X137866434Y-75372734D01*
X137972823Y-75519169D01*
X138100830Y-75647176D01*
X138247265Y-75753565D01*
X138408552Y-75835747D01*
X138408555Y-75835748D01*
X138580699Y-75891680D01*
X138580712Y-75891683D01*
X138600000Y-75894738D01*
X138600000Y-75203012D01*
X138657007Y-75235925D01*
X138784174Y-75270000D01*
X138915826Y-75270000D01*
X139042993Y-75235925D01*
X139100000Y-75203012D01*
X139100000Y-75894737D01*
X139119287Y-75891683D01*
X139119300Y-75891680D01*
X139291444Y-75835748D01*
X139291447Y-75835747D01*
X139452734Y-75753565D01*
X139599169Y-75647176D01*
X139727176Y-75519169D01*
X139833565Y-75372734D01*
X139915747Y-75211447D01*
X139915749Y-75211441D01*
X139971681Y-75039295D01*
X139971684Y-75039285D01*
X139974739Y-75020000D01*
X139283012Y-75020000D01*
X139315925Y-74962993D01*
X139350000Y-74835826D01*
X139350000Y-74704174D01*
X139339913Y-74666530D01*
X140339500Y-74666530D01*
X140339500Y-74873469D01*
X140379868Y-75076412D01*
X140379870Y-75076420D01*
X140459058Y-75267596D01*
X140574024Y-75439657D01*
X140720342Y-75585975D01*
X140720345Y-75585977D01*
X140892402Y-75700941D01*
X141083580Y-75780130D01*
X141228052Y-75808867D01*
X141286530Y-75820499D01*
X141286534Y-75820500D01*
X141286535Y-75820500D01*
X141493466Y-75820500D01*
X141493467Y-75820499D01*
X141696420Y-75780130D01*
X141887598Y-75700941D01*
X142059655Y-75585977D01*
X142205977Y-75439655D01*
X142320941Y-75267598D01*
X142400130Y-75076420D01*
X142440500Y-74873465D01*
X142440500Y-74666535D01*
X142440499Y-74666530D01*
X142879500Y-74666530D01*
X142879500Y-74873469D01*
X142919868Y-75076412D01*
X142919870Y-75076420D01*
X142999058Y-75267596D01*
X143114024Y-75439657D01*
X143260342Y-75585975D01*
X143260345Y-75585977D01*
X143432402Y-75700941D01*
X143623580Y-75780130D01*
X143768052Y-75808867D01*
X143826530Y-75820499D01*
X143826534Y-75820500D01*
X143826535Y-75820500D01*
X144033466Y-75820500D01*
X144033467Y-75820499D01*
X144236420Y-75780130D01*
X144427598Y-75700941D01*
X144599655Y-75585977D01*
X144745977Y-75439655D01*
X144860941Y-75267598D01*
X144940130Y-75076420D01*
X144980500Y-74873465D01*
X144980500Y-74666535D01*
X144980499Y-74666530D01*
X145419500Y-74666530D01*
X145419500Y-74873469D01*
X145459868Y-75076412D01*
X145459870Y-75076420D01*
X145539058Y-75267596D01*
X145654024Y-75439657D01*
X145800342Y-75585975D01*
X145800345Y-75585977D01*
X145972402Y-75700941D01*
X146163580Y-75780130D01*
X146308052Y-75808867D01*
X146366530Y-75820499D01*
X146366534Y-75820500D01*
X146366535Y-75820500D01*
X146573466Y-75820500D01*
X146573467Y-75820499D01*
X146776420Y-75780130D01*
X146967598Y-75700941D01*
X147139655Y-75585977D01*
X147285977Y-75439655D01*
X147400941Y-75267598D01*
X147480130Y-75076420D01*
X147520500Y-74873465D01*
X147520500Y-74666535D01*
X147520499Y-74666530D01*
X147959500Y-74666530D01*
X147959500Y-74873469D01*
X147999868Y-75076412D01*
X147999870Y-75076420D01*
X148079058Y-75267596D01*
X148194024Y-75439657D01*
X148340342Y-75585975D01*
X148340345Y-75585977D01*
X148512402Y-75700941D01*
X148703580Y-75780130D01*
X148848052Y-75808867D01*
X148906530Y-75820499D01*
X148906534Y-75820500D01*
X148906535Y-75820500D01*
X149113466Y-75820500D01*
X149113467Y-75820499D01*
X149316420Y-75780130D01*
X149507598Y-75700941D01*
X149679655Y-75585977D01*
X149825977Y-75439655D01*
X149940941Y-75267598D01*
X150020130Y-75076420D01*
X150060500Y-74873465D01*
X150060500Y-74666535D01*
X150060499Y-74666530D01*
X150499500Y-74666530D01*
X150499500Y-74873469D01*
X150539868Y-75076412D01*
X150539870Y-75076420D01*
X150619058Y-75267596D01*
X150734024Y-75439657D01*
X150880342Y-75585975D01*
X150880345Y-75585977D01*
X151052402Y-75700941D01*
X151243580Y-75780130D01*
X151388052Y-75808867D01*
X151446530Y-75820499D01*
X151446534Y-75820500D01*
X151446535Y-75820500D01*
X151653466Y-75820500D01*
X151653467Y-75820499D01*
X151856420Y-75780130D01*
X152047598Y-75700941D01*
X152219655Y-75585977D01*
X152365977Y-75439655D01*
X152480941Y-75267598D01*
X152560130Y-75076420D01*
X152600500Y-74873465D01*
X152600500Y-74666535D01*
X152600499Y-74666530D01*
X153039500Y-74666530D01*
X153039500Y-74873469D01*
X153079868Y-75076412D01*
X153079870Y-75076420D01*
X153159058Y-75267596D01*
X153274024Y-75439657D01*
X153420342Y-75585975D01*
X153420345Y-75585977D01*
X153592402Y-75700941D01*
X153783580Y-75780130D01*
X153928052Y-75808867D01*
X153986530Y-75820499D01*
X153986534Y-75820500D01*
X153986535Y-75820500D01*
X154193466Y-75820500D01*
X154193467Y-75820499D01*
X154396420Y-75780130D01*
X154587598Y-75700941D01*
X154759655Y-75585977D01*
X154905977Y-75439655D01*
X155020941Y-75267598D01*
X155100130Y-75076420D01*
X155111353Y-75020000D01*
X155123537Y-74958748D01*
X155140499Y-74873469D01*
X155140500Y-74873466D01*
X155140500Y-74666534D01*
X155140499Y-74666530D01*
X155123537Y-74581252D01*
X155100131Y-74463587D01*
X155100130Y-74463580D01*
X155020941Y-74272402D01*
X154905977Y-74100345D01*
X154905975Y-74100342D01*
X154759657Y-73954024D01*
X154668062Y-73892823D01*
X154587598Y-73839059D01*
X154566990Y-73830523D01*
X154396420Y-73759870D01*
X154396412Y-73759868D01*
X154193469Y-73719500D01*
X154193465Y-73719500D01*
X153986535Y-73719500D01*
X153986530Y-73719500D01*
X153783587Y-73759868D01*
X153783579Y-73759870D01*
X153592403Y-73839058D01*
X153420342Y-73954024D01*
X153274024Y-74100342D01*
X153159058Y-74272403D01*
X153079870Y-74463579D01*
X153079868Y-74463587D01*
X153039500Y-74666530D01*
X152600499Y-74666530D01*
X152560130Y-74463580D01*
X152480941Y-74272402D01*
X152365977Y-74100345D01*
X152365975Y-74100342D01*
X152219657Y-73954024D01*
X152128062Y-73892823D01*
X152047598Y-73839059D01*
X152026990Y-73830523D01*
X151856420Y-73759870D01*
X151856412Y-73759868D01*
X151653469Y-73719500D01*
X151653465Y-73719500D01*
X151446535Y-73719500D01*
X151446530Y-73719500D01*
X151243587Y-73759868D01*
X151243579Y-73759870D01*
X151052403Y-73839058D01*
X150880342Y-73954024D01*
X150734024Y-74100342D01*
X150619058Y-74272403D01*
X150539870Y-74463579D01*
X150539868Y-74463587D01*
X150499500Y-74666530D01*
X150060499Y-74666530D01*
X150020130Y-74463580D01*
X149940941Y-74272402D01*
X149825977Y-74100345D01*
X149825975Y-74100342D01*
X149679657Y-73954024D01*
X149588062Y-73892823D01*
X149507598Y-73839059D01*
X149486990Y-73830523D01*
X149316420Y-73759870D01*
X149316412Y-73759868D01*
X149113469Y-73719500D01*
X149113465Y-73719500D01*
X148906535Y-73719500D01*
X148906530Y-73719500D01*
X148703587Y-73759868D01*
X148703579Y-73759870D01*
X148512403Y-73839058D01*
X148340342Y-73954024D01*
X148194024Y-74100342D01*
X148079058Y-74272403D01*
X147999870Y-74463579D01*
X147999868Y-74463587D01*
X147959500Y-74666530D01*
X147520499Y-74666530D01*
X147480130Y-74463580D01*
X147400941Y-74272402D01*
X147285977Y-74100345D01*
X147285975Y-74100342D01*
X147139657Y-73954024D01*
X147048062Y-73892823D01*
X146967598Y-73839059D01*
X146946990Y-73830523D01*
X146776420Y-73759870D01*
X146776412Y-73759868D01*
X146573469Y-73719500D01*
X146573465Y-73719500D01*
X146366535Y-73719500D01*
X146366530Y-73719500D01*
X146163587Y-73759868D01*
X146163579Y-73759870D01*
X145972403Y-73839058D01*
X145800342Y-73954024D01*
X145654024Y-74100342D01*
X145539058Y-74272403D01*
X145459870Y-74463579D01*
X145459868Y-74463587D01*
X145419500Y-74666530D01*
X144980499Y-74666530D01*
X144940130Y-74463580D01*
X144860941Y-74272402D01*
X144745977Y-74100345D01*
X144745975Y-74100342D01*
X144599657Y-73954024D01*
X144508062Y-73892823D01*
X144427598Y-73839059D01*
X144406990Y-73830523D01*
X144236420Y-73759870D01*
X144236412Y-73759868D01*
X144033469Y-73719500D01*
X144033465Y-73719500D01*
X143826535Y-73719500D01*
X143826530Y-73719500D01*
X143623587Y-73759868D01*
X143623579Y-73759870D01*
X143432403Y-73839058D01*
X143260342Y-73954024D01*
X143114024Y-74100342D01*
X142999058Y-74272403D01*
X142919870Y-74463579D01*
X142919868Y-74463587D01*
X142879500Y-74666530D01*
X142440499Y-74666530D01*
X142400130Y-74463580D01*
X142320941Y-74272402D01*
X142205977Y-74100345D01*
X142205975Y-74100342D01*
X142059657Y-73954024D01*
X141968062Y-73892823D01*
X141887598Y-73839059D01*
X141866990Y-73830523D01*
X141696420Y-73759870D01*
X141696412Y-73759868D01*
X141493469Y-73719500D01*
X141493465Y-73719500D01*
X141286535Y-73719500D01*
X141286530Y-73719500D01*
X141083587Y-73759868D01*
X141083579Y-73759870D01*
X140892403Y-73839058D01*
X140720342Y-73954024D01*
X140574024Y-74100342D01*
X140459058Y-74272403D01*
X140379870Y-74463579D01*
X140379868Y-74463587D01*
X140339500Y-74666530D01*
X139339913Y-74666530D01*
X139315925Y-74577007D01*
X139283012Y-74520000D01*
X139974739Y-74520000D01*
X139971684Y-74500714D01*
X139971681Y-74500704D01*
X139915749Y-74328558D01*
X139915747Y-74328552D01*
X139833565Y-74167265D01*
X139727176Y-74020830D01*
X139599169Y-73892823D01*
X139452734Y-73786434D01*
X139291447Y-73704252D01*
X139291441Y-73704250D01*
X139119295Y-73648318D01*
X139119285Y-73648315D01*
X139100000Y-73645260D01*
X139100000Y-74336988D01*
X139042993Y-74304075D01*
X138915826Y-74270000D01*
X138784174Y-74270000D01*
X138657007Y-74304075D01*
X138600000Y-74336988D01*
X138600000Y-73645260D01*
X138580714Y-73648315D01*
X138580704Y-73648318D01*
X138408558Y-73704250D01*
X138408552Y-73704252D01*
X138247265Y-73786434D01*
X138100830Y-73892823D01*
X137972823Y-74020830D01*
X137866434Y-74167265D01*
X137784252Y-74328552D01*
X137784250Y-74328558D01*
X137728318Y-74500704D01*
X137728315Y-74500714D01*
X137725261Y-74520000D01*
X137331353Y-74520000D01*
X137320130Y-74463580D01*
X137240941Y-74272402D01*
X137125977Y-74100345D01*
X137125975Y-74100342D01*
X136979657Y-73954024D01*
X136888062Y-73892823D01*
X136807598Y-73839059D01*
X136786990Y-73830523D01*
X136616420Y-73759870D01*
X136616412Y-73759868D01*
X136413469Y-73719500D01*
X136413465Y-73719500D01*
X136206535Y-73719500D01*
X136206530Y-73719500D01*
X136003587Y-73759868D01*
X136003579Y-73759870D01*
X135812403Y-73839058D01*
X135640342Y-73954024D01*
X135494024Y-74100342D01*
X135379058Y-74272403D01*
X135299870Y-74463579D01*
X135299868Y-74463587D01*
X135259500Y-74666530D01*
X134820499Y-74666530D01*
X134780130Y-74463580D01*
X134700941Y-74272402D01*
X134585977Y-74100345D01*
X134585975Y-74100342D01*
X134439657Y-73954024D01*
X134348062Y-73892823D01*
X134267598Y-73839059D01*
X134246990Y-73830523D01*
X134076420Y-73759870D01*
X134076412Y-73759868D01*
X133873469Y-73719500D01*
X133873465Y-73719500D01*
X133666535Y-73719500D01*
X133666530Y-73719500D01*
X133463587Y-73759868D01*
X133463579Y-73759870D01*
X133272403Y-73839058D01*
X133100342Y-73954024D01*
X132954024Y-74100342D01*
X132839058Y-74272403D01*
X132759870Y-74463579D01*
X132759868Y-74463587D01*
X132719500Y-74666530D01*
X132280499Y-74666530D01*
X132240130Y-74463580D01*
X132160941Y-74272402D01*
X132045977Y-74100345D01*
X132045975Y-74100342D01*
X131899657Y-73954024D01*
X131808062Y-73892823D01*
X131727598Y-73839059D01*
X131706990Y-73830523D01*
X131536420Y-73759870D01*
X131536412Y-73759868D01*
X131333469Y-73719500D01*
X131333465Y-73719500D01*
X131126535Y-73719500D01*
X131126530Y-73719500D01*
X130923587Y-73759868D01*
X130923579Y-73759870D01*
X130732403Y-73839058D01*
X130560342Y-73954024D01*
X130414024Y-74100342D01*
X130299058Y-74272403D01*
X130219870Y-74463579D01*
X130219868Y-74463587D01*
X130179500Y-74666530D01*
X129740499Y-74666530D01*
X129700130Y-74463580D01*
X129620941Y-74272402D01*
X129505977Y-74100345D01*
X129505975Y-74100342D01*
X129359657Y-73954024D01*
X129268062Y-73892823D01*
X129187598Y-73839059D01*
X129166990Y-73830523D01*
X128996420Y-73759870D01*
X128996412Y-73759868D01*
X128793469Y-73719500D01*
X128793465Y-73719500D01*
X128586535Y-73719500D01*
X128586530Y-73719500D01*
X128383587Y-73759868D01*
X128383579Y-73759870D01*
X128192403Y-73839058D01*
X128020342Y-73954024D01*
X128020341Y-73954025D01*
X127937181Y-74037186D01*
X127875858Y-74070671D01*
X127806166Y-74065687D01*
X127750233Y-74023815D01*
X127725816Y-73958351D01*
X127725500Y-73949505D01*
X127725500Y-73050495D01*
X127745185Y-72983456D01*
X127797989Y-72937701D01*
X127867147Y-72927757D01*
X127930703Y-72956782D01*
X127937181Y-72962814D01*
X128020342Y-73045975D01*
X128020345Y-73045977D01*
X128192402Y-73160941D01*
X128383580Y-73240130D01*
X128586530Y-73280499D01*
X128586534Y-73280500D01*
X128586535Y-73280500D01*
X128793466Y-73280500D01*
X128793467Y-73280499D01*
X128996420Y-73240130D01*
X129187598Y-73160941D01*
X129359655Y-73045977D01*
X129505977Y-72899655D01*
X129620941Y-72727598D01*
X129700130Y-72536420D01*
X129711353Y-72480000D01*
X129723537Y-72418748D01*
X129740499Y-72333469D01*
X129740500Y-72333466D01*
X129740500Y-72126534D01*
X129740499Y-72126530D01*
X129712212Y-71984323D01*
X129700130Y-71923580D01*
X129620941Y-71732402D01*
X129620940Y-71732400D01*
X129620940Y-71732399D01*
X129514026Y-71572390D01*
X129493148Y-71505713D01*
X129511633Y-71438333D01*
X129563612Y-71391643D01*
X129617128Y-71379500D01*
X130183082Y-71379500D01*
X130250121Y-71399185D01*
X130295876Y-71451989D01*
X130305820Y-71521147D01*
X130283401Y-71576385D01*
X130246431Y-71627269D01*
X130164252Y-71788552D01*
X130164250Y-71788558D01*
X130108318Y-71960704D01*
X130108315Y-71960714D01*
X130105261Y-71980000D01*
X130796988Y-71980000D01*
X130764075Y-72037007D01*
X130730000Y-72164174D01*
X130730000Y-72295826D01*
X130764075Y-72422993D01*
X130796988Y-72480000D01*
X130105261Y-72480000D01*
X130108315Y-72499285D01*
X130108318Y-72499295D01*
X130164250Y-72671441D01*
X130164252Y-72671447D01*
X130246434Y-72832734D01*
X130352823Y-72979169D01*
X130480830Y-73107176D01*
X130627265Y-73213565D01*
X130788552Y-73295747D01*
X130788555Y-73295748D01*
X130960699Y-73351680D01*
X130960712Y-73351683D01*
X130980000Y-73354738D01*
X130980000Y-72663012D01*
X131037007Y-72695925D01*
X131164174Y-72730000D01*
X131295826Y-72730000D01*
X131422993Y-72695925D01*
X131480000Y-72663012D01*
X131480000Y-73354737D01*
X131499287Y-73351683D01*
X131499300Y-73351680D01*
X131671444Y-73295748D01*
X131671447Y-73295747D01*
X131832734Y-73213565D01*
X131979169Y-73107176D01*
X132107176Y-72979169D01*
X132213565Y-72832734D01*
X132295747Y-72671447D01*
X132295749Y-72671441D01*
X132351681Y-72499295D01*
X132351684Y-72499285D01*
X132354739Y-72480000D01*
X131663012Y-72480000D01*
X131695925Y-72422993D01*
X131730000Y-72295826D01*
X131730000Y-72164174D01*
X131695925Y-72037007D01*
X131663012Y-71980000D01*
X132354739Y-71980000D01*
X132351684Y-71960714D01*
X132351681Y-71960704D01*
X132295749Y-71788558D01*
X132295747Y-71788552D01*
X132213568Y-71627269D01*
X132176599Y-71576385D01*
X132153120Y-71510578D01*
X132168946Y-71442524D01*
X132219052Y-71393830D01*
X132276918Y-71379500D01*
X132842872Y-71379500D01*
X132909911Y-71399185D01*
X132955666Y-71451989D01*
X132965610Y-71521147D01*
X132945974Y-71572390D01*
X132839059Y-71732399D01*
X132839059Y-71732400D01*
X132759870Y-71923579D01*
X132759868Y-71923587D01*
X132719500Y-72126530D01*
X132719500Y-72333469D01*
X132759868Y-72536412D01*
X132759870Y-72536420D01*
X132839058Y-72727596D01*
X132954024Y-72899657D01*
X133100342Y-73045975D01*
X133100345Y-73045977D01*
X133272402Y-73160941D01*
X133463580Y-73240130D01*
X133666530Y-73280499D01*
X133666534Y-73280500D01*
X133666535Y-73280500D01*
X133873466Y-73280500D01*
X133873467Y-73280499D01*
X134076420Y-73240130D01*
X134267598Y-73160941D01*
X134439655Y-73045977D01*
X134585977Y-72899655D01*
X134700941Y-72727598D01*
X134780130Y-72536420D01*
X134820500Y-72333465D01*
X134820500Y-72126535D01*
X134780130Y-71923580D01*
X134700941Y-71732402D01*
X134700940Y-71732400D01*
X134700940Y-71732399D01*
X134594026Y-71572390D01*
X134573148Y-71505713D01*
X134591633Y-71438333D01*
X134643612Y-71391643D01*
X134697128Y-71379500D01*
X135382872Y-71379500D01*
X135449911Y-71399185D01*
X135495666Y-71451989D01*
X135505610Y-71521147D01*
X135485974Y-71572390D01*
X135379059Y-71732399D01*
X135379059Y-71732400D01*
X135299870Y-71923579D01*
X135299868Y-71923587D01*
X135259500Y-72126530D01*
X135259500Y-72333469D01*
X135299868Y-72536412D01*
X135299870Y-72536420D01*
X135379058Y-72727596D01*
X135494024Y-72899657D01*
X135640342Y-73045975D01*
X135640345Y-73045977D01*
X135812402Y-73160941D01*
X136003580Y-73240130D01*
X136206530Y-73280499D01*
X136206534Y-73280500D01*
X136206535Y-73280500D01*
X136413466Y-73280500D01*
X136413467Y-73280499D01*
X136616420Y-73240130D01*
X136807598Y-73160941D01*
X136979655Y-73045977D01*
X137125977Y-72899655D01*
X137240941Y-72727598D01*
X137320130Y-72536420D01*
X137360500Y-72333465D01*
X137360500Y-72126535D01*
X137320130Y-71923580D01*
X137240941Y-71732402D01*
X137240940Y-71732400D01*
X137240940Y-71732399D01*
X137134026Y-71572390D01*
X137113148Y-71505713D01*
X137131633Y-71438333D01*
X137183612Y-71391643D01*
X137237128Y-71379500D01*
X137922872Y-71379500D01*
X137989911Y-71399185D01*
X138035666Y-71451989D01*
X138045610Y-71521147D01*
X138025974Y-71572390D01*
X137919059Y-71732399D01*
X137919059Y-71732400D01*
X137839870Y-71923579D01*
X137839868Y-71923587D01*
X137799500Y-72126530D01*
X137799500Y-72333469D01*
X137839868Y-72536412D01*
X137839870Y-72536420D01*
X137919058Y-72727596D01*
X138034024Y-72899657D01*
X138180342Y-73045975D01*
X138180345Y-73045977D01*
X138352402Y-73160941D01*
X138543580Y-73240130D01*
X138746530Y-73280499D01*
X138746534Y-73280500D01*
X138746535Y-73280500D01*
X138953466Y-73280500D01*
X138953467Y-73280499D01*
X139156420Y-73240130D01*
X139347598Y-73160941D01*
X139519655Y-73045977D01*
X139665977Y-72899655D01*
X139780941Y-72727598D01*
X139860130Y-72536420D01*
X139900500Y-72333465D01*
X139900500Y-72126535D01*
X139860130Y-71923580D01*
X139780941Y-71732402D01*
X139780940Y-71732400D01*
X139780940Y-71732399D01*
X139674026Y-71572390D01*
X139653148Y-71505713D01*
X139671633Y-71438333D01*
X139723612Y-71391643D01*
X139777128Y-71379500D01*
X140462872Y-71379500D01*
X140529911Y-71399185D01*
X140575666Y-71451989D01*
X140585610Y-71521147D01*
X140565974Y-71572390D01*
X140459059Y-71732399D01*
X140459059Y-71732400D01*
X140379870Y-71923579D01*
X140379868Y-71923587D01*
X140339500Y-72126530D01*
X140339500Y-72333469D01*
X140379868Y-72536412D01*
X140379870Y-72536420D01*
X140459058Y-72727596D01*
X140574024Y-72899657D01*
X140720342Y-73045975D01*
X140720345Y-73045977D01*
X140892402Y-73160941D01*
X141083580Y-73240130D01*
X141286530Y-73280499D01*
X141286534Y-73280500D01*
X141286535Y-73280500D01*
X141493466Y-73280500D01*
X141493467Y-73280499D01*
X141696420Y-73240130D01*
X141887598Y-73160941D01*
X142059655Y-73045977D01*
X142205977Y-72899655D01*
X142320941Y-72727598D01*
X142400130Y-72536420D01*
X142411353Y-72480000D01*
X142423537Y-72418748D01*
X142440499Y-72333469D01*
X142440500Y-72333466D01*
X142440500Y-72126534D01*
X142440499Y-72126530D01*
X142412212Y-71984323D01*
X142400130Y-71923580D01*
X142320941Y-71732402D01*
X142320940Y-71732400D01*
X142320940Y-71732399D01*
X142214026Y-71572390D01*
X142193148Y-71505713D01*
X142211633Y-71438333D01*
X142263612Y-71391643D01*
X142317128Y-71379500D01*
X142883082Y-71379500D01*
X142950121Y-71399185D01*
X142995876Y-71451989D01*
X143005820Y-71521147D01*
X142983401Y-71576385D01*
X142946431Y-71627269D01*
X142864252Y-71788552D01*
X142864250Y-71788558D01*
X142808318Y-71960704D01*
X142808315Y-71960714D01*
X142805261Y-71980000D01*
X143496988Y-71980000D01*
X143464075Y-72037007D01*
X143430000Y-72164174D01*
X143430000Y-72295826D01*
X143464075Y-72422993D01*
X143496988Y-72480000D01*
X142805261Y-72480000D01*
X142808315Y-72499285D01*
X142808318Y-72499295D01*
X142864250Y-72671441D01*
X142864252Y-72671447D01*
X142946434Y-72832734D01*
X143052823Y-72979169D01*
X143180830Y-73107176D01*
X143327265Y-73213565D01*
X143488552Y-73295747D01*
X143488555Y-73295748D01*
X143660699Y-73351680D01*
X143660712Y-73351683D01*
X143680000Y-73354738D01*
X143680000Y-72663012D01*
X143737007Y-72695925D01*
X143864174Y-72730000D01*
X143995826Y-72730000D01*
X144122993Y-72695925D01*
X144180000Y-72663012D01*
X144180000Y-73354738D01*
X144199287Y-73351683D01*
X144199300Y-73351680D01*
X144371444Y-73295748D01*
X144371447Y-73295747D01*
X144532734Y-73213565D01*
X144679169Y-73107176D01*
X144807176Y-72979169D01*
X144913565Y-72832734D01*
X144995747Y-72671447D01*
X144995749Y-72671441D01*
X145051681Y-72499295D01*
X145051684Y-72499285D01*
X145054739Y-72480000D01*
X144363012Y-72480000D01*
X144395925Y-72422993D01*
X144430000Y-72295826D01*
X144430000Y-72164174D01*
X144395925Y-72037007D01*
X144363012Y-71980000D01*
X145054739Y-71980000D01*
X145051684Y-71960714D01*
X145051681Y-71960704D01*
X144995749Y-71788558D01*
X144995747Y-71788552D01*
X144913568Y-71627269D01*
X144876599Y-71576385D01*
X144853120Y-71510578D01*
X144868946Y-71442524D01*
X144919052Y-71393830D01*
X144976918Y-71379500D01*
X145542872Y-71379500D01*
X145609911Y-71399185D01*
X145655666Y-71451989D01*
X145665610Y-71521147D01*
X145645974Y-71572390D01*
X145539059Y-71732399D01*
X145539059Y-71732400D01*
X145459870Y-71923579D01*
X145459868Y-71923587D01*
X145419500Y-72126530D01*
X145419500Y-72333469D01*
X145459868Y-72536412D01*
X145459870Y-72536420D01*
X145539058Y-72727596D01*
X145654024Y-72899657D01*
X145800342Y-73045975D01*
X145800345Y-73045977D01*
X145972402Y-73160941D01*
X146163580Y-73240130D01*
X146366530Y-73280499D01*
X146366534Y-73280500D01*
X146366535Y-73280500D01*
X146573466Y-73280500D01*
X146573467Y-73280499D01*
X146776420Y-73240130D01*
X146967598Y-73160941D01*
X147139655Y-73045977D01*
X147285977Y-72899655D01*
X147400941Y-72727598D01*
X147480130Y-72536420D01*
X147491353Y-72480000D01*
X147503537Y-72418748D01*
X147520499Y-72333469D01*
X147520500Y-72333466D01*
X147520500Y-72126534D01*
X147520499Y-72126530D01*
X147492212Y-71984323D01*
X147480130Y-71923580D01*
X147400941Y-71732402D01*
X147400940Y-71732400D01*
X147400940Y-71732399D01*
X147294026Y-71572390D01*
X147273148Y-71505713D01*
X147291633Y-71438333D01*
X147343612Y-71391643D01*
X147397128Y-71379500D01*
X147963082Y-71379500D01*
X148030121Y-71399185D01*
X148075876Y-71451989D01*
X148085820Y-71521147D01*
X148063401Y-71576385D01*
X148026431Y-71627269D01*
X147944252Y-71788552D01*
X147944250Y-71788558D01*
X147888318Y-71960704D01*
X147888315Y-71960714D01*
X147885261Y-71980000D01*
X148576988Y-71980000D01*
X148544075Y-72037007D01*
X148510000Y-72164174D01*
X148510000Y-72295826D01*
X148544075Y-72422993D01*
X148576988Y-72480000D01*
X147885261Y-72480000D01*
X147888315Y-72499285D01*
X147888318Y-72499295D01*
X147944250Y-72671441D01*
X147944252Y-72671447D01*
X148026434Y-72832734D01*
X148132823Y-72979169D01*
X148260830Y-73107176D01*
X148407265Y-73213565D01*
X148568552Y-73295747D01*
X148568555Y-73295748D01*
X148740699Y-73351680D01*
X148740712Y-73351683D01*
X148760000Y-73354738D01*
X148760000Y-72663012D01*
X148817007Y-72695925D01*
X148944174Y-72730000D01*
X149075826Y-72730000D01*
X149202993Y-72695925D01*
X149260000Y-72663012D01*
X149260000Y-73354737D01*
X149279287Y-73351683D01*
X149279300Y-73351680D01*
X149451444Y-73295748D01*
X149451447Y-73295747D01*
X149612734Y-73213565D01*
X149759169Y-73107176D01*
X149887176Y-72979169D01*
X149993565Y-72832734D01*
X150075747Y-72671447D01*
X150075749Y-72671441D01*
X150131681Y-72499295D01*
X150131684Y-72499285D01*
X150134739Y-72480000D01*
X149443012Y-72480000D01*
X149475925Y-72422993D01*
X149510000Y-72295826D01*
X149510000Y-72164174D01*
X149475925Y-72037007D01*
X149443012Y-71980000D01*
X150134739Y-71980000D01*
X150131684Y-71960714D01*
X150131681Y-71960704D01*
X150075749Y-71788558D01*
X150075747Y-71788552D01*
X149993568Y-71627269D01*
X149956599Y-71576385D01*
X149933120Y-71510578D01*
X149948946Y-71442524D01*
X149999052Y-71393830D01*
X150056918Y-71379500D01*
X150622872Y-71379500D01*
X150689911Y-71399185D01*
X150735666Y-71451989D01*
X150745610Y-71521147D01*
X150725974Y-71572390D01*
X150619059Y-71732399D01*
X150619059Y-71732400D01*
X150539870Y-71923579D01*
X150539868Y-71923587D01*
X150499500Y-72126530D01*
X150499500Y-72333469D01*
X150539868Y-72536412D01*
X150539870Y-72536420D01*
X150619058Y-72727596D01*
X150734024Y-72899657D01*
X150880342Y-73045975D01*
X150880345Y-73045977D01*
X151052402Y-73160941D01*
X151243580Y-73240130D01*
X151446530Y-73280499D01*
X151446534Y-73280500D01*
X151446535Y-73280500D01*
X151653466Y-73280500D01*
X151653467Y-73280499D01*
X151856420Y-73240130D01*
X152047598Y-73160941D01*
X152219655Y-73045977D01*
X152365977Y-72899655D01*
X152480941Y-72727598D01*
X152560130Y-72536420D01*
X152600500Y-72333465D01*
X152600500Y-72126535D01*
X152560130Y-71923580D01*
X152480941Y-71732402D01*
X152480940Y-71732400D01*
X152480940Y-71732399D01*
X152374026Y-71572390D01*
X152353148Y-71505713D01*
X152371633Y-71438333D01*
X152423612Y-71391643D01*
X152477128Y-71379500D01*
X153162872Y-71379500D01*
X153229911Y-71399185D01*
X153275666Y-71451989D01*
X153285610Y-71521147D01*
X153265974Y-71572390D01*
X153159059Y-71732399D01*
X153159059Y-71732400D01*
X153079870Y-71923579D01*
X153079868Y-71923587D01*
X153039500Y-72126530D01*
X153039500Y-72333469D01*
X153079868Y-72536412D01*
X153079870Y-72536420D01*
X153159058Y-72727596D01*
X153274024Y-72899657D01*
X153420342Y-73045975D01*
X153420345Y-73045977D01*
X153592402Y-73160941D01*
X153783580Y-73240130D01*
X153986530Y-73280499D01*
X153986534Y-73280500D01*
X153986535Y-73280500D01*
X154193466Y-73280500D01*
X154193467Y-73280499D01*
X154396420Y-73240130D01*
X154587598Y-73160941D01*
X154759655Y-73045977D01*
X154905977Y-72899655D01*
X155020941Y-72727598D01*
X155100130Y-72536420D01*
X155140500Y-72333465D01*
X155140500Y-72126535D01*
X155100130Y-71923580D01*
X155020941Y-71732402D01*
X155020940Y-71732400D01*
X155020940Y-71732399D01*
X154914026Y-71572390D01*
X154893148Y-71505713D01*
X154911633Y-71438333D01*
X154963612Y-71391643D01*
X155017128Y-71379500D01*
X155702872Y-71379500D01*
X155769911Y-71399185D01*
X155815666Y-71451989D01*
X155825610Y-71521147D01*
X155805974Y-71572390D01*
X155699059Y-71732399D01*
X155699059Y-71732400D01*
X155619870Y-71923579D01*
X155619868Y-71923587D01*
X155579500Y-72126530D01*
X155579500Y-72333469D01*
X155619868Y-72536412D01*
X155619870Y-72536420D01*
X155699058Y-72727596D01*
X155814024Y-72899657D01*
X155960342Y-73045975D01*
X155960345Y-73045977D01*
X156132402Y-73160941D01*
X156323580Y-73240130D01*
X156526530Y-73280499D01*
X156526534Y-73280500D01*
X156526535Y-73280500D01*
X156733466Y-73280500D01*
X156733467Y-73280499D01*
X156936420Y-73240130D01*
X157127598Y-73160941D01*
X157127599Y-73160940D01*
X157127600Y-73160940D01*
X157287610Y-73054026D01*
X157354287Y-73033148D01*
X157421667Y-73051633D01*
X157468357Y-73103612D01*
X157480500Y-73157128D01*
X157480500Y-73723082D01*
X157460815Y-73790121D01*
X157408011Y-73835876D01*
X157338853Y-73845820D01*
X157283615Y-73823401D01*
X157232730Y-73786431D01*
X157071447Y-73704252D01*
X157071441Y-73704250D01*
X156899295Y-73648318D01*
X156899285Y-73648315D01*
X156880000Y-73645260D01*
X156880000Y-74336988D01*
X156822993Y-74304075D01*
X156695826Y-74270000D01*
X156564174Y-74270000D01*
X156437007Y-74304075D01*
X156380000Y-74336988D01*
X156380000Y-73645260D01*
X156360714Y-73648315D01*
X156360704Y-73648318D01*
X156188558Y-73704250D01*
X156188552Y-73704252D01*
X156027265Y-73786434D01*
X155880830Y-73892823D01*
X155752823Y-74020830D01*
X155646434Y-74167265D01*
X155564252Y-74328552D01*
X155564250Y-74328558D01*
X155508318Y-74500704D01*
X155508315Y-74500714D01*
X155505261Y-74520000D01*
X156196988Y-74520000D01*
X156164075Y-74577007D01*
X156130000Y-74704174D01*
X156130000Y-74835826D01*
X156164075Y-74962993D01*
X156196988Y-75020000D01*
X155505261Y-75020000D01*
X155508315Y-75039285D01*
X155508318Y-75039295D01*
X155564250Y-75211441D01*
X155564252Y-75211447D01*
X155646434Y-75372734D01*
X155752823Y-75519169D01*
X155880830Y-75647176D01*
X156027265Y-75753565D01*
X156188552Y-75835747D01*
X156188555Y-75835748D01*
X156360699Y-75891680D01*
X156360712Y-75891683D01*
X156380000Y-75894738D01*
X156380000Y-75203012D01*
X156437007Y-75235925D01*
X156564174Y-75270000D01*
X156695826Y-75270000D01*
X156822993Y-75235925D01*
X156880000Y-75203012D01*
X156880000Y-75894737D01*
X156899287Y-75891683D01*
X156899300Y-75891680D01*
X157071444Y-75835748D01*
X157071447Y-75835747D01*
X157232731Y-75753567D01*
X157283614Y-75716599D01*
X157349421Y-75693119D01*
X157417474Y-75708944D01*
X157466169Y-75759050D01*
X157480500Y-75816917D01*
X157480500Y-76081035D01*
X157460815Y-76148074D01*
X157444181Y-76168716D01*
X156349716Y-77263181D01*
X156288393Y-77296666D01*
X156262035Y-77299500D01*
X147520808Y-77299500D01*
X147453769Y-77279815D01*
X147433127Y-77263181D01*
X147414672Y-77244726D01*
X147414668Y-77244723D01*
X147308133Y-77173538D01*
X147308124Y-77173533D01*
X147189744Y-77124499D01*
X147189738Y-77124497D01*
X147064071Y-77099500D01*
X147064069Y-77099500D01*
X146935931Y-77099500D01*
X146935929Y-77099500D01*
X146810261Y-77124497D01*
X146810255Y-77124499D01*
X146691875Y-77173533D01*
X146691866Y-77173538D01*
X146585331Y-77244723D01*
X146585327Y-77244726D01*
X146494726Y-77335327D01*
X146494723Y-77335331D01*
X146423538Y-77441866D01*
X146423533Y-77441875D01*
X146374499Y-77560255D01*
X146374497Y-77560261D01*
X146349500Y-77685928D01*
X146349500Y-77685931D01*
X146349500Y-77814069D01*
X146349500Y-77814071D01*
X146349499Y-77814071D01*
X146374497Y-77939738D01*
X146374499Y-77939744D01*
X146423533Y-78058124D01*
X146423538Y-78058133D01*
X146494723Y-78164668D01*
X146494726Y-78164672D01*
X146585327Y-78255273D01*
X146585331Y-78255276D01*
X146691866Y-78326461D01*
X146691872Y-78326464D01*
X146691873Y-78326465D01*
X146810256Y-78375501D01*
X146810260Y-78375501D01*
X146810261Y-78375502D01*
X146935928Y-78400500D01*
X146935931Y-78400500D01*
X147064071Y-78400500D01*
X147148615Y-78383682D01*
X147189744Y-78375501D01*
X147308127Y-78326465D01*
X147414669Y-78255276D01*
X147417983Y-78251962D01*
X147433127Y-78236819D01*
X147494450Y-78203334D01*
X147520808Y-78200500D01*
X156559308Y-78200500D01*
X156559309Y-78200500D01*
X156649673Y-78176286D01*
X156673887Y-78169799D01*
X156677697Y-78167598D01*
X156689113Y-78164095D01*
X156718393Y-78163737D01*
X156747509Y-78160605D01*
X156752923Y-78163314D01*
X156758977Y-78163241D01*
X156783803Y-78178770D01*
X156809990Y-78191876D01*
X156813079Y-78197081D01*
X156818213Y-78200293D01*
X156830704Y-78226782D01*
X156845646Y-78251962D01*
X156846760Y-78260833D01*
X156848013Y-78263489D01*
X156847543Y-78267064D01*
X156849500Y-78282636D01*
X156849500Y-78314069D01*
X156849500Y-78314071D01*
X156849499Y-78314071D01*
X156874497Y-78439738D01*
X156874499Y-78439744D01*
X156923533Y-78558124D01*
X156923537Y-78558131D01*
X156938557Y-78580610D01*
X156959434Y-78647288D01*
X156940949Y-78714668D01*
X156888970Y-78761357D01*
X156835454Y-78773500D01*
X131886438Y-78773500D01*
X131848224Y-78783739D01*
X131810009Y-78793979D01*
X131810004Y-78793982D01*
X131741495Y-78833535D01*
X131741487Y-78833541D01*
X128245606Y-82329421D01*
X128184283Y-82362906D01*
X128133733Y-82363357D01*
X128064071Y-82349500D01*
X128064069Y-82349500D01*
X127935931Y-82349500D01*
X127935929Y-82349500D01*
X127810261Y-82374497D01*
X127810255Y-82374499D01*
X127691875Y-82423533D01*
X127691866Y-82423538D01*
X127585331Y-82494723D01*
X127585327Y-82494726D01*
X127494726Y-82585327D01*
X127494723Y-82585331D01*
X127423538Y-82691866D01*
X127423533Y-82691875D01*
X127374499Y-82810255D01*
X127374497Y-82810261D01*
X127349500Y-82935928D01*
X127349500Y-82935929D01*
X127349500Y-82935931D01*
X127349500Y-83064069D01*
X127349500Y-83064071D01*
X127349499Y-83064071D01*
X127374497Y-83189738D01*
X127374499Y-83189744D01*
X127423533Y-83308124D01*
X127423538Y-83308133D01*
X127494723Y-83414668D01*
X127494726Y-83414672D01*
X127585327Y-83505273D01*
X127585331Y-83505276D01*
X127691866Y-83576461D01*
X127691872Y-83576464D01*
X127691873Y-83576465D01*
X127810256Y-83625501D01*
X127810260Y-83625501D01*
X127810261Y-83625502D01*
X127935928Y-83650500D01*
X127935931Y-83650500D01*
X128064071Y-83650500D01*
X128148615Y-83633682D01*
X128189744Y-83625501D01*
X128308127Y-83576465D01*
X128414669Y-83505276D01*
X128505276Y-83414669D01*
X128576465Y-83308127D01*
X128625501Y-83189744D01*
X128648968Y-83071770D01*
X128650500Y-83064071D01*
X128650500Y-82935929D01*
X128639600Y-82881135D01*
X128636642Y-82866264D01*
X128642869Y-82796673D01*
X128670576Y-82754393D01*
X132014152Y-79410819D01*
X132075475Y-79377334D01*
X132101833Y-79374500D01*
X157398167Y-79374500D01*
X157465206Y-79394185D01*
X157485848Y-79410819D01*
X161413181Y-83338152D01*
X161446666Y-83399475D01*
X161449500Y-83425833D01*
X161449500Y-84869752D01*
X161461131Y-84928229D01*
X161461132Y-84928230D01*
X161505447Y-84994552D01*
X161571769Y-85038867D01*
X161571770Y-85038868D01*
X161630247Y-85050499D01*
X161630250Y-85050500D01*
X161630252Y-85050500D01*
X163369750Y-85050500D01*
X163369751Y-85050499D01*
X163388988Y-85046673D01*
X163428229Y-85038868D01*
X163428229Y-85038867D01*
X163428231Y-85038867D01*
X163494552Y-84994552D01*
X163538867Y-84928231D01*
X163538867Y-84928229D01*
X163538868Y-84928229D01*
X163550499Y-84869752D01*
X163550500Y-84869750D01*
X163550500Y-83130249D01*
X163550499Y-83130247D01*
X163538868Y-83071770D01*
X163538867Y-83071769D01*
X163494552Y-83005447D01*
X163428230Y-82961132D01*
X163428229Y-82961131D01*
X163369752Y-82949500D01*
X163369748Y-82949500D01*
X161925833Y-82949500D01*
X161858794Y-82929815D01*
X161838152Y-82913181D01*
X157880983Y-78956012D01*
X157847498Y-78894689D01*
X157852482Y-78824997D01*
X157894354Y-78769064D01*
X157899775Y-78765228D01*
X157905568Y-78761357D01*
X157914669Y-78755276D01*
X158005276Y-78664669D01*
X158076465Y-78558127D01*
X158125501Y-78439744D01*
X158148034Y-78326466D01*
X158150500Y-78314071D01*
X158150500Y-78185928D01*
X158125502Y-78060261D01*
X158125501Y-78060260D01*
X158125501Y-78060256D01*
X158076465Y-77941873D01*
X158076464Y-77941872D01*
X158076461Y-77941866D01*
X158005276Y-77835331D01*
X158005273Y-77835327D01*
X157914672Y-77744726D01*
X157914668Y-77744723D01*
X157808133Y-77673538D01*
X157808124Y-77673533D01*
X157689744Y-77624499D01*
X157689738Y-77624497D01*
X157561000Y-77598889D01*
X157499089Y-77566504D01*
X157464515Y-77505788D01*
X157468256Y-77436018D01*
X157497509Y-77389593D01*
X158291489Y-76595614D01*
X158350799Y-76492887D01*
X158357285Y-76468675D01*
X158357286Y-76468675D01*
X158357286Y-76468671D01*
X158381500Y-76378309D01*
X158381500Y-73393713D01*
X160149500Y-73393713D01*
X160149500Y-73606286D01*
X160181468Y-73808127D01*
X160182754Y-73816243D01*
X160241546Y-73997186D01*
X160248444Y-74018414D01*
X160344951Y-74207820D01*
X160469890Y-74379786D01*
X160620213Y-74530109D01*
X160792179Y-74655048D01*
X160792181Y-74655049D01*
X160792184Y-74655051D01*
X160981588Y-74751557D01*
X161183757Y-74817246D01*
X161393713Y-74850500D01*
X161393714Y-74850500D01*
X161606286Y-74850500D01*
X161606287Y-74850500D01*
X161816243Y-74817246D01*
X162018412Y-74751557D01*
X162207816Y-74655051D01*
X162229789Y-74639086D01*
X162379786Y-74530109D01*
X162379788Y-74530106D01*
X162379792Y-74530104D01*
X162530104Y-74379792D01*
X162530106Y-74379788D01*
X162530109Y-74379786D01*
X162655048Y-74207820D01*
X162655047Y-74207820D01*
X162655051Y-74207816D01*
X162751557Y-74018412D01*
X162817246Y-73816243D01*
X162850500Y-73606287D01*
X162850500Y-73393713D01*
X162817246Y-73183757D01*
X162751557Y-72981588D01*
X162655051Y-72792184D01*
X162655049Y-72792181D01*
X162655048Y-72792179D01*
X162530109Y-72620213D01*
X162379786Y-72469890D01*
X162207820Y-72344951D01*
X162018414Y-72248444D01*
X162018413Y-72248443D01*
X162018412Y-72248443D01*
X161816243Y-72182754D01*
X161816241Y-72182753D01*
X161816240Y-72182753D01*
X161654957Y-72157208D01*
X161606287Y-72149500D01*
X161393713Y-72149500D01*
X161345042Y-72157208D01*
X161183760Y-72182753D01*
X160981585Y-72248444D01*
X160792179Y-72344951D01*
X160620213Y-72469890D01*
X160469890Y-72620213D01*
X160344951Y-72792179D01*
X160248444Y-72981585D01*
X160182753Y-73183760D01*
X160149500Y-73393713D01*
X158381500Y-73393713D01*
X158381500Y-71631799D01*
X158350799Y-71517222D01*
X158300886Y-71430771D01*
X158299340Y-71428094D01*
X158291489Y-71414493D01*
X158291487Y-71414491D01*
X157588676Y-70711681D01*
X157555191Y-70650358D01*
X157560175Y-70580667D01*
X157602046Y-70524733D01*
X157667511Y-70500316D01*
X157676357Y-70500000D01*
X162948638Y-70500000D01*
X163015677Y-70519685D01*
X163036319Y-70536319D01*
X164463681Y-71963681D01*
X164497166Y-72025004D01*
X164500000Y-72051362D01*
X164500000Y-97948638D01*
X164480315Y-98015677D01*
X164463681Y-98036319D01*
X163036319Y-99463681D01*
X162974996Y-99497166D01*
X162948638Y-99500000D01*
X102051362Y-99500000D01*
X101984323Y-99480315D01*
X101963681Y-99463681D01*
X100536319Y-98036319D01*
X100502834Y-97974996D01*
X100500000Y-97948638D01*
X100500000Y-96393713D01*
X102149500Y-96393713D01*
X102149500Y-96606286D01*
X102173798Y-96759701D01*
X102182754Y-96816243D01*
X102241534Y-96997149D01*
X102248444Y-97018414D01*
X102344951Y-97207820D01*
X102469890Y-97379786D01*
X102620213Y-97530109D01*
X102792179Y-97655048D01*
X102792181Y-97655049D01*
X102792184Y-97655051D01*
X102981588Y-97751557D01*
X103183757Y-97817246D01*
X103393713Y-97850500D01*
X103393714Y-97850500D01*
X103606286Y-97850500D01*
X103606287Y-97850500D01*
X103816243Y-97817246D01*
X104018412Y-97751557D01*
X104207816Y-97655051D01*
X104229789Y-97639086D01*
X104379786Y-97530109D01*
X104379788Y-97530106D01*
X104379792Y-97530104D01*
X104530104Y-97379792D01*
X104530106Y-97379788D01*
X104530109Y-97379786D01*
X104655048Y-97207820D01*
X104655047Y-97207820D01*
X104655051Y-97207816D01*
X104751557Y-97018412D01*
X104817246Y-96816243D01*
X104850500Y-96606287D01*
X104850500Y-96393713D01*
X104817246Y-96183757D01*
X104751557Y-95981588D01*
X104655051Y-95792184D01*
X104655049Y-95792181D01*
X104655048Y-95792179D01*
X104530109Y-95620213D01*
X104379790Y-95469894D01*
X104379785Y-95469890D01*
X104239778Y-95368169D01*
X104239755Y-95368154D01*
X104207815Y-95344948D01*
X104062153Y-95270730D01*
X112949500Y-95270730D01*
X112949500Y-96729269D01*
X112952353Y-96759699D01*
X112952353Y-96759701D01*
X112997206Y-96887880D01*
X112997207Y-96887882D01*
X113077850Y-96997150D01*
X113187118Y-97077793D01*
X113208089Y-97085131D01*
X113315299Y-97122646D01*
X113345730Y-97125500D01*
X113345734Y-97125500D01*
X114654270Y-97125500D01*
X114684699Y-97122646D01*
X114684701Y-97122646D01*
X114748790Y-97100219D01*
X114812882Y-97077793D01*
X114922150Y-96997150D01*
X115002793Y-96887882D01*
X115025219Y-96823790D01*
X115047646Y-96759701D01*
X115047646Y-96759699D01*
X115050500Y-96729269D01*
X115050500Y-95821530D01*
X115449500Y-95821530D01*
X115449500Y-96178469D01*
X115489868Y-96381412D01*
X115489870Y-96381420D01*
X115507921Y-96425000D01*
X115569059Y-96572598D01*
X115591569Y-96606287D01*
X115684024Y-96744657D01*
X115830342Y-96890975D01*
X115830345Y-96890977D01*
X116002402Y-97005941D01*
X116193580Y-97085130D01*
X116382187Y-97122646D01*
X116396530Y-97125499D01*
X116396534Y-97125500D01*
X116396535Y-97125500D01*
X116603466Y-97125500D01*
X116603467Y-97125499D01*
X116806420Y-97085130D01*
X116997598Y-97005941D01*
X117169655Y-96890977D01*
X117315977Y-96744655D01*
X117430941Y-96572598D01*
X117510130Y-96381420D01*
X117536271Y-96250000D01*
X117548456Y-96188746D01*
X117550499Y-96178468D01*
X117550500Y-96178466D01*
X117550500Y-95821534D01*
X117550499Y-95821531D01*
X117548455Y-95811250D01*
X117548455Y-95811249D01*
X117536271Y-95750000D01*
X117863382Y-95750000D01*
X118653590Y-95750000D01*
X118603963Y-95835956D01*
X118575000Y-95944048D01*
X118575000Y-96055952D01*
X118603963Y-96164044D01*
X118653590Y-96250000D01*
X117863382Y-96250000D01*
X117878317Y-96344295D01*
X117878317Y-96344296D01*
X117934251Y-96516444D01*
X117934252Y-96516447D01*
X118016434Y-96677734D01*
X118122823Y-96824169D01*
X118250830Y-96952176D01*
X118397265Y-97058565D01*
X118558552Y-97140747D01*
X118558555Y-97140748D01*
X118730699Y-97196680D01*
X118730712Y-97196683D01*
X118750000Y-97199738D01*
X118750000Y-96346409D01*
X118835956Y-96396037D01*
X118944048Y-96425000D01*
X119055952Y-96425000D01*
X119164044Y-96396037D01*
X119250000Y-96346409D01*
X119250000Y-97199737D01*
X119269287Y-97196683D01*
X119269300Y-97196680D01*
X119441444Y-97140748D01*
X119441447Y-97140747D01*
X119602734Y-97058565D01*
X119749169Y-96952176D01*
X119877176Y-96824169D01*
X119983565Y-96677734D01*
X120065747Y-96516447D01*
X120065748Y-96516444D01*
X120121682Y-96344296D01*
X120121682Y-96344295D01*
X120136618Y-96250000D01*
X119346410Y-96250000D01*
X119396037Y-96164044D01*
X119425000Y-96055952D01*
X119425000Y-95944048D01*
X119396037Y-95835956D01*
X119346410Y-95750000D01*
X120136618Y-95750000D01*
X120121682Y-95655704D01*
X120121682Y-95655703D01*
X120065748Y-95483555D01*
X120065747Y-95483552D01*
X119984516Y-95324130D01*
X119984515Y-95324128D01*
X119983567Y-95322267D01*
X119946124Y-95270730D01*
X125949500Y-95270730D01*
X125949500Y-96729269D01*
X125952353Y-96759699D01*
X125952353Y-96759701D01*
X125997206Y-96887880D01*
X125997207Y-96887882D01*
X126077850Y-96997150D01*
X126187118Y-97077793D01*
X126208089Y-97085131D01*
X126315299Y-97122646D01*
X126345730Y-97125500D01*
X126345734Y-97125500D01*
X127654270Y-97125500D01*
X127684699Y-97122646D01*
X127684701Y-97122646D01*
X127748790Y-97100219D01*
X127812882Y-97077793D01*
X127922150Y-96997150D01*
X128002793Y-96887882D01*
X128025219Y-96823790D01*
X128047646Y-96759701D01*
X128047646Y-96759699D01*
X128050500Y-96729269D01*
X128050500Y-95821530D01*
X128449500Y-95821530D01*
X128449500Y-96178469D01*
X128489868Y-96381412D01*
X128489870Y-96381420D01*
X128507921Y-96425000D01*
X128569059Y-96572598D01*
X128591569Y-96606287D01*
X128684024Y-96744657D01*
X128830342Y-96890975D01*
X128830345Y-96890977D01*
X129002402Y-97005941D01*
X129193580Y-97085130D01*
X129382187Y-97122646D01*
X129396530Y-97125499D01*
X129396534Y-97125500D01*
X129396535Y-97125500D01*
X129603466Y-97125500D01*
X129603467Y-97125499D01*
X129806420Y-97085130D01*
X129997598Y-97005941D01*
X130169655Y-96890977D01*
X130315977Y-96744655D01*
X130430941Y-96572598D01*
X130510130Y-96381420D01*
X130536271Y-96250000D01*
X130548456Y-96188746D01*
X130550499Y-96178468D01*
X130550500Y-96178466D01*
X130550500Y-95821534D01*
X130550499Y-95821531D01*
X130548455Y-95811250D01*
X130548455Y-95811249D01*
X130536271Y-95750000D01*
X130863382Y-95750000D01*
X131653590Y-95750000D01*
X131603963Y-95835956D01*
X131575000Y-95944048D01*
X131575000Y-96055952D01*
X131603963Y-96164044D01*
X131653590Y-96250000D01*
X130863382Y-96250000D01*
X130878317Y-96344295D01*
X130878317Y-96344296D01*
X130934251Y-96516444D01*
X130934252Y-96516447D01*
X131016434Y-96677734D01*
X131122823Y-96824169D01*
X131250830Y-96952176D01*
X131397265Y-97058565D01*
X131558552Y-97140747D01*
X131558555Y-97140748D01*
X131730699Y-97196680D01*
X131730712Y-97196683D01*
X131750000Y-97199738D01*
X131750000Y-96346409D01*
X131835956Y-96396037D01*
X131944048Y-96425000D01*
X132055952Y-96425000D01*
X132164044Y-96396037D01*
X132250000Y-96346409D01*
X132250000Y-97199737D01*
X132269287Y-97196683D01*
X132269300Y-97196680D01*
X132441444Y-97140748D01*
X132441447Y-97140747D01*
X132602734Y-97058565D01*
X132749169Y-96952176D01*
X132877176Y-96824169D01*
X132983565Y-96677734D01*
X133065747Y-96516447D01*
X133065748Y-96516444D01*
X133105626Y-96393713D01*
X160149500Y-96393713D01*
X160149500Y-96606286D01*
X160173798Y-96759701D01*
X160182754Y-96816243D01*
X160241534Y-96997149D01*
X160248444Y-97018414D01*
X160344951Y-97207820D01*
X160469890Y-97379786D01*
X160620213Y-97530109D01*
X160792179Y-97655048D01*
X160792181Y-97655049D01*
X160792184Y-97655051D01*
X160981588Y-97751557D01*
X161183757Y-97817246D01*
X161393713Y-97850500D01*
X161393714Y-97850500D01*
X161606286Y-97850500D01*
X161606287Y-97850500D01*
X161816243Y-97817246D01*
X162018412Y-97751557D01*
X162207816Y-97655051D01*
X162229789Y-97639086D01*
X162379786Y-97530109D01*
X162379788Y-97530106D01*
X162379792Y-97530104D01*
X162530104Y-97379792D01*
X162530106Y-97379788D01*
X162530109Y-97379786D01*
X162655048Y-97207820D01*
X162655047Y-97207820D01*
X162655051Y-97207816D01*
X162751557Y-97018412D01*
X162817246Y-96816243D01*
X162850500Y-96606287D01*
X162850500Y-96393713D01*
X162817246Y-96183757D01*
X162751557Y-95981588D01*
X162655051Y-95792184D01*
X162655049Y-95792181D01*
X162655048Y-95792179D01*
X162530109Y-95620213D01*
X162379786Y-95469890D01*
X162207820Y-95344951D01*
X162018414Y-95248444D01*
X162018413Y-95248443D01*
X162018412Y-95248443D01*
X161816243Y-95182754D01*
X161816241Y-95182753D01*
X161816240Y-95182753D01*
X161654957Y-95157208D01*
X161606287Y-95149500D01*
X161393713Y-95149500D01*
X161345042Y-95157208D01*
X161183760Y-95182753D01*
X161183757Y-95182754D01*
X161006650Y-95240300D01*
X160981585Y-95248444D01*
X160792179Y-95344951D01*
X160620213Y-95469890D01*
X160469890Y-95620213D01*
X160344951Y-95792179D01*
X160248444Y-95981585D01*
X160182753Y-96183760D01*
X160149500Y-96393713D01*
X133105626Y-96393713D01*
X133119659Y-96350523D01*
X133119659Y-96350522D01*
X133121682Y-96344293D01*
X133136618Y-96250000D01*
X132346410Y-96250000D01*
X132396037Y-96164044D01*
X132425000Y-96055952D01*
X132425000Y-95944048D01*
X132396037Y-95835956D01*
X132346410Y-95750000D01*
X133136618Y-95750000D01*
X133121682Y-95655704D01*
X133121682Y-95655703D01*
X133065748Y-95483555D01*
X133065747Y-95483552D01*
X132983565Y-95322265D01*
X132877176Y-95175830D01*
X132749169Y-95047823D01*
X132602734Y-94941434D01*
X132441447Y-94859252D01*
X132441441Y-94859250D01*
X132269295Y-94803318D01*
X132269285Y-94803315D01*
X132250000Y-94800260D01*
X132250000Y-95653590D01*
X132164044Y-95603963D01*
X132055952Y-95575000D01*
X131944048Y-95575000D01*
X131835956Y-95603963D01*
X131750000Y-95653590D01*
X131750000Y-94800260D01*
X131730714Y-94803315D01*
X131730704Y-94803318D01*
X131558558Y-94859250D01*
X131558552Y-94859252D01*
X131397265Y-94941434D01*
X131250830Y-95047823D01*
X131122823Y-95175830D01*
X131016434Y-95322265D01*
X130934252Y-95483552D01*
X130934251Y-95483555D01*
X130878317Y-95655703D01*
X130878317Y-95655704D01*
X130863382Y-95750000D01*
X130536271Y-95750000D01*
X130517514Y-95655703D01*
X130510130Y-95618580D01*
X130430941Y-95427402D01*
X130315977Y-95255345D01*
X130315975Y-95255342D01*
X130169657Y-95109024D01*
X130078062Y-95047823D01*
X129997598Y-94994059D01*
X129806420Y-94914870D01*
X129806412Y-94914868D01*
X129603469Y-94874500D01*
X129603465Y-94874500D01*
X129396535Y-94874500D01*
X129396530Y-94874500D01*
X129193587Y-94914868D01*
X129193579Y-94914870D01*
X129002403Y-94994058D01*
X128830342Y-95109024D01*
X128684024Y-95255342D01*
X128569058Y-95427403D01*
X128489870Y-95618579D01*
X128489868Y-95618587D01*
X128449500Y-95821530D01*
X128050500Y-95821530D01*
X128050500Y-95270730D01*
X128047646Y-95240300D01*
X128047646Y-95240298D01*
X128002793Y-95112119D01*
X128002792Y-95112117D01*
X127922150Y-95002850D01*
X127812882Y-94922207D01*
X127812880Y-94922206D01*
X127684700Y-94877353D01*
X127654270Y-94874500D01*
X127654266Y-94874500D01*
X126345734Y-94874500D01*
X126345730Y-94874500D01*
X126315300Y-94877353D01*
X126315298Y-94877353D01*
X126187119Y-94922206D01*
X126187117Y-94922207D01*
X126077850Y-95002850D01*
X125997207Y-95112117D01*
X125997206Y-95112119D01*
X125952353Y-95240298D01*
X125952353Y-95240300D01*
X125949500Y-95270730D01*
X119946124Y-95270730D01*
X119877176Y-95175830D01*
X119749169Y-95047823D01*
X119602734Y-94941434D01*
X119441447Y-94859252D01*
X119441441Y-94859250D01*
X119269295Y-94803318D01*
X119269285Y-94803315D01*
X119250000Y-94800260D01*
X119250000Y-95653590D01*
X119164044Y-95603963D01*
X119055952Y-95575000D01*
X118944048Y-95575000D01*
X118835956Y-95603963D01*
X118750000Y-95653590D01*
X118750000Y-94800260D01*
X118730714Y-94803315D01*
X118730704Y-94803318D01*
X118558558Y-94859250D01*
X118558552Y-94859252D01*
X118397265Y-94941434D01*
X118250830Y-95047823D01*
X118122823Y-95175830D01*
X118016434Y-95322265D01*
X117934252Y-95483552D01*
X117934251Y-95483555D01*
X117878317Y-95655703D01*
X117878317Y-95655704D01*
X117863382Y-95750000D01*
X117536271Y-95750000D01*
X117517514Y-95655703D01*
X117510130Y-95618580D01*
X117430941Y-95427402D01*
X117315977Y-95255345D01*
X117315975Y-95255342D01*
X117169657Y-95109024D01*
X117078062Y-95047823D01*
X116997598Y-94994059D01*
X116806420Y-94914870D01*
X116806412Y-94914868D01*
X116603469Y-94874500D01*
X116603465Y-94874500D01*
X116396535Y-94874500D01*
X116396530Y-94874500D01*
X116193587Y-94914868D01*
X116193579Y-94914870D01*
X116002403Y-94994058D01*
X115830342Y-95109024D01*
X115684024Y-95255342D01*
X115569058Y-95427403D01*
X115489870Y-95618579D01*
X115489868Y-95618587D01*
X115449500Y-95821530D01*
X115050500Y-95821530D01*
X115050500Y-95270730D01*
X115047646Y-95240300D01*
X115047646Y-95240298D01*
X115002793Y-95112119D01*
X115002792Y-95112117D01*
X114922150Y-95002850D01*
X114812882Y-94922207D01*
X114812880Y-94922206D01*
X114684700Y-94877353D01*
X114654270Y-94874500D01*
X114654266Y-94874500D01*
X113345734Y-94874500D01*
X113345730Y-94874500D01*
X113315300Y-94877353D01*
X113315298Y-94877353D01*
X113187119Y-94922206D01*
X113187117Y-94922207D01*
X113077850Y-95002850D01*
X112997207Y-95112117D01*
X112997206Y-95112119D01*
X112952353Y-95240298D01*
X112952353Y-95240300D01*
X112949500Y-95270730D01*
X104062153Y-95270730D01*
X104018414Y-95248444D01*
X104018413Y-95248443D01*
X104018412Y-95248443D01*
X103816243Y-95182754D01*
X103816241Y-95182753D01*
X103816240Y-95182753D01*
X103654957Y-95157208D01*
X103606287Y-95149500D01*
X103393713Y-95149500D01*
X103345042Y-95157208D01*
X103183760Y-95182753D01*
X103183757Y-95182754D01*
X103006650Y-95240300D01*
X102981585Y-95248444D01*
X102792179Y-95344951D01*
X102620213Y-95469890D01*
X102469890Y-95620213D01*
X102344951Y-95792179D01*
X102248444Y-95981585D01*
X102182753Y-96183760D01*
X102149500Y-96393713D01*
X100500000Y-96393713D01*
X100500000Y-89949493D01*
X126350000Y-89949493D01*
X126350000Y-90130506D01*
X126378317Y-90309293D01*
X126434251Y-90481444D01*
X126434252Y-90481447D01*
X126516431Y-90642730D01*
X126527913Y-90658532D01*
X126527913Y-90658533D01*
X127017037Y-90169409D01*
X127034075Y-90232993D01*
X127099901Y-90347007D01*
X127192993Y-90440099D01*
X127307007Y-90505925D01*
X127370590Y-90522962D01*
X126881466Y-91012085D01*
X126881466Y-91012086D01*
X126897267Y-91023566D01*
X126897275Y-91023571D01*
X127058552Y-91105747D01*
X127058555Y-91105748D01*
X127230706Y-91161682D01*
X127409494Y-91190000D01*
X127590506Y-91190000D01*
X127769293Y-91161682D01*
X127941444Y-91105748D01*
X127941452Y-91105745D01*
X128102730Y-91023568D01*
X128118532Y-91012085D01*
X128118533Y-91012085D01*
X127629410Y-90522962D01*
X127692993Y-90505925D01*
X127807007Y-90440099D01*
X127900099Y-90347007D01*
X127965925Y-90232993D01*
X127982962Y-90169410D01*
X128472085Y-90658533D01*
X128472085Y-90658532D01*
X128483568Y-90642730D01*
X128565745Y-90481452D01*
X128565748Y-90481444D01*
X128621682Y-90309293D01*
X128650000Y-90130506D01*
X128650000Y-89949493D01*
X128621682Y-89770706D01*
X128565748Y-89598555D01*
X128565747Y-89598552D01*
X128483571Y-89437275D01*
X128483566Y-89437267D01*
X128472085Y-89421466D01*
X127982962Y-89910589D01*
X127965925Y-89847007D01*
X127900099Y-89732993D01*
X127807007Y-89639901D01*
X127692993Y-89574075D01*
X127629409Y-89557037D01*
X128118533Y-89067913D01*
X128102730Y-89056431D01*
X127941447Y-88974252D01*
X127941444Y-88974251D01*
X127769293Y-88918317D01*
X127590506Y-88890000D01*
X127409494Y-88890000D01*
X127230706Y-88918317D01*
X127058555Y-88974251D01*
X127058547Y-88974254D01*
X126897269Y-89056432D01*
X126881466Y-89067912D01*
X126881466Y-89067913D01*
X127370591Y-89557037D01*
X127307007Y-89574075D01*
X127192993Y-89639901D01*
X127099901Y-89732993D01*
X127034075Y-89847007D01*
X127017037Y-89910590D01*
X126527912Y-89421466D01*
X126516432Y-89437269D01*
X126434254Y-89598547D01*
X126434251Y-89598555D01*
X126378317Y-89770706D01*
X126350000Y-89949493D01*
X100500000Y-89949493D01*
X100500000Y-87564071D01*
X115849499Y-87564071D01*
X115874497Y-87689738D01*
X115874499Y-87689744D01*
X115923533Y-87808124D01*
X115923538Y-87808133D01*
X115994723Y-87914668D01*
X115994726Y-87914672D01*
X116085327Y-88005273D01*
X116085331Y-88005276D01*
X116191866Y-88076461D01*
X116191872Y-88076464D01*
X116191873Y-88076465D01*
X116310256Y-88125501D01*
X116310260Y-88125501D01*
X116310261Y-88125502D01*
X116435928Y-88150500D01*
X116435931Y-88150500D01*
X116564071Y-88150500D01*
X116648615Y-88133682D01*
X116689744Y-88125501D01*
X116808127Y-88076465D01*
X116914669Y-88005276D01*
X117005276Y-87914669D01*
X117076465Y-87808127D01*
X117125501Y-87689744D01*
X117134114Y-87646446D01*
X117150500Y-87564071D01*
X117150500Y-87435930D01*
X117142508Y-87395755D01*
X117148734Y-87326164D01*
X117176441Y-87283884D01*
X117510465Y-86949862D01*
X117553318Y-86875639D01*
X117575500Y-86792853D01*
X117575500Y-86707147D01*
X117575500Y-82881135D01*
X117595185Y-82814096D01*
X117630609Y-82778033D01*
X117664669Y-82755276D01*
X117755276Y-82664669D01*
X117826465Y-82558127D01*
X117875501Y-82439744D01*
X117887851Y-82377658D01*
X117900500Y-82314071D01*
X117900500Y-82185928D01*
X117875502Y-82060261D01*
X117875501Y-82060260D01*
X117875501Y-82060256D01*
X117826465Y-81941873D01*
X117826464Y-81941872D01*
X117826461Y-81941866D01*
X117755276Y-81835331D01*
X117755273Y-81835327D01*
X117664672Y-81744726D01*
X117664668Y-81744723D01*
X117558133Y-81673538D01*
X117558124Y-81673533D01*
X117439744Y-81624499D01*
X117439738Y-81624497D01*
X117314071Y-81599500D01*
X117314069Y-81599500D01*
X117185931Y-81599500D01*
X117185929Y-81599500D01*
X117060261Y-81624497D01*
X117060255Y-81624499D01*
X116941875Y-81673533D01*
X116941866Y-81673538D01*
X116835331Y-81744723D01*
X116835327Y-81744726D01*
X116744726Y-81835327D01*
X116744723Y-81835331D01*
X116673538Y-81941866D01*
X116673533Y-81941875D01*
X116624499Y-82060255D01*
X116624497Y-82060261D01*
X116599500Y-82185928D01*
X116599500Y-82185931D01*
X116599500Y-82314069D01*
X116599500Y-82314071D01*
X116599499Y-82314071D01*
X116624497Y-82439738D01*
X116624499Y-82439744D01*
X116673533Y-82558124D01*
X116673538Y-82558133D01*
X116744723Y-82664668D01*
X116744726Y-82664672D01*
X116835325Y-82755271D01*
X116835330Y-82755275D01*
X116835331Y-82755276D01*
X116869389Y-82778033D01*
X116914195Y-82831643D01*
X116924500Y-82881135D01*
X116924500Y-86563810D01*
X116915855Y-86593250D01*
X116909332Y-86623237D01*
X116905577Y-86628252D01*
X116904815Y-86630849D01*
X116888181Y-86651491D01*
X116716117Y-86823555D01*
X116654794Y-86857040D01*
X116604244Y-86857491D01*
X116564071Y-86849500D01*
X116564069Y-86849500D01*
X116435931Y-86849500D01*
X116435929Y-86849500D01*
X116310261Y-86874497D01*
X116310255Y-86874499D01*
X116191875Y-86923533D01*
X116191866Y-86923538D01*
X116085331Y-86994723D01*
X116085327Y-86994726D01*
X115994726Y-87085327D01*
X115994723Y-87085331D01*
X115923538Y-87191866D01*
X115923533Y-87191875D01*
X115874499Y-87310255D01*
X115874497Y-87310261D01*
X115849500Y-87435928D01*
X115849500Y-87435930D01*
X115849500Y-87435931D01*
X115849500Y-87564069D01*
X115849500Y-87564071D01*
X115849499Y-87564071D01*
X100500000Y-87564071D01*
X100500000Y-73393713D01*
X102149500Y-73393713D01*
X102149500Y-73606286D01*
X102181468Y-73808127D01*
X102182754Y-73816243D01*
X102241546Y-73997186D01*
X102248444Y-74018414D01*
X102344951Y-74207820D01*
X102469890Y-74379786D01*
X102620213Y-74530109D01*
X102792179Y-74655048D01*
X102792181Y-74655049D01*
X102792184Y-74655051D01*
X102981588Y-74751557D01*
X103183757Y-74817246D01*
X103393713Y-74850500D01*
X103393714Y-74850500D01*
X103606286Y-74850500D01*
X103606287Y-74850500D01*
X103816243Y-74817246D01*
X104018412Y-74751557D01*
X104207816Y-74655051D01*
X104229789Y-74639086D01*
X104379786Y-74530109D01*
X104379788Y-74530106D01*
X104379792Y-74530104D01*
X104530104Y-74379792D01*
X104530106Y-74379788D01*
X104530109Y-74379786D01*
X104655048Y-74207820D01*
X104655047Y-74207820D01*
X104655051Y-74207816D01*
X104751557Y-74018412D01*
X104817246Y-73816243D01*
X104850500Y-73606287D01*
X104850500Y-73393713D01*
X104817246Y-73183757D01*
X104751557Y-72981588D01*
X104655051Y-72792184D01*
X104655049Y-72792181D01*
X104655048Y-72792179D01*
X104530109Y-72620213D01*
X104379786Y-72469890D01*
X104207820Y-72344951D01*
X104018414Y-72248444D01*
X104018413Y-72248443D01*
X104018412Y-72248443D01*
X103816243Y-72182754D01*
X103816241Y-72182753D01*
X103816240Y-72182753D01*
X103654957Y-72157208D01*
X103606287Y-72149500D01*
X103393713Y-72149500D01*
X103345042Y-72157208D01*
X103183760Y-72182753D01*
X102981585Y-72248444D01*
X102792179Y-72344951D01*
X102620213Y-72469890D01*
X102469890Y-72620213D01*
X102344951Y-72792179D01*
X102248444Y-72981585D01*
X102182753Y-73183760D01*
X102149500Y-73393713D01*
X100500000Y-73393713D01*
X100500000Y-72126530D01*
X107319500Y-72126530D01*
X107319500Y-72333469D01*
X107359868Y-72536412D01*
X107359870Y-72536420D01*
X107439058Y-72727596D01*
X107554024Y-72899657D01*
X107700342Y-73045975D01*
X107700345Y-73045977D01*
X107872402Y-73160941D01*
X108063580Y-73240130D01*
X108266530Y-73280499D01*
X108266534Y-73280500D01*
X108266535Y-73280500D01*
X108473466Y-73280500D01*
X108473467Y-73280499D01*
X108676420Y-73240130D01*
X108867598Y-73160941D01*
X109039655Y-73045977D01*
X109185977Y-72899655D01*
X109300941Y-72727598D01*
X109380130Y-72536420D01*
X109420500Y-72333465D01*
X109420500Y-72126535D01*
X109380130Y-71923580D01*
X109300941Y-71732402D01*
X109185977Y-71560345D01*
X109185975Y-71560342D01*
X109039657Y-71414024D01*
X108923332Y-71336299D01*
X108867598Y-71299059D01*
X108676420Y-71219870D01*
X108676412Y-71219868D01*
X108473469Y-71179500D01*
X108473465Y-71179500D01*
X108266535Y-71179500D01*
X108266530Y-71179500D01*
X108063587Y-71219868D01*
X108063579Y-71219870D01*
X107872403Y-71299058D01*
X107700342Y-71414024D01*
X107554024Y-71560342D01*
X107439058Y-71732403D01*
X107359870Y-71923579D01*
X107359868Y-71923587D01*
X107319500Y-72126530D01*
X100500000Y-72126530D01*
X100500000Y-72051362D01*
X100519685Y-71984323D01*
X100536319Y-71963681D01*
X101963681Y-70536319D01*
X102025004Y-70502834D01*
X102051362Y-70500000D01*
X111703534Y-70500000D01*
X111770573Y-70519685D01*
G37*
G04 #@! TD.AperFunction*
G04 #@! TA.AperFunction,Conductor*
G36*
X112372742Y-71506873D02*
G01*
X112428676Y-71548744D01*
X112453093Y-71614209D01*
X112439894Y-71679349D01*
X112384255Y-71788547D01*
X112384250Y-71788558D01*
X112328318Y-71960704D01*
X112328315Y-71960714D01*
X112325261Y-71980000D01*
X113016988Y-71980000D01*
X112984075Y-72037007D01*
X112950000Y-72164174D01*
X112950000Y-72295826D01*
X112984075Y-72422993D01*
X113016988Y-72480000D01*
X112325261Y-72480000D01*
X112328315Y-72499285D01*
X112328318Y-72499295D01*
X112384250Y-72671441D01*
X112384252Y-72671447D01*
X112466434Y-72832734D01*
X112571695Y-72977615D01*
X112595175Y-73043421D01*
X112579349Y-73111475D01*
X112529243Y-73160170D01*
X112471377Y-73174500D01*
X111750495Y-73174500D01*
X111683456Y-73154815D01*
X111637701Y-73102011D01*
X111627757Y-73032853D01*
X111656782Y-72969297D01*
X111662814Y-72962819D01*
X111725974Y-72899658D01*
X111725975Y-72899657D01*
X111725977Y-72899655D01*
X111840941Y-72727598D01*
X111920130Y-72536420D01*
X111960500Y-72333465D01*
X111960500Y-72126535D01*
X111940471Y-72025842D01*
X111922010Y-71933029D01*
X111928237Y-71863437D01*
X111955946Y-71821157D01*
X112097754Y-71679349D01*
X112241731Y-71535371D01*
X112303051Y-71501889D01*
X112372742Y-71506873D01*
G37*
G04 #@! TD.AperFunction*
G04 #@! TA.AperFunction,Conductor*
G36*
X115129911Y-71399185D02*
G01*
X115175666Y-71451989D01*
X115185610Y-71521147D01*
X115165974Y-71572390D01*
X115059059Y-71732399D01*
X115059059Y-71732400D01*
X114979870Y-71923579D01*
X114979868Y-71923587D01*
X114939500Y-72126530D01*
X114939500Y-72333469D01*
X114979868Y-72536412D01*
X114979870Y-72536420D01*
X115059058Y-72727596D01*
X115174024Y-72899657D01*
X115237186Y-72962819D01*
X115270671Y-73024142D01*
X115265687Y-73093834D01*
X115223815Y-73149767D01*
X115158351Y-73174184D01*
X115149505Y-73174500D01*
X114428623Y-73174500D01*
X114361584Y-73154815D01*
X114315829Y-73102011D01*
X114305885Y-73032853D01*
X114328305Y-72977615D01*
X114433565Y-72832734D01*
X114515747Y-72671447D01*
X114515749Y-72671441D01*
X114571681Y-72499295D01*
X114571684Y-72499285D01*
X114574739Y-72480000D01*
X113883012Y-72480000D01*
X113915925Y-72422993D01*
X113950000Y-72295826D01*
X113950000Y-72164174D01*
X113915925Y-72037007D01*
X113883012Y-71980000D01*
X114574739Y-71980000D01*
X114571684Y-71960714D01*
X114571681Y-71960704D01*
X114515749Y-71788558D01*
X114515747Y-71788552D01*
X114433568Y-71627269D01*
X114396599Y-71576385D01*
X114373120Y-71510578D01*
X114388946Y-71442524D01*
X114439052Y-71393830D01*
X114496918Y-71379500D01*
X115062872Y-71379500D01*
X115129911Y-71399185D01*
G37*
G04 #@! TD.AperFunction*
M02*
