G04 #@! TF.GenerationSoftware,KiCad,Pcbnew,9.0.6-9.0.6~ubuntu24.04.1*
G04 #@! TF.CreationDate,2026-03-07T17:58:34-05:00*
G04 #@! TF.ProjectId,gripper_hat,67726970-7065-4725-9f68-61742e6b6963,rev?*
G04 #@! TF.SameCoordinates,Original*
G04 #@! TF.FileFunction,Copper,L4,Bot*
G04 #@! TF.FilePolarity,Positive*
%FSLAX46Y46*%
G04 Gerber Fmt 4.6, Leading zero omitted, Abs format (unit mm)*
G04 Created by KiCad (PCBNEW 9.0.6-9.0.6~ubuntu24.04.1) date 2026-03-07 17:58:34*
%MOMM*%
%LPD*%
G01*
G04 APERTURE LIST*
G04 Aperture macros list*
%AMRoundRect*
0 Rectangle with rounded corners*
0 $1 Rounding radius*
0 $2 $3 $4 $5 $6 $7 $8 $9 X,Y pos of 4 corners*
0 Add a 4 corners polygon primitive as box body*
4,1,4,$2,$3,$4,$5,$6,$7,$8,$9,$2,$3,0*
0 Add four circle primitives for the rounded corners*
1,1,$1+$1,$2,$3*
1,1,$1+$1,$4,$5*
1,1,$1+$1,$6,$7*
1,1,$1+$1,$8,$9*
0 Add four rect primitives between the rounded corners*
20,1,$1+$1,$2,$3,$4,$5,0*
20,1,$1+$1,$4,$5,$6,$7,0*
20,1,$1+$1,$6,$7,$8,$9,0*
20,1,$1+$1,$8,$9,$2,$3,0*%
G04 Aperture macros list end*
G04 #@! TA.AperFunction,ComponentPad*
%ADD10R,1.280000X1.280000*%
G04 #@! TD*
G04 #@! TA.AperFunction,ComponentPad*
%ADD11C,1.280000*%
G04 #@! TD*
G04 #@! TA.AperFunction,ComponentPad*
%ADD12RoundRect,0.250000X0.350000X0.625000X-0.350000X0.625000X-0.350000X-0.625000X0.350000X-0.625000X0*%
G04 #@! TD*
G04 #@! TA.AperFunction,ComponentPad*
%ADD13O,1.200000X1.750000*%
G04 #@! TD*
G04 #@! TA.AperFunction,ComponentPad*
%ADD14R,1.700000X1.700000*%
G04 #@! TD*
G04 #@! TA.AperFunction,ComponentPad*
%ADD15O,1.700000X1.700000*%
G04 #@! TD*
G04 #@! TA.AperFunction,ViaPad*
%ADD16C,0.900000*%
G04 #@! TD*
G04 #@! TA.AperFunction,Conductor*
%ADD17C,0.250000*%
G04 #@! TD*
G04 APERTURE END LIST*
D10*
X124287500Y-97150000D03*
D11*
X126787500Y-97150000D03*
X129287500Y-97150000D03*
D12*
X127800000Y-74700000D03*
D13*
X125800000Y-74700000D03*
D14*
X108370000Y-74770000D03*
D15*
X108370000Y-72230000D03*
X110910000Y-74770000D03*
X110910000Y-72230000D03*
X113450000Y-74770000D03*
X113450000Y-72230000D03*
X115990000Y-74770000D03*
X115990000Y-72230000D03*
X118530000Y-74770000D03*
X118530000Y-72230000D03*
X121070000Y-74770000D03*
X121070000Y-72230000D03*
D16*
X116400000Y-86600000D03*
X119400000Y-95800000D03*
X125501992Y-85798008D03*
X152400000Y-88100000D03*
X143200000Y-86300000D03*
X125400000Y-84600000D03*
X117700000Y-89100000D03*
X111600000Y-85500000D03*
X119100000Y-79900000D03*
X106675000Y-87625000D03*
X142100000Y-95300000D03*
X141212500Y-94512500D03*
X150700000Y-93700000D03*
X150700000Y-92600000D03*
X150700000Y-91500000D03*
X149800000Y-92200000D03*
X147725000Y-92400000D03*
X147725000Y-91400000D03*
X147000000Y-92900000D03*
X147000000Y-91900000D03*
X147000000Y-90900000D03*
X140700000Y-76900000D03*
X150100000Y-80100000D03*
X157400000Y-88400000D03*
X157500000Y-85400000D03*
X163800000Y-88600000D03*
X163700000Y-85300000D03*
X161600000Y-85300000D03*
X161600000Y-88600000D03*
X154400000Y-86900000D03*
X149700000Y-84500000D03*
X147214620Y-86511228D03*
X146400000Y-87000000D03*
X146300000Y-87875000D03*
X146400000Y-84600000D03*
X143900000Y-82200000D03*
X144700000Y-81500000D03*
X144300000Y-80525000D03*
X133700000Y-81600000D03*
X133700000Y-82900000D03*
X132400000Y-81500000D03*
X146900000Y-76300000D03*
X145862500Y-76300000D03*
X146337500Y-77200000D03*
X145312500Y-77200000D03*
X112200000Y-91500000D03*
X116100000Y-81300000D03*
X108000000Y-85250000D03*
X110400000Y-89900000D03*
X107500000Y-82750000D03*
X110400000Y-91200000D03*
X120300000Y-89500000D03*
X123500000Y-80900000D03*
X115800000Y-83100000D03*
X122600000Y-90300000D03*
X125000000Y-90800000D03*
X119100000Y-92300000D03*
D17*
X116400000Y-86600000D02*
X119100000Y-89300000D01*
X119100000Y-89300000D02*
X119100000Y-92300000D01*
X115800000Y-83100000D02*
X116400000Y-83700000D01*
X116400000Y-83700000D02*
X116400000Y-86600000D01*
X124398715Y-92498715D02*
X125776000Y-91121430D01*
X124398715Y-92498715D02*
X124636215Y-92498715D01*
X124636215Y-92498715D02*
X129287500Y-97150000D01*
X121097430Y-95800000D02*
X124398715Y-92498715D01*
X119400000Y-95800000D02*
X121097430Y-95800000D01*
X125776000Y-91121430D02*
X125776000Y-86072016D01*
X125776000Y-86072016D02*
X125501992Y-85798008D01*
X152400000Y-88100000D02*
X150035228Y-85735228D01*
X150035228Y-85735228D02*
X143764772Y-85735228D01*
X143764772Y-85735228D02*
X143200000Y-86300000D01*
X143549000Y-79749000D02*
X140700000Y-76900000D01*
X150100000Y-80100000D02*
X149749000Y-79749000D01*
X149749000Y-79749000D02*
X143549000Y-79749000D01*
X110400000Y-89900000D02*
X108000000Y-87500000D01*
X108000000Y-87500000D02*
X108000000Y-85250000D01*
X113450000Y-74770000D02*
X107500000Y-80720000D01*
X111900000Y-89700000D02*
X111900000Y-87150000D01*
X107500000Y-80720000D02*
X107500000Y-82750000D01*
X110400000Y-91200000D02*
X111900000Y-89700000D01*
X111900000Y-87150000D02*
X107500000Y-82750000D01*
X119017116Y-73594000D02*
X119706000Y-74282884D01*
X120376000Y-86424000D02*
X120300000Y-86500000D01*
X115990000Y-72230000D02*
X117354000Y-73594000D01*
X119706000Y-75308570D02*
X120376000Y-75978570D01*
X119706000Y-74282884D02*
X119706000Y-75308570D01*
X117354000Y-73594000D02*
X119017116Y-73594000D01*
X120376000Y-75978570D02*
X120376000Y-86424000D01*
X120300000Y-86500000D02*
X120300000Y-89500000D01*
X122094000Y-73594000D02*
X123500000Y-75000000D01*
X123500000Y-80900000D02*
X123371884Y-80900000D01*
X119894000Y-73594000D02*
X122094000Y-73594000D01*
X123500000Y-75000000D02*
X123500000Y-80900000D01*
X118530000Y-72230000D02*
X119894000Y-73594000D01*
X123100000Y-90800000D02*
X122600000Y-90300000D01*
X125000000Y-90800000D02*
X123100000Y-90800000D01*
M02*
