G04 #@! TF.GenerationSoftware,KiCad,Pcbnew,9.0.6-9.0.6~ubuntu24.04.1*
G04 #@! TF.CreationDate,2026-03-07T17:58:34-05:00*
G04 #@! TF.ProjectId,gripper_hat,67726970-7065-4725-9f68-61742e6b6963,rev?*
G04 #@! TF.SameCoordinates,Original*
G04 #@! TF.FileFunction,Copper,L2,Inr*
G04 #@! TF.FilePolarity,Positive*
%FSLAX46Y46*%
G04 Gerber Fmt 4.6, Leading zero omitted, Abs format (unit mm)*
G04 Created by KiCad (PCBNEW 9.0.6-9.0.6~ubuntu24.04.1) date 2026-03-07 17:58:34*
%MOMM*%
%LPD*%
G01*
G04 APERTURE LIST*
G04 Aperture macros list*
%AMRoundRect*
0 Rectangle with rounded corners*
0 $1 Rounding radius*
0 $2 $3 $4 $5 $6 $7 $8 $9 X,Y pos of 4 corners*
0 Add a 4 corners polygon primitive as box body*
4,1,4,$2,$3,$4,$5,$6,$7,$8,$9,$2,$3,0*
0 Add four circle primitives for the rounded corners*
1,1,$1+$1,$2,$3*
1,1,$1+$1,$4,$5*
1,1,$1+$1,$6,$7*
1,1,$1+$1,$8,$9*
0 Add four rect primitives between the rounded corners*
20,1,$1+$1,$2,$3,$4,$5,0*
20,1,$1+$1,$4,$5,$6,$7,0*
20,1,$1+$1,$6,$7,$8,$9,0*
20,1,$1+$1,$8,$9,$2,$3,0*%
G04 Aperture macros list end*
G04 #@! TA.AperFunction,ComponentPad*
%ADD10R,1.280000X1.280000*%
G04 #@! TD*
G04 #@! TA.AperFunction,ComponentPad*
%ADD11C,1.280000*%
G04 #@! TD*
G04 #@! TA.AperFunction,ComponentPad*
%ADD12RoundRect,0.250000X0.350000X0.625000X-0.350000X0.625000X-0.350000X-0.625000X0.350000X-0.625000X0*%
G04 #@! TD*
G04 #@! TA.AperFunction,ComponentPad*
%ADD13O,1.200000X1.750000*%
G04 #@! TD*
G04 #@! TA.AperFunction,ComponentPad*
%ADD14R,1.700000X1.700000*%
G04 #@! TD*
G04 #@! TA.AperFunction,ComponentPad*
%ADD15O,1.700000X1.700000*%
G04 #@! TD*
G04 #@! TA.AperFunction,ViaPad*
%ADD16C,0.900000*%
G04 #@! TD*
G04 APERTURE END LIST*
D10*
X124287500Y-97150000D03*
D11*
X126787500Y-97150000D03*
X129287500Y-97150000D03*
D12*
X127800000Y-74700000D03*
D13*
X125800000Y-74700000D03*
D14*
X108370000Y-74770000D03*
D15*
X108370000Y-72230000D03*
X110910000Y-74770000D03*
X110910000Y-72230000D03*
X113450000Y-74770000D03*
X113450000Y-72230000D03*
X115990000Y-74770000D03*
X115990000Y-72230000D03*
X118530000Y-74770000D03*
X118530000Y-72230000D03*
X121070000Y-74770000D03*
X121070000Y-72230000D03*
D16*
X116400000Y-86600000D03*
X119400000Y-95800000D03*
X125501992Y-85798008D03*
X152400000Y-88100000D03*
X143200000Y-86300000D03*
X125400000Y-84600000D03*
X117700000Y-89100000D03*
X111600000Y-85500000D03*
X119100000Y-79900000D03*
X106675000Y-87625000D03*
X142100000Y-95300000D03*
X141212500Y-94512500D03*
X150700000Y-93700000D03*
X150700000Y-92600000D03*
X150700000Y-91500000D03*
X149800000Y-92200000D03*
X147725000Y-92400000D03*
X147725000Y-91400000D03*
X147000000Y-92900000D03*
X147000000Y-91900000D03*
X147000000Y-90900000D03*
X140700000Y-76900000D03*
X150100000Y-80100000D03*
X157400000Y-88400000D03*
X157500000Y-85400000D03*
X163800000Y-88600000D03*
X163700000Y-85300000D03*
X161600000Y-85300000D03*
X161600000Y-88600000D03*
X154400000Y-86900000D03*
X149700000Y-84500000D03*
X147214620Y-86511228D03*
X146400000Y-87000000D03*
X146300000Y-87875000D03*
X146400000Y-84600000D03*
X143900000Y-82200000D03*
X144700000Y-81500000D03*
X144300000Y-80525000D03*
X133700000Y-81600000D03*
X133700000Y-82900000D03*
X132400000Y-81500000D03*
X146900000Y-76300000D03*
X145862500Y-76300000D03*
X146337500Y-77200000D03*
X145312500Y-77200000D03*
X112200000Y-91500000D03*
X116100000Y-81300000D03*
X108000000Y-85250000D03*
X110400000Y-89900000D03*
X107500000Y-82750000D03*
X110400000Y-91200000D03*
X120300000Y-89500000D03*
X123500000Y-80900000D03*
X115800000Y-83100000D03*
X122600000Y-90300000D03*
X125000000Y-90800000D03*
X119100000Y-92300000D03*
G04 #@! TA.AperFunction,Conductor*
G36*
X163015677Y-70519685D02*
G01*
X163036319Y-70536319D01*
X164463681Y-71963681D01*
X164497166Y-72025004D01*
X164500000Y-72051362D01*
X164500000Y-97948638D01*
X164480315Y-98015677D01*
X164463681Y-98036319D01*
X163036319Y-99463681D01*
X162974996Y-99497166D01*
X162948638Y-99500000D01*
X102051362Y-99500000D01*
X101984323Y-99480315D01*
X101963681Y-99463681D01*
X100536319Y-98036319D01*
X100502834Y-97974996D01*
X100500000Y-97948638D01*
X100500000Y-96393713D01*
X102149500Y-96393713D01*
X102149500Y-96606287D01*
X102182754Y-96816243D01*
X102237897Y-96985956D01*
X102248444Y-97018414D01*
X102344951Y-97207820D01*
X102469890Y-97379786D01*
X102620213Y-97530109D01*
X102792179Y-97655048D01*
X102792181Y-97655049D01*
X102792184Y-97655051D01*
X102981588Y-97751557D01*
X103183757Y-97817246D01*
X103393713Y-97850500D01*
X103393714Y-97850500D01*
X103606286Y-97850500D01*
X103606287Y-97850500D01*
X103816243Y-97817246D01*
X104018412Y-97751557D01*
X104207816Y-97655051D01*
X104317998Y-97575000D01*
X104379786Y-97530109D01*
X104379788Y-97530106D01*
X104379792Y-97530104D01*
X104530104Y-97379792D01*
X104530106Y-97379788D01*
X104530109Y-97379786D01*
X104605693Y-97275753D01*
X104636912Y-97232782D01*
X104655051Y-97207816D01*
X104751557Y-97018412D01*
X104817246Y-96816243D01*
X104850500Y-96606287D01*
X104850500Y-96465205D01*
X123347500Y-96465205D01*
X123347500Y-96900000D01*
X123941090Y-96900000D01*
X123891463Y-96985956D01*
X123862500Y-97094048D01*
X123862500Y-97205952D01*
X123891463Y-97314044D01*
X123941090Y-97400000D01*
X123347501Y-97400000D01*
X123347501Y-97834785D01*
X123347502Y-97834808D01*
X123350408Y-97859869D01*
X123350409Y-97859873D01*
X123395711Y-97962474D01*
X123395714Y-97962479D01*
X123475020Y-98041785D01*
X123475025Y-98041788D01*
X123577623Y-98087089D01*
X123602706Y-98089999D01*
X124037499Y-98089999D01*
X124037500Y-98089998D01*
X124037500Y-97496409D01*
X124123456Y-97546037D01*
X124231548Y-97575000D01*
X124343452Y-97575000D01*
X124451544Y-97546037D01*
X124537500Y-97496409D01*
X124537500Y-98089999D01*
X124972286Y-98089999D01*
X124972308Y-98089997D01*
X124997369Y-98087091D01*
X124997373Y-98087090D01*
X125099974Y-98041788D01*
X125099979Y-98041785D01*
X125179285Y-97962479D01*
X125179288Y-97962474D01*
X125224589Y-97859877D01*
X125224589Y-97859875D01*
X125227499Y-97834794D01*
X125227500Y-97834791D01*
X125227500Y-97400000D01*
X124633910Y-97400000D01*
X124683537Y-97314044D01*
X124712500Y-97205952D01*
X124712500Y-97094048D01*
X124705310Y-97067213D01*
X125947000Y-97067213D01*
X125947000Y-97232786D01*
X125979297Y-97395157D01*
X125979300Y-97395166D01*
X126042654Y-97548119D01*
X126042661Y-97548132D01*
X126134640Y-97685787D01*
X126134643Y-97685791D01*
X126251708Y-97802856D01*
X126251712Y-97802859D01*
X126389367Y-97894838D01*
X126389380Y-97894845D01*
X126504094Y-97942360D01*
X126542335Y-97958200D01*
X126542337Y-97958200D01*
X126542342Y-97958202D01*
X126704713Y-97990499D01*
X126704716Y-97990500D01*
X126704718Y-97990500D01*
X126870284Y-97990500D01*
X126870285Y-97990499D01*
X126952439Y-97974158D01*
X127032657Y-97958202D01*
X127032660Y-97958200D01*
X127032665Y-97958200D01*
X127185626Y-97894842D01*
X127323288Y-97802859D01*
X127440359Y-97685788D01*
X127532342Y-97548126D01*
X127595700Y-97395165D01*
X127628000Y-97232782D01*
X127628000Y-97067218D01*
X127628000Y-97067215D01*
X127627999Y-97067213D01*
X128447000Y-97067213D01*
X128447000Y-97232786D01*
X128479297Y-97395157D01*
X128479300Y-97395166D01*
X128542654Y-97548119D01*
X128542661Y-97548132D01*
X128634640Y-97685787D01*
X128634643Y-97685791D01*
X128751708Y-97802856D01*
X128751712Y-97802859D01*
X128889367Y-97894838D01*
X128889380Y-97894845D01*
X129004094Y-97942360D01*
X129042335Y-97958200D01*
X129042337Y-97958200D01*
X129042342Y-97958202D01*
X129204713Y-97990499D01*
X129204716Y-97990500D01*
X129204718Y-97990500D01*
X129370284Y-97990500D01*
X129370285Y-97990499D01*
X129452439Y-97974158D01*
X129532657Y-97958202D01*
X129532660Y-97958200D01*
X129532665Y-97958200D01*
X129685626Y-97894842D01*
X129823288Y-97802859D01*
X129940359Y-97685788D01*
X130032342Y-97548126D01*
X130095700Y-97395165D01*
X130128000Y-97232782D01*
X130128000Y-97067218D01*
X130128000Y-97067215D01*
X130127999Y-97067213D01*
X130095702Y-96904842D01*
X130095699Y-96904833D01*
X130032345Y-96751880D01*
X130032338Y-96751867D01*
X129940359Y-96614212D01*
X129940356Y-96614208D01*
X129823290Y-96497142D01*
X129815510Y-96491944D01*
X129815509Y-96491943D01*
X129685632Y-96405161D01*
X129685619Y-96405154D01*
X129657997Y-96393713D01*
X160149500Y-96393713D01*
X160149500Y-96606287D01*
X160182754Y-96816243D01*
X160237897Y-96985956D01*
X160248444Y-97018414D01*
X160344951Y-97207820D01*
X160469890Y-97379786D01*
X160620213Y-97530109D01*
X160792179Y-97655048D01*
X160792181Y-97655049D01*
X160792184Y-97655051D01*
X160981588Y-97751557D01*
X161183757Y-97817246D01*
X161393713Y-97850500D01*
X161393714Y-97850500D01*
X161606286Y-97850500D01*
X161606287Y-97850500D01*
X161816243Y-97817246D01*
X162018412Y-97751557D01*
X162207816Y-97655051D01*
X162317998Y-97575000D01*
X162379786Y-97530109D01*
X162379788Y-97530106D01*
X162379792Y-97530104D01*
X162530104Y-97379792D01*
X162530106Y-97379788D01*
X162530109Y-97379786D01*
X162655048Y-97207820D01*
X162655049Y-97207819D01*
X162655051Y-97207816D01*
X162751557Y-97018412D01*
X162817246Y-96816243D01*
X162850500Y-96606287D01*
X162850500Y-96393713D01*
X162817246Y-96183757D01*
X162751557Y-95981588D01*
X162655051Y-95792184D01*
X162655049Y-95792181D01*
X162655048Y-95792179D01*
X162530109Y-95620213D01*
X162379786Y-95469890D01*
X162207820Y-95344951D01*
X162018414Y-95248444D01*
X162018413Y-95248443D01*
X162018412Y-95248443D01*
X161816243Y-95182754D01*
X161816241Y-95182753D01*
X161816240Y-95182753D01*
X161654957Y-95157208D01*
X161606287Y-95149500D01*
X161393713Y-95149500D01*
X161345042Y-95157208D01*
X161183760Y-95182753D01*
X160981585Y-95248444D01*
X160792179Y-95344951D01*
X160620213Y-95469890D01*
X160469890Y-95620213D01*
X160344951Y-95792179D01*
X160248444Y-95981585D01*
X160182753Y-96183760D01*
X160163507Y-96305276D01*
X160149500Y-96393713D01*
X129657997Y-96393713D01*
X129532666Y-96341800D01*
X129532657Y-96341797D01*
X129370285Y-96309500D01*
X129370282Y-96309500D01*
X129204718Y-96309500D01*
X129204715Y-96309500D01*
X129042342Y-96341797D01*
X129042333Y-96341800D01*
X128889380Y-96405154D01*
X128889367Y-96405161D01*
X128751712Y-96497140D01*
X128751708Y-96497143D01*
X128634643Y-96614208D01*
X128634640Y-96614212D01*
X128542661Y-96751867D01*
X128542654Y-96751880D01*
X128479300Y-96904833D01*
X128479297Y-96904842D01*
X128447000Y-97067213D01*
X127627999Y-97067213D01*
X127595702Y-96904842D01*
X127595699Y-96904833D01*
X127532345Y-96751880D01*
X127532338Y-96751867D01*
X127440359Y-96614212D01*
X127440356Y-96614208D01*
X127323291Y-96497143D01*
X127323287Y-96497140D01*
X127185632Y-96405161D01*
X127185619Y-96405154D01*
X127032666Y-96341800D01*
X127032657Y-96341797D01*
X126870285Y-96309500D01*
X126870282Y-96309500D01*
X126704718Y-96309500D01*
X126704715Y-96309500D01*
X126542342Y-96341797D01*
X126542333Y-96341800D01*
X126389380Y-96405154D01*
X126389367Y-96405161D01*
X126251712Y-96497140D01*
X126251708Y-96497143D01*
X126134643Y-96614208D01*
X126134640Y-96614212D01*
X126042661Y-96751867D01*
X126042654Y-96751880D01*
X125979300Y-96904833D01*
X125979297Y-96904842D01*
X125947000Y-97067213D01*
X124705310Y-97067213D01*
X124683537Y-96985956D01*
X124633910Y-96900000D01*
X125227499Y-96900000D01*
X125227499Y-96465214D01*
X125227497Y-96465191D01*
X125224591Y-96440130D01*
X125224590Y-96440126D01*
X125179288Y-96337525D01*
X125179285Y-96337520D01*
X125099979Y-96258214D01*
X125099974Y-96258211D01*
X124997376Y-96212910D01*
X124972294Y-96210000D01*
X124537500Y-96210000D01*
X124537500Y-96803590D01*
X124451544Y-96753963D01*
X124343452Y-96725000D01*
X124231548Y-96725000D01*
X124123456Y-96753963D01*
X124037500Y-96803590D01*
X124037500Y-96210000D01*
X123602714Y-96210000D01*
X123602691Y-96210002D01*
X123577630Y-96212908D01*
X123577626Y-96212909D01*
X123475025Y-96258211D01*
X123475020Y-96258214D01*
X123395714Y-96337520D01*
X123395711Y-96337525D01*
X123350410Y-96440122D01*
X123350410Y-96440124D01*
X123347500Y-96465205D01*
X104850500Y-96465205D01*
X104850500Y-96393713D01*
X104817246Y-96183757D01*
X104751557Y-95981588D01*
X104691679Y-95864071D01*
X118749499Y-95864071D01*
X118774497Y-95989738D01*
X118774499Y-95989744D01*
X118823533Y-96108124D01*
X118823538Y-96108133D01*
X118894723Y-96214668D01*
X118894726Y-96214672D01*
X118985327Y-96305273D01*
X118985331Y-96305276D01*
X119091866Y-96376461D01*
X119091872Y-96376464D01*
X119091873Y-96376465D01*
X119210256Y-96425501D01*
X119210260Y-96425501D01*
X119210261Y-96425502D01*
X119335928Y-96450500D01*
X119335931Y-96450500D01*
X119464071Y-96450500D01*
X119548615Y-96433682D01*
X119589744Y-96425501D01*
X119708127Y-96376465D01*
X119708133Y-96376461D01*
X119734980Y-96358523D01*
X119771963Y-96333810D01*
X119814669Y-96305276D01*
X119905276Y-96214669D01*
X119976465Y-96108127D01*
X120025501Y-95989744D01*
X120050500Y-95864069D01*
X120050500Y-95735931D01*
X120050500Y-95735928D01*
X120025502Y-95610261D01*
X120025501Y-95610260D01*
X120025501Y-95610256D01*
X119976465Y-95491873D01*
X119976464Y-95491872D01*
X119976461Y-95491866D01*
X119905276Y-95385331D01*
X119905273Y-95385327D01*
X119814672Y-95294726D01*
X119814668Y-95294723D01*
X119708133Y-95223538D01*
X119708124Y-95223533D01*
X119589744Y-95174499D01*
X119589738Y-95174497D01*
X119464071Y-95149500D01*
X119464069Y-95149500D01*
X119335931Y-95149500D01*
X119335929Y-95149500D01*
X119210261Y-95174497D01*
X119210255Y-95174499D01*
X119091875Y-95223533D01*
X119091866Y-95223538D01*
X118985331Y-95294723D01*
X118985327Y-95294726D01*
X118894726Y-95385327D01*
X118894723Y-95385331D01*
X118823538Y-95491866D01*
X118823533Y-95491875D01*
X118774499Y-95610255D01*
X118774497Y-95610261D01*
X118749500Y-95735928D01*
X118749500Y-95735931D01*
X118749500Y-95864069D01*
X118749500Y-95864071D01*
X118749499Y-95864071D01*
X104691679Y-95864071D01*
X104655051Y-95792184D01*
X104655049Y-95792181D01*
X104655048Y-95792179D01*
X104530109Y-95620213D01*
X104379786Y-95469890D01*
X104207820Y-95344951D01*
X104018414Y-95248444D01*
X104018413Y-95248443D01*
X104018412Y-95248443D01*
X103816243Y-95182754D01*
X103816241Y-95182753D01*
X103816240Y-95182753D01*
X103654957Y-95157208D01*
X103606287Y-95149500D01*
X103393713Y-95149500D01*
X103345042Y-95157208D01*
X103183760Y-95182753D01*
X102981585Y-95248444D01*
X102792179Y-95344951D01*
X102620213Y-95469890D01*
X102469890Y-95620213D01*
X102344951Y-95792179D01*
X102248444Y-95981585D01*
X102182753Y-96183760D01*
X102163507Y-96305276D01*
X102149500Y-96393713D01*
X100500000Y-96393713D01*
X100500000Y-92364071D01*
X118449499Y-92364071D01*
X118474497Y-92489738D01*
X118474499Y-92489744D01*
X118523533Y-92608124D01*
X118523538Y-92608133D01*
X118594723Y-92714668D01*
X118594726Y-92714672D01*
X118685327Y-92805273D01*
X118685331Y-92805276D01*
X118791866Y-92876461D01*
X118791872Y-92876464D01*
X118791873Y-92876465D01*
X118910256Y-92925501D01*
X118910260Y-92925501D01*
X118910261Y-92925502D01*
X119035928Y-92950500D01*
X119035931Y-92950500D01*
X119164071Y-92950500D01*
X119248615Y-92933682D01*
X119289744Y-92925501D01*
X119408127Y-92876465D01*
X119514669Y-92805276D01*
X119605276Y-92714669D01*
X119676465Y-92608127D01*
X119725501Y-92489744D01*
X119750500Y-92364069D01*
X119750500Y-92235931D01*
X119750500Y-92235928D01*
X119725502Y-92110261D01*
X119725501Y-92110260D01*
X119725501Y-92110256D01*
X119676465Y-91991873D01*
X119676464Y-91991872D01*
X119676461Y-91991866D01*
X119605276Y-91885331D01*
X119605273Y-91885327D01*
X119514672Y-91794726D01*
X119514668Y-91794723D01*
X119408133Y-91723538D01*
X119408124Y-91723533D01*
X119289744Y-91674499D01*
X119289738Y-91674497D01*
X119164071Y-91649500D01*
X119164069Y-91649500D01*
X119035931Y-91649500D01*
X119035929Y-91649500D01*
X118910261Y-91674497D01*
X118910255Y-91674499D01*
X118791875Y-91723533D01*
X118791866Y-91723538D01*
X118685331Y-91794723D01*
X118685327Y-91794726D01*
X118594726Y-91885327D01*
X118594723Y-91885331D01*
X118523538Y-91991866D01*
X118523533Y-91991875D01*
X118474499Y-92110255D01*
X118474497Y-92110261D01*
X118449500Y-92235928D01*
X118449500Y-92235931D01*
X118449500Y-92364069D01*
X118449500Y-92364071D01*
X118449499Y-92364071D01*
X100500000Y-92364071D01*
X100500000Y-89964071D01*
X109749499Y-89964071D01*
X109774497Y-90089738D01*
X109774499Y-90089744D01*
X109823533Y-90208124D01*
X109823538Y-90208133D01*
X109894723Y-90314668D01*
X109894726Y-90314672D01*
X109985327Y-90405273D01*
X109985331Y-90405276D01*
X110047622Y-90446898D01*
X110092427Y-90500510D01*
X110101134Y-90569835D01*
X110070979Y-90632863D01*
X110047622Y-90653102D01*
X109985331Y-90694723D01*
X109985327Y-90694726D01*
X109894726Y-90785327D01*
X109894723Y-90785331D01*
X109823538Y-90891866D01*
X109823533Y-90891875D01*
X109774499Y-91010255D01*
X109774497Y-91010261D01*
X109749500Y-91135928D01*
X109749500Y-91135931D01*
X109749500Y-91264069D01*
X109749500Y-91264071D01*
X109749499Y-91264071D01*
X109774497Y-91389738D01*
X109774499Y-91389744D01*
X109823533Y-91508124D01*
X109823538Y-91508133D01*
X109894723Y-91614668D01*
X109894726Y-91614672D01*
X109985327Y-91705273D01*
X109985331Y-91705276D01*
X110091866Y-91776461D01*
X110091872Y-91776464D01*
X110091873Y-91776465D01*
X110210256Y-91825501D01*
X110210260Y-91825501D01*
X110210261Y-91825502D01*
X110335928Y-91850500D01*
X110335931Y-91850500D01*
X110464071Y-91850500D01*
X110548615Y-91833682D01*
X110589744Y-91825501D01*
X110708127Y-91776465D01*
X110814669Y-91705276D01*
X110905276Y-91614669D01*
X110976465Y-91508127D01*
X111025501Y-91389744D01*
X111050500Y-91264069D01*
X111050500Y-91135931D01*
X111050500Y-91135928D01*
X111025502Y-91010261D01*
X111025501Y-91010260D01*
X111025501Y-91010256D01*
X110976465Y-90891873D01*
X110976464Y-90891872D01*
X110976461Y-90891866D01*
X110905276Y-90785331D01*
X110905273Y-90785327D01*
X110814671Y-90694725D01*
X110782085Y-90672952D01*
X110752377Y-90653101D01*
X110707572Y-90599491D01*
X110698865Y-90530166D01*
X110729019Y-90467138D01*
X110752377Y-90446898D01*
X110814669Y-90405276D01*
X110855874Y-90364071D01*
X121949499Y-90364071D01*
X121974497Y-90489738D01*
X121974499Y-90489744D01*
X122023533Y-90608124D01*
X122023538Y-90608133D01*
X122094723Y-90714668D01*
X122094726Y-90714672D01*
X122185327Y-90805273D01*
X122185331Y-90805276D01*
X122291866Y-90876461D01*
X122291872Y-90876464D01*
X122291873Y-90876465D01*
X122410256Y-90925501D01*
X122410260Y-90925501D01*
X122410261Y-90925502D01*
X122535928Y-90950500D01*
X122535931Y-90950500D01*
X122664071Y-90950500D01*
X122748615Y-90933682D01*
X122789744Y-90925501D01*
X122908127Y-90876465D01*
X122926676Y-90864071D01*
X124349499Y-90864071D01*
X124374497Y-90989738D01*
X124374499Y-90989744D01*
X124423533Y-91108124D01*
X124423538Y-91108133D01*
X124494723Y-91214668D01*
X124494726Y-91214672D01*
X124585327Y-91305273D01*
X124585331Y-91305276D01*
X124691866Y-91376461D01*
X124691872Y-91376464D01*
X124691873Y-91376465D01*
X124810256Y-91425501D01*
X124810260Y-91425501D01*
X124810261Y-91425502D01*
X124935928Y-91450500D01*
X124935931Y-91450500D01*
X125064071Y-91450500D01*
X125148615Y-91433682D01*
X125189744Y-91425501D01*
X125308127Y-91376465D01*
X125414669Y-91305276D01*
X125505276Y-91214669D01*
X125576465Y-91108127D01*
X125625501Y-90989744D01*
X125630608Y-90964071D01*
X146349499Y-90964071D01*
X146374497Y-91089738D01*
X146374499Y-91089744D01*
X146423533Y-91208124D01*
X146423538Y-91208133D01*
X146494723Y-91314668D01*
X146498589Y-91319379D01*
X146496958Y-91320716D01*
X146525858Y-91373642D01*
X146520874Y-91443334D01*
X146497489Y-91479719D01*
X146498589Y-91480621D01*
X146494723Y-91485331D01*
X146423538Y-91591866D01*
X146423533Y-91591875D01*
X146374499Y-91710255D01*
X146374497Y-91710261D01*
X146349500Y-91835928D01*
X146349500Y-91835931D01*
X146349500Y-91964069D01*
X146349500Y-91964071D01*
X146349499Y-91964071D01*
X146374497Y-92089738D01*
X146374499Y-92089744D01*
X146423533Y-92208124D01*
X146423538Y-92208133D01*
X146494723Y-92314668D01*
X146498589Y-92319379D01*
X146496958Y-92320716D01*
X146525858Y-92373642D01*
X146520874Y-92443334D01*
X146497489Y-92479719D01*
X146498589Y-92480621D01*
X146494723Y-92485331D01*
X146423538Y-92591866D01*
X146423533Y-92591875D01*
X146374499Y-92710255D01*
X146374497Y-92710261D01*
X146349500Y-92835928D01*
X146349500Y-92835931D01*
X146349500Y-92964069D01*
X146349500Y-92964071D01*
X146349499Y-92964071D01*
X146374497Y-93089738D01*
X146374499Y-93089744D01*
X146423533Y-93208124D01*
X146423538Y-93208133D01*
X146494723Y-93314668D01*
X146494726Y-93314672D01*
X146585327Y-93405273D01*
X146585331Y-93405276D01*
X146691866Y-93476461D01*
X146691872Y-93476464D01*
X146691873Y-93476465D01*
X146810256Y-93525501D01*
X146810260Y-93525501D01*
X146810261Y-93525502D01*
X146935928Y-93550500D01*
X146935931Y-93550500D01*
X147064071Y-93550500D01*
X147148615Y-93533682D01*
X147189744Y-93525501D01*
X147308127Y-93476465D01*
X147414669Y-93405276D01*
X147505276Y-93314669D01*
X147576465Y-93208127D01*
X147610049Y-93127047D01*
X147653889Y-93072644D01*
X147720183Y-93050579D01*
X147724610Y-93050500D01*
X147789071Y-93050500D01*
X147873615Y-93033682D01*
X147914744Y-93025501D01*
X148033127Y-92976465D01*
X148139669Y-92905276D01*
X148230276Y-92814669D01*
X148301465Y-92708127D01*
X148350501Y-92589744D01*
X148375500Y-92464069D01*
X148375500Y-92335931D01*
X148375500Y-92335928D01*
X148350502Y-92210261D01*
X148350501Y-92210260D01*
X148350501Y-92210256D01*
X148301465Y-92091873D01*
X148301464Y-92091872D01*
X148301461Y-92091866D01*
X148230276Y-91985331D01*
X148226411Y-91980621D01*
X148228045Y-91979279D01*
X148199148Y-91926389D01*
X148204114Y-91856696D01*
X148227514Y-91820284D01*
X148226411Y-91819379D01*
X148230271Y-91814673D01*
X148230276Y-91814669D01*
X148301465Y-91708127D01*
X148350501Y-91589744D01*
X148375500Y-91464069D01*
X148375500Y-91335931D01*
X148375500Y-91335928D01*
X148350502Y-91210261D01*
X148350501Y-91210260D01*
X148350501Y-91210256D01*
X148301465Y-91091873D01*
X148301464Y-91091872D01*
X148301461Y-91091866D01*
X148230276Y-90985331D01*
X148230273Y-90985327D01*
X148139672Y-90894726D01*
X148139668Y-90894723D01*
X148033133Y-90823538D01*
X148033124Y-90823533D01*
X147914744Y-90774499D01*
X147914738Y-90774497D01*
X147789071Y-90749500D01*
X147789069Y-90749500D01*
X147724610Y-90749500D01*
X147657571Y-90729815D01*
X147611816Y-90677011D01*
X147610049Y-90672952D01*
X147576468Y-90591879D01*
X147576461Y-90591866D01*
X147505276Y-90485331D01*
X147505273Y-90485327D01*
X147414672Y-90394726D01*
X147414668Y-90394723D01*
X147308133Y-90323538D01*
X147308124Y-90323533D01*
X147189744Y-90274499D01*
X147189738Y-90274497D01*
X147064071Y-90249500D01*
X147064069Y-90249500D01*
X146935931Y-90249500D01*
X146935929Y-90249500D01*
X146810261Y-90274497D01*
X146810255Y-90274499D01*
X146691875Y-90323533D01*
X146691866Y-90323538D01*
X146585331Y-90394723D01*
X146585327Y-90394726D01*
X146494726Y-90485327D01*
X146494723Y-90485331D01*
X146423538Y-90591866D01*
X146423533Y-90591875D01*
X146374499Y-90710255D01*
X146374497Y-90710261D01*
X146349500Y-90835928D01*
X146349500Y-90835931D01*
X146349500Y-90964069D01*
X146349500Y-90964071D01*
X146349499Y-90964071D01*
X125630608Y-90964071D01*
X125644402Y-90894724D01*
X125650500Y-90864071D01*
X125650500Y-90735928D01*
X125625502Y-90610261D01*
X125625501Y-90610260D01*
X125625501Y-90610256D01*
X125576465Y-90491873D01*
X125576464Y-90491872D01*
X125576461Y-90491866D01*
X125505276Y-90385331D01*
X125505273Y-90385327D01*
X125414672Y-90294726D01*
X125414668Y-90294723D01*
X125308133Y-90223538D01*
X125308124Y-90223533D01*
X125189744Y-90174499D01*
X125189738Y-90174497D01*
X125064071Y-90149500D01*
X125064069Y-90149500D01*
X124935931Y-90149500D01*
X124935929Y-90149500D01*
X124810261Y-90174497D01*
X124810255Y-90174499D01*
X124691875Y-90223533D01*
X124691866Y-90223538D01*
X124585331Y-90294723D01*
X124585327Y-90294726D01*
X124494726Y-90385327D01*
X124494723Y-90385331D01*
X124423538Y-90491866D01*
X124423533Y-90491875D01*
X124374499Y-90610255D01*
X124374497Y-90610261D01*
X124349500Y-90735928D01*
X124349500Y-90735931D01*
X124349500Y-90864069D01*
X124349500Y-90864071D01*
X124349499Y-90864071D01*
X122926676Y-90864071D01*
X123014669Y-90805276D01*
X123105276Y-90714669D01*
X123121393Y-90690548D01*
X123141172Y-90660948D01*
X123141173Y-90660946D01*
X123176458Y-90608138D01*
X123176461Y-90608133D01*
X123176465Y-90608127D01*
X123225501Y-90489744D01*
X123244402Y-90394724D01*
X123250500Y-90364071D01*
X123250500Y-90235928D01*
X123225502Y-90110261D01*
X123225501Y-90110260D01*
X123225501Y-90110256D01*
X123182017Y-90005276D01*
X123176466Y-89991875D01*
X123176461Y-89991866D01*
X123105276Y-89885331D01*
X123105273Y-89885327D01*
X123014672Y-89794726D01*
X123014668Y-89794723D01*
X122908133Y-89723538D01*
X122908124Y-89723533D01*
X122789744Y-89674499D01*
X122789738Y-89674497D01*
X122664071Y-89649500D01*
X122664069Y-89649500D01*
X122535931Y-89649500D01*
X122535929Y-89649500D01*
X122410261Y-89674497D01*
X122410255Y-89674499D01*
X122291875Y-89723533D01*
X122291866Y-89723538D01*
X122185331Y-89794723D01*
X122185327Y-89794726D01*
X122094726Y-89885327D01*
X122094723Y-89885331D01*
X122023538Y-89991866D01*
X122023533Y-89991875D01*
X121974499Y-90110255D01*
X121974497Y-90110261D01*
X121949500Y-90235928D01*
X121949500Y-90235931D01*
X121949500Y-90364069D01*
X121949500Y-90364071D01*
X121949499Y-90364071D01*
X110855874Y-90364071D01*
X110905276Y-90314669D01*
X110976465Y-90208127D01*
X111025501Y-90089744D01*
X111044969Y-89991875D01*
X111050500Y-89964071D01*
X111050500Y-89835928D01*
X111025502Y-89710261D01*
X111025501Y-89710260D01*
X111025501Y-89710256D01*
X110976465Y-89591873D01*
X110976464Y-89591872D01*
X110976461Y-89591866D01*
X110957889Y-89564071D01*
X119649499Y-89564071D01*
X119674497Y-89689738D01*
X119674499Y-89689744D01*
X119723533Y-89808124D01*
X119723538Y-89808133D01*
X119794723Y-89914668D01*
X119794726Y-89914672D01*
X119885327Y-90005273D01*
X119885331Y-90005276D01*
X119991866Y-90076461D01*
X119991872Y-90076464D01*
X119991873Y-90076465D01*
X120110256Y-90125501D01*
X120110260Y-90125501D01*
X120110261Y-90125502D01*
X120235928Y-90150500D01*
X120235931Y-90150500D01*
X120364071Y-90150500D01*
X120448615Y-90133682D01*
X120489744Y-90125501D01*
X120608127Y-90076465D01*
X120714669Y-90005276D01*
X120805276Y-89914669D01*
X120876465Y-89808127D01*
X120925501Y-89689744D01*
X120944969Y-89591875D01*
X120950500Y-89564071D01*
X120950500Y-89435928D01*
X120925502Y-89310261D01*
X120925501Y-89310260D01*
X120925501Y-89310256D01*
X120876465Y-89191873D01*
X120876464Y-89191872D01*
X120876461Y-89191866D01*
X120805276Y-89085331D01*
X120805273Y-89085327D01*
X120714672Y-88994726D01*
X120714668Y-88994723D01*
X120608133Y-88923538D01*
X120608124Y-88923533D01*
X120489744Y-88874499D01*
X120489738Y-88874497D01*
X120364071Y-88849500D01*
X120364069Y-88849500D01*
X120235931Y-88849500D01*
X120235929Y-88849500D01*
X120110261Y-88874497D01*
X120110255Y-88874499D01*
X119991875Y-88923533D01*
X119991866Y-88923538D01*
X119885331Y-88994723D01*
X119885327Y-88994726D01*
X119794726Y-89085327D01*
X119794723Y-89085331D01*
X119723538Y-89191866D01*
X119723533Y-89191875D01*
X119674499Y-89310255D01*
X119674497Y-89310261D01*
X119649500Y-89435928D01*
X119649500Y-89435931D01*
X119649500Y-89564069D01*
X119649500Y-89564071D01*
X119649499Y-89564071D01*
X110957889Y-89564071D01*
X110914229Y-89498730D01*
X110914228Y-89498729D01*
X110905274Y-89485328D01*
X110814672Y-89394726D01*
X110814668Y-89394723D01*
X110708133Y-89323538D01*
X110708124Y-89323533D01*
X110589744Y-89274499D01*
X110589738Y-89274497D01*
X110464071Y-89249500D01*
X110464069Y-89249500D01*
X110335931Y-89249500D01*
X110335929Y-89249500D01*
X110210261Y-89274497D01*
X110210255Y-89274499D01*
X110091875Y-89323533D01*
X110091866Y-89323538D01*
X109985331Y-89394723D01*
X109985327Y-89394726D01*
X109894726Y-89485327D01*
X109894723Y-89485331D01*
X109823538Y-89591866D01*
X109823533Y-89591875D01*
X109774499Y-89710255D01*
X109774497Y-89710261D01*
X109749500Y-89835928D01*
X109749500Y-89835931D01*
X109749500Y-89964069D01*
X109749500Y-89964071D01*
X109749499Y-89964071D01*
X100500000Y-89964071D01*
X100500000Y-88164071D01*
X151749499Y-88164071D01*
X151774497Y-88289738D01*
X151774499Y-88289744D01*
X151823533Y-88408124D01*
X151823538Y-88408133D01*
X151894723Y-88514668D01*
X151894726Y-88514672D01*
X151985327Y-88605273D01*
X151985331Y-88605276D01*
X152091866Y-88676461D01*
X152091872Y-88676464D01*
X152091873Y-88676465D01*
X152210256Y-88725501D01*
X152210260Y-88725501D01*
X152210261Y-88725502D01*
X152335928Y-88750500D01*
X152335931Y-88750500D01*
X152464071Y-88750500D01*
X152548615Y-88733682D01*
X152589744Y-88725501D01*
X152708127Y-88676465D01*
X152814669Y-88605276D01*
X152905276Y-88514669D01*
X152939084Y-88464071D01*
X156749499Y-88464071D01*
X156774497Y-88589738D01*
X156774499Y-88589744D01*
X156823533Y-88708124D01*
X156823538Y-88708133D01*
X156894723Y-88814668D01*
X156894726Y-88814672D01*
X156985327Y-88905273D01*
X156985331Y-88905276D01*
X157091866Y-88976461D01*
X157091872Y-88976464D01*
X157091873Y-88976465D01*
X157210256Y-89025501D01*
X157210260Y-89025501D01*
X157210261Y-89025502D01*
X157335928Y-89050500D01*
X157335931Y-89050500D01*
X157464071Y-89050500D01*
X157548615Y-89033682D01*
X157589744Y-89025501D01*
X157708127Y-88976465D01*
X157814669Y-88905276D01*
X157905276Y-88814669D01*
X157976465Y-88708127D01*
X158025501Y-88589744D01*
X158050500Y-88464069D01*
X158050500Y-88335931D01*
X158050500Y-88335928D01*
X158025502Y-88210261D01*
X158025501Y-88210260D01*
X158025501Y-88210256D01*
X157976465Y-88091873D01*
X157976464Y-88091872D01*
X157976461Y-88091866D01*
X157905276Y-87985331D01*
X157905273Y-87985327D01*
X157814672Y-87894726D01*
X157814668Y-87894723D01*
X157708133Y-87823538D01*
X157708124Y-87823533D01*
X157589744Y-87774499D01*
X157589738Y-87774497D01*
X157464071Y-87749500D01*
X157464069Y-87749500D01*
X157335931Y-87749500D01*
X157335929Y-87749500D01*
X157210261Y-87774497D01*
X157210255Y-87774499D01*
X157091875Y-87823533D01*
X157091866Y-87823538D01*
X156985331Y-87894723D01*
X156985327Y-87894726D01*
X156894726Y-87985327D01*
X156894723Y-87985331D01*
X156823538Y-88091866D01*
X156823533Y-88091875D01*
X156774499Y-88210255D01*
X156774497Y-88210261D01*
X156749500Y-88335928D01*
X156749500Y-88335931D01*
X156749500Y-88464069D01*
X156749500Y-88464071D01*
X156749499Y-88464071D01*
X152939084Y-88464071D01*
X152976465Y-88408127D01*
X153025501Y-88289744D01*
X153050500Y-88164069D01*
X153050500Y-88035931D01*
X153050500Y-88035928D01*
X153025502Y-87910261D01*
X153025501Y-87910260D01*
X153025501Y-87910256D01*
X152976465Y-87791873D01*
X152976464Y-87791872D01*
X152976461Y-87791866D01*
X152905276Y-87685331D01*
X152905273Y-87685327D01*
X152814672Y-87594726D01*
X152814668Y-87594723D01*
X152708133Y-87523538D01*
X152708124Y-87523533D01*
X152589744Y-87474499D01*
X152589738Y-87474497D01*
X152464071Y-87449500D01*
X152464069Y-87449500D01*
X152335931Y-87449500D01*
X152335929Y-87449500D01*
X152210261Y-87474497D01*
X152210255Y-87474499D01*
X152091875Y-87523533D01*
X152091866Y-87523538D01*
X151985331Y-87594723D01*
X151985327Y-87594726D01*
X151894726Y-87685327D01*
X151894723Y-87685331D01*
X151823538Y-87791866D01*
X151823533Y-87791875D01*
X151774499Y-87910255D01*
X151774497Y-87910261D01*
X151749500Y-88035928D01*
X151749500Y-88035931D01*
X151749500Y-88164069D01*
X151749500Y-88164071D01*
X151749499Y-88164071D01*
X100500000Y-88164071D01*
X100500000Y-86664071D01*
X115749499Y-86664071D01*
X115774497Y-86789738D01*
X115774499Y-86789744D01*
X115823533Y-86908124D01*
X115823538Y-86908133D01*
X115894723Y-87014668D01*
X115894726Y-87014672D01*
X115985327Y-87105273D01*
X115985331Y-87105276D01*
X116091866Y-87176461D01*
X116091872Y-87176464D01*
X116091873Y-87176465D01*
X116210256Y-87225501D01*
X116210260Y-87225501D01*
X116210261Y-87225502D01*
X116335928Y-87250500D01*
X116335931Y-87250500D01*
X116464071Y-87250500D01*
X116548615Y-87233682D01*
X116589744Y-87225501D01*
X116708127Y-87176465D01*
X116814669Y-87105276D01*
X116905276Y-87014669D01*
X116939084Y-86964071D01*
X153749499Y-86964071D01*
X153774497Y-87089738D01*
X153774499Y-87089744D01*
X153823533Y-87208124D01*
X153823538Y-87208133D01*
X153894723Y-87314668D01*
X153894726Y-87314672D01*
X153985327Y-87405273D01*
X153985331Y-87405276D01*
X154091866Y-87476461D01*
X154091872Y-87476464D01*
X154091873Y-87476465D01*
X154210256Y-87525501D01*
X154210260Y-87525501D01*
X154210261Y-87525502D01*
X154335928Y-87550500D01*
X154335931Y-87550500D01*
X154464071Y-87550500D01*
X154548615Y-87533682D01*
X154589744Y-87525501D01*
X154708127Y-87476465D01*
X154814669Y-87405276D01*
X154905276Y-87314669D01*
X154976465Y-87208127D01*
X155025501Y-87089744D01*
X155050500Y-86964069D01*
X155050500Y-86835931D01*
X155050500Y-86835928D01*
X155025502Y-86710261D01*
X155025501Y-86710260D01*
X155025501Y-86710256D01*
X154976465Y-86591873D01*
X154976464Y-86591872D01*
X154976461Y-86591866D01*
X154905276Y-86485331D01*
X154905273Y-86485327D01*
X154814672Y-86394726D01*
X154814668Y-86394723D01*
X154708133Y-86323538D01*
X154708124Y-86323533D01*
X154589744Y-86274499D01*
X154589738Y-86274497D01*
X154464071Y-86249500D01*
X154464069Y-86249500D01*
X154335931Y-86249500D01*
X154335929Y-86249500D01*
X154210261Y-86274497D01*
X154210255Y-86274499D01*
X154091875Y-86323533D01*
X154091866Y-86323538D01*
X153985331Y-86394723D01*
X153985327Y-86394726D01*
X153894726Y-86485327D01*
X153894723Y-86485331D01*
X153823538Y-86591866D01*
X153823533Y-86591875D01*
X153774499Y-86710255D01*
X153774497Y-86710261D01*
X153749500Y-86835928D01*
X153749500Y-86835931D01*
X153749500Y-86964069D01*
X153749500Y-86964071D01*
X153749499Y-86964071D01*
X116939084Y-86964071D01*
X116976465Y-86908127D01*
X117025501Y-86789744D01*
X117050500Y-86664069D01*
X117050500Y-86535931D01*
X117050500Y-86535928D01*
X117025502Y-86410261D01*
X117025501Y-86410260D01*
X117025501Y-86410256D01*
X116976465Y-86291873D01*
X116976464Y-86291872D01*
X116976461Y-86291866D01*
X116905276Y-86185331D01*
X116905273Y-86185327D01*
X116814672Y-86094726D01*
X116814668Y-86094723D01*
X116708133Y-86023538D01*
X116708124Y-86023533D01*
X116589744Y-85974499D01*
X116589738Y-85974497D01*
X116464071Y-85949500D01*
X116464069Y-85949500D01*
X116335931Y-85949500D01*
X116335929Y-85949500D01*
X116210261Y-85974497D01*
X116210255Y-85974499D01*
X116091875Y-86023533D01*
X116091866Y-86023538D01*
X115985331Y-86094723D01*
X115985327Y-86094726D01*
X115894726Y-86185327D01*
X115894723Y-86185331D01*
X115823538Y-86291866D01*
X115823533Y-86291875D01*
X115774499Y-86410255D01*
X115774497Y-86410261D01*
X115749500Y-86535928D01*
X115749500Y-86535931D01*
X115749500Y-86664069D01*
X115749500Y-86664071D01*
X115749499Y-86664071D01*
X100500000Y-86664071D01*
X100500000Y-85314071D01*
X107349499Y-85314071D01*
X107374497Y-85439738D01*
X107374499Y-85439744D01*
X107423533Y-85558124D01*
X107423538Y-85558133D01*
X107494723Y-85664668D01*
X107494726Y-85664672D01*
X107585327Y-85755273D01*
X107585331Y-85755276D01*
X107691866Y-85826461D01*
X107691872Y-85826464D01*
X107691873Y-85826465D01*
X107810256Y-85875501D01*
X107810260Y-85875501D01*
X107810261Y-85875502D01*
X107935928Y-85900500D01*
X107935931Y-85900500D01*
X108064071Y-85900500D01*
X108148615Y-85883682D01*
X108189744Y-85875501D01*
X108222147Y-85862079D01*
X124851491Y-85862079D01*
X124876489Y-85987746D01*
X124876491Y-85987752D01*
X124925525Y-86106132D01*
X124925530Y-86106141D01*
X124996715Y-86212676D01*
X124996718Y-86212680D01*
X125087319Y-86303281D01*
X125087323Y-86303284D01*
X125193858Y-86374469D01*
X125193864Y-86374472D01*
X125193865Y-86374473D01*
X125312248Y-86423509D01*
X125312252Y-86423509D01*
X125312253Y-86423510D01*
X125437920Y-86448508D01*
X125437923Y-86448508D01*
X125566063Y-86448508D01*
X125650607Y-86431690D01*
X125691736Y-86423509D01*
X125810119Y-86374473D01*
X125825687Y-86364071D01*
X142549499Y-86364071D01*
X142574497Y-86489738D01*
X142574499Y-86489744D01*
X142623533Y-86608124D01*
X142623538Y-86608133D01*
X142694723Y-86714668D01*
X142694726Y-86714672D01*
X142785327Y-86805273D01*
X142785331Y-86805276D01*
X142891866Y-86876461D01*
X142891872Y-86876464D01*
X142891873Y-86876465D01*
X143010256Y-86925501D01*
X143010260Y-86925501D01*
X143010261Y-86925502D01*
X143135928Y-86950500D01*
X143135931Y-86950500D01*
X143264071Y-86950500D01*
X143348615Y-86933682D01*
X143389744Y-86925501D01*
X143508127Y-86876465D01*
X143614669Y-86805276D01*
X143630207Y-86789738D01*
X143677788Y-86742158D01*
X143705273Y-86714672D01*
X143705276Y-86714669D01*
X143776465Y-86608127D01*
X143825501Y-86489744D01*
X143844402Y-86394724D01*
X143850500Y-86364071D01*
X143850500Y-86235928D01*
X143825502Y-86110261D01*
X143825501Y-86110260D01*
X143825501Y-86110256D01*
X143776465Y-85991873D01*
X143776464Y-85991872D01*
X143776461Y-85991866D01*
X143705276Y-85885331D01*
X143705273Y-85885327D01*
X143614672Y-85794726D01*
X143614668Y-85794723D01*
X143508133Y-85723538D01*
X143508124Y-85723533D01*
X143389744Y-85674499D01*
X143389738Y-85674497D01*
X143264071Y-85649500D01*
X143264069Y-85649500D01*
X143135931Y-85649500D01*
X143135929Y-85649500D01*
X143010261Y-85674497D01*
X143010255Y-85674499D01*
X142891875Y-85723533D01*
X142891866Y-85723538D01*
X142785331Y-85794723D01*
X142785327Y-85794726D01*
X142694726Y-85885327D01*
X142694723Y-85885331D01*
X142623538Y-85991866D01*
X142623533Y-85991875D01*
X142574499Y-86110255D01*
X142574497Y-86110261D01*
X142549500Y-86235928D01*
X142549500Y-86235931D01*
X142549500Y-86364069D01*
X142549500Y-86364071D01*
X142549499Y-86364071D01*
X125825687Y-86364071D01*
X125916661Y-86303284D01*
X126007268Y-86212677D01*
X126025543Y-86185327D01*
X126041833Y-86160948D01*
X126041834Y-86160946D01*
X126078450Y-86106146D01*
X126078453Y-86106141D01*
X126078457Y-86106135D01*
X126127493Y-85987752D01*
X126144849Y-85900500D01*
X126152492Y-85862079D01*
X126152492Y-85733936D01*
X126127494Y-85608269D01*
X126127493Y-85608268D01*
X126127493Y-85608264D01*
X126078457Y-85489881D01*
X126078456Y-85489880D01*
X126078453Y-85489874D01*
X126061212Y-85464071D01*
X156849499Y-85464071D01*
X156874497Y-85589738D01*
X156874499Y-85589744D01*
X156923533Y-85708124D01*
X156923538Y-85708133D01*
X156994723Y-85814668D01*
X156994726Y-85814672D01*
X157085327Y-85905273D01*
X157085331Y-85905276D01*
X157191866Y-85976461D01*
X157191872Y-85976464D01*
X157191873Y-85976465D01*
X157310256Y-86025501D01*
X157310260Y-86025501D01*
X157310261Y-86025502D01*
X157435928Y-86050500D01*
X157435931Y-86050500D01*
X157564071Y-86050500D01*
X157648615Y-86033682D01*
X157689744Y-86025501D01*
X157808127Y-85976465D01*
X157914669Y-85905276D01*
X158005276Y-85814669D01*
X158076465Y-85708127D01*
X158125501Y-85589744D01*
X158150500Y-85464069D01*
X158150500Y-85335931D01*
X158150500Y-85335928D01*
X158125502Y-85210261D01*
X158125501Y-85210260D01*
X158125501Y-85210256D01*
X158082017Y-85105276D01*
X158076466Y-85091875D01*
X158076461Y-85091866D01*
X158005276Y-84985331D01*
X158005273Y-84985327D01*
X157914672Y-84894726D01*
X157914668Y-84894723D01*
X157808133Y-84823538D01*
X157808124Y-84823533D01*
X157689744Y-84774499D01*
X157689738Y-84774497D01*
X157564071Y-84749500D01*
X157564069Y-84749500D01*
X157435931Y-84749500D01*
X157435929Y-84749500D01*
X157310261Y-84774497D01*
X157310255Y-84774499D01*
X157191875Y-84823533D01*
X157191866Y-84823538D01*
X157085331Y-84894723D01*
X157085327Y-84894726D01*
X156994726Y-84985327D01*
X156994723Y-84985331D01*
X156923538Y-85091866D01*
X156923533Y-85091875D01*
X156874499Y-85210255D01*
X156874497Y-85210261D01*
X156849500Y-85335928D01*
X156849500Y-85335931D01*
X156849500Y-85464069D01*
X156849500Y-85464071D01*
X156849499Y-85464071D01*
X126061212Y-85464071D01*
X126007268Y-85383339D01*
X126007265Y-85383335D01*
X125916664Y-85292734D01*
X125916660Y-85292731D01*
X125810125Y-85221546D01*
X125810116Y-85221541D01*
X125691736Y-85172507D01*
X125691730Y-85172505D01*
X125566063Y-85147508D01*
X125566061Y-85147508D01*
X125437923Y-85147508D01*
X125437921Y-85147508D01*
X125312253Y-85172505D01*
X125312247Y-85172507D01*
X125193867Y-85221541D01*
X125193858Y-85221546D01*
X125087323Y-85292731D01*
X125087319Y-85292734D01*
X124996718Y-85383335D01*
X124996715Y-85383339D01*
X124925530Y-85489874D01*
X124925525Y-85489883D01*
X124876491Y-85608263D01*
X124876489Y-85608269D01*
X124851492Y-85733936D01*
X124851492Y-85733939D01*
X124851492Y-85862077D01*
X124851492Y-85862079D01*
X124851491Y-85862079D01*
X108222147Y-85862079D01*
X108308127Y-85826465D01*
X108414669Y-85755276D01*
X108505276Y-85664669D01*
X108576465Y-85558127D01*
X108625501Y-85439744D01*
X108636722Y-85383335D01*
X108650500Y-85314071D01*
X108650500Y-85185928D01*
X108625502Y-85060261D01*
X108625501Y-85060260D01*
X108625501Y-85060256D01*
X108576465Y-84941873D01*
X108576464Y-84941872D01*
X108576461Y-84941866D01*
X108505276Y-84835331D01*
X108505273Y-84835327D01*
X108414672Y-84744726D01*
X108414668Y-84744723D01*
X108308133Y-84673538D01*
X108308124Y-84673533D01*
X108285280Y-84664071D01*
X145749499Y-84664071D01*
X145774497Y-84789738D01*
X145774499Y-84789744D01*
X145823533Y-84908124D01*
X145823538Y-84908133D01*
X145894723Y-85014668D01*
X145894726Y-85014672D01*
X145985327Y-85105273D01*
X145985331Y-85105276D01*
X146091866Y-85176461D01*
X146091872Y-85176464D01*
X146091873Y-85176465D01*
X146210256Y-85225501D01*
X146210260Y-85225501D01*
X146210261Y-85225502D01*
X146335928Y-85250500D01*
X146335931Y-85250500D01*
X146464071Y-85250500D01*
X146548615Y-85233682D01*
X146589744Y-85225501D01*
X146708127Y-85176465D01*
X146814669Y-85105276D01*
X146905276Y-85014669D01*
X146976465Y-84908127D01*
X147025501Y-84789744D01*
X147034456Y-84744723D01*
X147050500Y-84664071D01*
X147050500Y-84535928D01*
X147025502Y-84410261D01*
X147025501Y-84410260D01*
X147025501Y-84410256D01*
X146976465Y-84291873D01*
X146976464Y-84291872D01*
X146976461Y-84291866D01*
X146905276Y-84185331D01*
X146905273Y-84185327D01*
X146814672Y-84094726D01*
X146814668Y-84094723D01*
X146708133Y-84023538D01*
X146708124Y-84023533D01*
X146589744Y-83974499D01*
X146589738Y-83974497D01*
X146464071Y-83949500D01*
X146464069Y-83949500D01*
X146335931Y-83949500D01*
X146335929Y-83949500D01*
X146210261Y-83974497D01*
X146210255Y-83974499D01*
X146091875Y-84023533D01*
X146091866Y-84023538D01*
X145985331Y-84094723D01*
X145985327Y-84094726D01*
X145894726Y-84185327D01*
X145894723Y-84185331D01*
X145823538Y-84291866D01*
X145823533Y-84291875D01*
X145774499Y-84410255D01*
X145774497Y-84410261D01*
X145749500Y-84535928D01*
X145749500Y-84535931D01*
X145749500Y-84664069D01*
X145749500Y-84664071D01*
X145749499Y-84664071D01*
X108285280Y-84664071D01*
X108237789Y-84644400D01*
X108189744Y-84624499D01*
X108189738Y-84624497D01*
X108064071Y-84599500D01*
X108064069Y-84599500D01*
X107935931Y-84599500D01*
X107935929Y-84599500D01*
X107810261Y-84624497D01*
X107810255Y-84624499D01*
X107691875Y-84673533D01*
X107691866Y-84673538D01*
X107585331Y-84744723D01*
X107585327Y-84744726D01*
X107494726Y-84835327D01*
X107494723Y-84835331D01*
X107423538Y-84941866D01*
X107423533Y-84941875D01*
X107374499Y-85060255D01*
X107374497Y-85060261D01*
X107349500Y-85185928D01*
X107349500Y-85185931D01*
X107349500Y-85314069D01*
X107349500Y-85314071D01*
X107349499Y-85314071D01*
X100500000Y-85314071D01*
X100500000Y-82814071D01*
X106849499Y-82814071D01*
X106874497Y-82939738D01*
X106874499Y-82939744D01*
X106923533Y-83058124D01*
X106923538Y-83058133D01*
X106994723Y-83164668D01*
X106994726Y-83164672D01*
X107085327Y-83255273D01*
X107085331Y-83255276D01*
X107191866Y-83326461D01*
X107191872Y-83326464D01*
X107191873Y-83326465D01*
X107310256Y-83375501D01*
X107310260Y-83375501D01*
X107310261Y-83375502D01*
X107435928Y-83400500D01*
X107435931Y-83400500D01*
X107564071Y-83400500D01*
X107648615Y-83383682D01*
X107689744Y-83375501D01*
X107808127Y-83326465D01*
X107914669Y-83255276D01*
X108005276Y-83164669D01*
X108005676Y-83164071D01*
X115149499Y-83164071D01*
X115174497Y-83289738D01*
X115174499Y-83289744D01*
X115223533Y-83408124D01*
X115223538Y-83408133D01*
X115294723Y-83514668D01*
X115294726Y-83514672D01*
X115385327Y-83605273D01*
X115385331Y-83605276D01*
X115491866Y-83676461D01*
X115491872Y-83676464D01*
X115491873Y-83676465D01*
X115610256Y-83725501D01*
X115610260Y-83725501D01*
X115610261Y-83725502D01*
X115735928Y-83750500D01*
X115735931Y-83750500D01*
X115864071Y-83750500D01*
X115948615Y-83733682D01*
X115989744Y-83725501D01*
X116108127Y-83676465D01*
X116214669Y-83605276D01*
X116305276Y-83514669D01*
X116376465Y-83408127D01*
X116425501Y-83289744D01*
X116450500Y-83164069D01*
X116450500Y-83035931D01*
X116450500Y-83035928D01*
X116425502Y-82910261D01*
X116425501Y-82910260D01*
X116425501Y-82910256D01*
X116376465Y-82791873D01*
X116376464Y-82791872D01*
X116376461Y-82791866D01*
X116305276Y-82685331D01*
X116305273Y-82685327D01*
X116214672Y-82594726D01*
X116214668Y-82594723D01*
X116108133Y-82523538D01*
X116108124Y-82523533D01*
X115989744Y-82474499D01*
X115989738Y-82474497D01*
X115864071Y-82449500D01*
X115864069Y-82449500D01*
X115735931Y-82449500D01*
X115735929Y-82449500D01*
X115610261Y-82474497D01*
X115610255Y-82474499D01*
X115491875Y-82523533D01*
X115491866Y-82523538D01*
X115385331Y-82594723D01*
X115385327Y-82594726D01*
X115294726Y-82685327D01*
X115294723Y-82685331D01*
X115223538Y-82791866D01*
X115223533Y-82791875D01*
X115174499Y-82910255D01*
X115174497Y-82910261D01*
X115149500Y-83035928D01*
X115149500Y-83035931D01*
X115149500Y-83164069D01*
X115149500Y-83164071D01*
X115149499Y-83164071D01*
X108005676Y-83164071D01*
X108076465Y-83058127D01*
X108125501Y-82939744D01*
X108148226Y-82825501D01*
X108150500Y-82814071D01*
X108150500Y-82685928D01*
X108125502Y-82560261D01*
X108125501Y-82560260D01*
X108125501Y-82560256D01*
X108076465Y-82441873D01*
X108076464Y-82441872D01*
X108076461Y-82441866D01*
X108005276Y-82335331D01*
X108005273Y-82335327D01*
X107934017Y-82264071D01*
X143249499Y-82264071D01*
X143274497Y-82389738D01*
X143274499Y-82389744D01*
X143323533Y-82508124D01*
X143323538Y-82508133D01*
X143394723Y-82614668D01*
X143394726Y-82614672D01*
X143485327Y-82705273D01*
X143485331Y-82705276D01*
X143591866Y-82776461D01*
X143591872Y-82776464D01*
X143591873Y-82776465D01*
X143710256Y-82825501D01*
X143710260Y-82825501D01*
X143710261Y-82825502D01*
X143835928Y-82850500D01*
X143835931Y-82850500D01*
X143964071Y-82850500D01*
X144048615Y-82833682D01*
X144089744Y-82825501D01*
X144208127Y-82776465D01*
X144314669Y-82705276D01*
X144405276Y-82614669D01*
X144476465Y-82508127D01*
X144525501Y-82389744D01*
X144550500Y-82264069D01*
X144550500Y-82264061D01*
X144550670Y-82262344D01*
X144551012Y-82261496D01*
X144551689Y-82258094D01*
X144552334Y-82258222D01*
X144576832Y-82197557D01*
X144633868Y-82157199D01*
X144674073Y-82150500D01*
X144764071Y-82150500D01*
X144850004Y-82133406D01*
X144889744Y-82125501D01*
X145008127Y-82076465D01*
X145114669Y-82005276D01*
X145205276Y-81914669D01*
X145276465Y-81808127D01*
X145325501Y-81689744D01*
X145338672Y-81623533D01*
X145350500Y-81564071D01*
X145350500Y-81435928D01*
X145325502Y-81310261D01*
X145325501Y-81310260D01*
X145325501Y-81310256D01*
X145276465Y-81191873D01*
X145276464Y-81191872D01*
X145276461Y-81191866D01*
X145205276Y-81085331D01*
X145205273Y-81085327D01*
X145114672Y-80994726D01*
X145114668Y-80994723D01*
X145008133Y-80923538D01*
X145008120Y-80923531D01*
X144978344Y-80911198D01*
X144923940Y-80867357D01*
X144901875Y-80801063D01*
X144911235Y-80749184D01*
X144925501Y-80714744D01*
X144949942Y-80591875D01*
X144950500Y-80589071D01*
X144950500Y-80460928D01*
X144925502Y-80335261D01*
X144925501Y-80335260D01*
X144925501Y-80335256D01*
X144876465Y-80216873D01*
X144876464Y-80216872D01*
X144876461Y-80216866D01*
X144841185Y-80164071D01*
X149449499Y-80164071D01*
X149474497Y-80289738D01*
X149474499Y-80289744D01*
X149523533Y-80408124D01*
X149523538Y-80408133D01*
X149594723Y-80514668D01*
X149594726Y-80514672D01*
X149685327Y-80605273D01*
X149685331Y-80605276D01*
X149791866Y-80676461D01*
X149791872Y-80676464D01*
X149791873Y-80676465D01*
X149910256Y-80725501D01*
X149910260Y-80725501D01*
X149910261Y-80725502D01*
X150035928Y-80750500D01*
X150035931Y-80750500D01*
X150164071Y-80750500D01*
X150248615Y-80733682D01*
X150289744Y-80725501D01*
X150408127Y-80676465D01*
X150514669Y-80605276D01*
X150605276Y-80514669D01*
X150676465Y-80408127D01*
X150725501Y-80289744D01*
X150750500Y-80164069D01*
X150750500Y-80035931D01*
X150750500Y-80035928D01*
X150725502Y-79910261D01*
X150725501Y-79910260D01*
X150725501Y-79910256D01*
X150676465Y-79791873D01*
X150676464Y-79791872D01*
X150676461Y-79791866D01*
X150605276Y-79685331D01*
X150605273Y-79685327D01*
X150514672Y-79594726D01*
X150514668Y-79594723D01*
X150408133Y-79523538D01*
X150408124Y-79523533D01*
X150289744Y-79474499D01*
X150289738Y-79474497D01*
X150164071Y-79449500D01*
X150164069Y-79449500D01*
X150035931Y-79449500D01*
X150035929Y-79449500D01*
X149910261Y-79474497D01*
X149910255Y-79474499D01*
X149791875Y-79523533D01*
X149791866Y-79523538D01*
X149685331Y-79594723D01*
X149685327Y-79594726D01*
X149594726Y-79685327D01*
X149594723Y-79685331D01*
X149523538Y-79791866D01*
X149523533Y-79791875D01*
X149474499Y-79910255D01*
X149474497Y-79910261D01*
X149449500Y-80035928D01*
X149449500Y-80035931D01*
X149449500Y-80164069D01*
X149449500Y-80164071D01*
X149449499Y-80164071D01*
X144841185Y-80164071D01*
X144805276Y-80110330D01*
X144714672Y-80019726D01*
X144714668Y-80019723D01*
X144608133Y-79948538D01*
X144608124Y-79948533D01*
X144489744Y-79899499D01*
X144489738Y-79899497D01*
X144364071Y-79874500D01*
X144364069Y-79874500D01*
X144235931Y-79874500D01*
X144235929Y-79874500D01*
X144110261Y-79899497D01*
X144110255Y-79899499D01*
X143991875Y-79948533D01*
X143991866Y-79948538D01*
X143885331Y-80019723D01*
X143885327Y-80019726D01*
X143794726Y-80110327D01*
X143794723Y-80110331D01*
X143723538Y-80216866D01*
X143723533Y-80216875D01*
X143674499Y-80335255D01*
X143674497Y-80335261D01*
X143649500Y-80460928D01*
X143649500Y-80460931D01*
X143649500Y-80589069D01*
X143649500Y-80589071D01*
X143649499Y-80589071D01*
X143674497Y-80714738D01*
X143674499Y-80714744D01*
X143723533Y-80833124D01*
X143723538Y-80833133D01*
X143794723Y-80939668D01*
X143794726Y-80939672D01*
X143885327Y-81030273D01*
X143885331Y-81030276D01*
X143991866Y-81101461D01*
X143991873Y-81101465D01*
X144021655Y-81113801D01*
X144076058Y-81157640D01*
X144098124Y-81223934D01*
X144094644Y-81257856D01*
X144092388Y-81267067D01*
X144074499Y-81310256D01*
X144049500Y-81435931D01*
X144049500Y-81442204D01*
X144046368Y-81454994D01*
X144033081Y-81477892D01*
X144023168Y-81502443D01*
X144015820Y-81507641D01*
X144011303Y-81515428D01*
X143987741Y-81527510D01*
X143966132Y-81542801D01*
X143953973Y-81544826D01*
X143949131Y-81547310D01*
X143942788Y-81546690D01*
X143925927Y-81549500D01*
X143835929Y-81549500D01*
X143710261Y-81574497D01*
X143710255Y-81574499D01*
X143591875Y-81623533D01*
X143591866Y-81623538D01*
X143485331Y-81694723D01*
X143485327Y-81694726D01*
X143394726Y-81785327D01*
X143394723Y-81785331D01*
X143323538Y-81891866D01*
X143323533Y-81891875D01*
X143274499Y-82010255D01*
X143274497Y-82010261D01*
X143249500Y-82135928D01*
X143249500Y-82135931D01*
X143249500Y-82264069D01*
X143249500Y-82264071D01*
X143249499Y-82264071D01*
X107934017Y-82264071D01*
X107914672Y-82244726D01*
X107914668Y-82244723D01*
X107897035Y-82232941D01*
X107808133Y-82173538D01*
X107808124Y-82173533D01*
X107689744Y-82124499D01*
X107689738Y-82124497D01*
X107564071Y-82099500D01*
X107564069Y-82099500D01*
X107435931Y-82099500D01*
X107435929Y-82099500D01*
X107310261Y-82124497D01*
X107310255Y-82124499D01*
X107191875Y-82173533D01*
X107191866Y-82173538D01*
X107085331Y-82244723D01*
X107085327Y-82244726D01*
X106994726Y-82335327D01*
X106994723Y-82335331D01*
X106923538Y-82441866D01*
X106923533Y-82441875D01*
X106874499Y-82560255D01*
X106874497Y-82560261D01*
X106849500Y-82685928D01*
X106849500Y-82685931D01*
X106849500Y-82814069D01*
X106849500Y-82814071D01*
X106849499Y-82814071D01*
X100500000Y-82814071D01*
X100500000Y-80964071D01*
X122849499Y-80964071D01*
X122874497Y-81089738D01*
X122874499Y-81089744D01*
X122923533Y-81208124D01*
X122923538Y-81208133D01*
X122994723Y-81314668D01*
X122994726Y-81314672D01*
X123085327Y-81405273D01*
X123085331Y-81405276D01*
X123191866Y-81476461D01*
X123191872Y-81476464D01*
X123191873Y-81476465D01*
X123310256Y-81525501D01*
X123310260Y-81525501D01*
X123310261Y-81525502D01*
X123435928Y-81550500D01*
X123435931Y-81550500D01*
X123564071Y-81550500D01*
X123679644Y-81527510D01*
X123689744Y-81525501D01*
X123808127Y-81476465D01*
X123914669Y-81405276D01*
X124005276Y-81314669D01*
X124076465Y-81208127D01*
X124125501Y-81089744D01*
X124144402Y-80994724D01*
X124150500Y-80964071D01*
X124150500Y-80835928D01*
X124125502Y-80710261D01*
X124125501Y-80710260D01*
X124125501Y-80710256D01*
X124082017Y-80605276D01*
X124076466Y-80591875D01*
X124076461Y-80591866D01*
X124005276Y-80485331D01*
X124005273Y-80485327D01*
X123914672Y-80394726D01*
X123914668Y-80394723D01*
X123808133Y-80323538D01*
X123808124Y-80323533D01*
X123689744Y-80274499D01*
X123689738Y-80274497D01*
X123564071Y-80249500D01*
X123564069Y-80249500D01*
X123435931Y-80249500D01*
X123435929Y-80249500D01*
X123310261Y-80274497D01*
X123310255Y-80274499D01*
X123191875Y-80323533D01*
X123191866Y-80323538D01*
X123085331Y-80394723D01*
X123085327Y-80394726D01*
X122994726Y-80485327D01*
X122994723Y-80485331D01*
X122923538Y-80591866D01*
X122923533Y-80591875D01*
X122874499Y-80710255D01*
X122874497Y-80710261D01*
X122849500Y-80835928D01*
X122849500Y-80835931D01*
X122849500Y-80964069D01*
X122849500Y-80964071D01*
X122849499Y-80964071D01*
X100500000Y-80964071D01*
X100500000Y-76964071D01*
X140049499Y-76964071D01*
X140074497Y-77089738D01*
X140074499Y-77089744D01*
X140123533Y-77208124D01*
X140123538Y-77208133D01*
X140194723Y-77314668D01*
X140194726Y-77314672D01*
X140285327Y-77405273D01*
X140285331Y-77405276D01*
X140391866Y-77476461D01*
X140391872Y-77476464D01*
X140391873Y-77476465D01*
X140510256Y-77525501D01*
X140510260Y-77525501D01*
X140510261Y-77525502D01*
X140635928Y-77550500D01*
X140635931Y-77550500D01*
X140764071Y-77550500D01*
X140848615Y-77533682D01*
X140889744Y-77525501D01*
X141008127Y-77476465D01*
X141114669Y-77405276D01*
X141205276Y-77314669D01*
X141276465Y-77208127D01*
X141325501Y-77089744D01*
X141350500Y-76964069D01*
X141350500Y-76835931D01*
X141350500Y-76835928D01*
X141325502Y-76710261D01*
X141325501Y-76710260D01*
X141325501Y-76710256D01*
X141276465Y-76591873D01*
X141276464Y-76591872D01*
X141276461Y-76591866D01*
X141205276Y-76485331D01*
X141205273Y-76485327D01*
X141114672Y-76394726D01*
X141114668Y-76394723D01*
X141008133Y-76323538D01*
X141008124Y-76323533D01*
X140889744Y-76274499D01*
X140889738Y-76274497D01*
X140764071Y-76249500D01*
X140764069Y-76249500D01*
X140635931Y-76249500D01*
X140635929Y-76249500D01*
X140510261Y-76274497D01*
X140510255Y-76274499D01*
X140391875Y-76323533D01*
X140391866Y-76323538D01*
X140285331Y-76394723D01*
X140285327Y-76394726D01*
X140194726Y-76485327D01*
X140194723Y-76485331D01*
X140123538Y-76591866D01*
X140123533Y-76591875D01*
X140074499Y-76710255D01*
X140074497Y-76710261D01*
X140049500Y-76835928D01*
X140049500Y-76835931D01*
X140049500Y-76964069D01*
X140049500Y-76964071D01*
X140049499Y-76964071D01*
X100500000Y-76964071D01*
X100500000Y-73393713D01*
X102149500Y-73393713D01*
X102149500Y-73606287D01*
X102152849Y-73627433D01*
X102178032Y-73786434D01*
X102182754Y-73816243D01*
X102239308Y-73990298D01*
X102248444Y-74018414D01*
X102344951Y-74207820D01*
X102469890Y-74379786D01*
X102620213Y-74530109D01*
X102792179Y-74655048D01*
X102792181Y-74655049D01*
X102792184Y-74655051D01*
X102981588Y-74751557D01*
X103183757Y-74817246D01*
X103393713Y-74850500D01*
X103393714Y-74850500D01*
X103606286Y-74850500D01*
X103606287Y-74850500D01*
X103816243Y-74817246D01*
X104018412Y-74751557D01*
X104207816Y-74655051D01*
X104229789Y-74639086D01*
X104379786Y-74530109D01*
X104379788Y-74530106D01*
X104379792Y-74530104D01*
X104530104Y-74379792D01*
X104530106Y-74379788D01*
X104530109Y-74379786D01*
X104655048Y-74207820D01*
X104655047Y-74207820D01*
X104655051Y-74207816D01*
X104751557Y-74018412D01*
X104789951Y-73900247D01*
X107319500Y-73900247D01*
X107319500Y-75639752D01*
X107331131Y-75698229D01*
X107331132Y-75698230D01*
X107375447Y-75764552D01*
X107441769Y-75808867D01*
X107441770Y-75808868D01*
X107500247Y-75820499D01*
X107500250Y-75820500D01*
X107500252Y-75820500D01*
X109239750Y-75820500D01*
X109239751Y-75820499D01*
X109254568Y-75817552D01*
X109298229Y-75808868D01*
X109298229Y-75808867D01*
X109298231Y-75808867D01*
X109364552Y-75764552D01*
X109408867Y-75698231D01*
X109408867Y-75698229D01*
X109408868Y-75698229D01*
X109420499Y-75639752D01*
X109420500Y-75639750D01*
X109420500Y-74666530D01*
X109859500Y-74666530D01*
X109859500Y-74873469D01*
X109899868Y-75076412D01*
X109899870Y-75076420D01*
X109979058Y-75267596D01*
X110094024Y-75439657D01*
X110240342Y-75585975D01*
X110240345Y-75585977D01*
X110412402Y-75700941D01*
X110603580Y-75780130D01*
X110748052Y-75808867D01*
X110806530Y-75820499D01*
X110806534Y-75820500D01*
X110806535Y-75820500D01*
X111013466Y-75820500D01*
X111013467Y-75820499D01*
X111216420Y-75780130D01*
X111407598Y-75700941D01*
X111579655Y-75585977D01*
X111725977Y-75439655D01*
X111840941Y-75267598D01*
X111920130Y-75076420D01*
X111960500Y-74873465D01*
X111960500Y-74666535D01*
X111960499Y-74666530D01*
X112399500Y-74666530D01*
X112399500Y-74873469D01*
X112439868Y-75076412D01*
X112439870Y-75076420D01*
X112519058Y-75267596D01*
X112634024Y-75439657D01*
X112780342Y-75585975D01*
X112780345Y-75585977D01*
X112952402Y-75700941D01*
X113143580Y-75780130D01*
X113288052Y-75808867D01*
X113346530Y-75820499D01*
X113346534Y-75820500D01*
X113346535Y-75820500D01*
X113553466Y-75820500D01*
X113553467Y-75820499D01*
X113756420Y-75780130D01*
X113947598Y-75700941D01*
X114119655Y-75585977D01*
X114265977Y-75439655D01*
X114380941Y-75267598D01*
X114460130Y-75076420D01*
X114500500Y-74873465D01*
X114500500Y-74666535D01*
X114500499Y-74666530D01*
X114939500Y-74666530D01*
X114939500Y-74873469D01*
X114979868Y-75076412D01*
X114979870Y-75076420D01*
X115059058Y-75267596D01*
X115174024Y-75439657D01*
X115320342Y-75585975D01*
X115320345Y-75585977D01*
X115492402Y-75700941D01*
X115683580Y-75780130D01*
X115828052Y-75808867D01*
X115886530Y-75820499D01*
X115886534Y-75820500D01*
X115886535Y-75820500D01*
X116093466Y-75820500D01*
X116093467Y-75820499D01*
X116296420Y-75780130D01*
X116487598Y-75700941D01*
X116659655Y-75585977D01*
X116805977Y-75439655D01*
X116920941Y-75267598D01*
X117000130Y-75076420D01*
X117015316Y-75000075D01*
X117023537Y-74958748D01*
X117040499Y-74873469D01*
X117040500Y-74873466D01*
X117040500Y-74671943D01*
X117040500Y-74666535D01*
X117011353Y-74520000D01*
X117405261Y-74520000D01*
X118096988Y-74520000D01*
X118064075Y-74577007D01*
X118030000Y-74704174D01*
X118030000Y-74835826D01*
X118064075Y-74962993D01*
X118096988Y-75020000D01*
X117405261Y-75020000D01*
X117408315Y-75039285D01*
X117408318Y-75039295D01*
X117464250Y-75211441D01*
X117464252Y-75211447D01*
X117546434Y-75372734D01*
X117652823Y-75519169D01*
X117780830Y-75647176D01*
X117927265Y-75753565D01*
X118088552Y-75835747D01*
X118088555Y-75835748D01*
X118260699Y-75891680D01*
X118260712Y-75891683D01*
X118280000Y-75894738D01*
X118280000Y-75203012D01*
X118337007Y-75235925D01*
X118464174Y-75270000D01*
X118595826Y-75270000D01*
X118722993Y-75235925D01*
X118780000Y-75203012D01*
X118780000Y-75894737D01*
X118799287Y-75891683D01*
X118799300Y-75891680D01*
X118971444Y-75835748D01*
X118971447Y-75835747D01*
X119132734Y-75753565D01*
X119279169Y-75647176D01*
X119407176Y-75519169D01*
X119513565Y-75372734D01*
X119595747Y-75211447D01*
X119595749Y-75211441D01*
X119651681Y-75039295D01*
X119651684Y-75039285D01*
X119654739Y-75020000D01*
X118963012Y-75020000D01*
X118995925Y-74962993D01*
X119030000Y-74835826D01*
X119030000Y-74704174D01*
X119019913Y-74666530D01*
X120019500Y-74666530D01*
X120019500Y-74873469D01*
X120059868Y-75076412D01*
X120059870Y-75076420D01*
X120139058Y-75267596D01*
X120254024Y-75439657D01*
X120400342Y-75585975D01*
X120400345Y-75585977D01*
X120572402Y-75700941D01*
X120763580Y-75780130D01*
X120908052Y-75808867D01*
X120966530Y-75820499D01*
X120966534Y-75820500D01*
X120966535Y-75820500D01*
X121173466Y-75820500D01*
X121173467Y-75820499D01*
X121376420Y-75780130D01*
X121567598Y-75700941D01*
X121739655Y-75585977D01*
X121885977Y-75439655D01*
X122000941Y-75267598D01*
X122080130Y-75076420D01*
X122120500Y-74873465D01*
X122120500Y-74666535D01*
X122080130Y-74463580D01*
X122027431Y-74336353D01*
X124900000Y-74336353D01*
X124900000Y-74450000D01*
X125519670Y-74450000D01*
X125499925Y-74469745D01*
X125450556Y-74555255D01*
X125425000Y-74650630D01*
X125425000Y-74749370D01*
X125450556Y-74844745D01*
X125499925Y-74930255D01*
X125519670Y-74950000D01*
X124900000Y-74950000D01*
X124900000Y-75063646D01*
X124934584Y-75237512D01*
X124934586Y-75237520D01*
X125002428Y-75401307D01*
X125002433Y-75401316D01*
X125100923Y-75548716D01*
X125100926Y-75548720D01*
X125226279Y-75674073D01*
X125226283Y-75674076D01*
X125373683Y-75772566D01*
X125373693Y-75772571D01*
X125537476Y-75840412D01*
X125537483Y-75840415D01*
X125550000Y-75842904D01*
X125550000Y-74980330D01*
X125569745Y-75000075D01*
X125655255Y-75049444D01*
X125750630Y-75075000D01*
X125849370Y-75075000D01*
X125944745Y-75049444D01*
X126030255Y-75000075D01*
X126050000Y-74980330D01*
X126050000Y-75842903D01*
X126062516Y-75840415D01*
X126062523Y-75840412D01*
X126226306Y-75772571D01*
X126226316Y-75772566D01*
X126373716Y-75674076D01*
X126373720Y-75674073D01*
X126499073Y-75548720D01*
X126499076Y-75548716D01*
X126597566Y-75401316D01*
X126597571Y-75401307D01*
X126665413Y-75237520D01*
X126665415Y-75237512D01*
X126699999Y-75063646D01*
X126700000Y-75063643D01*
X126700000Y-74950000D01*
X126080330Y-74950000D01*
X126100075Y-74930255D01*
X126149444Y-74844745D01*
X126175000Y-74749370D01*
X126175000Y-74650630D01*
X126149444Y-74555255D01*
X126100075Y-74469745D01*
X126080330Y-74450000D01*
X126700000Y-74450000D01*
X126700000Y-74336357D01*
X126699999Y-74336353D01*
X126665415Y-74162487D01*
X126665412Y-74162475D01*
X126625156Y-74065287D01*
X126606700Y-74020730D01*
X126999500Y-74020730D01*
X126999500Y-75379269D01*
X127002353Y-75409699D01*
X127002353Y-75409701D01*
X127040659Y-75519169D01*
X127047207Y-75537882D01*
X127127850Y-75647150D01*
X127237118Y-75727793D01*
X127279845Y-75742744D01*
X127365299Y-75772646D01*
X127395730Y-75775500D01*
X127395734Y-75775500D01*
X128204270Y-75775500D01*
X128234699Y-75772646D01*
X128234701Y-75772646D01*
X128298790Y-75750219D01*
X128362882Y-75727793D01*
X128472150Y-75647150D01*
X128552793Y-75537882D01*
X128575219Y-75473790D01*
X128597646Y-75409701D01*
X128597646Y-75409699D01*
X128600500Y-75379269D01*
X128600500Y-74020730D01*
X128597646Y-73990300D01*
X128597646Y-73990298D01*
X128552793Y-73862119D01*
X128552792Y-73862117D01*
X128544793Y-73851279D01*
X128472150Y-73752850D01*
X128362882Y-73672207D01*
X128362880Y-73672206D01*
X128234700Y-73627353D01*
X128204270Y-73624500D01*
X128204266Y-73624500D01*
X127395734Y-73624500D01*
X127395730Y-73624500D01*
X127365300Y-73627353D01*
X127365298Y-73627353D01*
X127237119Y-73672206D01*
X127237117Y-73672207D01*
X127127850Y-73752850D01*
X127047207Y-73862117D01*
X127047206Y-73862119D01*
X127002353Y-73990298D01*
X127002353Y-73990300D01*
X126999500Y-74020730D01*
X126606700Y-74020730D01*
X126597571Y-73998692D01*
X126597566Y-73998683D01*
X126499076Y-73851283D01*
X126499073Y-73851279D01*
X126373720Y-73725926D01*
X126373716Y-73725923D01*
X126226316Y-73627433D01*
X126226307Y-73627428D01*
X126062519Y-73559585D01*
X126050000Y-73557094D01*
X126050000Y-74419670D01*
X126030255Y-74399925D01*
X125944745Y-74350556D01*
X125849370Y-74325000D01*
X125750630Y-74325000D01*
X125655255Y-74350556D01*
X125569745Y-74399925D01*
X125550000Y-74419670D01*
X125550000Y-73557095D01*
X125549999Y-73557094D01*
X125537480Y-73559585D01*
X125373692Y-73627428D01*
X125373683Y-73627433D01*
X125226283Y-73725923D01*
X125226279Y-73725926D01*
X125100926Y-73851279D01*
X125100923Y-73851283D01*
X125002433Y-73998683D01*
X125002428Y-73998692D01*
X124934586Y-74162479D01*
X124934584Y-74162487D01*
X124900000Y-74336353D01*
X122027431Y-74336353D01*
X122000941Y-74272402D01*
X121885977Y-74100345D01*
X121885975Y-74100342D01*
X121739657Y-73954024D01*
X121602107Y-73862117D01*
X121567598Y-73839059D01*
X121376420Y-73759870D01*
X121376412Y-73759868D01*
X121173469Y-73719500D01*
X121173465Y-73719500D01*
X120966535Y-73719500D01*
X120966530Y-73719500D01*
X120763587Y-73759868D01*
X120763579Y-73759870D01*
X120572403Y-73839058D01*
X120400342Y-73954024D01*
X120254024Y-74100342D01*
X120139058Y-74272403D01*
X120059870Y-74463579D01*
X120059868Y-74463587D01*
X120019500Y-74666530D01*
X119019913Y-74666530D01*
X118995925Y-74577007D01*
X118963012Y-74520000D01*
X119654739Y-74520000D01*
X119651684Y-74500714D01*
X119651681Y-74500704D01*
X119595749Y-74328558D01*
X119595747Y-74328552D01*
X119513565Y-74167265D01*
X119407176Y-74020830D01*
X119279169Y-73892823D01*
X119132734Y-73786434D01*
X118971447Y-73704252D01*
X118971441Y-73704250D01*
X118799295Y-73648318D01*
X118799285Y-73648315D01*
X118780000Y-73645260D01*
X118780000Y-74336988D01*
X118722993Y-74304075D01*
X118595826Y-74270000D01*
X118464174Y-74270000D01*
X118337007Y-74304075D01*
X118280000Y-74336988D01*
X118280000Y-73645260D01*
X118260714Y-73648315D01*
X118260704Y-73648318D01*
X118088558Y-73704250D01*
X118088552Y-73704252D01*
X117927265Y-73786434D01*
X117780830Y-73892823D01*
X117652823Y-74020830D01*
X117546434Y-74167265D01*
X117464252Y-74328552D01*
X117464250Y-74328558D01*
X117408318Y-74500704D01*
X117408315Y-74500714D01*
X117405261Y-74520000D01*
X117011353Y-74520000D01*
X117000130Y-74463580D01*
X116920941Y-74272402D01*
X116805977Y-74100345D01*
X116805975Y-74100342D01*
X116659657Y-73954024D01*
X116522107Y-73862117D01*
X116487598Y-73839059D01*
X116296420Y-73759870D01*
X116296412Y-73759868D01*
X116093469Y-73719500D01*
X116093465Y-73719500D01*
X115886535Y-73719500D01*
X115886530Y-73719500D01*
X115683587Y-73759868D01*
X115683579Y-73759870D01*
X115492403Y-73839058D01*
X115320342Y-73954024D01*
X115174024Y-74100342D01*
X115059058Y-74272403D01*
X114979870Y-74463579D01*
X114979868Y-74463587D01*
X114939500Y-74666530D01*
X114500499Y-74666530D01*
X114460130Y-74463580D01*
X114380941Y-74272402D01*
X114265977Y-74100345D01*
X114265975Y-74100342D01*
X114119657Y-73954024D01*
X113982107Y-73862117D01*
X113947598Y-73839059D01*
X113756420Y-73759870D01*
X113756412Y-73759868D01*
X113553469Y-73719500D01*
X113553465Y-73719500D01*
X113346535Y-73719500D01*
X113346530Y-73719500D01*
X113143587Y-73759868D01*
X113143579Y-73759870D01*
X112952403Y-73839058D01*
X112780342Y-73954024D01*
X112634024Y-74100342D01*
X112519058Y-74272403D01*
X112439870Y-74463579D01*
X112439868Y-74463587D01*
X112399500Y-74666530D01*
X111960499Y-74666530D01*
X111920130Y-74463580D01*
X111840941Y-74272402D01*
X111725977Y-74100345D01*
X111725975Y-74100342D01*
X111579657Y-73954024D01*
X111442107Y-73862117D01*
X111407598Y-73839059D01*
X111216420Y-73759870D01*
X111216412Y-73759868D01*
X111013469Y-73719500D01*
X111013465Y-73719500D01*
X110806535Y-73719500D01*
X110806530Y-73719500D01*
X110603587Y-73759868D01*
X110603579Y-73759870D01*
X110412403Y-73839058D01*
X110240342Y-73954024D01*
X110094024Y-74100342D01*
X109979058Y-74272403D01*
X109899870Y-74463579D01*
X109899868Y-74463587D01*
X109859500Y-74666530D01*
X109420500Y-74666530D01*
X109420500Y-73900249D01*
X109420499Y-73900247D01*
X109408868Y-73841770D01*
X109408867Y-73841769D01*
X109364552Y-73775447D01*
X109298230Y-73731132D01*
X109298229Y-73731131D01*
X109239752Y-73719500D01*
X109239748Y-73719500D01*
X107500252Y-73719500D01*
X107500247Y-73719500D01*
X107441770Y-73731131D01*
X107441769Y-73731132D01*
X107375447Y-73775447D01*
X107331132Y-73841769D01*
X107331131Y-73841770D01*
X107319500Y-73900247D01*
X104789951Y-73900247D01*
X104817246Y-73816243D01*
X104850500Y-73606287D01*
X104850500Y-73393713D01*
X160149500Y-73393713D01*
X160149500Y-73606287D01*
X160152849Y-73627433D01*
X160178032Y-73786434D01*
X160182754Y-73816243D01*
X160239308Y-73990298D01*
X160248444Y-74018414D01*
X160344951Y-74207820D01*
X160469890Y-74379786D01*
X160620213Y-74530109D01*
X160792179Y-74655048D01*
X160792181Y-74655049D01*
X160792184Y-74655051D01*
X160981588Y-74751557D01*
X161183757Y-74817246D01*
X161393713Y-74850500D01*
X161393714Y-74850500D01*
X161606286Y-74850500D01*
X161606287Y-74850500D01*
X161816243Y-74817246D01*
X162018412Y-74751557D01*
X162207816Y-74655051D01*
X162229789Y-74639086D01*
X162379786Y-74530109D01*
X162379788Y-74530106D01*
X162379792Y-74530104D01*
X162530104Y-74379792D01*
X162530106Y-74379788D01*
X162530109Y-74379786D01*
X162655048Y-74207820D01*
X162655047Y-74207820D01*
X162655051Y-74207816D01*
X162751557Y-74018412D01*
X162817246Y-73816243D01*
X162850500Y-73606287D01*
X162850500Y-73393713D01*
X162817246Y-73183757D01*
X162751557Y-72981588D01*
X162655051Y-72792184D01*
X162655049Y-72792181D01*
X162655048Y-72792179D01*
X162530109Y-72620213D01*
X162379786Y-72469890D01*
X162207820Y-72344951D01*
X162018414Y-72248444D01*
X162018413Y-72248443D01*
X162018412Y-72248443D01*
X161816243Y-72182754D01*
X161816241Y-72182753D01*
X161816240Y-72182753D01*
X161654957Y-72157208D01*
X161606287Y-72149500D01*
X161393713Y-72149500D01*
X161345042Y-72157208D01*
X161183760Y-72182753D01*
X160981585Y-72248444D01*
X160792179Y-72344951D01*
X160620213Y-72469890D01*
X160469890Y-72620213D01*
X160344951Y-72792179D01*
X160248444Y-72981585D01*
X160182753Y-73183760D01*
X160173825Y-73240129D01*
X160149500Y-73393713D01*
X104850500Y-73393713D01*
X104817246Y-73183757D01*
X104751557Y-72981588D01*
X104655051Y-72792184D01*
X104655049Y-72792181D01*
X104655048Y-72792179D01*
X104530109Y-72620213D01*
X104379786Y-72469890D01*
X104207820Y-72344951D01*
X104018414Y-72248444D01*
X104018413Y-72248443D01*
X104018412Y-72248443D01*
X103816243Y-72182754D01*
X103816241Y-72182753D01*
X103816240Y-72182753D01*
X103654957Y-72157208D01*
X103606287Y-72149500D01*
X103393713Y-72149500D01*
X103345042Y-72157208D01*
X103183760Y-72182753D01*
X102981585Y-72248444D01*
X102792179Y-72344951D01*
X102620213Y-72469890D01*
X102469890Y-72620213D01*
X102344951Y-72792179D01*
X102248444Y-72981585D01*
X102182753Y-73183760D01*
X102173825Y-73240129D01*
X102149500Y-73393713D01*
X100500000Y-73393713D01*
X100500000Y-72126530D01*
X107319500Y-72126530D01*
X107319500Y-72333469D01*
X107359868Y-72536412D01*
X107359870Y-72536420D01*
X107439058Y-72727596D01*
X107554024Y-72899657D01*
X107700342Y-73045975D01*
X107700345Y-73045977D01*
X107872402Y-73160941D01*
X108063580Y-73240130D01*
X108199792Y-73267224D01*
X108266530Y-73280499D01*
X108266534Y-73280500D01*
X108266535Y-73280500D01*
X108473466Y-73280500D01*
X108473467Y-73280499D01*
X108676420Y-73240130D01*
X108867598Y-73160941D01*
X109039655Y-73045977D01*
X109185977Y-72899655D01*
X109300941Y-72727598D01*
X109380130Y-72536420D01*
X109420500Y-72333465D01*
X109420500Y-72126535D01*
X109420499Y-72126530D01*
X109859500Y-72126530D01*
X109859500Y-72333469D01*
X109899868Y-72536412D01*
X109899870Y-72536420D01*
X109979058Y-72727596D01*
X110094024Y-72899657D01*
X110240342Y-73045975D01*
X110240345Y-73045977D01*
X110412402Y-73160941D01*
X110603580Y-73240130D01*
X110739792Y-73267224D01*
X110806530Y-73280499D01*
X110806534Y-73280500D01*
X110806535Y-73280500D01*
X111013466Y-73280500D01*
X111013467Y-73280499D01*
X111216420Y-73240130D01*
X111407598Y-73160941D01*
X111579655Y-73045977D01*
X111725977Y-72899655D01*
X111840941Y-72727598D01*
X111920130Y-72536420D01*
X111931353Y-72480000D01*
X111943537Y-72418748D01*
X111960499Y-72333469D01*
X111960500Y-72333466D01*
X111960500Y-72131943D01*
X111960500Y-72126535D01*
X111931353Y-71980000D01*
X112325261Y-71980000D01*
X113016988Y-71980000D01*
X112984075Y-72037007D01*
X112950000Y-72164174D01*
X112950000Y-72295826D01*
X112984075Y-72422993D01*
X113016988Y-72480000D01*
X112325261Y-72480000D01*
X112328315Y-72499285D01*
X112328318Y-72499295D01*
X112384250Y-72671441D01*
X112384252Y-72671447D01*
X112466434Y-72832734D01*
X112572823Y-72979169D01*
X112700830Y-73107176D01*
X112847265Y-73213565D01*
X113008552Y-73295747D01*
X113008555Y-73295748D01*
X113180699Y-73351680D01*
X113180712Y-73351683D01*
X113200000Y-73354738D01*
X113200000Y-72663012D01*
X113257007Y-72695925D01*
X113384174Y-72730000D01*
X113515826Y-72730000D01*
X113642993Y-72695925D01*
X113700000Y-72663012D01*
X113700000Y-73354737D01*
X113719287Y-73351683D01*
X113719300Y-73351680D01*
X113891444Y-73295748D01*
X113891447Y-73295747D01*
X114052734Y-73213565D01*
X114199169Y-73107176D01*
X114327176Y-72979169D01*
X114433565Y-72832734D01*
X114515747Y-72671447D01*
X114515749Y-72671441D01*
X114571681Y-72499295D01*
X114571684Y-72499285D01*
X114574739Y-72480000D01*
X113883012Y-72480000D01*
X113915925Y-72422993D01*
X113950000Y-72295826D01*
X113950000Y-72164174D01*
X113939913Y-72126530D01*
X114939500Y-72126530D01*
X114939500Y-72333469D01*
X114979868Y-72536412D01*
X114979870Y-72536420D01*
X115059058Y-72727596D01*
X115174024Y-72899657D01*
X115320342Y-73045975D01*
X115320345Y-73045977D01*
X115492402Y-73160941D01*
X115683580Y-73240130D01*
X115819792Y-73267224D01*
X115886530Y-73280499D01*
X115886534Y-73280500D01*
X115886535Y-73280500D01*
X116093466Y-73280500D01*
X116093467Y-73280499D01*
X116296420Y-73240130D01*
X116487598Y-73160941D01*
X116659655Y-73045977D01*
X116805977Y-72899655D01*
X116920941Y-72727598D01*
X117000130Y-72536420D01*
X117040500Y-72333465D01*
X117040500Y-72126535D01*
X117040499Y-72126530D01*
X117479500Y-72126530D01*
X117479500Y-72333469D01*
X117519868Y-72536412D01*
X117519870Y-72536420D01*
X117599058Y-72727596D01*
X117714024Y-72899657D01*
X117860342Y-73045975D01*
X117860345Y-73045977D01*
X118032402Y-73160941D01*
X118223580Y-73240130D01*
X118359792Y-73267224D01*
X118426530Y-73280499D01*
X118426534Y-73280500D01*
X118426535Y-73280500D01*
X118633466Y-73280500D01*
X118633467Y-73280499D01*
X118836420Y-73240130D01*
X119027598Y-73160941D01*
X119199655Y-73045977D01*
X119345977Y-72899655D01*
X119460941Y-72727598D01*
X119540130Y-72536420D01*
X119580500Y-72333465D01*
X119580500Y-72126535D01*
X119580499Y-72126530D01*
X120019500Y-72126530D01*
X120019500Y-72333469D01*
X120059868Y-72536412D01*
X120059870Y-72536420D01*
X120139058Y-72727596D01*
X120254024Y-72899657D01*
X120400342Y-73045975D01*
X120400345Y-73045977D01*
X120572402Y-73160941D01*
X120763580Y-73240130D01*
X120899792Y-73267224D01*
X120966530Y-73280499D01*
X120966534Y-73280500D01*
X120966535Y-73280500D01*
X121173466Y-73280500D01*
X121173467Y-73280499D01*
X121192310Y-73276751D01*
X121240211Y-73267224D01*
X121303911Y-73254552D01*
X121376420Y-73240130D01*
X121567598Y-73160941D01*
X121739655Y-73045977D01*
X121885977Y-72899655D01*
X122000941Y-72727598D01*
X122080130Y-72536420D01*
X122120500Y-72333465D01*
X122120500Y-72126535D01*
X122080130Y-71923580D01*
X122000941Y-71732402D01*
X121885977Y-71560345D01*
X121885975Y-71560342D01*
X121739657Y-71414024D01*
X121623332Y-71336299D01*
X121567598Y-71299059D01*
X121376420Y-71219870D01*
X121376412Y-71219868D01*
X121173469Y-71179500D01*
X121173465Y-71179500D01*
X120966535Y-71179500D01*
X120966530Y-71179500D01*
X120763587Y-71219868D01*
X120763579Y-71219870D01*
X120572403Y-71299058D01*
X120400342Y-71414024D01*
X120254024Y-71560342D01*
X120139058Y-71732403D01*
X120059870Y-71923579D01*
X120059868Y-71923587D01*
X120019500Y-72126530D01*
X119580499Y-72126530D01*
X119540130Y-71923580D01*
X119460941Y-71732402D01*
X119345977Y-71560345D01*
X119345975Y-71560342D01*
X119199657Y-71414024D01*
X119083332Y-71336299D01*
X119027598Y-71299059D01*
X118836420Y-71219870D01*
X118836412Y-71219868D01*
X118633469Y-71179500D01*
X118633465Y-71179500D01*
X118426535Y-71179500D01*
X118426530Y-71179500D01*
X118223587Y-71219868D01*
X118223579Y-71219870D01*
X118032403Y-71299058D01*
X117860342Y-71414024D01*
X117714024Y-71560342D01*
X117599058Y-71732403D01*
X117519870Y-71923579D01*
X117519868Y-71923587D01*
X117479500Y-72126530D01*
X117040499Y-72126530D01*
X117000130Y-71923580D01*
X116920941Y-71732402D01*
X116805977Y-71560345D01*
X116805975Y-71560342D01*
X116659657Y-71414024D01*
X116543332Y-71336299D01*
X116487598Y-71299059D01*
X116296420Y-71219870D01*
X116296412Y-71219868D01*
X116093469Y-71179500D01*
X116093465Y-71179500D01*
X115886535Y-71179500D01*
X115886530Y-71179500D01*
X115683587Y-71219868D01*
X115683579Y-71219870D01*
X115492403Y-71299058D01*
X115320342Y-71414024D01*
X115174024Y-71560342D01*
X115059058Y-71732403D01*
X114979870Y-71923579D01*
X114979868Y-71923587D01*
X114939500Y-72126530D01*
X113939913Y-72126530D01*
X113915925Y-72037007D01*
X113883012Y-71980000D01*
X114574739Y-71980000D01*
X114571684Y-71960714D01*
X114571681Y-71960704D01*
X114515749Y-71788558D01*
X114515747Y-71788552D01*
X114433565Y-71627265D01*
X114327176Y-71480830D01*
X114199169Y-71352823D01*
X114052734Y-71246434D01*
X113891447Y-71164252D01*
X113891441Y-71164250D01*
X113719295Y-71108318D01*
X113719285Y-71108315D01*
X113700000Y-71105260D01*
X113700000Y-71796988D01*
X113642993Y-71764075D01*
X113515826Y-71730000D01*
X113384174Y-71730000D01*
X113257007Y-71764075D01*
X113200000Y-71796988D01*
X113200000Y-71105260D01*
X113180714Y-71108315D01*
X113180704Y-71108318D01*
X113008558Y-71164250D01*
X113008552Y-71164252D01*
X112847265Y-71246434D01*
X112700830Y-71352823D01*
X112572823Y-71480830D01*
X112466434Y-71627265D01*
X112384252Y-71788552D01*
X112384250Y-71788558D01*
X112328318Y-71960704D01*
X112328315Y-71960714D01*
X112325261Y-71980000D01*
X111931353Y-71980000D01*
X111920130Y-71923580D01*
X111840941Y-71732402D01*
X111725977Y-71560345D01*
X111725975Y-71560342D01*
X111579657Y-71414024D01*
X111463332Y-71336299D01*
X111407598Y-71299059D01*
X111216420Y-71219870D01*
X111216412Y-71219868D01*
X111013469Y-71179500D01*
X111013465Y-71179500D01*
X110806535Y-71179500D01*
X110806530Y-71179500D01*
X110603587Y-71219868D01*
X110603579Y-71219870D01*
X110412403Y-71299058D01*
X110240342Y-71414024D01*
X110094024Y-71560342D01*
X109979058Y-71732403D01*
X109899870Y-71923579D01*
X109899868Y-71923587D01*
X109859500Y-72126530D01*
X109420499Y-72126530D01*
X109380130Y-71923580D01*
X109300941Y-71732402D01*
X109185977Y-71560345D01*
X109185975Y-71560342D01*
X109039657Y-71414024D01*
X108923332Y-71336299D01*
X108867598Y-71299059D01*
X108676420Y-71219870D01*
X108676412Y-71219868D01*
X108473469Y-71179500D01*
X108473465Y-71179500D01*
X108266535Y-71179500D01*
X108266530Y-71179500D01*
X108063587Y-71219868D01*
X108063579Y-71219870D01*
X107872403Y-71299058D01*
X107700342Y-71414024D01*
X107554024Y-71560342D01*
X107439058Y-71732403D01*
X107359870Y-71923579D01*
X107359868Y-71923587D01*
X107319500Y-72126530D01*
X100500000Y-72126530D01*
X100500000Y-72051362D01*
X100519685Y-71984323D01*
X100536319Y-71963681D01*
X101963681Y-70536319D01*
X102025004Y-70502834D01*
X102051362Y-70500000D01*
X162948638Y-70500000D01*
X163015677Y-70519685D01*
G37*
G04 #@! TD.AperFunction*
M02*
