G04 #@! TF.GenerationSoftware,KiCad,Pcbnew,9.0.6-9.0.6~ubuntu24.04.1*
G04 #@! TF.CreationDate,2026-03-07T17:58:34-05:00*
G04 #@! TF.ProjectId,gripper_hat,67726970-7065-4725-9f68-61742e6b6963,rev?*
G04 #@! TF.SameCoordinates,Original*
G04 #@! TF.FileFunction,Paste,Top*
G04 #@! TF.FilePolarity,Positive*
%FSLAX46Y46*%
G04 Gerber Fmt 4.6, Leading zero omitted, Abs format (unit mm)*
G04 Created by KiCad (PCBNEW 9.0.6-9.0.6~ubuntu24.04.1) date 2026-03-07 17:58:34*
%MOMM*%
%LPD*%
G01*
G04 APERTURE LIST*
G04 Aperture macros list*
%AMRoundRect*
0 Rectangle with rounded corners*
0 $1 Rounding radius*
0 $2 $3 $4 $5 $6 $7 $8 $9 X,Y pos of 4 corners*
0 Add a 4 corners polygon primitive as box body*
4,1,4,$2,$3,$4,$5,$6,$7,$8,$9,$2,$3,0*
0 Add four circle primitives for the rounded corners*
1,1,$1+$1,$2,$3*
1,1,$1+$1,$4,$5*
1,1,$1+$1,$6,$7*
1,1,$1+$1,$8,$9*
0 Add four rect primitives between the rounded corners*
20,1,$1+$1,$2,$3,$4,$5,0*
20,1,$1+$1,$4,$5,$6,$7,0*
20,1,$1+$1,$6,$7,$8,$9,0*
20,1,$1+$1,$8,$9,$2,$3,0*%
G04 Aperture macros list end*
%ADD10RoundRect,0.200000X0.275000X-0.200000X0.275000X0.200000X-0.275000X0.200000X-0.275000X-0.200000X0*%
%ADD11RoundRect,0.150000X-0.512500X-0.150000X0.512500X-0.150000X0.512500X0.150000X-0.512500X0.150000X0*%
%ADD12R,1.100000X0.250000*%
%ADD13RoundRect,0.150000X0.150000X0.625000X-0.150000X0.625000X-0.150000X-0.625000X0.150000X-0.625000X0*%
%ADD14RoundRect,0.250000X0.350000X0.650000X-0.350000X0.650000X-0.350000X-0.650000X0.350000X-0.650000X0*%
%ADD15RoundRect,0.250000X-0.650000X0.325000X-0.650000X-0.325000X0.650000X-0.325000X0.650000X0.325000X0*%
%ADD16RoundRect,0.200000X0.200000X0.275000X-0.200000X0.275000X-0.200000X-0.275000X0.200000X-0.275000X0*%
%ADD17RoundRect,0.250000X-0.325000X-0.650000X0.325000X-0.650000X0.325000X0.650000X-0.325000X0.650000X0*%
%ADD18RoundRect,0.249999X3.500001X-0.850001X3.500001X0.850001X-3.500001X0.850001X-3.500001X-0.850001X0*%
%ADD19RoundRect,0.250000X0.550000X-1.500000X0.550000X1.500000X-0.550000X1.500000X-0.550000X-1.500000X0*%
%ADD20RoundRect,0.200000X-0.200000X-0.275000X0.200000X-0.275000X0.200000X0.275000X-0.200000X0.275000X0*%
%ADD21RoundRect,0.150000X0.150000X-0.512500X0.150000X0.512500X-0.150000X0.512500X-0.150000X-0.512500X0*%
%ADD22RoundRect,0.250000X0.325000X0.650000X-0.325000X0.650000X-0.325000X-0.650000X0.325000X-0.650000X0*%
%ADD23RoundRect,0.225000X-0.225000X-0.250000X0.225000X-0.250000X0.225000X0.250000X-0.225000X0.250000X0*%
%ADD24RoundRect,0.225000X0.225000X0.250000X-0.225000X0.250000X-0.225000X-0.250000X0.225000X-0.250000X0*%
%ADD25RoundRect,0.225000X0.250000X-0.225000X0.250000X0.225000X-0.250000X0.225000X-0.250000X-0.225000X0*%
%ADD26RoundRect,0.250001X0.499999X0.899999X-0.499999X0.899999X-0.499999X-0.899999X0.499999X-0.899999X0*%
%ADD27RoundRect,0.175000X0.175000X1.675000X-0.175000X1.675000X-0.175000X-1.675000X0.175000X-1.675000X0*%
%ADD28RoundRect,0.150000X0.587500X0.150000X-0.587500X0.150000X-0.587500X-0.150000X0.587500X-0.150000X0*%
%ADD29RoundRect,0.150000X-0.625000X0.150000X-0.625000X-0.150000X0.625000X-0.150000X0.625000X0.150000X0*%
%ADD30RoundRect,0.250000X-0.650000X0.350000X-0.650000X-0.350000X0.650000X-0.350000X0.650000X0.350000X0*%
%ADD31RoundRect,0.200000X-0.275000X0.200000X-0.275000X-0.200000X0.275000X-0.200000X0.275000X0.200000X0*%
%ADD32RoundRect,0.075000X-0.350000X-0.075000X0.350000X-0.075000X0.350000X0.075000X-0.350000X0.075000X0*%
%ADD33RoundRect,0.075000X0.075000X-0.350000X0.075000X0.350000X-0.075000X0.350000X-0.075000X-0.350000X0*%
%ADD34RoundRect,0.250000X-1.500000X-0.550000X1.500000X-0.550000X1.500000X0.550000X-1.500000X0.550000X0*%
%ADD35RoundRect,0.218750X0.256250X-0.218750X0.256250X0.218750X-0.256250X0.218750X-0.256250X-0.218750X0*%
G04 APERTURE END LIST*
D10*
X152400000Y-90925000D03*
X152400000Y-89275000D03*
D11*
X145862500Y-78550000D03*
X145862500Y-79500000D03*
X145862500Y-80450000D03*
X148137500Y-80450000D03*
X148137500Y-79500000D03*
X148137500Y-78550000D03*
D12*
X116200000Y-90100000D03*
X116200000Y-89600000D03*
X116200000Y-89100000D03*
X116200000Y-88600000D03*
X116200000Y-88100000D03*
X111900000Y-88100000D03*
X111900000Y-88600000D03*
X111900000Y-89100000D03*
X111900000Y-89600000D03*
X111900000Y-90100000D03*
D13*
X112700000Y-93400000D03*
X111700000Y-93400000D03*
D14*
X114000000Y-95925000D03*
X110400000Y-95925000D03*
D15*
X136900000Y-92925000D03*
X136900000Y-95875000D03*
D16*
X126725000Y-92200000D03*
X125075000Y-92200000D03*
D15*
X150000000Y-72025000D03*
X150000000Y-74975000D03*
D17*
X146425000Y-82800000D03*
X149375000Y-82800000D03*
D18*
X139000000Y-80600000D03*
X139000000Y-74600000D03*
D19*
X132400000Y-89700000D03*
X132400000Y-84300000D03*
D20*
X121775000Y-92200000D03*
X123425000Y-92200000D03*
D21*
X122600000Y-89000000D03*
X123550000Y-89000000D03*
X124500000Y-89000000D03*
X124500000Y-86725000D03*
X122600000Y-86725000D03*
D15*
X134300000Y-92900000D03*
X134300000Y-95850000D03*
X139500000Y-92925000D03*
X139500000Y-95875000D03*
D10*
X126200000Y-82850000D03*
X126200000Y-81200000D03*
D22*
X145475000Y-93200000D03*
X142525000Y-93200000D03*
D23*
X119050000Y-83400000D03*
X120600000Y-83400000D03*
D10*
X117900000Y-95250000D03*
X117900000Y-93600000D03*
D16*
X119925000Y-90700000D03*
X118275000Y-90700000D03*
D24*
X114450000Y-85400000D03*
X112900000Y-85400000D03*
D23*
X107750000Y-88700000D03*
X109300000Y-88700000D03*
D25*
X151400000Y-82025000D03*
X151400000Y-80475000D03*
D26*
X146200000Y-97200000D03*
X151800000Y-97200000D03*
D27*
X148250000Y-95100000D03*
X149750000Y-95100000D03*
D25*
X154100000Y-90900000D03*
X154100000Y-89350000D03*
D15*
X147400000Y-72025000D03*
X147400000Y-74975000D03*
D16*
X119325000Y-97200000D03*
X117675000Y-97200000D03*
D20*
X152375000Y-92500000D03*
X154025000Y-92500000D03*
D28*
X120137500Y-87950000D03*
X120137500Y-86050000D03*
X118262500Y-87000000D03*
D21*
X122400000Y-83500000D03*
X123350000Y-83500000D03*
X124300000Y-83500000D03*
X124300000Y-81225000D03*
X122400000Y-81225000D03*
D25*
X151400000Y-78900000D03*
X151400000Y-77350000D03*
D29*
X105500000Y-83250000D03*
X105500000Y-84250000D03*
X105500000Y-85250000D03*
X105500000Y-86250000D03*
D30*
X101625000Y-81950000D03*
X101625000Y-87550000D03*
D31*
X153100000Y-77200000D03*
X153100000Y-78850000D03*
X131800000Y-74462500D03*
X131800000Y-76112500D03*
D15*
X144800000Y-72025000D03*
X144800000Y-74975000D03*
D32*
X110700000Y-80600000D03*
X110700000Y-81100000D03*
X110700000Y-81600000D03*
X110700000Y-82100000D03*
X110700000Y-82600000D03*
X110700000Y-83100000D03*
D33*
X111400000Y-83800000D03*
X111900000Y-83800000D03*
X112400000Y-83800000D03*
X112900000Y-83800000D03*
X113400000Y-83800000D03*
X113900000Y-83800000D03*
D32*
X114600000Y-83100000D03*
X114600000Y-82600000D03*
X114600000Y-82100000D03*
X114600000Y-81600000D03*
X114600000Y-81100000D03*
X114600000Y-80600000D03*
D33*
X113900000Y-79900000D03*
X113400000Y-79900000D03*
X112900000Y-79900000D03*
X112400000Y-79900000D03*
X111900000Y-79900000D03*
X111400000Y-79900000D03*
D34*
X157000000Y-86900000D03*
X162400000Y-86900000D03*
D35*
X131800000Y-79287500D03*
X131800000Y-77712500D03*
D23*
X116225000Y-79900000D03*
X117775000Y-79900000D03*
D10*
X153100000Y-82050000D03*
X153100000Y-80400000D03*
D11*
X147725000Y-87950000D03*
X147725000Y-88900000D03*
X147725000Y-89850000D03*
X150000000Y-89850000D03*
X150000000Y-88900000D03*
X150000000Y-87950000D03*
D10*
X126600000Y-88850000D03*
X126600000Y-87200000D03*
D18*
X141000000Y-90300000D03*
X141000000Y-84300000D03*
D24*
X150675000Y-86200000D03*
X149125000Y-86200000D03*
M02*
