G04 #@! TF.GenerationSoftware,KiCad,Pcbnew,9.0.9-9.0.9~ubuntu24.04.1*
G04 #@! TF.CreationDate,2026-06-15T11:45:49-04:00*
G04 #@! TF.ProjectId,anchor_hat,616e6368-6f72-45f6-9861-742e6b696361,rev?*
G04 #@! TF.SameCoordinates,Original*
G04 #@! TF.FileFunction,Soldermask,Bot*
G04 #@! TF.FilePolarity,Negative*
%FSLAX46Y46*%
G04 Gerber Fmt 4.6, Leading zero omitted, Abs format (unit mm)*
G04 Created by KiCad (PCBNEW 9.0.9-9.0.9~ubuntu24.04.1) date 2026-06-15 11:45:49*
%MOMM*%
%LPD*%
G01*
G04 APERTURE LIST*
G04 Aperture macros list*
%AMRoundRect*
0 Rectangle with rounded corners*
0 $1 Rounding radius*
0 $2 $3 $4 $5 $6 $7 $8 $9 X,Y pos of 4 corners*
0 Add a 4 corners polygon primitive as box body*
4,1,4,$2,$3,$4,$5,$6,$7,$8,$9,$2,$3,0*
0 Add four circle primitives for the rounded corners*
1,1,$1+$1,$2,$3*
1,1,$1+$1,$4,$5*
1,1,$1+$1,$6,$7*
1,1,$1+$1,$8,$9*
0 Add four rect primitives between the rounded corners*
20,1,$1+$1,$2,$3,$4,$5,0*
20,1,$1+$1,$4,$5,$6,$7,0*
20,1,$1+$1,$6,$7,$8,$9,0*
20,1,$1+$1,$8,$9,$2,$3,0*%
G04 Aperture macros list end*
%ADD10R,1.700000X1.700000*%
%ADD11C,1.700000*%
%ADD12C,2.700000*%
%ADD13C,2.800000*%
%ADD14C,1.520000*%
%ADD15R,1.500000X1.500000*%
%ADD16C,1.500000*%
%ADD17RoundRect,0.250000X-0.350000X-0.625000X0.350000X-0.625000X0.350000X0.625000X-0.350000X0.625000X0*%
%ADD18O,1.200000X1.750000*%
%ADD19R,2.000000X4.000000*%
%ADD20O,2.000000X4.000000*%
%ADD21O,1.700000X1.700000*%
G04 APERTURE END LIST*
D10*
X111475000Y-95015000D03*
D11*
X108935000Y-95015000D03*
D12*
X161500000Y-73500000D03*
D13*
X118080424Y-88020120D03*
X123160424Y-88020120D03*
D14*
X127020424Y-89260120D03*
X127020424Y-91260120D03*
D15*
X141160000Y-80600000D03*
D16*
X146040000Y-80600000D03*
D13*
X142260000Y-88012500D03*
X147340000Y-88012500D03*
D14*
X151200000Y-89252500D03*
X151200000Y-91252500D03*
D17*
X159900000Y-88600000D03*
D18*
X161900000Y-88600000D03*
D19*
X107800000Y-88587500D03*
D20*
X102550000Y-88587500D03*
D12*
X103500000Y-96500000D03*
X103500000Y-73500000D03*
X161500000Y-96500000D03*
D10*
X108370000Y-74770000D03*
D21*
X108370000Y-72230000D03*
X110910000Y-74770000D03*
X110910000Y-72230000D03*
X113450000Y-74770000D03*
X113450000Y-72230000D03*
X115990000Y-74770000D03*
X115990000Y-72230000D03*
X118530000Y-74770000D03*
X118530000Y-72230000D03*
X121070000Y-74770000D03*
X121070000Y-72230000D03*
X123610000Y-74770000D03*
X123610000Y-72230000D03*
X126150000Y-74770000D03*
X126150000Y-72230000D03*
X128690000Y-74770000D03*
X128690000Y-72230000D03*
X131230000Y-74770000D03*
X131230000Y-72230000D03*
X133770000Y-74770000D03*
X133770000Y-72230000D03*
X136310000Y-74770000D03*
X136310000Y-72230000D03*
X138850000Y-74770000D03*
X138850000Y-72230000D03*
X141390000Y-74770000D03*
X141390000Y-72230000D03*
X143930000Y-74770000D03*
X143930000Y-72230000D03*
X146470000Y-74770000D03*
X146470000Y-72230000D03*
X149010000Y-74770000D03*
X149010000Y-72230000D03*
X151550000Y-74770000D03*
X151550000Y-72230000D03*
X154090000Y-74770000D03*
X154090000Y-72230000D03*
X156630000Y-74770000D03*
X156630000Y-72230000D03*
M02*
